<svg width="54" height="50" viewBox="0 0 54 50" fill="none" xmlns="http://www.w3.org/2000/svg">
<g clip-path="url(#clip0_1032_1828)">
<path d="M3.45353 26.9375H0.255859V32.1701H3.45353V26.9375Z" fill="#D2D7F1"/>
<path d="M53.6474 12.8877H50.4497V18.1203H53.6474V12.8877Z" fill="#D2D7F1"/>
<path d="M51.7095 15.7941L22.8335 5.61971C21.5738 5.13522 20.0234 5.61971 19.2482 6.49181L11.3025 16.86L0.837372 30.5228C-0.228519 31.8794 0.159078 33.5267 1.61257 34.205L36.5932 49.612C38.4343 50.3872 40.4692 49.612 41.1474 47.9647L48.1242 31.2011L53.3568 18.7011C53.8412 17.6352 52.9692 16.2786 51.5157 15.7941H51.7095Z" fill="#D2D7F1"/>
<path d="M53.4534 13.4687C53.9379 12.4028 53.0658 11.0462 51.6123 10.5617L22.8333 0.387292C21.5736 -0.0972046 20.0232 0.387291 19.248 1.25938L11.3022 11.6276L48.2209 25.9687L53.4534 13.4687Z" fill="#ED4C5C"/>
<path d="M11.3025 11.6279L0.837372 25.2907C-0.228519 26.6473 0.159078 28.2946 1.61257 28.9729L36.5932 44.3799C38.4343 45.1551 40.4692 44.3799 41.1475 42.7326L48.1242 25.969L11.3025 11.6279Z" fill="#CAD5DD"/>
<g opacity="0.5">
<path d="M2.194 23.4492C1.12811 24.8058 2.4847 26.8407 3.55059 27.8097C7.71726 31.6857 24.0932 38.7593 24.0932 38.7593L2.194 23.4492Z" fill="#333333"/>
</g>
<path d="M11.3022 11.6279C11.3022 11.6279 7.91071 16.376 5.10063 17.6357C2.96885 18.6047 1.70916 17.6357 1.22466 19.1861C-1.48852 28.6822 36.496 44.5737 36.496 44.5737C38.3371 45.3489 40.3719 44.5737 41.0502 42.9264L48.2208 25.969L11.3022 11.6279Z" fill="white"/>
<path d="M53.6474 12.6941C53.9381 11.822 54.1319 11.0468 52.097 10.4654L22.8334 0.387862C20.9923 -0.290432 20.3141 -0.0966341 19.2482 1.25996L16.8257 4.16693L52.097 16.7638L53.5505 12.6941H53.6474Z" fill="#C7D3D8"/>
<path d="M52.0972 16.667V21.9965L53.6476 18.4112L53.7445 11.9189L52.0972 16.667Z" fill="#B3B9DC"/>
<path d="M28.3568 3.97266C29.132 3.97266 29.8103 4.55405 29.8103 5.13545C29.8103 5.71684 29.132 6.29824 28.3568 6.29824C27.5816 6.29824 26.9033 5.71684 26.9033 5.13545C26.9033 4.55405 27.5816 3.97266 28.3568 3.97266Z" fill="#B4BADE"/>
<path d="M41.535 8.7207C42.3102 8.7207 42.9885 9.3021 42.9885 9.88349C42.9885 10.4649 42.3102 11.0463 41.535 11.0463C40.7598 11.0463 40.0815 10.4649 40.0815 9.88349C40.0815 9.3021 40.7598 8.7207 41.535 8.7207Z" fill="#B4BADE"/>
<path d="M29.7132 4.84495L40.7598 8.81781C40.7598 8.81781 41.1474 9.10851 40.9536 10.9496C40.4691 10.9496 40.1784 10.1744 40.1784 10.1744L29.0349 6.10464C29.0349 6.10464 28.8412 5.81394 29.7132 4.74805V4.84495Z" fill="#E8EDEF"/>
<path d="M29.4223 5.3291L40.4688 9.30197C40.4688 9.30197 40.7595 9.68957 40.7595 10.9493C40.3719 10.7555 40.1781 10.3679 40.1781 10.3679L29.0347 6.29809C29.0347 6.29809 28.9378 6.1043 29.3254 5.426L29.4223 5.3291Z" fill="#B3B9DC"/>
<path d="M16.8257 4.45693V4.06934L52.097 16.6662V22.1895H52.0001V16.9569L16.8257 4.45693Z" fill="#B4BADE"/>
<path d="M30.7793 23.6641L25.7422 21.6545L23.9507 23.636C24.0758 23.6718 24.1925 23.7079 24.3009 23.7441C24.4164 23.7831 24.5199 23.8209 24.6116 23.8575C26.199 24.4908 27.3052 25.4658 27.9303 26.7824C28.565 28.0958 28.579 29.46 27.9723 30.875C27.3449 32.3379 26.2497 33.3123 24.6865 33.798C23.1233 34.2837 21.4634 34.1761 19.7068 33.4753C17.5409 32.6112 16.2039 31.0667 15.6957 28.8418L18.1327 28.2449C18.3289 29.1938 18.6225 29.9253 19.0134 30.4393C19.4069 30.9474 19.9811 31.352 20.736 31.6531C21.7236 32.0472 22.6785 32.0841 23.6007 31.7639C24.5306 31.4257 25.1806 30.825 25.5508 29.9616C25.9313 29.0743 25.9108 28.2165 25.4894 27.3884C25.0756 26.5422 24.3714 25.9207 23.3766 25.5239C22.269 25.082 21.137 25.1113 19.9805 25.6118L19.1657 25.2868L24.8686 19.01L31.62 21.7036L30.7793 23.6641Z" fill="black"/>
</g>
<path d="M19.2805 14.1712L24.1328 7.37281L24.1189 13.5762L29.061 9.19091L27.0267 17.0289L25.9351 16.6262L27.1455 12.2508L23.0233 15.9193L23.0324 10.7282L20.3812 14.5773L19.2805 14.1712Z" fill="white"/>
<path d="M33.4282 17.4504L30.4092 16.3366L28.8628 17.7063L27.7164 17.2834L34.5352 11.3088L34.572 19.8125L33.4073 19.3829L33.4282 17.4504ZM33.4386 16.3212L33.4579 13.612L31.2965 15.5309L33.4386 16.3212Z" fill="white"/>
<path d="M37.6151 17.4843L37.0925 12.7541L38.3166 13.2056L38.677 16.5308L41.5457 14.3969L42.7697 14.8485L38.6793 17.8769L37.3261 20.8286L36.2619 20.436L37.6151 17.4843Z" fill="white"/>
<defs>
<clipPath id="clip0_1032_1828">
<rect width="53.4884" height="50" fill="white" transform="translate(0.255859)"/>
</clipPath>
</defs>
</svg>
