<svg width="71" height="52" viewBox="0 0 71 52" fill="none" xmlns="http://www.w3.org/2000/svg">
<g clip-path="url(#clip0_1032_1813)">
<path d="M6.71398 0.320312H64.2864C65.1741 0.320312 65.935 1.08118 65.935 1.96886V40.5196C65.935 41.4073 65.1741 42.1681 64.2864 42.1681H6.71398C5.8263 42.1681 5.06543 41.4073 5.06543 40.5196V1.96886C5.06543 1.08118 5.8263 0.320312 6.71398 0.320312Z" fill="#212528"/>
<path d="M0.5 47.748C0.5 49.6502 2.02174 51.6792 4.05072 51.6792H67.0761C68.8515 51.6792 70.6268 49.777 70.6268 47.748H0.5Z" fill="#212528"/>
<path d="M64.6667 42.168H6.33333L0.5 47.7477H70.5L64.6667 42.168Z" fill="#DDDDDD"/>
<path d="M62.7647 42.5488H8.23567L6.3335 44.9582H64.6668L62.7647 42.5488Z" fill="#BFBEBE"/>
<path d="M41.5871 45.9727H29.54L28.6523 47.2408H42.4748L41.5871 45.9727Z" fill="#212528"/>
<path d="M62.384 3.87109H8.74268V38.6175H62.384V3.87109Z" fill="#F5F6FF"/>
<path d="M35.5 1.20801C35.5 1.20801 36.3877 1.58844 36.3877 2.09569C36.3877 2.60294 36.0072 2.98337 35.5 2.98337C34.9927 2.98337 34.6123 2.60294 34.6123 2.09569C34.6123 1.58844 34.9927 1.20801 35.5 1.20801Z" fill="#DDDDDD"/>
<path d="M40.5724 50.2839H30.5542C30.5542 50.2839 29.2861 50.2839 29.2861 49.1426H41.8405C41.8405 50.2839 40.9528 50.2839 40.5724 50.2839Z" fill="#3E4347"/>
<rect x="11.5962" y="14.0156" width="47.9348" height="17.1196" rx="4" fill="#748AFF"/>
<path d="M31.8945 24.3779H29.3994V23.3047H31.3545V22.7715H27.6152V21.876H31.2109V19.9619H26.959V20.4951H30.5684V21.3564H26.9727V23.3047H28.7568V24.3779H26.2891V24.9248H31.8945V24.3779ZM37.1924 20.1533H32.9404V20.6865H36.5498V20.8096C36.5498 21.582 36.5498 22.481 36.3037 23.708L36.9668 23.7695C37.1924 22.4604 37.1924 21.6025 37.1924 20.8096V20.1533ZM32.3389 24.7881H37.9238V24.248H32.3389V24.7881ZM43.4678 19.5381H42.8184V23.9883H43.4678V19.5381ZM38.5117 21.4658C38.5151 22.3647 39.2192 22.9902 40.1455 22.9902C41.0684 22.9902 41.7725 22.3647 41.7725 21.4658C41.7725 20.5806 41.0684 19.9517 40.1455 19.9482C39.2192 19.9517 38.5151 20.5806 38.5117 21.4658ZM39.1475 21.4658C39.144 20.9019 39.5747 20.5156 40.1455 20.5156C40.7061 20.5156 41.1367 20.9019 41.1367 21.4658C41.1367 22.0435 40.7061 22.4229 40.1455 22.4229C39.5747 22.4229 39.144 22.0435 39.1475 21.4658ZM39.4619 25.5264H43.6523V25H40.1182V23.5371H39.4619V25.5264Z" fill="white"/>
</g>
<defs>
<clipPath id="clip0_1032_1813">
<rect width="70" height="51.3587" fill="white" transform="translate(0.5 0.320312)"/>
</clipPath>
</defs>
</svg>
