<svg width="70" height="52" viewBox="0 0 70 52" fill="none" xmlns="http://www.w3.org/2000/svg">
<g clip-path="url(#clip0_1032_1813)">
<path d="M6.21398 0.320312H63.7864C64.6741 0.320312 65.435 1.08118 65.435 1.96886V40.5196C65.435 41.4073 64.6741 42.1681 63.7864 42.1681H6.21398C5.3263 42.1681 4.56543 41.4073 4.56543 40.5196V1.96886C4.56543 1.08118 5.3263 0.320312 6.21398 0.320312Z" fill="#212528"/>
<path d="M0 47.748C0 49.6502 1.52174 51.6792 3.55072 51.6792H66.5761C68.3515 51.6792 70.1268 49.777 70.1268 47.748H0Z" fill="#212528"/>
<path d="M64.1667 42.168H5.83333L0 47.7477H70L64.1667 42.168Z" fill="#DDDDDD"/>
<path d="M62.2647 42.5488H7.73567L5.8335 44.9582H64.1668L62.2647 42.5488Z" fill="#BFBEBE"/>
<path d="M41.0871 45.9727H29.04L28.1523 47.2408H41.9748L41.0871 45.9727Z" fill="#212528"/>
<path d="M61.884 3.87109H8.24268V38.6175H61.884V3.87109Z" fill="#F5F6FF"/>
<path d="M35 1.20801C35 1.20801 35.8877 1.58844 35.8877 2.09569C35.8877 2.60294 35.5072 2.98337 35 2.98337C34.4927 2.98337 34.1123 2.60294 34.1123 2.09569C34.1123 1.58844 34.4927 1.20801 35 1.20801Z" fill="#DDDDDD"/>
<path d="M40.0724 50.2839H30.0542C30.0542 50.2839 28.7861 50.2839 28.7861 49.1426H41.3405C41.3405 50.2839 40.4528 50.2839 40.0724 50.2839Z" fill="#3E4347"/>
<g filter="url(#filter0_d_1032_1813)">
<rect x="11.0962" y="14.0156" width="47.9348" height="17.1196" rx="4" fill="#748AFF" shape-rendering="crispEdges"/>
<path d="M31.3945 24.3779H28.8994V23.3047H30.8545V22.7715H27.1152V21.876H30.7109V19.9619H26.459V20.4951H30.0684V21.3564H26.4727V23.3047H28.2568V24.3779H25.7891V24.9248H31.3945V24.3779ZM36.6924 20.1533H32.4404V20.6865H36.0498V20.8096C36.0498 21.582 36.0498 22.481 35.8037 23.708L36.4668 23.7695C36.6924 22.4604 36.6924 21.6025 36.6924 20.8096V20.1533ZM31.8389 24.7881H37.4238V24.248H31.8389V24.7881ZM42.9678 19.5381H42.3184V23.9883H42.9678V19.5381ZM38.0117 21.4658C38.0151 22.3647 38.7192 22.9902 39.6455 22.9902C40.5684 22.9902 41.2725 22.3647 41.2725 21.4658C41.2725 20.5806 40.5684 19.9517 39.6455 19.9482C38.7192 19.9517 38.0151 20.5806 38.0117 21.4658ZM38.6475 21.4658C38.644 20.9019 39.0747 20.5156 39.6455 20.5156C40.2061 20.5156 40.6367 20.9019 40.6367 21.4658C40.6367 22.0435 40.2061 22.4229 39.6455 22.4229C39.0747 22.4229 38.644 22.0435 38.6475 21.4658ZM38.9619 25.5264H43.1523V25H39.6182V23.5371H38.9619V25.5264Z" fill="white"/>
</g>
</g>
<defs>
<filter id="filter0_d_1032_1813" x="11.0962" y="14.0156" width="47.9346" height="17.6191" filterUnits="userSpaceOnUse" color-interpolation-filters="sRGB">
<feFlood flood-opacity="0" result="BackgroundImageFix"/>
<feColorMatrix in="SourceAlpha" type="matrix" values="0 0 0 0 0 0 0 0 0 0 0 0 0 0 0 0 0 0 127 0" result="hardAlpha"/>
<feOffset dy="0.5"/>
<feComposite in2="hardAlpha" operator="out"/>
<feColorMatrix type="matrix" values="0 0 0 0 0 0 0 0 0 0 0 0 0 0 0 0 0 0 0.2 0"/>
<feBlend mode="normal" in2="BackgroundImageFix" result="effect1_dropShadow_1032_1813"/>
<feBlend mode="normal" in="SourceGraphic" in2="effect1_dropShadow_1032_1813" result="shape"/>
</filter>
<clipPath id="clip0_1032_1813">
<rect width="70" height="51.3587" fill="white" transform="translate(0 0.320312)"/>
</clipPath>
</defs>
</svg>
