<svg width="71" height="56" viewBox="0 0 71 56" fill="none" xmlns="http://www.w3.org/2000/svg">
<path d="M63.8883 24.9704C60.9802 32.0198 52.9601 35.4418 45.9643 32.6139C38.9707 29.7831 35.6587 21.7778 38.5646 14.7312C41.4699 7.67964 49.4949 4.25702 56.4858 7.08559C63.4789 9.91138 66.7964 17.921 63.8883 24.9704Z" fill="url(#paint0_radial_1235_3901)"/>
<g style="mix-blend-mode:color-burn">
<path d="M56.6226 21.7314C56.9001 21.0955 58.098 17.8167 54.4773 15.6799C52.7149 15.0155 51.4009 15.2104 49.7845 16.3787C50.0267 13.2649 48.3125 12.4259 47.563 12.2155C45.0223 11.4851 38.3486 14.5976 43.8487 24.1269C44.4794 25.1344 44.7001 25.4664 45.2783 26.3421C51.412 25.6162 55.1123 25.1801 56.6176 21.732L56.6226 21.7314Z" fill="#748AFF"/>
</g>
<path d="M4.78303 19.069C6.35348 24.5525 12.0277 27.7685 17.4647 26.2531C22.9003 24.7355 26.0332 19.063 24.4642 13.5817C22.896 8.0968 17.2181 4.87994 11.7848 6.3962C6.35 7.91019 3.21258 13.5854 4.78303 19.069Z" fill="url(#paint1_radial_1235_3901)"/>
<path d="M10.4547 17.2717C10.3018 16.7758 9.68629 14.2382 12.5567 12.9536C13.9223 12.6075 14.8827 12.8625 15.9861 13.8665C16.0672 11.5317 17.4117 11.0519 17.9864 10.9583C19.9362 10.6285 24.6356 13.5015 19.7485 20.1233C19.1952 20.8192 19.0033 21.0475 18.5001 21.6499C14.0019 20.5961 11.2881 19.9617 10.4583 17.2725L10.4547 17.2717Z" fill="#F5F6FF"/>
<path style="mix-blend-mode:multiply" opacity="0.8" d="M3.72579 50.8382C3.72579 53.3879 16.0018 55.4535 31.1459 55.4535C46.2899 55.4535 58.5659 53.3879 58.5659 50.8382C58.5659 48.2885 46.2899 46.2188 31.1459 46.2188C16.0018 46.2188 3.72579 48.2844 3.72579 50.8382Z" fill="url(#paint2_radial_1235_3901)"/>
<path d="M23.3586 48.4635C31.1328 52.9179 41.0442 50.3243 45.5065 42.6631C49.9647 35.0009 47.2796 25.1823 39.5095 20.729C31.7363 16.2706 21.8198 18.8672 17.3625 26.5254C12.9013 34.1826 15.5844 44.0091 23.3586 48.4635Z" fill="url(#paint3_radial_1235_3901)"/>
<path d="M22.9655 32.3548C23.0246 31.5418 23.5716 27.4769 28.5054 27.2345C30.7015 27.5072 31.9616 28.4284 33.0037 30.5272C34.4545 27.1566 36.6959 27.2214 37.5904 27.4124C40.6321 28.0421 45.8706 34.9281 34.9401 41.8309C33.7333 42.5337 33.3222 42.7583 32.242 43.3529C26.2601 39.244 22.6504 36.7673 22.9703 32.3582L22.9655 32.3548Z" fill="#F5F6FF"/>
<path style="mix-blend-mode:overlay" opacity="0.5" d="M29.5376 31.3906C34.1658 28.7868 36.5861 24.3791 34.9482 21.5494C33.3063 18.7188 28.2257 18.534 23.5965 21.1418C18.9684 23.7457 16.543 28.1564 18.1859 30.983C19.8279 33.8137 24.9095 33.9945 29.5376 31.3906Z" fill="url(#paint4_radial_1235_3901)"/>
<defs>
<radialGradient id="paint0_radial_1235_3901" cx="0" cy="0" r="1" gradientUnits="userSpaceOnUse" gradientTransform="translate(46.8476 12.9538) rotate(38.2173) scale(20.9346 21.1995)">
<stop stop-color="#FFE8EB"/>
<stop offset="1" stop-color="#FCBCC4"/>
</radialGradient>
<radialGradient id="paint1_radial_1235_3901" cx="0" cy="0" r="1" gradientUnits="userSpaceOnUse" gradientTransform="translate(12.5784 10.8759) rotate(73.9385) scale(15.2478 15.4407)">
<stop stop-color="#6A82FF"/>
<stop offset="1" stop-color="#07209F"/>
</radialGradient>
<radialGradient id="paint2_radial_1235_3901" cx="0" cy="0" r="1" gradientUnits="userSpaceOnUse" gradientTransform="translate(31.2118 50.6333) scale(24.0492 4.62716)">
<stop stop-color="#07209F"/>
<stop offset="1" stop-color="white" stop-opacity="0"/>
</radialGradient>
<radialGradient id="paint3_radial_1235_3901" cx="0" cy="0" r="1" gradientUnits="userSpaceOnUse" gradientTransform="translate(30.5373 25.0392) rotate(104.012) scale(24.5973 24.9085)">
<stop stop-color="#7B91FF"/>
<stop offset="1" stop-color="#3551E7"/>
</radialGradient>
<radialGradient id="paint4_radial_1235_3901" cx="0" cy="0" r="1" gradientUnits="userSpaceOnUse" gradientTransform="translate(26.169 25.7381) rotate(59.8918) scale(5.59069 9.02144)">
<stop stop-color="white"/>
<stop offset="0.42" stop-color="white" stop-opacity="0.55"/>
<stop offset="0.82" stop-color="white" stop-opacity="0.16"/>
<stop offset="1" stop-color="white" stop-opacity="0"/>
</radialGradient>
</defs>
</svg>
