<svg width="105" height="36" viewBox="0 0 105 36" fill="none" xmlns="http://www.w3.org/2000/svg">
<path d="M0 22.9079C0 21.2071 0.343149 19.6181 1.02945 18.1411C1.71574 16.6641 2.67059 15.381 3.89399 14.2919C5.11739 13.2027 6.57204 12.3449 8.25795 11.7182C9.94385 11.0916 11.7864 10.7783 13.7856 10.7783C15.7848 10.7783 17.5826 11.0842 19.2686 11.6959C20.9545 12.3076 22.4166 13.158 23.6549 14.2471C24.8932 15.3362 25.8555 16.6342 26.5418 18.1411C27.2281 19.648 27.5713 21.3115 27.5713 23.1317C27.5713 24.9519 27.2206 26.6154 26.5194 28.1223C25.8182 29.6291 24.8559 30.9271 23.6325 32.0162C22.4091 33.1054 20.9395 33.9483 19.2238 34.5451C17.508 35.1419 15.6506 35.4403 13.6514 35.4403C11.6521 35.4403 9.8618 35.1419 8.19081 34.5451C6.51983 33.9483 5.08009 33.0979 3.87161 31.9939C2.66313 30.8898 1.71574 29.5694 1.02945 28.0327C0.343149 26.496 0 24.7877 0 22.9079ZM8.54888 22.9974C8.54888 23.7732 8.69062 24.4819 8.97409 25.1234C9.25756 25.765 9.63054 26.3245 10.0931 26.8019C10.5556 27.2793 11.1076 27.6523 11.7491 27.9208C12.3907 28.1894 13.0695 28.3237 13.7856 28.3237C14.5018 28.3237 15.1806 28.1894 15.8221 27.9208C16.4637 27.6523 17.0157 27.2793 17.4782 26.8019C17.9407 26.3245 18.3137 25.765 18.5972 25.1234C18.8806 24.4819 19.0224 23.7881 19.0224 23.0422C19.0224 22.2962 18.8806 21.6472 18.5972 21.0056C18.3137 20.3641 17.9407 19.8046 17.4782 19.3272C17.0157 18.8498 16.4637 18.4768 15.8221 18.2082C15.1806 17.9397 14.5018 17.8054 13.7856 17.8054C13.0695 17.8054 12.3907 17.9397 11.7491 18.2082C11.1076 18.4768 10.5556 18.8498 10.0931 19.3272C9.63054 19.8046 9.25756 20.3566 8.97409 20.9833C8.69062 21.6099 8.54888 22.2813 8.54888 22.9974Z" fill="#3551E7"/>
<path d="M44.6818 16.6464C44.4277 17.1378 43.8245 17.3245 43.314 17.1113C42.1355 16.6192 40.9758 16.3731 39.8351 16.3731C39.0891 16.3731 38.4849 16.5223 38.0224 16.8207C37.5599 17.1191 37.3286 17.5219 37.3286 18.0292C37.3286 18.2978 37.3659 18.5141 37.4405 18.6782C37.5151 18.8423 37.6792 18.999 37.9329 19.1482C38.1865 19.2974 38.5595 19.4316 39.0518 19.551C39.5442 19.6704 40.1932 19.8195 40.9988 19.9986C43.2368 20.4462 44.9077 21.2444 46.0118 22.3932C47.1158 23.542 47.6678 25.0115 47.6678 26.8019C47.6678 28.1446 47.3993 29.3531 46.8622 30.4273C46.3251 31.5015 45.5791 32.4042 44.6243 33.1352C43.6694 33.8663 42.5206 34.4332 41.1779 34.836C39.8351 35.2389 38.3581 35.4403 36.7468 35.4403C33.9341 35.4403 31.9797 34.7172 29.3945 33.271C28.9304 33.0114 28.7623 32.429 29.006 31.9563L31.0064 28.0769C31.282 27.5424 31.9626 27.3729 32.4627 27.7068C34.1513 28.8342 35.241 29.3979 36.9706 29.3979C37.7165 29.3979 38.3282 29.2338 38.8057 28.9055C39.2831 28.5773 39.5218 28.1596 39.5218 27.6523C39.5218 27.3539 39.4845 27.1077 39.4099 26.9138C39.3353 26.7198 39.1786 26.5408 38.9399 26.3767C38.7012 26.2126 38.3506 26.0634 37.8881 25.9291C37.4256 25.7948 36.8214 25.6531 36.0754 25.5039C33.5689 24.9966 31.8159 24.2432 30.8163 23.2436C29.8166 22.244 29.3168 20.8639 29.3168 19.1034C29.3168 17.8203 29.5556 16.6641 30.033 15.6346C30.5104 14.6052 31.1967 13.7324 32.0919 13.0162C32.987 12.3001 34.0687 11.7481 35.3369 11.3602C36.605 10.9723 38.0149 10.7783 39.5666 10.7783C41.7439 10.7783 43.8662 11.1412 45.9336 11.8668C46.4866 12.0609 46.7204 12.7028 46.4513 13.2234L44.6818 16.6464Z" fill="#3551E7"/>
<path d="M48.6678 22.9079C48.6678 21.2071 49.011 19.6181 49.6973 18.1411C50.3836 16.6641 51.3384 15.381 52.5618 14.2919C53.7852 13.2027 55.2399 12.3449 56.9258 11.7182C58.6117 11.0916 60.4543 10.7783 62.4535 10.7783C64.4527 10.7783 66.2505 11.0842 67.9364 11.6959C69.6223 12.3076 71.0844 13.158 72.3227 14.2471C73.5611 15.3362 74.5234 16.6342 75.2097 18.1411C75.896 19.648 76.2391 21.3115 76.2391 23.1317C76.2391 24.9519 75.8885 26.6154 75.1873 28.1223C74.4861 29.6291 73.5238 30.9271 72.3004 32.0162C71.077 33.1054 69.6074 33.9483 67.8916 34.5451C66.1759 35.1419 64.3184 35.4403 62.3192 35.4403C60.32 35.4403 58.5296 35.1419 56.8587 34.5451C55.1877 33.9483 53.7479 33.0979 52.5395 31.9939C51.331 30.8898 50.3836 29.5694 49.6973 28.0327C49.011 26.496 48.6678 24.7877 48.6678 22.9079ZM57.2167 22.9974C57.2167 23.7732 57.3585 24.4819 57.6419 25.1234C57.9254 25.765 58.2984 26.3245 58.7609 26.8019C59.2234 27.2793 59.7754 27.6523 60.417 27.9208C61.0585 28.1894 61.7373 28.3237 62.4535 28.3237C63.1696 28.3237 63.8484 28.1894 64.49 27.9208C65.1315 27.6523 65.6835 27.2793 66.1461 26.8019C66.6086 26.3245 66.9815 25.765 67.265 25.1234C67.5485 24.4819 67.6902 23.7881 67.6902 23.0422C67.6902 22.2962 67.5485 21.6472 67.265 21.0056C66.9815 20.3641 66.6086 19.8046 66.1461 19.3272C65.6835 18.8498 65.1315 18.4768 64.49 18.2082C63.8484 17.9397 63.1696 17.8054 62.4535 17.8054C61.7373 17.8054 61.0585 17.9397 60.417 18.2082C59.7754 18.4768 59.2234 18.8498 58.7609 19.3272C58.2984 19.8046 57.9254 20.3566 57.6419 20.9833C57.3585 21.6099 57.2167 22.2813 57.2167 22.9974Z" fill="#3551E7"/>
<path d="M95.8587 1.57471C95.8587 1.02242 96.3064 0.574707 96.8587 0.574707H103.005C103.557 0.574707 104.005 1.02242 104.005 1.57471V33.7243C104.005 34.2766 103.557 34.7243 103.005 34.7243H96.8587C96.3064 34.7243 95.8587 34.2766 95.8587 33.7243V32.1731C94.128 34.3513 91.7856 35.4404 88.8316 35.4404C87.1606 35.4404 85.6239 35.1271 84.2214 34.5005C82.819 33.8739 81.5956 33.0086 80.5512 31.9045C79.5069 30.8005 78.6938 29.5025 78.1119 28.0105C77.53 26.5186 77.2391 24.9073 77.2391 23.1766C77.2391 21.5354 77.5151 19.9764 78.0671 18.4993C78.6192 17.0223 79.4024 15.7318 80.417 14.6277C81.4315 13.5237 82.6474 12.6509 84.0648 12.0093C85.4821 11.3678 87.0412 11.047 88.7421 11.047C91.6066 11.047 93.9788 12.0466 95.8587 14.0459V1.57471ZM85.6537 23.1766C85.6537 23.9226 85.788 24.6163 86.0565 25.2579C86.3251 25.8994 86.6906 26.4589 87.1531 26.9363C87.6156 27.4137 88.1677 27.7867 88.8092 28.0553C89.4507 28.3238 90.1445 28.4581 90.8905 28.4581C91.6364 28.4581 92.2854 28.3238 92.927 28.0553C93.5685 27.7867 94.1205 27.4137 94.583 26.9363C95.0455 26.4589 95.4185 25.9069 95.702 25.2802C95.9855 24.6536 96.1272 23.9822 96.1272 23.2661C96.1272 22.55 95.9855 21.8711 95.702 21.2296C95.4185 20.5881 95.0455 20.0286 94.583 19.5512C94.1205 19.0737 93.5685 18.7007 92.927 18.4322C92.2854 18.1636 91.6066 18.0294 90.8905 18.0294C90.1743 18.0294 89.4955 18.1636 88.8539 18.4322C88.2124 18.7007 87.6604 19.0737 87.1979 19.5512C86.7354 20.0286 86.3624 20.5731 86.0789 21.1848C85.7954 21.7965 85.6537 22.4605 85.6537 23.1766Z" fill="#3551E7"/>
</svg>
