<svg width="64" height="64" viewBox="0 0 64 64" fill="none" xmlns="http://www.w3.org/2000/svg">
<rect x="0.5" y="0.5" width="63" height="63" rx="31.5" fill="#F5F6FF" stroke="#D9D9D9"/>
<path d="M38.7488 34.1953H36.5613V33.4727H33.2605V32.1445H36.5613V23.9023H38.7488V34.1953ZM23.9246 30.2695C26.1642 30.2695 28.2117 30.2435 30.0672 30.1914C31.9292 30.1393 33.7033 30.0286 35.3895 29.8594L35.5066 31.2266C33.9116 31.4414 32.2775 31.5879 30.6043 31.666V34.2148H28.4559V31.7539C27.4337 31.7799 26.3204 31.793 25.116 31.793H24.159L23.9246 30.2695ZM25.1746 26.832C25.1746 26.3047 25.3569 25.8424 25.7215 25.4453C26.0926 25.0417 26.6134 24.7292 27.284 24.5078C27.9611 24.2865 28.7423 24.1758 29.6277 24.1758C30.4936 24.1758 31.2586 24.2865 31.9227 24.5078C32.5932 24.7292 33.1141 25.0417 33.4852 25.4453C33.8563 25.8424 34.0418 26.3047 34.0418 26.832C34.0418 27.3724 33.8563 27.8411 33.4852 28.2383C33.1141 28.6354 32.5965 28.9414 31.9324 29.1562C31.2684 29.3646 30.5001 29.4688 29.6277 29.4688C28.7358 29.4688 27.9546 29.3646 27.284 29.1562C26.6134 28.9414 26.0926 28.6354 25.7215 28.2383C25.3569 27.8411 25.1746 27.3724 25.1746 26.832ZM26.5027 34.7422H38.7488V38.707H28.7098V39.8398H39.2176V41.3828H26.5809V37.2812H36.6004V36.2266H26.5027V34.7422ZM27.2449 26.832C27.2319 27.1966 27.4337 27.4863 27.8504 27.7012C28.2736 27.916 28.8497 28.0234 29.5789 28.0234C30.3276 28.0234 30.9201 27.9193 31.3563 27.7109C31.7924 27.4961 32.0105 27.2031 32.0105 26.832C32.0105 26.4674 31.799 26.1745 31.3758 25.9531C30.9526 25.7318 30.3829 25.6211 29.6668 25.6211C28.9116 25.6211 28.3159 25.7285 27.8797 25.9434C27.45 26.1582 27.2384 26.4544 27.2449 26.832Z" fill="#D9D9D9"/>
</svg>
