<svg width="164" height="94" viewBox="0 0 164 94" fill="none" xmlns="http://www.w3.org/2000/svg">
<g filter="url(#filter0_d_1032_1791)">
<mask id="path-1-inside-1_1032_1791" fill="white">
<rect x="20" y="10" width="113" height="52" rx="2"/>
</mask>
<rect x="20" y="10" width="113" height="52" rx="2" fill="url(#paint0_linear_1032_1791)" shape-rendering="crispEdges"/>
<path d="M56.3375 38.1953C59.5211 38.1953 61.6891 36.1543 61.6891 33.293C61.6891 30.5781 59.7555 28.6348 57.1578 28.6445C55.9176 28.6348 54.8434 29.1426 54.3258 29.8359H54.2086L54.5992 26.2617H60.8883V23.8594H52.1773L51.4156 32.0039H54.0719C54.4918 31.2129 55.234 30.8125 56.2984 30.8125C57.7828 30.8223 58.8473 31.8672 58.8375 33.3711C58.8473 34.8457 57.8023 35.8809 56.3375 35.8711C55.107 35.8809 54.1012 35.1191 54.0328 34.0156H51.1812C51.2301 36.457 53.3883 38.1953 56.3375 38.1953ZM64.9898 36.8438H62.7711L61.9898 41.2969H63.6461L64.9898 36.8438ZM71.9633 38.1953C75.4984 38.1953 77.6469 35.5781 77.6469 30.9297C77.6469 26.3105 75.4887 23.6641 71.9633 23.6641C68.4379 23.6641 66.2797 26.3105 66.2797 30.9297C66.2797 35.5586 68.4184 38.1953 71.9633 38.1953ZM69.2875 30.9297C69.2875 27.6973 70.3324 26.0762 71.9633 26.0664C73.5941 26.0762 74.6488 27.6973 74.6391 30.9297C74.6488 34.1914 73.6039 35.7734 71.9633 35.7734C70.3227 35.7734 69.268 34.1914 69.2875 30.9297ZM84.1664 38.1953C87.7016 38.1953 89.85 35.5781 89.85 30.9297C89.85 26.3105 87.6918 23.6641 84.1664 23.6641C80.641 23.6641 78.4828 26.3105 78.4828 30.9297C78.4828 35.5586 80.6215 38.1953 84.1664 38.1953ZM81.4906 30.9297C81.4906 27.6973 82.5355 26.0762 84.1664 26.0664C85.7973 26.0762 86.852 27.6973 86.8422 30.9297C86.852 34.1914 85.807 35.7734 84.1664 35.7734C82.5258 35.7734 81.4711 34.1914 81.4906 30.9297ZM96.3695 38.1953C99.9047 38.1953 102.053 35.5781 102.053 30.9297C102.053 26.3105 99.8949 23.6641 96.3695 23.6641C92.8441 23.6641 90.6859 26.3105 90.6859 30.9297C90.6859 35.5586 92.8246 38.1953 96.3695 38.1953ZM93.6937 30.9297C93.6937 27.6973 94.7387 26.0762 96.3695 26.0664C98.0004 26.0762 99.0551 27.6973 99.0453 30.9297C99.0551 34.1914 98.0102 35.7734 96.3695 35.7734C94.7289 35.7734 93.6742 34.1914 93.6937 30.9297Z" fill="#404040"/>
<path d="M63.2432 48.3242H59.835V49.9453H58.7607V48.3242H55.1768V47.4551H63.2432V48.3242ZM56.1533 49.1348H57.2373V50.8145H62.3545V51.6934H56.1533V49.1348ZM56.2021 43.4414H62.208V46.6348H56.2021V43.4414ZM61.1338 45.7852V44.291H57.2568V45.7852H61.1338ZM70.8115 46.6836H72.0518V47.5918H70.8115V51.8691H69.7178V43.041H70.8115V46.6836ZM63.7217 49.418C64.6852 49.418 65.4372 49.4115 65.9775 49.3984V48.5732C65.6585 48.5179 65.3786 48.417 65.1377 48.2705C64.9001 48.124 64.7161 47.9401 64.5859 47.7188C64.459 47.4974 64.3955 47.25 64.3955 46.9766C64.3955 46.6478 64.485 46.3581 64.6641 46.1074C64.8431 45.8568 65.0938 45.6631 65.416 45.5264C65.7415 45.3864 66.1143 45.3164 66.5342 45.3164C66.9508 45.3164 67.3203 45.3864 67.6426 45.5264C67.9681 45.6631 68.222 45.8568 68.4043 46.1074C68.5866 46.3581 68.6794 46.6478 68.6826 46.9766C68.6794 47.25 68.611 47.499 68.4775 47.7236C68.3441 47.945 68.1553 48.1289 67.9111 48.2754C67.6702 48.4219 67.3903 48.5212 67.0713 48.5732V49.3594C67.9144 49.3138 68.6403 49.2487 69.249 49.1641L69.3174 49.9551C68.4808 50.1081 67.6263 50.2074 66.7539 50.2529C65.8815 50.2952 64.9229 50.3164 63.8779 50.3164L63.7217 49.418ZM63.8877 44.0566H65.9775V43.0801H67.0713V44.0566H69.1514V44.916H63.8877V44.0566ZM65.4209 46.9766C65.4176 47.224 65.5153 47.4193 65.7139 47.5625C65.9157 47.7057 66.1842 47.7773 66.5195 47.7773C66.8613 47.7773 67.1331 47.7074 67.335 47.5674C67.5368 47.4274 67.6377 47.2305 67.6377 46.9766C67.6377 46.7227 67.5368 46.5225 67.335 46.376C67.1331 46.2262 66.8662 46.1497 66.5342 46.1465C66.1956 46.1497 65.9238 46.2262 65.7188 46.376C65.5169 46.5225 65.4176 46.7227 65.4209 46.9766ZM75.5967 44.4473C75.5967 44.8216 75.6764 45.1797 75.8359 45.5215C75.9954 45.8633 76.2314 46.166 76.5439 46.4297C76.8564 46.6934 77.234 46.8952 77.6768 47.0352L77.0908 47.8848C76.6221 47.7253 76.2168 47.4925 75.875 47.1865C75.5365 46.8805 75.2679 46.5176 75.0693 46.0977C74.874 46.5762 74.5973 46.9912 74.2393 47.3428C73.8844 47.6911 73.458 47.9531 72.96 48.1289L72.374 47.2793C72.8363 47.1198 73.2269 46.8919 73.5459 46.5957C73.8649 46.2962 74.1042 45.9544 74.2637 45.5703C74.4264 45.1829 74.5094 44.776 74.5127 44.3496V43.5098H75.5967V44.4473ZM73.5752 50.1797C73.5752 49.8346 73.6956 49.5368 73.9365 49.2861C74.1774 49.0355 74.5225 48.8451 74.9717 48.7148C75.4209 48.5846 75.9515 48.5195 76.5635 48.5195C77.1689 48.5195 77.693 48.5846 78.1357 48.7148C78.5817 48.8451 78.9235 49.0355 79.1611 49.2861C79.402 49.5368 79.5225 49.8346 79.5225 50.1797C79.5225 50.5312 79.402 50.8324 79.1611 51.083C78.9235 51.3369 78.5833 51.529 78.1406 51.6592C77.6979 51.7926 77.1722 51.8594 76.5635 51.8594C75.9515 51.8594 75.4209 51.7926 74.9717 51.6592C74.5225 51.529 74.1774 51.3369 73.9365 51.083C73.6956 50.8324 73.5752 50.5312 73.5752 50.1797ZM74.6592 50.1797C74.6592 50.4499 74.8236 50.6549 75.1523 50.7949C75.4811 50.9316 75.9515 51 76.5635 51C77.1722 51 77.6377 50.9316 77.96 50.7949C78.2855 50.6549 78.4482 50.4499 78.4482 50.1797C78.4482 49.9193 78.2839 49.7191 77.9551 49.5791C77.6296 49.4391 77.1657 49.3691 76.5635 49.3691C75.958 49.3691 75.4893 49.4408 75.1572 49.584C74.8252 49.724 74.6592 49.9225 74.6592 50.1797ZM78.3506 43.041H79.4346V45.1895H80.665V46.0879H79.4346V48.3242H78.3506V43.041ZM89.1611 48.0898H85.665V48.9395H88.1846V51.7617H82.0615V48.9395H84.5908V48.0898H81.1143V47.2207H89.1611V48.0898ZM81.8369 43.3047H88.4189V44.1738H87.208V45.6875H88.3701V46.5664H81.8857V45.6875H83.0479V44.1738H81.8369V43.3047ZM87.1299 50.8828V49.7793H83.1357V50.8828H87.1299ZM86.1143 45.6875V44.1738H84.1318V45.6875H86.1143ZM97.2178 49.7012H96.1143V48.6367H94.3174V47.7773H96.1143V43.0508H97.2178V49.7012ZM89.6982 46.4395C91.1989 46.4329 92.4424 46.4004 93.4287 46.3418C93.5361 45.7005 93.5996 45.0495 93.6191 44.3887H90.499V43.5195H94.708V43.8516C94.708 44.2194 94.6966 44.5905 94.6738 44.9648C94.6543 45.3392 94.6055 45.7689 94.5273 46.2539C94.7552 46.2311 95.0563 46.1953 95.4307 46.1465L95.5088 46.918C94.8057 47.0384 94.0309 47.1312 93.1846 47.1963V49.1348H92.1104V47.2598C91.4268 47.2923 90.6683 47.3086 89.835 47.3086L89.6982 46.4395ZM90.958 48.998H92.042V50.8145H97.4229V51.6934H90.958V48.998Z" fill="#404040"/>
<rect x="20" y="10" width="113" height="52" rx="2" stroke="#748AFF" stroke-width="8" shape-rendering="crispEdges" mask="url(#path-1-inside-1_1032_1791)"/>
</g>
<g filter="url(#filter1_d_1032_1791)">
<rect x="104" y="31.5" width="50" height="50" rx="25" fill="#3551E7" shape-rendering="crispEdges"/>
<path d="M118.839 46.873C119.275 46.8763 119.667 46.9626 120.016 47.1318C120.364 47.2979 120.637 47.529 120.836 47.8252C121.035 48.1214 121.134 48.4583 121.134 48.8359C121.134 49.2135 121.035 49.5505 120.836 49.8467C120.637 50.1429 120.364 50.374 120.016 50.54C119.667 50.7061 119.275 50.7891 118.839 50.7891C118.399 50.7891 118.004 50.7061 117.652 50.54C117.304 50.374 117.031 50.1429 116.832 49.8467C116.633 49.5505 116.534 49.2135 116.534 48.8359C116.534 48.4583 116.633 48.1214 116.832 47.8252C117.031 47.529 117.304 47.2979 117.652 47.1318C118.004 46.9626 118.399 46.8763 118.839 46.873ZM117.442 48.8359C117.442 49.0736 117.501 49.2835 117.618 49.4658C117.739 49.6449 117.905 49.7848 118.116 49.8857C118.331 49.9867 118.572 50.0371 118.839 50.0371C119.106 50.0371 119.345 49.9867 119.557 49.8857C119.768 49.7848 119.934 49.6449 120.055 49.4658C120.175 49.2835 120.235 49.0736 120.235 48.8359C120.235 48.6016 120.175 48.3949 120.055 48.2158C119.934 48.0335 119.767 47.8936 119.552 47.7959C119.34 47.6982 119.103 47.651 118.839 47.6543C118.572 47.651 118.331 47.6982 118.116 47.7959C117.905 47.8936 117.739 48.0335 117.618 48.2158C117.501 48.3949 117.442 48.6016 117.442 48.8359ZM117.862 51.4336H123.614V53.6406H118.79V54.4805H123.907V55.2227H117.892V52.9473H122.696V52.1758H117.862V51.4336ZM122.687 46.5801H123.614V51.0332H122.687V46.5801ZM132.979 52.2637H129.425V55.3203H128.517V52.2637H125.001V51.5117H132.979V52.2637ZM125.45 50.1152C125.991 50.0404 126.489 49.8923 126.944 49.6709C127.403 49.4463 127.77 49.1729 128.043 48.8506C128.316 48.5283 128.458 48.1914 128.468 47.8398H125.743V47.0977H132.228V47.8398H129.522C129.526 48.1914 129.662 48.5283 129.933 48.8506C130.206 49.1729 130.572 49.4463 131.031 49.6709C131.49 49.8923 131.993 50.0404 132.54 50.1152L132.198 50.8477C131.72 50.7728 131.269 50.6475 130.846 50.4717C130.423 50.2926 130.051 50.0713 129.732 49.8076C129.413 49.5407 129.166 49.2445 128.99 48.9189C128.814 49.2445 128.567 49.5407 128.248 49.8076C127.929 50.0713 127.56 50.2926 127.14 50.4717C126.72 50.6475 126.274 50.7728 125.802 50.8477L125.45 50.1152ZM136.124 46.873C136.56 46.8763 136.952 46.9626 137.301 47.1318C137.649 47.2979 137.923 47.529 138.121 47.8252C138.32 48.1214 138.419 48.4583 138.419 48.8359C138.419 49.2135 138.32 49.5505 138.121 49.8467C137.923 50.1429 137.649 50.374 137.301 50.54C136.952 50.7061 136.56 50.7891 136.124 50.7891C135.685 50.7891 135.289 50.7061 134.938 50.54C134.589 50.374 134.316 50.1429 134.117 49.8467C133.919 49.5505 133.819 49.2135 133.819 48.8359C133.819 48.4583 133.919 48.1214 134.117 47.8252C134.316 47.529 134.589 47.2979 134.938 47.1318C135.289 46.9626 135.685 46.8763 136.124 46.873ZM134.728 48.8359C134.728 49.0736 134.786 49.2835 134.903 49.4658C135.024 49.6449 135.19 49.7848 135.401 49.8857C135.616 49.9867 135.857 50.0371 136.124 50.0371C136.391 50.0371 136.63 49.9867 136.842 49.8857C137.053 49.7848 137.219 49.6449 137.34 49.4658C137.46 49.2835 137.521 49.0736 137.521 48.8359C137.521 48.6016 137.46 48.3949 137.34 48.2158C137.219 48.0335 137.052 47.8936 136.837 47.7959C136.625 47.6982 136.388 47.651 136.124 47.6543C135.857 47.651 135.616 47.6982 135.401 47.7959C135.19 47.8936 135.024 48.0335 134.903 48.2158C134.786 48.3949 134.728 48.6016 134.728 48.8359ZM135.147 51.4336H140.899V53.6406H136.075V54.4805H141.192V55.2227H135.177V52.9473H139.981V52.1758H135.147V51.4336ZM139.972 46.5801H140.899V51.0332H139.972V46.5801ZM116.144 66.5H114.669V60.8262H114.63L113.009 61.8418V60.543L114.757 59.4297H116.144V66.5ZM124.981 63.7168H123.741V62.584H122.081V63.2285H117.862V59.166H122.081V59.8105H123.741V58.5117H124.981V63.7168ZM118.888 65.6797C118.888 65.3184 119.01 65.0075 119.254 64.7471C119.501 64.4867 119.854 64.2897 120.313 64.1562C120.772 64.0195 121.316 63.9512 121.944 63.9512C122.576 63.9512 123.121 64.0195 123.58 64.1562C124.039 64.2897 124.392 64.4867 124.64 64.7471C124.887 65.0075 125.011 65.3184 125.011 65.6797C125.011 66.041 124.887 66.3503 124.64 66.6074C124.392 66.8678 124.039 67.0648 123.58 67.1982C123.121 67.3317 122.576 67.3984 121.944 67.3984C121.313 67.3984 120.768 67.3317 120.309 67.1982C119.853 67.0648 119.501 66.8678 119.254 66.6074C119.01 66.3503 118.888 66.041 118.888 65.6797ZM120.86 62.2422V60.1523H119.103V62.2422H120.86ZM120.128 65.6797C120.128 65.9336 120.283 66.1257 120.592 66.2559C120.904 66.3861 121.355 66.4512 121.944 66.4512C122.537 66.4512 122.988 66.3861 123.297 66.2559C123.609 66.1257 123.767 65.9336 123.771 65.6797C123.767 65.4193 123.611 65.224 123.302 65.0938C122.993 64.9635 122.54 64.8984 121.944 64.8984C121.349 64.8984 120.896 64.9635 120.587 65.0938C120.281 65.224 120.128 65.4193 120.128 65.6797ZM123.741 61.5781V60.7969H122.081V61.5781H123.741ZM136.544 64.8496H133.097V67.4082H131.866V64.8496H128.438V63.834H136.544V64.8496ZM128.849 62.3789C129.435 62.3138 129.944 62.1852 130.377 61.9932C130.813 61.8011 131.153 61.5765 131.397 61.3193C131.645 61.0589 131.795 60.7904 131.847 60.5137H129.171V59.5371H131.866V58.5215H133.097V59.5371H135.802V60.5137H133.136C133.185 60.7839 133.329 61.0508 133.57 61.3145C133.814 61.5749 134.153 61.8011 134.586 61.9932C135.019 62.1852 135.528 62.3138 136.114 62.3789L135.665 63.3555C134.933 63.2741 134.295 63.0918 133.751 62.8086C133.211 62.5254 132.791 62.1755 132.491 61.7588C132.192 62.1787 131.769 62.5286 131.222 62.8086C130.678 63.0885 130.037 63.2708 129.298 63.3555L128.849 62.3789ZM140.353 60.4062C140.356 60.722 140.434 61.0247 140.587 61.3145C140.74 61.6042 140.973 61.863 141.285 62.0908C141.601 62.3187 141.99 62.4928 142.452 62.6133L141.896 63.5801C141.391 63.4499 140.958 63.2513 140.597 62.9844C140.239 62.7174 139.955 62.3984 139.747 62.0273C139.545 62.4342 139.264 62.7858 138.902 63.082C138.544 63.375 138.11 63.5931 137.599 63.7363L137.013 62.7695C137.475 62.6426 137.864 62.4587 138.18 62.2178C138.495 61.9769 138.73 61.7002 138.883 61.3877C139.036 61.0752 139.112 60.748 139.112 60.4062V60.377H137.325V59.4004H139.112V58.4727H140.372V59.4004H142.149V60.377H140.353V60.4062ZM138.595 64.0977H144.571V67.3008H138.595V64.0977ZM143.351 66.3047V65.0938H139.845V66.3047H143.351ZM141.925 60.8457H143.331V58.5117H144.571V63.7168H143.331V61.8516H141.925V60.8457Z" fill="white"/>
</g>
<defs>
<filter id="filter0_d_1032_1791" x="0" y="0" width="153" height="92" filterUnits="userSpaceOnUse" color-interpolation-filters="sRGB">
<feFlood flood-opacity="0" result="BackgroundImageFix"/>
<feColorMatrix in="SourceAlpha" type="matrix" values="0 0 0 0 0 0 0 0 0 0 0 0 0 0 0 0 0 0 127 0" result="hardAlpha"/>
<feOffset dy="10"/>
<feGaussianBlur stdDeviation="10"/>
<feComposite in2="hardAlpha" operator="out"/>
<feColorMatrix type="matrix" values="0 0 0 0 0 0 0 0 0 0 0 0 0 0 0 0 0 0 0.1 0"/>
<feBlend mode="normal" in2="BackgroundImageFix" result="effect1_dropShadow_1032_1791"/>
<feBlend mode="normal" in="SourceGraphic" in2="effect1_dropShadow_1032_1791" result="shape"/>
</filter>
<filter id="filter1_d_1032_1791" x="94" y="23.5" width="70" height="70" filterUnits="userSpaceOnUse" color-interpolation-filters="sRGB">
<feFlood flood-opacity="0" result="BackgroundImageFix"/>
<feColorMatrix in="SourceAlpha" type="matrix" values="0 0 0 0 0 0 0 0 0 0 0 0 0 0 0 0 0 0 127 0" result="hardAlpha"/>
<feOffset dy="2"/>
<feGaussianBlur stdDeviation="5"/>
<feComposite in2="hardAlpha" operator="out"/>
<feColorMatrix type="matrix" values="0 0 0 0 0 0 0 0 0 0 0 0 0 0 0 0 0 0 0.25 0"/>
<feBlend mode="normal" in2="BackgroundImageFix" result="effect1_dropShadow_1032_1791"/>
<feBlend mode="normal" in="SourceGraphic" in2="effect1_dropShadow_1032_1791" result="shape"/>
</filter>
<linearGradient id="paint0_linear_1032_1791" x1="76.5" y1="10" x2="76.5" y2="62" gradientUnits="userSpaceOnUse">
<stop stop-color="white"/>
<stop offset="1" stop-color="#F5F6FF"/>
</linearGradient>
</defs>
</svg>
