<svg width="132" height="77" viewBox="0 0 132 77" fill="none" xmlns="http://www.w3.org/2000/svg">
<mask id="path-1-inside-1_1032_1802" fill="white">
<rect y="0.5" width="113" height="52" rx="2"/>
</mask>
<rect y="0.5" width="113" height="52" rx="2" fill="url(#paint0_linear_1032_1802)"/>
<path d="M36.3375 28.6953C35.3674 28.6953 34.4918 28.5163 33.7105 28.1582C32.9358 27.8001 32.3238 27.3053 31.8746 26.6738C31.4254 26.0358 31.1943 25.3164 31.1812 24.5156H34.0328C34.0523 24.8737 34.1663 25.196 34.3746 25.4824C34.5895 25.7624 34.8661 25.9805 35.2047 26.1367C35.5497 26.293 35.9273 26.3711 36.3375 26.3711C36.8193 26.3711 37.249 26.2669 37.6266 26.0586C38.0107 25.8438 38.3069 25.5475 38.5152 25.1699C38.7301 24.7923 38.8375 24.3594 38.8375 23.8711C38.8375 23.3763 38.7301 22.9368 38.5152 22.5527C38.3004 22.1621 37.9977 21.8594 37.607 21.6445C37.2229 21.4232 36.7867 21.3125 36.2984 21.3125C35.2372 21.3125 34.4951 21.7096 34.0719 22.5039H31.4156L32.1773 14.3594H40.8883V16.7617H34.5992L34.2086 20.3359H34.3258C34.5862 19.9779 34.9736 19.6914 35.4879 19.4766C36.0022 19.2552 36.5654 19.1445 37.1773 19.1445C38.0302 19.1445 38.7984 19.3431 39.482 19.7402C40.1721 20.1374 40.7125 20.6908 41.1031 21.4004C41.4937 22.11 41.6891 22.9076 41.6891 23.793C41.6891 24.737 41.4645 25.5833 41.0152 26.332C40.566 27.0742 39.9345 27.6536 39.1207 28.0703C38.3134 28.487 37.3857 28.6953 36.3375 28.6953ZM43.6461 31.7969H41.9898L42.7711 27.3438H44.9898L43.6461 31.7969ZM51.9633 28.6953C50.7849 28.6953 49.7693 28.4121 48.9164 27.8457C48.0635 27.2728 47.4092 26.4427 46.9535 25.3555C46.5043 24.2682 46.2797 22.9596 46.2797 21.4297C46.2797 19.9062 46.5076 18.6009 46.9633 17.5137C47.419 16.4199 48.0733 15.5898 48.9262 15.0234C49.779 14.4505 50.7914 14.1641 51.9633 14.1641C53.1352 14.1641 54.1475 14.4505 55.0004 15.0234C55.8533 15.5898 56.5076 16.4199 56.9633 17.5137C57.419 18.6009 57.6469 19.9062 57.6469 21.4297C57.6469 22.9661 57.419 24.278 56.9633 25.3652C56.5076 26.4525 55.8533 27.2793 55.0004 27.8457C54.154 28.4121 53.1417 28.6953 51.9633 28.6953ZM49.2875 21.5176C49.2875 23.0801 49.5251 24.265 50.0004 25.0723C50.4757 25.873 51.1299 26.2734 51.9633 26.2734C52.8031 26.2734 53.4607 25.8665 53.9359 25.0527C54.4112 24.2324 54.6456 23.0247 54.6391 21.4297C54.6391 20.375 54.5316 19.4863 54.3168 18.7637C54.102 18.0345 53.7927 17.4876 53.3891 17.123C52.9854 16.7585 52.5102 16.5729 51.9633 16.5664C51.1234 16.5729 50.4659 16.9961 49.9906 17.8359C49.5219 18.6758 49.2875 19.903 49.2875 21.5176ZM64.1664 28.6953C62.988 28.6953 61.9724 28.4121 61.1195 27.8457C60.2667 27.2728 59.6124 26.4427 59.1566 25.3555C58.7074 24.2682 58.4828 22.9596 58.4828 21.4297C58.4828 19.9062 58.7107 18.6009 59.1664 17.5137C59.6221 16.4199 60.2764 15.5898 61.1293 15.0234C61.9822 14.4505 62.9945 14.1641 64.1664 14.1641C65.3383 14.1641 66.3507 14.4505 67.2035 15.0234C68.0564 15.5898 68.7107 16.4199 69.1664 17.5137C69.6221 18.6009 69.85 19.9062 69.85 21.4297C69.85 22.9661 69.6221 24.278 69.1664 25.3652C68.7107 26.4525 68.0564 27.2793 67.2035 27.8457C66.3572 28.4121 65.3448 28.6953 64.1664 28.6953ZM61.4906 21.5176C61.4906 23.0801 61.7283 24.265 62.2035 25.0723C62.6788 25.873 63.3331 26.2734 64.1664 26.2734C65.0063 26.2734 65.6638 25.8665 66.1391 25.0527C66.6143 24.2324 66.8487 23.0247 66.8422 21.4297C66.8422 20.375 66.7348 19.4863 66.5199 18.7637C66.3051 18.0345 65.9958 17.4876 65.5922 17.123C65.1885 16.7585 64.7133 16.5729 64.1664 16.5664C63.3266 16.5729 62.669 16.9961 62.1938 17.8359C61.725 18.6758 61.4906 19.903 61.4906 21.5176ZM76.3695 28.6953C75.1911 28.6953 74.1755 28.4121 73.3227 27.8457C72.4698 27.2728 71.8155 26.4427 71.3598 25.3555C70.9105 24.2682 70.6859 22.9596 70.6859 21.4297C70.6859 19.9062 70.9138 18.6009 71.3695 17.5137C71.8253 16.4199 72.4796 15.5898 73.3324 15.0234C74.1853 14.4505 75.1977 14.1641 76.3695 14.1641C77.5414 14.1641 78.5538 14.4505 79.4066 15.0234C80.2595 15.5898 80.9138 16.4199 81.3695 17.5137C81.8253 18.6009 82.0531 19.9062 82.0531 21.4297C82.0531 22.9661 81.8253 24.278 81.3695 25.3652C80.9138 26.4525 80.2595 27.2793 79.4066 27.8457C78.5603 28.4121 77.5479 28.6953 76.3695 28.6953ZM73.6937 21.5176C73.6937 23.0801 73.9314 24.265 74.4066 25.0723C74.8819 25.873 75.5362 26.2734 76.3695 26.2734C77.2094 26.2734 77.8669 25.8665 78.3422 25.0527C78.8174 24.2324 79.0518 23.0247 79.0453 21.4297C79.0453 20.375 78.9379 19.4863 78.723 18.7637C78.5082 18.0345 78.199 17.4876 77.7953 17.123C77.3917 16.7585 76.9164 16.5729 76.3695 16.5664C75.5297 16.5729 74.8721 16.9961 74.3969 17.8359C73.9281 18.6758 73.6937 19.903 73.6937 21.5176Z" fill="#404040"/>
<path d="M43.2432 38.8242H39.835V40.4453H38.7607V38.8242H35.1768V37.9551H43.2432V38.8242ZM36.1533 39.6348H37.2373V41.3145H42.3545V42.1934H36.1533V39.6348ZM36.2021 33.9414H42.208V37.1348H36.2021V33.9414ZM41.1338 36.2852V34.791H37.2568V36.2852H41.1338ZM50.8115 37.1836H52.0518V38.0918H50.8115V42.3691H49.7178V33.541H50.8115V37.1836ZM43.7217 39.918C44.6852 39.918 45.4372 39.9115 45.9775 39.8984V39.0732C45.6585 39.0179 45.3786 38.917 45.1377 38.7705C44.9001 38.624 44.7161 38.4401 44.5859 38.2188C44.459 37.9974 44.3955 37.75 44.3955 37.4766C44.3955 37.1478 44.485 36.8581 44.6641 36.6074C44.8431 36.3568 45.0938 36.1631 45.416 36.0264C45.7415 35.8864 46.1143 35.8164 46.5342 35.8164C46.9508 35.8164 47.3203 35.8864 47.6426 36.0264C47.9681 36.1631 48.222 36.3568 48.4043 36.6074C48.5866 36.8581 48.6794 37.1478 48.6826 37.4766C48.6794 37.75 48.611 37.999 48.4775 38.2236C48.3441 38.445 48.1553 38.6289 47.9111 38.7754C47.6702 38.9219 47.3903 39.0212 47.0713 39.0732V39.8594C47.9144 39.8138 48.6403 39.7487 49.249 39.6641L49.3174 40.4551C48.4808 40.6081 47.6263 40.7074 46.7539 40.7529C45.8815 40.7952 44.9229 40.8164 43.8779 40.8164L43.7217 39.918ZM43.8877 34.5566H45.9775V33.5801H47.0713V34.5566H49.1514V35.416H43.8877V34.5566ZM45.4209 37.4766C45.4176 37.724 45.5153 37.9193 45.7139 38.0625C45.9157 38.2057 46.1842 38.2773 46.5195 38.2773C46.8613 38.2773 47.1331 38.2074 47.335 38.0674C47.5368 37.9274 47.6377 37.7305 47.6377 37.4766C47.6377 37.2227 47.5368 37.0225 47.335 36.876C47.1331 36.7262 46.8662 36.6497 46.5342 36.6465C46.1956 36.6497 45.9238 36.7262 45.7188 36.876C45.5169 37.0225 45.4176 37.2227 45.4209 37.4766ZM55.5967 34.9473C55.5967 35.3216 55.6764 35.6797 55.8359 36.0215C55.9954 36.3633 56.2314 36.666 56.5439 36.9297C56.8564 37.1934 57.234 37.3952 57.6768 37.5352L57.0908 38.3848C56.6221 38.2253 56.2168 37.9925 55.875 37.6865C55.5365 37.3805 55.2679 37.0176 55.0693 36.5977C54.874 37.0762 54.5973 37.4912 54.2393 37.8428C53.8844 38.1911 53.458 38.4531 52.96 38.6289L52.374 37.7793C52.8363 37.6198 53.2269 37.3919 53.5459 37.0957C53.8649 36.7962 54.1042 36.4544 54.2637 36.0703C54.4264 35.6829 54.5094 35.276 54.5127 34.8496V34.0098H55.5967V34.9473ZM53.5752 40.6797C53.5752 40.3346 53.6956 40.0368 53.9365 39.7861C54.1774 39.5355 54.5225 39.3451 54.9717 39.2148C55.4209 39.0846 55.9515 39.0195 56.5635 39.0195C57.1689 39.0195 57.693 39.0846 58.1357 39.2148C58.5817 39.3451 58.9235 39.5355 59.1611 39.7861C59.402 40.0368 59.5225 40.3346 59.5225 40.6797C59.5225 41.0312 59.402 41.3324 59.1611 41.583C58.9235 41.8369 58.5833 42.029 58.1406 42.1592C57.6979 42.2926 57.1722 42.3594 56.5635 42.3594C55.9515 42.3594 55.4209 42.2926 54.9717 42.1592C54.5225 42.029 54.1774 41.8369 53.9365 41.583C53.6956 41.3324 53.5752 41.0312 53.5752 40.6797ZM54.6592 40.6797C54.6592 40.9499 54.8236 41.1549 55.1523 41.2949C55.4811 41.4316 55.9515 41.5 56.5635 41.5C57.1722 41.5 57.6377 41.4316 57.96 41.2949C58.2855 41.1549 58.4482 40.9499 58.4482 40.6797C58.4482 40.4193 58.2839 40.2191 57.9551 40.0791C57.6296 39.9391 57.1657 39.8691 56.5635 39.8691C55.958 39.8691 55.4893 39.9408 55.1572 40.084C54.8252 40.224 54.6592 40.4225 54.6592 40.6797ZM58.3506 33.541H59.4346V35.6895H60.665V36.5879H59.4346V38.8242H58.3506V33.541ZM69.1611 38.5898H65.665V39.4395H68.1846V42.2617H62.0615V39.4395H64.5908V38.5898H61.1143V37.7207H69.1611V38.5898ZM61.8369 33.8047H68.4189V34.6738H67.208V36.1875H68.3701V37.0664H61.8857V36.1875H63.0479V34.6738H61.8369V33.8047ZM67.1299 41.3828V40.2793H63.1357V41.3828H67.1299ZM66.1143 36.1875V34.6738H64.1318V36.1875H66.1143ZM77.2178 40.2012H76.1143V39.1367H74.3174V38.2773H76.1143V33.5508H77.2178V40.2012ZM69.6982 36.9395C71.1989 36.9329 72.4424 36.9004 73.4287 36.8418C73.5361 36.2005 73.5996 35.5495 73.6191 34.8887H70.499V34.0195H74.708V34.3516C74.708 34.7194 74.6966 35.0905 74.6738 35.4648C74.6543 35.8392 74.6055 36.2689 74.5273 36.7539C74.7552 36.7311 75.0563 36.6953 75.4307 36.6465L75.5088 37.418C74.8057 37.5384 74.0309 37.6312 73.1846 37.6963V39.6348H72.1104V37.7598C71.4268 37.7923 70.6683 37.8086 69.835 37.8086L69.6982 36.9395ZM70.958 39.498H72.042V41.3145H77.4229V42.1934H70.958V39.498Z" fill="#404040"/>
<rect y="0.5" width="113" height="52" rx="2" stroke="#748AFF" stroke-width="8" mask="url(#path-1-inside-1_1032_1802)"/>
<rect x="82" y="27" width="50" height="50" rx="25" fill="#3551E7"/>
<path d="M96.8389 42.373C97.2751 42.3763 97.6673 42.4626 98.0156 42.6318C98.3639 42.7979 98.6374 43.029 98.8359 43.3252C99.0345 43.6214 99.1338 43.9583 99.1338 44.3359C99.1338 44.7135 99.0345 45.0505 98.8359 45.3467C98.6374 45.6429 98.3639 45.874 98.0156 46.04C97.6673 46.2061 97.2751 46.2891 96.8389 46.2891C96.3994 46.2891 96.0039 46.2061 95.6523 46.04C95.304 45.874 95.0306 45.6429 94.832 45.3467C94.6335 45.0505 94.5342 44.7135 94.5342 44.3359C94.5342 43.9583 94.6335 43.6214 94.832 43.3252C95.0306 43.029 95.304 42.7979 95.6523 42.6318C96.0039 42.4626 96.3994 42.3763 96.8389 42.373ZM95.4424 44.3359C95.4424 44.5736 95.501 44.7835 95.6182 44.9658C95.7386 45.1449 95.9046 45.2848 96.1162 45.3857C96.3311 45.4867 96.5719 45.5371 96.8389 45.5371C97.1058 45.5371 97.3451 45.4867 97.5566 45.3857C97.7682 45.2848 97.9342 45.1449 98.0547 44.9658C98.1751 44.7835 98.2354 44.5736 98.2354 44.3359C98.2354 44.1016 98.1751 43.8949 98.0547 43.7158C97.9342 43.5335 97.7666 43.3936 97.5518 43.2959C97.3402 43.1982 97.1025 43.151 96.8389 43.1543C96.5719 43.151 96.3311 43.1982 96.1162 43.2959C95.9046 43.3936 95.7386 43.5335 95.6182 43.7158C95.501 43.8949 95.4424 44.1016 95.4424 44.3359ZM95.8623 46.9336H101.614V49.1406H96.79V49.9805H101.907V50.7227H95.8916V48.4473H100.696V47.6758H95.8623V46.9336ZM100.687 42.0801H101.614V46.5332H100.687V42.0801ZM110.979 47.7637H107.425V50.8203H106.517V47.7637H103.001V47.0117H110.979V47.7637ZM103.45 45.6152C103.991 45.5404 104.489 45.3923 104.944 45.1709C105.403 44.9463 105.77 44.6729 106.043 44.3506C106.316 44.0283 106.458 43.6914 106.468 43.3398H103.743V42.5977H110.228V43.3398H107.522C107.526 43.6914 107.662 44.0283 107.933 44.3506C108.206 44.6729 108.572 44.9463 109.031 45.1709C109.49 45.3923 109.993 45.5404 110.54 45.6152L110.198 46.3477C109.72 46.2728 109.269 46.1475 108.846 45.9717C108.423 45.7926 108.051 45.5713 107.732 45.3076C107.413 45.0407 107.166 44.7445 106.99 44.4189C106.814 44.7445 106.567 45.0407 106.248 45.3076C105.929 45.5713 105.56 45.7926 105.14 45.9717C104.72 46.1475 104.274 46.2728 103.802 46.3477L103.45 45.6152ZM114.124 42.373C114.56 42.3763 114.952 42.4626 115.301 42.6318C115.649 42.7979 115.923 43.029 116.121 43.3252C116.32 43.6214 116.419 43.9583 116.419 44.3359C116.419 44.7135 116.32 45.0505 116.121 45.3467C115.923 45.6429 115.649 45.874 115.301 46.04C114.952 46.2061 114.56 46.2891 114.124 46.2891C113.685 46.2891 113.289 46.2061 112.938 46.04C112.589 45.874 112.316 45.6429 112.117 45.3467C111.919 45.0505 111.819 44.7135 111.819 44.3359C111.819 43.9583 111.919 43.6214 112.117 43.3252C112.316 43.029 112.589 42.7979 112.938 42.6318C113.289 42.4626 113.685 42.3763 114.124 42.373ZM112.728 44.3359C112.728 44.5736 112.786 44.7835 112.903 44.9658C113.024 45.1449 113.19 45.2848 113.401 45.3857C113.616 45.4867 113.857 45.5371 114.124 45.5371C114.391 45.5371 114.63 45.4867 114.842 45.3857C115.053 45.2848 115.219 45.1449 115.34 44.9658C115.46 44.7835 115.521 44.5736 115.521 44.3359C115.521 44.1016 115.46 43.8949 115.34 43.7158C115.219 43.5335 115.052 43.3936 114.837 43.2959C114.625 43.1982 114.388 43.151 114.124 43.1543C113.857 43.151 113.616 43.1982 113.401 43.2959C113.19 43.3936 113.024 43.5335 112.903 43.7158C112.786 43.8949 112.728 44.1016 112.728 44.3359ZM113.147 46.9336H118.899V49.1406H114.075V49.9805H119.192V50.7227H113.177V48.4473H117.981V47.6758H113.147V46.9336ZM117.972 42.0801H118.899V46.5332H117.972V42.0801ZM103.938 62H102.464V56.3262H102.425L100.804 57.3418V56.043L102.552 54.9297H103.938V62ZM113.411 59.0898H105.286V58.0742H113.411V59.0898ZM106.214 61.2578C106.214 60.9128 106.338 60.6182 106.585 60.374C106.836 60.1299 107.194 59.9443 107.659 59.8174C108.125 59.6904 108.681 59.627 109.329 59.627C109.97 59.627 110.522 59.6904 110.984 59.8174C111.447 59.9411 111.801 60.1266 112.049 60.374C112.296 60.6182 112.422 60.9128 112.425 61.2578C112.422 61.6061 112.296 61.9023 112.049 62.1465C111.801 62.3939 111.447 62.5811 110.984 62.708C110.522 62.835 109.97 62.8984 109.329 62.8984C108.685 62.8984 108.128 62.835 107.659 62.708C107.194 62.5811 106.836 62.3939 106.585 62.1465C106.338 61.9023 106.214 61.6061 106.214 61.2578ZM106.272 54.2461H112.435V55.252H107.513V56.4629H112.483V57.4492H106.272V54.2461ZM107.483 61.2578C107.48 61.7201 108.095 61.9512 109.329 61.9512C110.556 61.9512 111.172 61.7201 111.175 61.2578C111.172 61.0332 111.014 60.8639 110.701 60.75C110.389 60.6328 109.931 60.5742 109.329 60.5742C108.714 60.5742 108.252 60.6328 107.942 60.75C107.633 60.8639 107.48 61.0332 107.483 61.2578Z" fill="white"/>
<defs>
<linearGradient id="paint0_linear_1032_1802" x1="56.5" y1="0.5" x2="56.5" y2="52.5" gradientUnits="userSpaceOnUse">
<stop stop-color="white"/>
<stop offset="1" stop-color="#F5F6FF"/>
</linearGradient>
</defs>
</svg>
