<svg width="134" height="72" viewBox="0 0 134 72" fill="none" xmlns="http://www.w3.org/2000/svg">
<mask id="path-1-inside-1_1032_1791" fill="white">
<rect width="113" height="52" rx="2"/>
</mask>
<rect width="113" height="52" rx="2" fill="url(#paint0_linear_1032_1791)"/>
<path d="M36.3375 28.1953C39.5211 28.1953 41.6891 26.1543 41.6891 23.293C41.6891 20.5781 39.7555 18.6348 37.1578 18.6445C35.9176 18.6348 34.8434 19.1426 34.3258 19.8359H34.2086L34.5992 16.2617H40.8883V13.8594H32.1773L31.4156 22.0039H34.0719C34.4918 21.2129 35.234 20.8125 36.2984 20.8125C37.7828 20.8223 38.8473 21.8672 38.8375 23.3711C38.8473 24.8457 37.8023 25.8809 36.3375 25.8711C35.107 25.8809 34.1012 25.1191 34.0328 24.0156H31.1812C31.2301 26.457 33.3883 28.1953 36.3375 28.1953ZM44.9898 26.8438H42.7711L41.9898 31.2969H43.6461L44.9898 26.8438ZM51.9633 28.1953C55.4984 28.1953 57.6469 25.5781 57.6469 20.9297C57.6469 16.3105 55.4887 13.6641 51.9633 13.6641C48.4379 13.6641 46.2797 16.3105 46.2797 20.9297C46.2797 25.5586 48.4184 28.1953 51.9633 28.1953ZM49.2875 20.9297C49.2875 17.6973 50.3324 16.0762 51.9633 16.0664C53.5941 16.0762 54.6488 17.6973 54.6391 20.9297C54.6488 24.1914 53.6039 25.7734 51.9633 25.7734C50.3227 25.7734 49.268 24.1914 49.2875 20.9297ZM64.1664 28.1953C67.7016 28.1953 69.85 25.5781 69.85 20.9297C69.85 16.3105 67.6918 13.6641 64.1664 13.6641C60.641 13.6641 58.4828 16.3105 58.4828 20.9297C58.4828 25.5586 60.6215 28.1953 64.1664 28.1953ZM61.4906 20.9297C61.4906 17.6973 62.5355 16.0762 64.1664 16.0664C65.7973 16.0762 66.852 17.6973 66.8422 20.9297C66.852 24.1914 65.807 25.7734 64.1664 25.7734C62.5258 25.7734 61.4711 24.1914 61.4906 20.9297ZM76.3695 28.1953C79.9047 28.1953 82.0531 25.5781 82.0531 20.9297C82.0531 16.3105 79.8949 13.6641 76.3695 13.6641C72.8441 13.6641 70.6859 16.3105 70.6859 20.9297C70.6859 25.5586 72.8246 28.1953 76.3695 28.1953ZM73.6937 20.9297C73.6937 17.6973 74.7387 16.0762 76.3695 16.0664C78.0004 16.0762 79.0551 17.6973 79.0453 20.9297C79.0551 24.1914 78.0102 25.7734 76.3695 25.7734C74.7289 25.7734 73.6742 24.1914 73.6937 20.9297Z" fill="#404040"/>
<path d="M43.2432 38.3242H39.835V39.9453H38.7607V38.3242H35.1768V37.4551H43.2432V38.3242ZM36.1533 39.1348H37.2373V40.8145H42.3545V41.6934H36.1533V39.1348ZM36.2021 33.4414H42.208V36.6348H36.2021V33.4414ZM41.1338 35.7852V34.291H37.2568V35.7852H41.1338ZM50.8115 36.6836H52.0518V37.5918H50.8115V41.8691H49.7178V33.041H50.8115V36.6836ZM43.7217 39.418C44.6852 39.418 45.4372 39.4115 45.9775 39.3984V38.5732C45.6585 38.5179 45.3786 38.417 45.1377 38.2705C44.9001 38.124 44.7161 37.9401 44.5859 37.7188C44.459 37.4974 44.3955 37.25 44.3955 36.9766C44.3955 36.6478 44.485 36.3581 44.6641 36.1074C44.8431 35.8568 45.0938 35.6631 45.416 35.5264C45.7415 35.3864 46.1143 35.3164 46.5342 35.3164C46.9508 35.3164 47.3203 35.3864 47.6426 35.5264C47.9681 35.6631 48.222 35.8568 48.4043 36.1074C48.5866 36.3581 48.6794 36.6478 48.6826 36.9766C48.6794 37.25 48.611 37.499 48.4775 37.7236C48.3441 37.945 48.1553 38.1289 47.9111 38.2754C47.6702 38.4219 47.3903 38.5212 47.0713 38.5732V39.3594C47.9144 39.3138 48.6403 39.2487 49.249 39.1641L49.3174 39.9551C48.4808 40.1081 47.6263 40.2074 46.7539 40.2529C45.8815 40.2952 44.9229 40.3164 43.8779 40.3164L43.7217 39.418ZM43.8877 34.0566H45.9775V33.0801H47.0713V34.0566H49.1514V34.916H43.8877V34.0566ZM45.4209 36.9766C45.4176 37.224 45.5153 37.4193 45.7139 37.5625C45.9157 37.7057 46.1842 37.7773 46.5195 37.7773C46.8613 37.7773 47.1331 37.7074 47.335 37.5674C47.5368 37.4274 47.6377 37.2305 47.6377 36.9766C47.6377 36.7227 47.5368 36.5225 47.335 36.376C47.1331 36.2262 46.8662 36.1497 46.5342 36.1465C46.1956 36.1497 45.9238 36.2262 45.7188 36.376C45.5169 36.5225 45.4176 36.7227 45.4209 36.9766ZM55.5967 34.4473C55.5967 34.8216 55.6764 35.1797 55.8359 35.5215C55.9954 35.8633 56.2314 36.166 56.5439 36.4297C56.8564 36.6934 57.234 36.8952 57.6768 37.0352L57.0908 37.8848C56.6221 37.7253 56.2168 37.4925 55.875 37.1865C55.5365 36.8805 55.2679 36.5176 55.0693 36.0977C54.874 36.5762 54.5973 36.9912 54.2393 37.3428C53.8844 37.6911 53.458 37.9531 52.96 38.1289L52.374 37.2793C52.8363 37.1198 53.2269 36.8919 53.5459 36.5957C53.8649 36.2962 54.1042 35.9544 54.2637 35.5703C54.4264 35.1829 54.5094 34.776 54.5127 34.3496V33.5098H55.5967V34.4473ZM53.5752 40.1797C53.5752 39.8346 53.6956 39.5368 53.9365 39.2861C54.1774 39.0355 54.5225 38.8451 54.9717 38.7148C55.4209 38.5846 55.9515 38.5195 56.5635 38.5195C57.1689 38.5195 57.693 38.5846 58.1357 38.7148C58.5817 38.8451 58.9235 39.0355 59.1611 39.2861C59.402 39.5368 59.5225 39.8346 59.5225 40.1797C59.5225 40.5312 59.402 40.8324 59.1611 41.083C58.9235 41.3369 58.5833 41.529 58.1406 41.6592C57.6979 41.7926 57.1722 41.8594 56.5635 41.8594C55.9515 41.8594 55.4209 41.7926 54.9717 41.6592C54.5225 41.529 54.1774 41.3369 53.9365 41.083C53.6956 40.8324 53.5752 40.5312 53.5752 40.1797ZM54.6592 40.1797C54.6592 40.4499 54.8236 40.6549 55.1523 40.7949C55.4811 40.9316 55.9515 41 56.5635 41C57.1722 41 57.6377 40.9316 57.96 40.7949C58.2855 40.6549 58.4482 40.4499 58.4482 40.1797C58.4482 39.9193 58.2839 39.7191 57.9551 39.5791C57.6296 39.4391 57.1657 39.3691 56.5635 39.3691C55.958 39.3691 55.4893 39.4408 55.1572 39.584C54.8252 39.724 54.6592 39.9225 54.6592 40.1797ZM58.3506 33.041H59.4346V35.1895H60.665V36.0879H59.4346V38.3242H58.3506V33.041ZM69.1611 38.0898H65.665V38.9395H68.1846V41.7617H62.0615V38.9395H64.5908V38.0898H61.1143V37.2207H69.1611V38.0898ZM61.8369 33.3047H68.4189V34.1738H67.208V35.6875H68.3701V36.5664H61.8857V35.6875H63.0479V34.1738H61.8369V33.3047ZM67.1299 40.8828V39.7793H63.1357V40.8828H67.1299ZM66.1143 35.6875V34.1738H64.1318V35.6875H66.1143ZM77.2178 39.7012H76.1143V38.6367H74.3174V37.7773H76.1143V33.0508H77.2178V39.7012ZM69.6982 36.4395C71.1989 36.4329 72.4424 36.4004 73.4287 36.3418C73.5361 35.7005 73.5996 35.0495 73.6191 34.3887H70.499V33.5195H74.708V33.8516C74.708 34.2194 74.6966 34.5905 74.6738 34.9648C74.6543 35.3392 74.6055 35.7689 74.5273 36.2539C74.7552 36.2311 75.0563 36.1953 75.4307 36.1465L75.5088 36.918C74.8057 37.0384 74.0309 37.1312 73.1846 37.1963V39.1348H72.1104V37.2598C71.4268 37.2923 70.6683 37.3086 69.835 37.3086L69.6982 36.4395ZM70.958 38.998H72.042V40.8145H77.4229V41.6934H70.958V38.998Z" fill="#404040"/>
<rect width="113" height="52" rx="2" stroke="#748AFF" stroke-width="8" mask="url(#path-1-inside-1_1032_1791)"/>
<rect x="84" y="21.5" width="50" height="50" rx="25" fill="#3551E7"/>
<path d="M98.8389 36.873C99.2751 36.8763 99.6673 36.9626 100.016 37.1318C100.364 37.2979 100.637 37.529 100.836 37.8252C101.035 38.1214 101.134 38.4583 101.134 38.8359C101.134 39.2135 101.035 39.5505 100.836 39.8467C100.637 40.1429 100.364 40.374 100.016 40.54C99.6673 40.7061 99.2751 40.7891 98.8389 40.7891C98.3994 40.7891 98.0039 40.7061 97.6523 40.54C97.304 40.374 97.0306 40.1429 96.832 39.8467C96.6335 39.5505 96.5342 39.2135 96.5342 38.8359C96.5342 38.4583 96.6335 38.1214 96.832 37.8252C97.0306 37.529 97.304 37.2979 97.6523 37.1318C98.0039 36.9626 98.3994 36.8763 98.8389 36.873ZM97.4424 38.8359C97.4424 39.0736 97.501 39.2835 97.6182 39.4658C97.7386 39.6449 97.9046 39.7848 98.1162 39.8857C98.3311 39.9867 98.5719 40.0371 98.8389 40.0371C99.1058 40.0371 99.3451 39.9867 99.5566 39.8857C99.7682 39.7848 99.9342 39.6449 100.055 39.4658C100.175 39.2835 100.235 39.0736 100.235 38.8359C100.235 38.6016 100.175 38.3949 100.055 38.2158C99.9342 38.0335 99.7666 37.8936 99.5518 37.7959C99.3402 37.6982 99.1025 37.651 98.8389 37.6543C98.5719 37.651 98.3311 37.6982 98.1162 37.7959C97.9046 37.8936 97.7386 38.0335 97.6182 38.2158C97.501 38.3949 97.4424 38.6016 97.4424 38.8359ZM97.8623 41.4336H103.614V43.6406H98.79V44.4805H103.907V45.2227H97.8916V42.9473H102.696V42.1758H97.8623V41.4336ZM102.687 36.5801H103.614V41.0332H102.687V36.5801ZM112.979 42.2637H109.425V45.3203H108.517V42.2637H105.001V41.5117H112.979V42.2637ZM105.45 40.1152C105.991 40.0404 106.489 39.8923 106.944 39.6709C107.403 39.4463 107.77 39.1729 108.043 38.8506C108.316 38.5283 108.458 38.1914 108.468 37.8398H105.743V37.0977H112.228V37.8398H109.522C109.526 38.1914 109.662 38.5283 109.933 38.8506C110.206 39.1729 110.572 39.4463 111.031 39.6709C111.49 39.8923 111.993 40.0404 112.54 40.1152L112.198 40.8477C111.72 40.7728 111.269 40.6475 110.846 40.4717C110.423 40.2926 110.051 40.0713 109.732 39.8076C109.413 39.5407 109.166 39.2445 108.99 38.9189C108.814 39.2445 108.567 39.5407 108.248 39.8076C107.929 40.0713 107.56 40.2926 107.14 40.4717C106.72 40.6475 106.274 40.7728 105.802 40.8477L105.45 40.1152ZM116.124 36.873C116.56 36.8763 116.952 36.9626 117.301 37.1318C117.649 37.2979 117.923 37.529 118.121 37.8252C118.32 38.1214 118.419 38.4583 118.419 38.8359C118.419 39.2135 118.32 39.5505 118.121 39.8467C117.923 40.1429 117.649 40.374 117.301 40.54C116.952 40.7061 116.56 40.7891 116.124 40.7891C115.685 40.7891 115.289 40.7061 114.938 40.54C114.589 40.374 114.316 40.1429 114.117 39.8467C113.919 39.5505 113.819 39.2135 113.819 38.8359C113.819 38.4583 113.919 38.1214 114.117 37.8252C114.316 37.529 114.589 37.2979 114.938 37.1318C115.289 36.9626 115.685 36.8763 116.124 36.873ZM114.728 38.8359C114.728 39.0736 114.786 39.2835 114.903 39.4658C115.024 39.6449 115.19 39.7848 115.401 39.8857C115.616 39.9867 115.857 40.0371 116.124 40.0371C116.391 40.0371 116.63 39.9867 116.842 39.8857C117.053 39.7848 117.219 39.6449 117.34 39.4658C117.46 39.2835 117.521 39.0736 117.521 38.8359C117.521 38.6016 117.46 38.3949 117.34 38.2158C117.219 38.0335 117.052 37.8936 116.837 37.7959C116.625 37.6982 116.388 37.651 116.124 37.6543C115.857 37.651 115.616 37.6982 115.401 37.7959C115.19 37.8936 115.024 38.0335 114.903 38.2158C114.786 38.3949 114.728 38.6016 114.728 38.8359ZM115.147 41.4336H120.899V43.6406H116.075V44.4805H121.192V45.2227H115.177V42.9473H119.981V42.1758H115.147V41.4336ZM119.972 36.5801H120.899V41.0332H119.972V36.5801ZM96.1436 56.5H94.6689V50.8262H94.6299L93.0088 51.8418V50.543L94.7568 49.4297H96.1436V56.5ZM104.981 53.7168H103.741V52.584H102.081V53.2285H97.8623V49.166H102.081V49.8105H103.741V48.5117H104.981V53.7168ZM98.8877 55.6797C98.8877 55.3184 99.0098 55.0075 99.2539 54.7471C99.5013 54.4867 99.8545 54.2897 100.313 54.1562C100.772 54.0195 101.316 53.9512 101.944 53.9512C102.576 53.9512 103.121 54.0195 103.58 54.1562C104.039 54.2897 104.392 54.4867 104.64 54.7471C104.887 55.0075 105.011 55.3184 105.011 55.6797C105.011 56.041 104.887 56.3503 104.64 56.6074C104.392 56.8678 104.039 57.0648 103.58 57.1982C103.121 57.3317 102.576 57.3984 101.944 57.3984C101.313 57.3984 100.768 57.3317 100.309 57.1982C99.8529 57.0648 99.5013 56.8678 99.2539 56.6074C99.0098 56.3503 98.8877 56.041 98.8877 55.6797ZM100.86 52.2422V50.1523H99.1025V52.2422H100.86ZM100.128 55.6797C100.128 55.9336 100.283 56.1257 100.592 56.2559C100.904 56.3861 101.355 56.4512 101.944 56.4512C102.537 56.4512 102.988 56.3861 103.297 56.2559C103.609 56.1257 103.767 55.9336 103.771 55.6797C103.767 55.4193 103.611 55.224 103.302 55.0938C102.993 54.9635 102.54 54.8984 101.944 54.8984C101.349 54.8984 100.896 54.9635 100.587 55.0938C100.281 55.224 100.128 55.4193 100.128 55.6797ZM103.741 51.5781V50.7969H102.081V51.5781H103.741ZM116.544 54.8496H113.097V57.4082H111.866V54.8496H108.438V53.834H116.544V54.8496ZM108.849 52.3789C109.435 52.3138 109.944 52.1852 110.377 51.9932C110.813 51.8011 111.153 51.5765 111.397 51.3193C111.645 51.0589 111.795 50.7904 111.847 50.5137H109.171V49.5371H111.866V48.5215H113.097V49.5371H115.802V50.5137H113.136C113.185 50.7839 113.329 51.0508 113.57 51.3145C113.814 51.5749 114.153 51.8011 114.586 51.9932C115.019 52.1852 115.528 52.3138 116.114 52.3789L115.665 53.3555C114.933 53.2741 114.295 53.0918 113.751 52.8086C113.211 52.5254 112.791 52.1755 112.491 51.7588C112.192 52.1787 111.769 52.5286 111.222 52.8086C110.678 53.0885 110.037 53.2708 109.298 53.3555L108.849 52.3789ZM120.353 50.4062C120.356 50.722 120.434 51.0247 120.587 51.3145C120.74 51.6042 120.973 51.863 121.285 52.0908C121.601 52.3187 121.99 52.4928 122.452 52.6133L121.896 53.5801C121.391 53.4499 120.958 53.2513 120.597 52.9844C120.239 52.7174 119.955 52.3984 119.747 52.0273C119.545 52.4342 119.264 52.7858 118.902 53.082C118.544 53.375 118.11 53.5931 117.599 53.7363L117.013 52.7695C117.475 52.6426 117.864 52.4587 118.18 52.2178C118.495 51.9769 118.73 51.7002 118.883 51.3877C119.036 51.0752 119.112 50.748 119.112 50.4062V50.377H117.325V49.4004H119.112V48.4727H120.372V49.4004H122.149V50.377H120.353V50.4062ZM118.595 54.0977H124.571V57.3008H118.595V54.0977ZM123.351 56.3047V55.0938H119.845V56.3047H123.351ZM121.925 50.8457H123.331V48.5117H124.571V53.7168H123.331V51.8516H121.925V50.8457Z" fill="white"/>
<defs>
<linearGradient id="paint0_linear_1032_1791" x1="56.5" y1="0" x2="56.5" y2="52" gradientUnits="userSpaceOnUse">
<stop stop-color="white"/>
<stop offset="1" stop-color="#F5F6FF"/>
</linearGradient>
</defs>
</svg>
