<svg width="162" height="99" viewBox="0 0 162 99" fill="none" xmlns="http://www.w3.org/2000/svg">
<g filter="url(#filter0_d_1032_1802)">
<mask id="path-1-inside-1_1032_1802" fill="white">
<rect x="20" y="10.5" width="113" height="52" rx="2"/>
</mask>
<rect x="20" y="10.5" width="113" height="52" rx="2" fill="url(#paint0_linear_1032_1802)" shape-rendering="crispEdges"/>
<path d="M50.1578 38.6953C53.3512 38.6953 55.6461 36.957 55.6266 34.5352C55.6461 32.7676 54.5035 31.5078 52.4234 31.2539V31.1367C54.0055 30.8535 55.109 29.7305 55.0992 28.1484C55.109 25.9121 53.1461 24.1641 50.1969 24.1641C47.2965 24.1641 45.109 25.8535 45.0602 28.2852H47.8727C47.9215 27.2012 48.9469 26.498 50.1969 26.5078C51.4469 26.498 52.277 27.2402 52.2672 28.3242C52.277 29.4375 51.3004 30.1992 49.9039 30.1992H48.5953V32.3672H49.9039C51.5641 32.377 52.5895 33.1875 52.5797 34.3398C52.5895 35.4824 51.5836 36.2637 50.1773 36.2734C48.8102 36.2637 47.7848 35.5703 47.7359 34.5156H44.7672C44.8258 36.9863 47.0523 38.6953 50.1578 38.6953ZM62.1852 38.6953C65.7203 38.6953 67.8688 36.0781 67.8688 31.4297C67.8688 26.8105 65.7105 24.1641 62.1852 24.1641C58.6598 24.1641 56.5016 26.8105 56.5016 31.4297C56.5016 36.0586 58.6402 38.6953 62.1852 38.6953ZM59.5094 31.4297C59.5094 28.1973 60.5543 26.5762 62.1852 26.5664C63.816 26.5762 64.8707 28.1973 64.8609 31.4297C64.8707 34.6914 63.8258 36.2734 62.1852 36.2734C60.5445 36.2734 59.4898 34.6914 59.5094 31.4297ZM71.2086 37.3438H68.9898L68.2086 41.7969H69.8648L71.2086 37.3438ZM78.182 38.6953C81.7172 38.6953 83.8656 36.0781 83.8656 31.4297C83.8656 26.8105 81.7074 24.1641 78.182 24.1641C74.6566 24.1641 72.4984 26.8105 72.4984 31.4297C72.4984 36.0586 74.6371 38.6953 78.182 38.6953ZM75.5063 31.4297C75.5063 28.1973 76.5512 26.5762 78.182 26.5664C79.8129 26.5762 80.8676 28.1973 80.8578 31.4297C80.8676 34.6914 79.8227 36.2734 78.182 36.2734C76.5414 36.2734 75.4867 34.6914 75.5063 31.4297ZM90.3852 38.6953C93.9203 38.6953 96.0688 36.0781 96.0688 31.4297C96.0688 26.8105 93.9105 24.1641 90.3852 24.1641C86.8598 24.1641 84.7016 26.8105 84.7016 31.4297C84.7016 36.0586 86.8402 38.6953 90.3852 38.6953ZM87.7094 31.4297C87.7094 28.1973 88.7543 26.5762 90.3852 26.5664C92.016 26.5762 93.0707 28.1973 93.0609 31.4297C93.0707 34.6914 92.0258 36.2734 90.3852 36.2734C88.7445 36.2734 87.6898 34.6914 87.7094 31.4297ZM102.588 38.6953C106.123 38.6953 108.272 36.0781 108.272 31.4297C108.272 26.8105 106.114 24.1641 102.588 24.1641C99.0629 24.1641 96.9047 26.8105 96.9047 31.4297C96.9047 36.0586 99.0434 38.6953 102.588 38.6953ZM99.9125 31.4297C99.9125 28.1973 100.957 26.5762 102.588 26.5664C104.219 26.5762 105.274 28.1973 105.264 31.4297C105.274 34.6914 104.229 36.2734 102.588 36.2734C100.948 36.2734 99.893 34.6914 99.9125 31.4297Z" fill="#404040"/>
<path d="M63.2432 48.8242H59.835V50.4453H58.7607V48.8242H55.1768V47.9551H63.2432V48.8242ZM56.1533 49.6348H57.2373V51.3145H62.3545V52.1934H56.1533V49.6348ZM56.2021 43.9414H62.208V47.1348H56.2021V43.9414ZM61.1338 46.2852V44.791H57.2568V46.2852H61.1338ZM70.8115 47.1836H72.0518V48.0918H70.8115V52.3691H69.7178V43.541H70.8115V47.1836ZM63.7217 49.918C64.6852 49.918 65.4372 49.9115 65.9775 49.8984V49.0732C65.6585 49.0179 65.3786 48.917 65.1377 48.7705C64.9001 48.624 64.7161 48.4401 64.5859 48.2188C64.459 47.9974 64.3955 47.75 64.3955 47.4766C64.3955 47.1478 64.485 46.8581 64.6641 46.6074C64.8431 46.3568 65.0938 46.1631 65.416 46.0264C65.7415 45.8864 66.1143 45.8164 66.5342 45.8164C66.9508 45.8164 67.3203 45.8864 67.6426 46.0264C67.9681 46.1631 68.222 46.3568 68.4043 46.6074C68.5866 46.8581 68.6794 47.1478 68.6826 47.4766C68.6794 47.75 68.611 47.999 68.4775 48.2236C68.3441 48.445 68.1553 48.6289 67.9111 48.7754C67.6702 48.9219 67.3903 49.0212 67.0713 49.0732V49.8594C67.9144 49.8138 68.6403 49.7487 69.249 49.6641L69.3174 50.4551C68.4808 50.6081 67.6263 50.7074 66.7539 50.7529C65.8815 50.7952 64.9229 50.8164 63.8779 50.8164L63.7217 49.918ZM63.8877 44.5566H65.9775V43.5801H67.0713V44.5566H69.1514V45.416H63.8877V44.5566ZM65.4209 47.4766C65.4176 47.724 65.5153 47.9193 65.7139 48.0625C65.9157 48.2057 66.1842 48.2773 66.5195 48.2773C66.8613 48.2773 67.1331 48.2074 67.335 48.0674C67.5368 47.9274 67.6377 47.7305 67.6377 47.4766C67.6377 47.2227 67.5368 47.0225 67.335 46.876C67.1331 46.7262 66.8662 46.6497 66.5342 46.6465C66.1956 46.6497 65.9238 46.7262 65.7188 46.876C65.5169 47.0225 65.4176 47.2227 65.4209 47.4766ZM75.5967 44.9473C75.5967 45.3216 75.6764 45.6797 75.8359 46.0215C75.9954 46.3633 76.2314 46.666 76.5439 46.9297C76.8564 47.1934 77.234 47.3952 77.6768 47.5352L77.0908 48.3848C76.6221 48.2253 76.2168 47.9925 75.875 47.6865C75.5365 47.3805 75.2679 47.0176 75.0693 46.5977C74.874 47.0762 74.5973 47.4912 74.2393 47.8428C73.8844 48.1911 73.458 48.4531 72.96 48.6289L72.374 47.7793C72.8363 47.6198 73.2269 47.3919 73.5459 47.0957C73.8649 46.7962 74.1042 46.4544 74.2637 46.0703C74.4264 45.6829 74.5094 45.276 74.5127 44.8496V44.0098H75.5967V44.9473ZM73.5752 50.6797C73.5752 50.3346 73.6956 50.0368 73.9365 49.7861C74.1774 49.5355 74.5225 49.3451 74.9717 49.2148C75.4209 49.0846 75.9515 49.0195 76.5635 49.0195C77.1689 49.0195 77.693 49.0846 78.1357 49.2148C78.5817 49.3451 78.9235 49.5355 79.1611 49.7861C79.402 50.0368 79.5225 50.3346 79.5225 50.6797C79.5225 51.0312 79.402 51.3324 79.1611 51.583C78.9235 51.8369 78.5833 52.029 78.1406 52.1592C77.6979 52.2926 77.1722 52.3594 76.5635 52.3594C75.9515 52.3594 75.4209 52.2926 74.9717 52.1592C74.5225 52.029 74.1774 51.8369 73.9365 51.583C73.6956 51.3324 73.5752 51.0312 73.5752 50.6797ZM74.6592 50.6797C74.6592 50.9499 74.8236 51.1549 75.1523 51.2949C75.4811 51.4316 75.9515 51.5 76.5635 51.5C77.1722 51.5 77.6377 51.4316 77.96 51.2949C78.2855 51.1549 78.4482 50.9499 78.4482 50.6797C78.4482 50.4193 78.2839 50.2191 77.9551 50.0791C77.6296 49.9391 77.1657 49.8691 76.5635 49.8691C75.958 49.8691 75.4893 49.9408 75.1572 50.084C74.8252 50.224 74.6592 50.4225 74.6592 50.6797ZM78.3506 43.541H79.4346V45.6895H80.665V46.5879H79.4346V48.8242H78.3506V43.541ZM89.1611 48.5898H85.665V49.4395H88.1846V52.2617H82.0615V49.4395H84.5908V48.5898H81.1143V47.7207H89.1611V48.5898ZM81.8369 43.8047H88.4189V44.6738H87.208V46.1875H88.3701V47.0664H81.8857V46.1875H83.0479V44.6738H81.8369V43.8047ZM87.1299 51.3828V50.2793H83.1357V51.3828H87.1299ZM86.1143 46.1875V44.6738H84.1318V46.1875H86.1143ZM97.2178 50.2012H96.1143V49.1367H94.3174V48.2773H96.1143V43.5508H97.2178V50.2012ZM89.6982 46.9395C91.1989 46.9329 92.4424 46.9004 93.4287 46.8418C93.5361 46.2005 93.5996 45.5495 93.6191 44.8887H90.499V44.0195H94.708V44.3516C94.708 44.7194 94.6966 45.0905 94.6738 45.4648C94.6543 45.8392 94.6055 46.2689 94.5273 46.7539C94.7552 46.7311 95.0563 46.6953 95.4307 46.6465L95.5088 47.418C94.8057 47.5384 94.0309 47.6312 93.1846 47.6963V49.6348H92.1104V47.7598C91.4268 47.7923 90.6683 47.8086 89.835 47.8086L89.6982 46.9395ZM90.958 49.498H92.042V51.3145H97.4229V52.1934H90.958V49.498Z" fill="#404040"/>
<rect x="20" y="10.5" width="113" height="52" rx="2" stroke="#748AFF" stroke-width="8" shape-rendering="crispEdges" mask="url(#path-1-inside-1_1032_1802)"/>
</g>
<g filter="url(#filter1_d_1032_1802)">
<rect x="102" y="37" width="50" height="50" rx="25" fill="#3551E7" shape-rendering="crispEdges"/>
<path d="M124.334 54.9023H125.604V55.6738H124.334V58.6328H123.406V52.0898H124.334V54.9023ZM117.469 53.1055H119.617V52.0801H120.545V53.1055H122.684V53.8574H117.469V53.1055ZM117.947 55.9277C117.947 55.599 118.035 55.3092 118.211 55.0586C118.39 54.8079 118.641 54.6159 118.963 54.4824C119.285 54.3457 119.656 54.2773 120.076 54.2773C120.493 54.2773 120.861 54.3457 121.18 54.4824C121.502 54.6159 121.751 54.8079 121.927 55.0586C122.106 55.3092 122.195 55.599 122.195 55.9277C122.195 56.2533 122.106 56.5397 121.927 56.7871C121.751 57.0345 121.502 57.2266 121.18 57.3633C120.861 57.5 120.493 57.5684 120.076 57.5684C119.656 57.5684 119.285 57.5 118.963 57.3633C118.641 57.2266 118.39 57.0345 118.211 56.7871C118.035 56.5397 117.947 56.2533 117.947 55.9277ZM118.787 58.1152H119.715V59.8926H124.705V60.6445H118.787V58.1152ZM118.846 55.9277C118.842 56.1133 118.891 56.276 118.992 56.416C119.093 56.5527 119.235 56.6585 119.417 56.7334C119.603 56.8083 119.817 56.8457 120.062 56.8457C120.439 56.8457 120.743 56.7643 120.975 56.6016C121.206 56.4388 121.323 56.2142 121.326 55.9277C121.323 55.6413 121.207 55.415 120.979 55.249C120.752 55.0798 120.451 54.9935 120.076 54.9902C119.829 54.9902 119.611 55.0293 119.422 55.1074C119.236 55.1823 119.093 55.2913 118.992 55.4346C118.891 55.5745 118.842 55.7389 118.846 55.9277ZM132.82 53.3105H129.832V55.4395C130.682 55.4395 131.385 55.4183 131.941 55.376C132.501 55.3337 133.058 55.2572 133.611 55.1465L133.719 55.8789C133.146 56.0026 132.563 56.084 131.971 56.123C131.378 56.1621 130.59 56.1816 129.607 56.1816H128.914V52.5684H132.82V53.3105ZM129.764 56.8848H135.418V59.1211H130.691V59.9707H135.721V60.7227H129.783V58.4082H134.5V57.627H129.764V56.8848ZM134.49 52.0801H135.418V53.8672H136.688V54.6289H135.418V56.4746H134.49V52.0801ZM123.938 72H122.464V66.3262H122.425L120.804 67.3418V66.043L122.552 64.9297H123.938V72ZM133.411 69.0898H125.286V68.0742H133.411V69.0898ZM126.214 71.2578C126.214 70.9128 126.338 70.6182 126.585 70.374C126.836 70.1299 127.194 69.9443 127.659 69.8174C128.125 69.6904 128.681 69.627 129.329 69.627C129.97 69.627 130.522 69.6904 130.984 69.8174C131.447 69.9411 131.801 70.1266 132.049 70.374C132.296 70.6182 132.422 70.9128 132.425 71.2578C132.422 71.6061 132.296 71.9023 132.049 72.1465C131.801 72.3939 131.447 72.5811 130.984 72.708C130.522 72.835 129.97 72.8984 129.329 72.8984C128.685 72.8984 128.128 72.835 127.659 72.708C127.194 72.5811 126.836 72.3939 126.585 72.1465C126.338 71.9023 126.214 71.6061 126.214 71.2578ZM126.272 64.2461H132.435V65.252H127.513V66.4629H132.483V67.4492H126.272V64.2461ZM127.483 71.2578C127.48 71.7201 128.095 71.9512 129.329 71.9512C130.556 71.9512 131.172 71.7201 131.175 71.2578C131.172 71.0332 131.014 70.8639 130.701 70.75C130.389 70.6328 129.931 70.5742 129.329 70.5742C128.714 70.5742 128.252 70.6328 127.942 70.75C127.633 70.8639 127.48 71.0332 127.483 71.2578Z" fill="white"/>
</g>
<defs>
<filter id="filter0_d_1032_1802" x="0" y="0.5" width="153" height="92" filterUnits="userSpaceOnUse" color-interpolation-filters="sRGB">
<feFlood flood-opacity="0" result="BackgroundImageFix"/>
<feColorMatrix in="SourceAlpha" type="matrix" values="0 0 0 0 0 0 0 0 0 0 0 0 0 0 0 0 0 0 127 0" result="hardAlpha"/>
<feOffset dy="10"/>
<feGaussianBlur stdDeviation="10"/>
<feComposite in2="hardAlpha" operator="out"/>
<feColorMatrix type="matrix" values="0 0 0 0 0 0 0 0 0 0 0 0 0 0 0 0 0 0 0.1 0"/>
<feBlend mode="normal" in2="BackgroundImageFix" result="effect1_dropShadow_1032_1802"/>
<feBlend mode="normal" in="SourceGraphic" in2="effect1_dropShadow_1032_1802" result="shape"/>
</filter>
<filter id="filter1_d_1032_1802" x="92" y="29" width="70" height="70" filterUnits="userSpaceOnUse" color-interpolation-filters="sRGB">
<feFlood flood-opacity="0" result="BackgroundImageFix"/>
<feColorMatrix in="SourceAlpha" type="matrix" values="0 0 0 0 0 0 0 0 0 0 0 0 0 0 0 0 0 0 127 0" result="hardAlpha"/>
<feOffset dy="2"/>
<feGaussianBlur stdDeviation="5"/>
<feComposite in2="hardAlpha" operator="out"/>
<feColorMatrix type="matrix" values="0 0 0 0 0 0 0 0 0 0 0 0 0 0 0 0 0 0 0.25 0"/>
<feBlend mode="normal" in2="BackgroundImageFix" result="effect1_dropShadow_1032_1802"/>
<feBlend mode="normal" in="SourceGraphic" in2="effect1_dropShadow_1032_1802" result="shape"/>
</filter>
<linearGradient id="paint0_linear_1032_1802" x1="76.5" y1="10.5" x2="76.5" y2="62.5" gradientUnits="userSpaceOnUse">
<stop stop-color="white"/>
<stop offset="1" stop-color="#F5F6FF"/>
</linearGradient>
</defs>
</svg>
