<svg width="86" height="54" viewBox="0 0 86 54" fill="none" xmlns="http://www.w3.org/2000/svg">
<path d="M29.6923 34.9824L29.6922 34.9824C19.8385 34.6167 15.4847 28.2419 13.8458 24.8291L29.6923 34.9824ZM29.6923 34.9824C31.0913 35.0346 33.3832 34.1596 35.1886 32.4538C36.9708 30.7699 38.207 28.3449 37.6445 25.3402C37.5824 25.0089 37.4081 24.5249 37.1449 23.9437C36.8856 23.3708 36.5535 22.7325 36.1957 22.1021C35.4744 20.8309 34.6755 19.6382 34.1895 19.0927L34.1895 19.0927M29.6923 34.9824L34.1895 19.0927M34.1895 19.0927C33.4482 18.2605 31.1818 16.2089 28.3433 14.7482C25.4934 13.2816 22.1975 12.4751 19.2987 13.8965L19.2483 13.9213M34.1895 19.0927L19.2483 13.9213M19.2483 13.9213L19.1944 13.934M19.2483 13.9213L19.1944 13.934M19.1944 13.934L19.1941 13.934M19.1944 13.934L19.1941 13.934M19.1941 13.934L19.1939 13.9341M19.1941 13.934L19.1939 13.9341M19.1939 13.9341L19.1936 13.9342M19.1939 13.9341L19.1936 13.9342M19.1936 13.9342L19.1935 13.9342M19.1936 13.9342L19.1935 13.9342M19.1935 13.9342L19.1875 13.9357L19.1575 13.9434C19.1298 13.9508 19.0869 13.9626 19.0307 13.9794C18.9181 14.013 18.7523 14.0664 18.5468 14.1439C18.1354 14.299 17.5685 14.5491 16.9541 14.9268C15.7247 15.6825 14.323 16.9368 13.5703 18.9512L19.1935 13.9342ZM13.5702 18.9513C12.8468 20.8894 12.9757 23.0155 13.8458 24.829L13.5702 18.9513Z" fill="#3551E7" stroke="#3551E7"/>
<path d="M26.4913 17.6137L26.4913 17.6135C26.6079 16.3005 27.2241 14.548 28.3299 12.6466C29.4312 10.7528 31.0006 8.74203 32.9869 6.91263C36.9593 3.25404 42.5719 0.343877 49.4159 0.506503L49.4159 0.506645H49.4278C55.9407 0.506645 61.8526 2.82576 64.1239 4.3255L64.124 4.32553C65.8225 5.44672 69.8532 8.98043 72.423 13.7183C74.9818 18.4359 76.0625 24.2753 72.0479 30.1491L72.018 30.1929L71.9981 30.2415L71.9981 30.2416L71.998 30.2419L71.9979 30.2419L71.9968 30.2448L71.9906 30.2593C71.9868 30.2683 71.9815 30.2807 71.9746 30.2964C71.9712 30.3042 71.9674 30.3129 71.9632 30.3224C71.9381 30.3792 71.8993 30.4649 71.8458 30.5766C71.739 30.8 71.574 31.1271 71.3446 31.5341C70.8857 32.3483 70.1701 33.4809 69.1482 34.7419C67.1046 37.2635 63.8401 40.2944 58.9561 42.3273C54.2485 44.2856 49.3506 44.6672 45.3992 43.5771C41.7499 42.569 36.6194 40.531 32.607 36.5261C28.6136 32.5402 25.6932 26.5733 26.4913 17.6137ZM25.9969 17.5696H25.9969H25.9969Z" fill="#F5F6FF" stroke="#3551E7"/>
<path d="M37.0325 16.8598C38.9925 16.8598 40.5815 15.2709 40.5815 13.3108C40.5815 11.3507 38.9925 9.76172 37.0325 9.76172C35.0724 9.76172 33.4834 11.3507 33.4834 13.3108C33.4834 15.2709 35.0724 16.8598 37.0325 16.8598Z" fill="#3551E7"/>
<path d="M54.8996 16.8598C56.8597 16.8598 58.4487 15.2709 58.4487 13.3108C58.4487 11.3507 56.8597 9.76172 54.8996 9.76172C52.9396 9.76172 51.3506 11.3507 51.3506 13.3108C51.3506 15.2709 52.9396 16.8598 54.8996 16.8598Z" fill="#3551E7"/>
<path d="M46.5081 14.6411C46.3629 14.9218 46.0184 15.0182 45.7092 14.9528C45.5929 14.9281 45.4776 14.9158 45.3632 14.9158C45.2132 14.9158 45.0918 14.9458 44.9988 15.0058C44.9058 15.0658 44.8593 15.1468 44.8593 15.2488C44.8593 15.3028 44.8668 15.3463 44.8818 15.3793C44.8968 15.4123 44.9298 15.4438 44.9808 15.4738C45.0318 15.5038 45.1067 15.5308 45.2057 15.5547C45.3047 15.5787 45.4352 15.6087 45.5972 15.6447C46.0471 15.7347 46.3831 15.8952 46.605 16.1262C46.827 16.3571 46.938 16.6526 46.938 17.0125C46.938 17.2825 46.884 17.5254 46.776 17.7414C46.668 17.9574 46.518 18.1389 46.3261 18.2858C46.1341 18.4328 45.9031 18.5468 45.6332 18.6278C45.3632 18.7088 45.0663 18.7493 44.7423 18.7493C44.3121 18.7493 43.9818 18.6651 43.6195 18.4968C43.3191 18.3573 43.2176 17.9876 43.3694 17.6932V17.6932C43.541 17.3604 43.9505 17.2832 44.2935 17.4336C44.4467 17.5008 44.5979 17.5344 44.7873 17.5344C44.9373 17.5344 45.0603 17.5014 45.1562 17.4355C45.2522 17.3695 45.3002 17.2855 45.3002 17.1835C45.3002 17.1235 45.2927 17.074 45.2777 17.035C45.2627 16.996 45.2312 16.96 45.1832 16.927C45.1352 16.894 45.0648 16.864 44.9718 16.8371C44.8788 16.8101 44.7573 16.7816 44.6073 16.7516C44.1034 16.6496 43.751 16.4981 43.55 16.2971C43.349 16.0962 43.2485 15.8187 43.2485 15.4648C43.2485 15.2068 43.2965 14.9743 43.3925 14.7674C43.4885 14.5604 43.6265 14.3849 43.8064 14.2409C43.9864 14.097 44.2039 13.986 44.4588 13.908C44.7138 13.83 44.9973 13.791 45.3092 13.791C45.6122 13.791 45.91 13.826 46.2024 13.8959C46.5281 13.9737 46.6618 14.3436 46.5081 14.6411V14.6411Z" fill="#3551E7"/>
<path d="M59.7351 27.1287L59.7352 27.1288C64.6219 35.0838 71.7587 35.2417 75.2614 34.7554L59.7351 27.1287ZM59.7351 27.1287C59.3967 26.5781 59.1254 25.7095 59.0107 24.6499C58.8969 23.5982 58.9414 22.3934 59.2044 21.1907C59.7305 18.7849 61.1144 16.4403 63.7941 15.2814C64.0865 15.1551 64.554 15.0384 65.1437 14.9422C65.7244 14.8476 66.3921 14.7777 67.0659 14.7333C68.4265 14.6435 69.755 14.6612 70.4137 14.7678L70.4138 14.7679M59.7351 27.1287L70.4138 14.7679M70.4138 14.7679C71.4221 14.931 74.1253 15.6979 76.6206 17.2574C79.1195 18.8191 81.3057 21.1064 81.5164 24.2836L81.52 24.3376M70.4138 14.7679L81.52 24.3376M81.52 24.3376L81.5348 24.3888M81.52 24.3376L81.5348 24.3888M81.5348 24.3888L81.5349 24.389M81.5348 24.3888L81.5349 24.389M81.5349 24.389L81.5349 24.3892M81.5349 24.389L81.5349 24.3892M81.5349 24.3892L81.535 24.3895M81.5349 24.3892L81.535 24.3895M81.535 24.3895L81.535 24.3896M81.535 24.3895L81.535 24.3896M81.535 24.3896L81.5366 24.3953L81.5444 24.4244C81.5514 24.4514 81.562 24.4934 81.5747 24.5492C81.6003 24.6609 81.6349 24.8277 81.6686 25.0404C81.7362 25.4664 81.8 26.0736 81.7831 26.7901C81.7491 28.2243 81.3928 30.0765 80.1161 31.8006L81.535 24.3896ZM80.116 31.8007C78.8874 33.4587 77.1142 34.4975 75.2616 34.7554L80.116 31.8007Z" fill="#3551E7" stroke="#3551E7"/>
<path d="M43.0599 50.3211C42.6149 50.2625 42.2599 49.9115 42.2394 49.4808C42.1256 47.1062 42.3578 44.7348 42.931 42.4296C43.0491 41.9605 43.5574 41.6702 44.0591 41.7859C44.5646 41.902 44.8837 42.3756 44.7656 42.8447C44.2327 44.996 44.0146 47.2101 44.1201 49.4243C44.1446 49.9087 43.7425 50.312 43.2188 50.3279C43.165 50.3315 43.1085 50.3275 43.0561 50.3206L43.0599 50.3211Z" fill="#3551E7"/>
<path d="M56.9417 50.0956C56.523 50.0405 56.1781 49.7262 56.1276 49.3198L55.3007 42.7902C55.2415 42.3084 55.6096 41.8758 56.1264 41.8271C56.647 41.779 57.1128 42.1269 57.1719 42.6087L57.9989 49.1383C58.058 49.6201 57.6899 50.0527 57.1731 50.1014C57.0959 50.1089 57.016 50.109 56.9412 50.0991L56.9417 50.0956Z" fill="#3551E7"/>
<path d="M55.4298 48.8186C55.0895 49.025 54.7404 49.24 54.5143 49.5761C54.2882 49.9123 54.215 50.4034 54.4487 50.7735C54.6932 51.1611 55.2111 51.2929 55.6024 51.148C55.9942 51.003 56.2671 50.6369 56.4246 50.2348C56.5138 50.7505 57.0949 51.1429 57.5562 50.999C58.0175 50.8552 58.2351 50.2149 57.9795 49.751C58.3755 49.8982 58.8843 50.016 59.119 49.6839C59.2595 49.4848 59.2298 49.1819 59.0952 48.9546C58.9605 48.7273 58.7407 48.5665 58.5122 48.4505C58.2078 48.2959 57.877 48.2078 57.5491 48.1945" fill="#3551E7"/>
<path d="M41.9119 48.7615C41.5047 48.789 41.0854 48.8201 40.7122 49.0116C40.339 49.2031 40.0208 49.598 40.0362 50.0248C40.0522 50.4716 40.4418 50.8181 40.8622 50.8669C41.2832 50.9158 41.7132 50.7192 42.0599 50.4395C41.8726 50.9284 42.1834 51.5299 42.6652 51.611C43.1469 51.6921 43.6696 51.2319 43.6831 50.7137C43.9571 51.0189 44.3458 51.3491 44.7245 51.1649C44.9513 51.0544 45.0814 50.7774 45.0798 50.5193C45.0781 50.2611 44.9669 50.0228 44.8249 49.8197C44.6358 49.5489 44.389 49.3242 44.1062 49.166" fill="#3551E7"/>
<path d="M0.0249131 12.9072C1.34681 8.25182 7.84932 10.5623 9.17122 5.90699C10.6039 7.84578 12.0529 9.75922 13.4856 11.698C12.1637 16.3533 5.66116 14.0428 4.31435 18.682C2.88172 16.7432 1.43263 14.8298 0 12.891L0.0249131 12.9072Z" fill="#FFAA29"/>
<path d="M9.71609 5.50391L18.1117 16.7905L17.9636 17.0187L9.50971 5.65823L9.3776 5.75266L17.8648 17.1708L17.7167 17.399L9.17122 5.90699L9.71609 5.50391Z" fill="#FFAA29"/>
<path d="M9.3776 5.75266L9.50971 5.65823L17.9636 17.0187L17.8648 17.1708L9.3776 5.75266Z" fill="#FFAA29"/>
<path d="M48.9154 16.8363L56.5199 20.9622C56.6479 22.9101 55.3414 24.0788 53.9596 25.3007L53.9348 25.3226C52.5481 26.5488 51.0935 27.835 51.2903 30.0165C50.3633 29.511 49.4355 29.0111 48.5082 28.5114L48.508 28.5113L48.5078 28.5112C47.5267 27.9825 46.546 27.454 45.5663 26.9191C45.2401 24.7319 46.2025 23.3228 47.2009 21.868L47.2079 21.8578C48.1685 20.4581 49.1594 19.0142 48.9154 16.8363Z" fill="#FFAA29" stroke="#FFAA29" stroke-width="0.3"/>
</svg>
