<svg width="82" height="64" viewBox="0 0 82 64" fill="none" xmlns="http://www.w3.org/2000/svg">
<g clip-path="url(#clip0_1357_1123)">
<path d="M33.9001 32.2001C34.6001 23.2001 29.4001 18.7001 26.2001 16.8001L24.9001 16.2001C23.5001 15.7001 22.0001 15.7001 20.6001 16.1001C18.9001 16.5001 17.5001 17.5001 16.3001 19.0001C15.9001 19.5001 15.6001 19.9001 15.4001 20.4001C15.3001 20.6001 15.2001 20.7001 15.2001 20.9001L15.1001 21.0001C14.1001 23.5001 13.6001 26.2001 14.9001 29.6001C16.0001 32.4001 17.6001 34.5001 18.2001 35.2001C18.2001 35.2001 18.2001 35.2001 18.3001 35.3001C18.8001 35.8001 19.8001 36.6001 20.9001 37.4001C21.5001 37.8001 22.0001 38.1001 22.5001 38.4001C23.0001 38.7001 23.5001 38.9001 23.8001 39.0001C26.3001 39.7001 28.8001 39.1001 30.9001 37.3001C32.2001 36.2001 33.1001 34.8001 33.6001 33.6001L33.9001 32.2001Z" fill="#3551E7"/>
<path d="M48.4002 57.4002C46.7002 57.4002 45.1002 57.2002 43.7002 56.8002C40.0002 55.8002 34.7002 53.8002 30.6002 49.9002C26.3002 45.8002 23.4002 42.2002 24.2002 33.6002V33.3002C24.6002 30.3002 26.8002 25.8002 27.5002 24.8002C28.4002 23.3002 28.8002 23.0002 30.0002 21.9002C30.3002 21.7002 30.6002 21.4002 31.0002 21.0002C34.2002 18.1002 39.7002 14.7002 47.2002 14.7002C47.4002 14.7002 47.6002 14.7002 47.8002 14.7002C54.5002 14.7002 60.6002 17.0002 62.8002 18.4002C64.2002 19.3002 68.5002 22.7002 71.3002 27.6002C74.5002 33.3002 74.4002 38.7002 70.9002 43.5002L70.8002 43.6002V43.7002L70.6002 44.0002C70.5002 44.2002 70.3002 44.5002 70.1002 44.9002C69.7002 45.6002 68.9002 46.8002 67.9002 48.0002C66.0002 50.3002 62.6002 53.4002 57.5002 55.5002C54.5002 56.8002 51.3002 57.4002 48.4002 57.4002Z" fill="#F5F6FF"/>
<path d="M47.1003 15.2002C47.3003 15.2002 47.5003 15.2002 47.7003 15.2002C54.2003 15.2002 60.2003 17.4002 62.5003 18.9002C63.9003 19.8002 68.1003 23.1002 70.8003 28.0002C73.9003 33.5002 73.8003 38.7002 70.5003 43.4002L70.4003 43.5002V43.6002V43.7002C70.4003 43.8002 70.3003 43.8002 70.3003 43.9002C70.2003 44.1002 70.0003 44.4002 69.8003 44.8002C69.4003 45.5002 68.7003 46.6002 67.6003 47.9002C65.7003 50.1002 62.4003 53.2002 57.4003 55.2002C54.5003 56.4002 51.4003 57.0002 48.5003 57.0002C46.9003 57.0002 45.3003 56.8002 43.9003 56.4002C40.3003 55.4002 35.1003 53.5002 31.0003 49.6002C26.8003 45.6002 23.9003 42.1002 24.7003 33.7002V33.4002C25.1003 30.5002 27.3003 26.0002 27.9003 25.0002C28.8003 23.6002 29.0003 23.3002 30.2003 22.3002C30.5003 22.1002 30.8003 21.8002 31.2003 21.4002C34.4003 18.6002 39.7003 15.2002 47.1003 15.2002ZM47.1003 14.2002C40.2003 14.2002 34.6003 17.1002 30.6003 20.6002C28.5003 22.4002 28.2003 22.5002 27.1003 24.4002C26.5003 25.4002 24.1003 30.0002 23.7003 33.2002V33.5002C22.9003 42.5002 26.1003 46.2002 30.3003 50.2002C34.5003 54.2002 39.8003 56.2002 43.6003 57.3002C45.1003 57.7002 46.7003 57.9002 48.4003 57.9002C51.4003 57.9002 54.6003 57.3002 57.7003 56.0002C62.8003 54.0002 66.2003 50.9002 68.3003 48.4002C69.4003 47.1002 70.1003 46.0002 70.6003 45.2002C70.8003 44.8002 71.0003 44.5002 71.1003 44.2002C71.2003 44.1002 71.2003 44.0002 71.2003 43.9002C71.2003 43.9002 71.2003 43.9002 71.2003 43.8002C75.4003 37.9002 74.3003 32.1002 71.6003 27.4002C69.0003 22.6002 64.8003 19.1002 63.0003 18.0002C60.6003 16.5002 54.5003 14.2002 47.7003 14.2002C47.5003 14.2002 47.3003 14.2002 47.1003 14.2002Z" fill="#3551E7"/>
<path d="M35.2998 30.5996C37.2998 30.5996 38.7998 28.9996 38.7998 27.0996C38.7998 25.1996 37.1998 23.5996 35.2998 23.5996C33.2998 23.5996 31.7998 25.1996 31.7998 27.0996C31.7998 28.9996 33.3998 30.5996 35.2998 30.5996Z" fill="#3551E7"/>
<path d="M53.2002 30.5996C55.2002 30.5996 56.7002 28.9996 56.7002 27.0996C56.7002 25.1996 55.1002 23.5996 53.2002 23.5996C51.2002 23.5996 49.7002 25.1996 49.7002 27.0996C49.7002 28.9996 51.2002 30.5996 53.2002 30.5996Z" fill="#3551E7"/>
<path d="M44.8004 29.4004C44.7004 29.7004 44.3004 29.8004 44.0004 29.7004C43.9004 29.7004 43.8004 29.7004 43.7004 29.7004C43.5004 29.7004 43.4004 29.7004 43.3004 29.8004C43.2004 29.9004 43.2004 29.9004 43.2004 30.0004C43.2004 30.1004 43.2004 30.1004 43.2004 30.1004C43.2004 30.1004 43.2004 30.2004 43.3004 30.2004C43.4004 30.2004 43.4004 30.3004 43.5004 30.3004C43.6004 30.3004 43.7004 30.4004 43.9004 30.4004C44.3004 30.5004 44.7004 30.7004 44.9004 30.9004C45.1004 31.1004 45.2004 31.4004 45.2004 31.8004C45.2004 32.1004 45.1004 32.3004 45.0004 32.5004C44.9004 32.7004 44.7004 32.9004 44.6004 33.0004C44.4004 33.1004 44.2004 33.3004 43.9004 33.3004C43.6004 33.4004 43.3004 33.4004 43.0004 33.4004C42.6004 33.4004 42.2004 33.3004 41.9004 33.1004C41.6004 33.0004 41.5004 32.6004 41.6004 32.3004C41.8004 32.0004 42.2004 31.9004 42.5004 32.0004C42.7004 32.1004 42.8004 32.1004 43.0004 32.1004C43.2004 32.1004 43.3004 32.1004 43.4004 32.0004C43.5004 31.9004 43.5004 31.9004 43.5004 31.7004C43.5004 31.6004 43.5004 31.6004 43.5004 31.6004C43.5004 31.6004 43.5004 31.5004 43.4004 31.5004C43.4004 31.5004 43.3004 31.4004 43.2004 31.4004C43.1004 31.4004 43.0004 31.3004 42.8004 31.3004C42.3004 31.2004 41.9004 31.0004 41.7004 30.8004C41.5004 30.6004 41.4004 30.3004 41.4004 30.0004C41.4004 29.7004 41.4004 29.5004 41.5004 29.3004C41.6004 29.1004 41.7004 28.9004 41.9004 28.8004C42.1004 28.7004 42.3004 28.5004 42.6004 28.5004C42.9004 28.4004 43.1004 28.4004 43.5004 28.4004C43.8004 28.4004 44.1004 28.4004 44.4004 28.5004C44.8004 28.7004 45.0004 29.1004 44.8004 29.4004Z" fill="#3551E7"/>
<path d="M78.6997 37.6002C83.9997 30.3002 81.8997 23.7002 80.0997 20.5002L79.2997 19.3002C78.3997 18.2002 77.0997 17.4002 75.6997 16.9002C73.9997 16.4002 72.2997 16.5002 70.5997 17.1002C70.0997 17.3002 69.4997 17.6002 69.0997 17.8002C68.8997 17.9002 68.7997 18.0002 68.6997 18.1002L68.4997 18.2002C66.2997 19.9002 64.4997 21.9002 63.8997 25.4002C63.3997 28.3002 63.5997 31.0002 63.7997 31.9002V32.0002C63.8997 32.7002 64.3997 33.9002 64.8997 35.1002C65.1997 35.7002 65.4997 36.3002 65.6997 36.8002C65.9997 37.3002 66.2997 37.7002 66.4997 38.0002C68.2997 39.9002 70.6997 40.7002 73.4997 40.2002C75.1997 39.9002 76.6997 39.2002 77.6997 38.5002L78.6997 37.6002Z" fill="#3551E7"/>
<path d="M55.4998 61C55.1998 61.1 54.8998 61.3 54.6998 61.5C54.4998 61.7 54.3998 61.9 54.2998 62.2C54.2998 62.5 54.2998 62.8 54.4998 62.9C54.7998 63.1 55.1998 62.9 55.5998 62.6C55.4998 63.1 55.8998 63.7 56.3998 63.7C56.8998 63.7 57.2998 63.1 57.1998 62.6C57.4998 62.9 57.8998 63.2 58.2998 63.2C58.6998 63.2 59.0998 62.9 59.1998 62.5C59.2998 62.1 58.9998 61.6 58.6998 61.4C58.3998 61.1 57.9998 61 57.5998 61" fill="#3551E7"/>
<path d="M38.7 60.9004C38.3 61.0004 37.9 61.0004 37.6 61.3004C37.3 61.5004 37 62.0004 37 62.4004C37.1 62.9004 37.5 63.2004 37.9 63.2004C38.3 63.2004 38.7 63.0004 39 62.7004C38.9 63.2004 39.2 63.8004 39.7 63.8004C40.2 63.8004 40.6 63.3004 40.6 62.8004C40.9 63.1004 41.3 63.4004 41.6 63.2004C41.8 63.1004 41.9 62.8004 41.9 62.5004C41.9 62.2004 41.7 62.0004 41.6 61.8004C41.4 61.5004 41.1 61.3004 40.9 61.2004" fill="#3551E7"/>
<path d="M41.1958 53.7798L39.3008 53.6426L38.7085 61.8213L40.6036 61.9585L41.1958 53.7798Z" fill="#3551E7"/>
<path d="M56.8974 54.1185L55.0088 54.3262L55.8067 61.5824L57.6953 61.3747L56.8974 54.1185Z" fill="#3551E7"/>
<path d="M53.0996 18.1004C55.2996 20.3004 57.5996 22.5004 59.8996 24.7004C60.6996 24.2004 61.4996 23.8004 62.2996 23.3004C60.0996 21.2004 57.9996 19.1004 55.8996 16.9004C54.8996 17.4004 53.9996 17.8004 53.0996 18.1004Z" fill="#FFAA29"/>
<path d="M58.0002 4.90039C55.2002 6.70039 52.4002 8.50039 49.7002 10.5004C50.4002 11.1004 51.0002 11.6004 51.7002 12.2004C54.3002 10.4004 57.0002 8.70039 59.7002 7.00039C59.1002 6.20039 58.6002 5.60039 58.0002 4.90039Z" fill="#F2ADAD"/>
<path d="M68.8002 36.1996C69.8002 33.5996 70.9002 30.9996 72.2002 28.3996C72.4002 28.0996 71.9002 27.5996 71.7002 27.3996C71.6002 27.2996 71.0002 26.7996 70.9002 27.0996C69.4002 29.8996 68.2002 32.7996 67.2002 35.6996C67.8002 35.8996 68.3002 36.0996 68.8002 36.1996Z" fill="#FFE8EB"/>
<path d="M23.5996 11.5003C23.5996 10.8003 23.7996 10.1003 24.3996 9.70026C24.9996 9.30026 25.6996 9.10026 26.3996 9.50026C26.5996 9.60026 26.7996 9.80026 26.8996 10.1003C27.1996 9.80026 27.4996 9.60026 27.8996 9.50026C28.1996 9.40026 28.4996 9.40026 28.7996 9.50026C29.0996 9.50026 29.4996 9.60026 29.7996 9.80026C30.3996 10.2003 30.5996 11.1003 30.3996 11.8003C30.1996 12.6003 29.5996 13.1003 28.9996 13.6003C28.2996 14.2003 27.4996 14.8003 26.5996 15.2003C26.3996 15.3003 26.0996 15.3003 25.9996 15.1003C25.4996 14.6003 24.8996 14.0003 24.4996 13.4003C23.9996 12.9003 23.6996 12.2003 23.5996 11.5003Z" fill="white"/>
<path d="M44 9.5998C43.5 9.4998 43 9.4998 42.5 9.3998C42.2 9.3998 42 9.2998 41.7 9.2998C41.5 9.5998 41.5 9.9998 41.4 10.2998C41.3 10.5998 41.3 10.8998 41.2 11.1998C41.1 11.5998 41 12.0998 40.7 12.4998C40.5 12.7998 40.2 13.1998 39.9 13.4998C39.8 13.5998 39.7 13.6998 39.6 13.7998C38.6 14.6998 37.5 15.4998 36.7 16.5998C36.4 16.9998 36.1 17.3998 36 17.8998C36.9 17.9998 37.8 18.0998 38.7 18.1998C38.9 17.8998 39 17.5998 39.1 17.2998C39.2 16.8998 39.3 16.3998 39.6 15.9998C40.1 15.1998 40.9 14.5998 41.6 13.9998C42.4 13.2998 43 12.5998 43.4 11.7998C43.9 11.2998 44.1 10.3998 44 9.5998Z" fill="#FF2238"/>
<path d="M10.3 27.9004C9.8 27.7004 9.3 27.5004 8.8 27.7004C8 28.0004 7.6 29.3004 6.7 29.5004C6.2 29.6004 5.6 29.3004 5.1 28.8004C4.1 27.8004 3.2 26.6004 2.3 25.6004C2.2 25.5004 2.2 25.5004 2.1 25.4004C1.7 25.7004 1.2 26.1004 0.8 26.4004C0.6 26.6004 0.3 26.6004 0 26.6004C0.4 27.0004 0.8 27.4004 1.2 27.7004C2.1 28.4004 3 29.2004 3.8 29.9004C4.6 30.6004 5.2 30.9004 6 30.8004C6.7 30.7004 7.3 30.2004 8 30.2004C8.5 30.0004 9.2 30.0004 9.8 30.4004C10.3 30.7004 10.8 31.3004 11.2 31.9004C11.5 32.3004 11.7 32.7004 12.1 33.0004C12.6 32.1004 13.1 31.2004 13.5 30.3004C12.8 29.1004 11.2 28.4004 10.3 27.9004Z" fill="#3551E7"/>
<path d="M23.5004 0C23.0004 1.4 22.5004 2.8 22.0004 4.3C21.7004 5.1 21.5004 5.9 21.3004 6.8C21.2004 7.2 21.1004 7.6 20.9004 8C20.8004 8.2 20.8004 8.3 20.7004 8.5C20.7004 8.5 20.7004 8.5 20.7004 8.6V8.7C20.7004 8.7 20.7004 8.7 20.6004 8.7C20.6004 8.7 20.6004 8.7 20.5004 8.7C20.4004 8.7 20.4004 8.7 20.3004 8.7C20.2004 8.7 20.1004 8.7 20.2004 8.7C20.1004 8.7 20.1004 8.7 20.0004 8.7C19.8004 8.7 19.5004 8.6 19.3004 8.5C19.2004 8.5 19.2004 8.5 19.1004 8.4C19.1004 8.4 19.1004 8.4 19.0004 8.4C18.9004 8.3 18.8004 8.3 18.7004 8.2C17.6004 7.6 16.4004 7 14.9004 7.4C13.5004 7.7 11.9004 8.9 11.3004 10.5C10.9004 11.7 11.1004 12.7 11.5004 13.7C11.9004 14.6 12.4004 15.6 12.3004 16.7C12.3004 16.8 12.3004 16.9 12.2004 17.1V17.2V17.3C12.2004 17.3 12.2004 17.4 12.1004 17.4L12.0004 17.5L11.9004 17.6H11.8004C11.7004 17.6 11.7004 17.7 11.6004 17.7C11.5004 17.7 11.4004 17.8 11.4004 17.8C11.3004 17.8 11.1004 17.9 11.0004 17.9H10.9004C10.8004 17.9 10.7004 17.9 10.7004 17.9C10.0004 18 9.30039 18 8.60039 18C7.80039 18 7.10039 18.1 6.30039 18.1C6.00039 18.1 5.60039 18.1 5.30039 18.2C5.20039 18.7 5.00039 19.1 4.90039 19.6C6.30039 19.5 7.60039 19.4 9.00039 19.4C10.3004 19.3 11.7004 19.1 12.9004 18C13.5004 17.4 14.0004 16.7 14.1004 15.9C14.2004 15.2 14.1004 14.6 13.9004 14.1C13.6004 13.2 13.1004 12.3 12.9004 11.3V11.2C12.9004 11.1 12.9004 11.1 12.9004 11C12.9004 10.9 12.9004 10.7 12.9004 10.6C12.9004 10.5 12.9004 10.5 12.9004 10.4V10.3V10.2C12.9004 10.1 12.9004 10.1 13.0004 10C13.0004 9.9 13.1004 9.9 13.1004 9.8V9.7C13.1004 9.6 13.2004 9.6 13.2004 9.5L13.3004 9.4C13.3004 9.4 13.3004 9.3 13.4004 9.3V9.2L13.5004 9.1C13.5004 9.1 13.5004 9.1 13.6004 9.1C13.7004 9.1 13.8004 9 13.8004 9C13.9004 9 13.9004 8.9 14.0004 8.9H14.1004C14.2004 8.9 14.3004 8.8 14.3004 8.8C14.4004 8.8 14.4004 8.8 14.5004 8.7C14.4004 8.7 14.5004 8.7 14.6004 8.7C14.8004 8.7 15.0004 8.7 15.1004 8.7C15.1004 8.7 15.1004 8.7 15.2004 8.7H15.3004C15.4004 8.7 15.5004 8.7 15.5004 8.7C15.7004 8.7 15.8004 8.8 16.0004 8.8C16.0004 8.9 16.3004 9 16.5004 9.1C17.4004 9.5 18.3004 10.2 19.4004 10.1C20.1004 10 20.8004 9.7 21.3004 9.2C22.0004 8.5 22.4004 7.6 22.6004 6.7C23.1004 5 23.6004 3.4 24.1004 1.8C24.3004 1.3 24.5004 0.8 24.7004 0.3C24.4004 0.1 24.0004 0 23.5004 0Z" fill="#6A82FF"/>
<path d="M20.4004 8.69972C20.5004 8.59972 20.5004 8.69972 20.4004 8.69972V8.69972Z" fill="#6A82FF"/>
</g>
<defs>
<clipPath id="clip0_1357_1123">
<rect width="82" height="64" fill="white"/>
</clipPath>
</defs>
</svg>
