<svg width="86" height="64" viewBox="0 0 86 64" fill="none" xmlns="http://www.w3.org/2000/svg">
<path d="M29.3109 38.3526L29.3108 38.3525C23.1248 32.3393 24.0333 25.6495 24.9693 22.4717L29.3109 38.3526ZM29.3109 38.3526C30.1774 39.1953 32.1687 39.9701 34.3378 39.9205C36.4749 39.8715 38.6856 39.0248 40.0733 36.7569C40.2238 36.5108 40.3931 36.0984 40.5631 35.5657C40.7303 35.0419 40.8889 34.4323 41.0263 33.8121C41.3036 32.5602 41.4833 31.3176 41.4874 30.6827L41.4874 30.6826M29.3109 38.3526L41.4874 30.6826M41.4874 30.6826C41.4936 29.7109 41.2242 27.0475 40.2359 24.433C39.2431 21.8064 37.5789 19.3645 34.8808 18.5937L34.8268 18.5783M41.4874 30.6826L34.8268 18.5783M34.8268 18.5783L34.7783 18.5517M34.8268 18.5783L34.7783 18.5517M34.7783 18.5517L34.778 18.5516M34.7783 18.5517L34.778 18.5516M34.778 18.5516L34.7779 18.5515M34.778 18.5516L34.7779 18.5515M34.7779 18.5515L34.7778 18.5514M34.7779 18.5515L34.7778 18.5514M34.7778 18.5514L34.7775 18.5512M34.7778 18.5514L34.7775 18.5512M34.7775 18.5512L34.7734 18.5491L34.75 18.5369C34.7281 18.5256 34.6938 18.5084 34.6478 18.4865C34.5559 18.4428 34.4176 18.3806 34.2396 18.3108C33.8829 18.171 33.37 18.0018 32.7518 17.8874C31.5148 17.6584 29.8778 17.6521 28.2174 18.5144L34.7775 18.5512ZM28.2173 18.5145C26.6205 19.3445 25.4645 20.7929 24.9694 22.4715L28.2173 18.5145Z" fill="#3551E7" stroke="#3551E7"/>
<path d="M33.0082 33.5478L33.0082 33.5476C33.1095 32.4067 33.6462 30.8765 34.6147 29.2112C35.5787 27.5536 36.953 25.7926 38.6928 24.1902C42.1721 20.9857 47.086 18.4385 53.0769 18.5809L53.0769 18.581H53.0888C58.7963 18.581 63.976 20.6141 65.9604 21.9244L65.9605 21.9244C67.4451 22.9044 70.977 26.0005 73.2281 30.1507C75.4682 34.2808 76.4103 39.3828 72.902 44.5158L72.8721 44.5595L72.8522 44.6082L72.8522 44.6083L72.8521 44.6084L72.852 44.6086L72.8512 44.6107L72.8459 44.6231C72.841 44.6347 72.8331 44.653 72.8222 44.6777C72.8004 44.727 72.7666 44.8017 72.7199 44.8992C72.6266 45.0943 72.4823 45.3803 72.2816 45.7365C71.8801 46.449 71.2535 47.4406 70.3586 48.5448C68.569 50.7531 65.7101 53.4075 61.4326 55.188C57.3091 56.9033 53.0221 57.2361 49.5674 56.283C46.3678 55.3991 41.8739 53.6132 38.361 50.1069C34.867 46.6195 32.3089 41.3976 33.0082 33.5478Z" fill="#F5F6FF" stroke="#3551E7"/>
<path d="M42.2035 36.3913C43.9247 36.3913 45.32 34.996 45.32 33.2748C45.32 31.5535 43.9247 30.1582 42.2035 30.1582C40.4822 30.1582 39.0869 31.5535 39.0869 33.2748C39.0869 34.996 40.4822 36.3913 42.2035 36.3913Z" fill="#3551E7"/>
<path d="M57.891 36.3913C59.6122 36.3913 61.0075 34.996 61.0075 33.2748C61.0075 31.5535 59.6122 30.1582 57.891 30.1582C56.1697 30.1582 54.7744 31.5535 54.7744 33.2748C54.7744 34.996 56.1697 36.3913 57.891 36.3913Z" fill="#3551E7"/>
<path d="M50.5242 35.3236C50.3968 35.5702 50.0942 35.6548 49.8227 35.5973C49.7206 35.5757 49.6193 35.5649 49.5189 35.5649C49.3872 35.5649 49.2805 35.5912 49.1988 35.6439C49.1172 35.6966 49.0764 35.7677 49.0764 35.8573C49.0764 35.9047 49.0829 35.9429 49.0961 35.9719C49.1093 36.0008 49.1383 36.0285 49.183 36.0548C49.2278 36.0812 49.2937 36.1049 49.3806 36.1259C49.4675 36.147 49.5821 36.1734 49.7243 36.205C50.1194 36.284 50.4144 36.4249 50.6094 36.6277C50.8043 36.8305 50.9017 37.09 50.9017 37.4061C50.9017 37.6431 50.8543 37.8565 50.7595 38.0461C50.6647 38.2358 50.533 38.3951 50.3644 38.5242C50.1958 38.6533 49.993 38.7534 49.7559 38.8245C49.5189 38.8956 49.2581 38.9312 48.9736 38.9312C48.5959 38.9312 48.3058 38.8573 47.9876 38.7095C47.7239 38.587 47.6347 38.2623 47.768 38.0038V38.0038C47.9187 37.7116 48.2783 37.6438 48.5795 37.7758C48.7141 37.8349 48.8469 37.8644 49.0131 37.8644C49.1448 37.8644 49.2528 37.8354 49.3371 37.7775C49.4214 37.7195 49.4636 37.6458 49.4636 37.5562C49.4636 37.5035 49.457 37.4601 49.4438 37.4258C49.4306 37.3916 49.403 37.36 49.3608 37.331C49.3187 37.302 49.2568 37.2757 49.1751 37.252C49.0935 37.2283 48.9868 37.2032 48.8551 37.1769C48.4126 37.0874 48.1031 36.9543 47.9266 36.7779C47.7501 36.6014 47.6619 36.3577 47.6619 36.0469C47.6619 35.8204 47.704 35.6163 47.7883 35.4345C47.8726 35.2528 47.9938 35.0987 48.1518 34.9722C48.3099 34.8458 48.5008 34.7484 48.7247 34.6799C48.9486 34.6114 49.1975 34.5771 49.4715 34.5771C49.7376 34.5771 49.999 34.6078 50.2558 34.6692C50.5418 34.7376 50.6593 35.0624 50.5242 35.3236V35.3236Z" fill="#3551E7"/>
<path d="M80.5597 38.2582L80.5598 38.2581C86.0561 31.6086 84.4264 25.0571 83.1508 21.9997L80.5597 38.2582ZM80.5597 38.2582C79.7898 39.19 77.8945 40.1765 75.7328 40.3628C73.603 40.5462 71.3135 39.9446 69.6877 37.8408C69.5114 37.6125 69.2983 37.2209 69.0714 36.7099C68.8483 36.2074 68.6245 35.6186 68.4205 35.017C68.0088 33.8025 67.6952 32.5869 67.6223 31.9561L67.6223 31.9561M80.5597 38.2582L67.6223 31.9561M67.6223 31.9561C67.5105 30.9907 67.4891 28.3138 68.1875 25.6074C68.8892 22.8886 70.2784 20.2804 72.8768 19.2212L72.9288 19.2M67.6223 31.9561L72.9288 19.2M72.9288 19.2L72.9741 19.1682M72.9288 19.2L72.9741 19.1682M72.9741 19.1682L72.9744 19.1681M72.9741 19.1682L72.9744 19.1681M72.9744 19.1681L72.9745 19.168M72.9744 19.1681L72.9745 19.168M72.9745 19.168L72.9746 19.1679M72.9745 19.168L72.9746 19.1679M72.9746 19.1679L72.9749 19.1677M72.9746 19.1679L72.9749 19.1677M72.9749 19.1677L72.9787 19.1651L73.0006 19.1504C73.0212 19.1369 73.0534 19.116 73.0967 19.0893C73.1834 19.0358 73.3141 18.959 73.4835 18.8703C73.8228 18.6925 74.3143 18.4686 74.9165 18.2877C76.1213 17.9258 77.748 17.7417 79.4922 18.4186L72.9749 19.1677ZM79.4923 18.4187C81.1697 19.0704 82.4763 20.3846 83.1507 21.9996L79.4923 18.4187Z" fill="#3551E7" stroke="#3551E7"/>
<path d="M44.1031 60.7569C43.7125 60.7043 43.4027 60.3751 43.3873 59.9687C43.3016 57.7281 43.5199 55.4885 44.0376 53.3092C44.1441 52.8658 44.5925 52.5887 45.0327 52.6948C45.4762 52.8014 45.7537 53.2465 45.6471 53.6899C45.1658 55.7237 44.9608 57.8148 45.0401 59.9041C45.0588 60.361 44.703 60.7442 44.2427 60.7624C44.1955 60.766 44.1458 60.7627 44.0998 60.7565L44.1031 60.7569Z" fill="#3551E7"/>
<path d="M61.2421 61.7422C60.8745 61.6927 60.5733 61.3981 60.5314 61.0148L59.8443 54.8569C59.7952 54.4024 60.1213 53.9919 60.5757 53.9429C61.0334 53.8943 61.4406 54.2199 61.4896 54.6743L62.1768 60.8322C62.2259 61.2867 61.8998 61.6972 61.4454 61.7462C61.3776 61.7538 61.3073 61.7544 61.2417 61.7455L61.2421 61.7422Z" fill="#3551E7"/>
<path d="M59.9214 60.546C59.6211 60.7429 59.313 60.9479 59.1123 61.2665C58.9116 61.5852 58.8443 62.0492 59.0474 62.3971C59.2599 62.7615 59.7142 62.8828 60.0589 62.7436C60.4041 62.6044 60.6461 62.2572 60.7869 61.8767C60.8622 62.3629 61.3704 62.7297 61.7766 62.5912C62.1828 62.4527 62.3779 61.847 62.1561 61.4107C62.5032 61.5472 62.9495 61.6553 63.1578 61.3405C63.2824 61.1517 63.2582 60.866 63.1412 60.6522C63.0243 60.4385 62.8321 60.2881 62.632 60.18C62.3655 60.0359 62.0753 59.9547 61.7873 59.9441" fill="#3551E7"/>
<path d="M43.1038 59.2918C42.7459 59.3202 42.3772 59.352 42.0481 59.5351C41.7191 59.7181 41.4371 60.0928 41.4481 60.4955C41.4594 60.9171 41.7996 61.2417 42.1688 61.2853C42.5384 61.329 42.9174 61.1407 43.2237 60.8747C43.0562 61.3372 43.3257 61.9031 43.7485 61.9767C44.1714 62.0504 44.6334 61.6129 44.6484 61.1237C44.8873 61.4101 45.2269 61.7193 45.5607 61.5433C45.7607 61.4376 45.8767 61.1754 45.8768 60.9317C45.8769 60.688 45.7807 60.4638 45.6571 60.2729C45.4926 60.0185 45.277 59.8079 45.0295 59.6603" fill="#3551E7"/>
<path d="M57.0527 18.149C59.2437 20.396 61.5185 22.5973 63.8794 24.7468C64.6958 24.2924 65.4995 23.8285 66.2949 23.3536C64.0809 21.2812 61.9466 19.1601 59.8921 16.998C58.9457 17.3801 57.9992 17.7638 57.0527 18.149Z" fill="#FFAA29"/>
<path d="M61.9763 4.88341C59.1369 6.67751 56.3647 8.53135 53.668 10.445C54.329 11.0236 55.0027 11.5928 55.691 12.1526C58.2975 10.3537 60.9711 8.60997 63.7076 6.9228C63.1326 6.24195 62.5576 5.56111 61.9784 4.88184L61.9763 4.88341Z" fill="#F2ADAD"/>
<path d="M72.7889 36.2312C73.7414 33.592 74.8914 30.9916 76.2346 28.4463C76.3894 28.1513 75.9795 27.6962 75.7584 27.4764C75.6655 27.3825 75.1081 26.8853 74.9607 27.1659C73.4774 29.9774 72.2345 32.8541 71.2305 35.7772C71.7509 35.9274 72.2714 36.0799 72.7904 36.2323L72.7889 36.2312Z" fill="#FFE8EB"/>
<path d="M27.631 14.4808C27.5877 13.7953 27.8249 13.1018 28.3908 12.671C28.9726 12.2292 29.7404 12.1175 30.3832 12.5059C30.6124 12.6443 30.7999 12.8392 30.9282 13.0657C31.2167 12.7984 31.5485 12.5814 31.9508 12.4855C32.2506 12.4131 32.5695 12.4068 32.8677 12.4886C33.2139 12.498 33.5553 12.5955 33.8519 12.7999C34.4818 13.2339 34.6822 14.1019 34.453 14.8C34.2061 15.5563 33.6259 16.1208 33.0248 16.624C32.2906 17.2388 31.494 17.7797 30.646 18.2325C30.4393 18.3426 30.1892 18.286 30.0321 18.1225C29.5112 17.5784 28.9566 17.0501 28.4917 16.4573C28.0429 15.8881 27.6775 15.2151 27.6294 14.484L27.631 14.4808Z" fill="white"/>
<path d="M48.0498 9.61576C47.5618 9.55205 47.0763 9.47727 46.5896 9.40341C46.3333 9.37755 46.077 9.34893 45.8207 9.32031C45.6679 9.65361 45.5804 10.0026 45.5138 10.3553C45.5003 10.3608 45.5003 10.371 45.5089 10.3821C45.4498 10.696 45.4054 11.0127 45.3425 11.3229C45.2514 11.7688 45.0936 12.188 44.8657 12.5887C44.6266 12.9303 44.3629 13.2627 44.0857 13.5868C43.992 13.6957 43.8959 13.8037 43.7998 13.9118C42.8485 14.8443 41.6902 15.6577 40.8769 16.6659C40.5491 17.0721 40.2953 17.5107 40.1696 17.9732C40.1499 17.9862 40.1363 18.0019 40.1314 18.0194C40.1314 18.0231 40.1289 18.0268 40.1289 18.0305C41.0248 18.1524 41.9231 18.2632 42.8238 18.3666C43.0407 18.1043 43.1528 17.7932 43.2416 17.495C43.3697 17.0629 43.4634 16.629 43.7111 16.2236C44.1756 15.4629 44.9877 14.8655 45.7184 14.2478C46.4885 13.596 47.1231 12.886 47.5286 12.0652C47.913 11.2841 48.0929 10.4476 48.0523 9.61576H48.0498Z" fill="#FF2238"/>
<path d="M10.2978 27.9304C9.79409 27.6867 9.26106 27.5263 8.80986 27.6835C7.97043 27.9744 7.59269 29.2905 6.71548 29.4572C6.20762 29.5531 5.62211 29.2323 5.12685 28.7559C4.12372 27.7873 3.27379 26.52 2.28745 25.5372C2.22869 25.479 2.17203 25.4209 2.11537 25.3643C1.67886 25.6913 1.24026 26.0199 0.803749 26.347C0.554018 26.5341 0.264422 26.5813 0 26.542C0.396633 26.9445 0.814251 27.3014 1.23187 27.6521C2.10698 28.388 2.98209 29.1223 3.8572 29.8581C4.63368 30.5107 5.26535 30.8739 6.04183 30.7135C6.72806 30.572 7.33666 30.0767 8.05228 30.0641C8.59371 29.844 9.20229 29.8613 9.88014 30.3126C10.3922 30.6538 10.8371 31.2135 11.2547 31.767C11.5212 32.1208 11.8003 32.5831 12.1214 32.863C12.6104 31.984 13.0784 31.0736 13.5422 30.1742C12.7657 29.1396 11.24 28.3817 10.2978 27.9288V27.9304Z" fill="#3551E7"/>
<path d="M27.5335 0.00354651C26.9902 1.41806 26.4885 2.84032 26.0362 4.27045C25.7763 5.09417 25.5307 5.91988 25.3006 6.74582C25.189 7.14944 25.0892 7.55592 24.9414 7.95813C24.8763 8.13521 24.8398 8.22234 24.7311 8.40863C24.7166 8.43258 24.7008 8.4583 24.6851 8.48401C24.6728 8.49904 24.6434 8.53887 24.636 8.54681C24.6273 8.55653 24.6074 8.57413 24.5938 8.58825C24.5838 8.59705 24.5713 8.60671 24.5626 8.61643C24.5588 8.61906 24.5551 8.62168 24.5513 8.62431C24.5475 8.62694 24.5425 8.62866 24.5387 8.63129C24.5324 8.63478 24.5196 8.63906 24.507 8.64604C24.4841 8.65376 24.4598 8.66057 24.4369 8.66829C24.4267 8.67172 24.4153 8.67692 24.4039 8.68213C24.4051 8.68036 24.4077 8.67949 24.4102 8.67864C24.4178 8.67338 24.4241 8.6699 24.4292 8.66818C24.4152 8.67424 24.3999 8.67938 24.3846 8.68184C24.3614 8.68419 24.3371 8.68832 24.3139 8.69067C24.2574 8.69611 24.202 8.69979 24.1465 8.70078C24.0924 8.70268 23.9743 8.68666 24.0885 8.70262C24.0237 8.69453 23.9603 8.69004 23.8978 8.6784C23.651 8.63906 23.4183 8.56504 23.1915 8.47679C23.1377 8.45544 23.0852 8.43231 23.0314 8.41096C23.0274 8.40822 23.0261 8.4073 23.0234 8.40548C23.0011 8.39531 22.9774 8.38424 22.9551 8.37408C22.8459 8.32241 22.7403 8.26543 22.6361 8.20935C21.512 7.60005 20.3415 7.05538 18.8692 7.38392C17.4492 7.6989 15.8812 8.8911 15.2747 10.4997C14.835 11.6643 15.117 12.741 15.4621 13.6548C15.8175 14.5965 16.3862 15.5494 16.2502 16.6934C16.2339 16.8336 16.2183 16.896 16.1534 17.0784C16.1418 17.1122 16.1277 17.1469 16.1148 17.1798C16.1112 17.1852 16.1087 17.1887 16.104 17.1985C16.0871 17.2286 16.0728 17.258 16.056 17.2881C16.0486 17.2988 16.0209 17.3476 16.0027 17.3768C16.0027 17.3768 16.0003 17.3804 15.9991 17.3821C15.972 17.4157 15.945 17.4493 15.9193 17.4839C15.9193 17.4839 15.9168 17.4874 15.9156 17.4892C15.9044 17.4997 15.8944 17.5085 15.8882 17.5147C15.877 17.5253 15.8659 17.5359 15.8547 17.5464C15.8283 17.5648 15.772 17.6097 15.7269 17.6439C15.7232 17.6465 15.7218 17.6456 15.7181 17.6482C15.6903 17.663 15.6638 17.6788 15.636 17.6936C15.5716 17.7275 15.5057 17.7579 15.4411 17.7892C15.4322 17.7935 15.4285 17.7961 15.4234 17.7978C15.4055 17.8039 15.3865 17.8116 15.3839 17.8125C15.3051 17.8418 15.2262 17.8684 15.1471 17.8923C15.0081 17.935 14.8687 17.967 14.7294 18.0016L14.7281 18.0007C14.6973 18.0057 14.6679 18.0115 14.6371 18.0164C14.5564 18.0314 14.4768 18.0418 14.3947 18.0532C13.6874 18.1485 12.987 18.1599 12.2878 18.2008C11.523 18.2461 10.7582 18.2915 9.99594 18.3359C9.65732 18.3561 9.31869 18.3763 8.98261 18.3956C8.84265 18.8632 8.69626 19.3316 8.5459 19.7973C9.90815 19.7168 11.2704 19.6362 12.6327 19.5557C13.9357 19.4787 15.3527 19.2845 16.5753 18.2018C17.2172 17.6332 17.655 16.8693 17.7955 16.0626C17.9132 15.3943 17.7837 14.7725 17.6103 14.2145C17.3197 13.2782 16.831 12.4535 16.6551 11.4473C16.6529 11.4249 16.6424 11.3576 16.6403 11.3379C16.6329 11.2806 16.628 11.2223 16.6243 11.1624C16.6166 11.037 16.6141 10.9099 16.6206 10.7812C16.6246 10.7213 16.6287 10.6615 16.6353 10.6007C16.6383 10.5793 16.6483 10.5079 16.6534 10.4749C16.6599 10.4428 16.6776 10.3688 16.6831 10.3465C16.7009 10.2752 16.7226 10.2039 16.7468 10.1318C16.7675 10.0704 16.8022 10.0029 16.8166 9.94227C16.8309 9.91295 16.8452 9.88365 16.8595 9.85433C16.8991 9.77976 16.9453 9.70975 16.9849 9.63518C16.9849 9.63518 16.9862 9.63341 16.9874 9.63164C17.013 9.59444 17.0399 9.55815 17.067 9.52454C17.089 9.49534 17.1125 9.46974 17.1346 9.44054C17.1641 9.40339 17.1763 9.38568 17.1799 9.38036C17.2197 9.34247 17.2635 9.30732 17.2908 9.28177C17.307 9.2668 17.3257 9.25096 17.3419 9.23599L17.3368 9.23771C17.3368 9.23771 17.3419 9.23599 17.3431 9.23422C17.3519 9.22719 17.3593 9.21924 17.3693 9.21044C17.4427 9.14352 17.4146 9.18158 17.3809 9.21061C17.4424 9.16677 17.5499 9.08154 17.5637 9.07011C17.575 9.06223 17.5825 9.05697 17.5887 9.0508C17.5976 9.04645 17.6077 9.04034 17.6203 9.03337C17.6909 8.99324 17.7617 8.95579 17.8326 8.92103C17.8643 8.90628 17.9087 8.88724 17.9289 8.87769C18.0052 8.84927 18.0815 8.82085 18.158 8.7978C18.2307 8.77469 18.3036 8.75964 18.3764 8.73922C18.2552 8.77326 18.3904 8.73585 18.4379 8.72938C18.6163 8.70332 18.7902 8.69509 18.9631 8.69401C18.9631 8.69401 18.9954 8.69538 19.0148 8.69565C19.0355 8.69685 19.0691 8.69911 19.0666 8.69997C19.1417 8.70732 19.2169 8.71466 19.2909 8.72647C19.4506 8.75024 19.6056 8.78379 19.7595 8.82448C20.0283 8.89723 20.331 9.01163 20.5494 9.11497C21.4704 9.55048 22.3322 10.2168 23.4894 10.1101C24.1439 10.0488 24.8415 9.71181 25.4041 9.16172C26.1355 8.44589 26.4656 7.53999 26.7176 6.61418C27.1687 4.96128 27.6806 3.31105 28.2548 1.66977C28.4344 1.15889 28.6204 0.64988 28.8117 0.141846C28.3865 0.0972496 27.9613 0.0499671 27.536 0L27.5335 0.00354651Z" fill="#6A82FF"/>
<path d="M24.4288 8.66353C24.4533 8.65232 24.4627 8.64475 24.4288 8.66353V8.66353Z" fill="#6A82FF"/>
<path d="M17.3376 9.23336C17.3376 9.23336 17.3625 9.22077 17.378 9.20712C17.3598 9.21888 17.3481 9.22704 17.3389 9.23153C17.3389 9.23153 17.3389 9.23153 17.3376 9.23336Z" fill="#6A82FF"/>
</svg>
