<svg width="81" height="54" viewBox="0 0 81 54" fill="none" xmlns="http://www.w3.org/2000/svg">
<g clip-path="url(#clip0_1357_1103)">
<path d="M32.4005 18.4999C25.5005 12.6999 18.8005 14.3999 15.4005 15.7999L14.1005 16.4999C12.9005 17.2999 12.0005 18.4999 11.5005 19.8999C10.9005 21.4999 10.9005 23.2999 11.4005 24.9999C11.6005 25.5999 11.8005 26.0999 12.0005 26.5999C12.1005 26.7999 12.2005 26.8999 12.2005 26.9999L12.3005 27.1999C13.8005 29.4999 15.7005 31.4999 19.1005 32.3999C22.0005 33.0999 24.7005 33.0999 25.6005 32.9999H25.7005C26.4005 32.8999 27.6005 32.5999 28.9005 32.0999C29.6005 31.8999 30.2005 31.5999 30.7005 31.3999C31.3005 31.0999 31.7005 30.8999 31.9005 30.6999C33.9005 29.0999 34.9005 26.6999 34.6005 23.8999C34.4005 22.0999 33.9005 20.5999 33.2005 19.5999L32.4005 18.4999Z" fill="#3551E7"/>
<path d="M49.1002 45.6006C47.4002 45.6006 45.8002 45.4006 44.4002 45.0006C40.7002 44.0006 35.4002 41.9006 31.3002 37.7006C26.5002 32.8006 24.4002 26.2006 25.1002 18.1006C25.2002 16.7006 25.9002 14.9006 26.9002 13.1006C28.1002 11.0006 29.8002 8.90059 31.7002 7.20059C34.9002 4.20059 40.4002 0.600586 47.9002 0.600586C48.1002 0.600586 48.3002 0.600586 48.5002 0.600586C55.2002 0.600586 61.3002 3.00059 63.5002 4.50059C64.9002 5.40059 69.2002 9.00059 72.0002 14.2006C75.2002 20.2006 75.1002 25.9006 71.6002 31.0006L71.5002 31.1006L71.4002 31.2006L71.3002 31.4006C71.2002 31.6006 71.0002 32.0006 70.8002 32.4006C70.4002 33.2006 69.6002 34.4006 68.6002 35.7006C66.7002 38.1006 63.3002 41.4006 58.2002 43.6006C55.2002 45.0006 52.0002 45.6006 49.1002 45.6006Z" fill="#F5F6FF"/>
<path d="M47.8002 1.00039C48.0002 1.00039 48.2002 1.00039 48.4002 1.00039C54.9002 1.00039 60.9002 3.40039 63.1002 4.90039C64.5002 5.80039 68.7002 9.40039 71.4002 14.5004C74.5002 20.4004 74.4002 25.8004 71.1002 30.8004L71.0002 30.9004V31.0004V31.1004V31.2004C71.0002 31.3004 70.9002 31.3004 70.9002 31.4004C70.8002 31.6004 70.6002 31.9004 70.4002 32.4004C70.0002 33.2004 69.3002 34.3004 68.2002 35.6004C66.3002 37.9004 63.0002 41.2004 58.0002 43.3004C55.1002 44.5004 52.0002 45.2004 49.1002 45.2004C47.5002 45.2004 45.9002 45.0004 44.5002 44.6004C40.9002 43.6004 35.7002 41.5004 31.6002 37.4004C26.9002 32.6004 24.8002 26.2004 25.5002 18.2004C25.6002 16.9004 26.3002 15.1004 27.3002 13.4004C28.5002 11.3004 30.1002 9.30039 32.0002 7.60039C35.2002 4.50039 40.5002 1.00039 47.8002 1.00039ZM47.8002 0.000390626C41.0002 0.000390626 35.3002 3.00039 31.3002 6.80039C29.2002 8.70039 27.6002 10.9004 26.5002 12.9004C25.3002 14.9004 24.7002 16.8004 24.6002 18.1004C23.8002 27.6004 26.8002 33.9004 31.0002 38.1004C35.2002 42.3004 40.5002 44.5004 44.3002 45.5004C45.8002 45.9004 47.4002 46.1004 49.1002 46.1004C52.1002 46.1004 55.3002 45.5004 58.4002 44.1004C63.5002 42.0004 66.9002 38.8004 69.0002 36.1004C70.1002 34.8004 70.8002 33.6004 71.3002 32.7004C71.5002 32.3004 71.7002 31.9004 71.8002 31.7004C71.9002 31.6004 71.9002 31.5004 71.9002 31.4004V31.3004V31.2004C76.1002 25.0004 75.0002 18.8004 72.3002 13.8004C69.6002 8.80039 65.4002 5.10039 63.7002 3.90039C61.3002 2.30039 55.2002 -0.0996094 48.4002 -0.0996094C48.2002 0.000390626 48.0002 0.000390626 47.8002 0.000390626Z" fill="#3551E7"/>
<path d="M36 16.8998C38 16.8998 39.5 15.2998 39.5 13.3998C39.5 11.4998 38 9.7998 36 9.7998C34 9.7998 32.5 11.3998 32.5 13.2998C32.5 15.1998 34.1 16.8998 36 16.8998Z" fill="#3551E7"/>
<path d="M53.9004 16.9004C55.9004 16.9004 57.4004 15.3004 57.4004 13.4004C57.4004 11.5004 55.8004 9.90039 53.9004 9.90039C51.9004 9.90039 50.4004 11.5004 50.4004 13.4004C50.4004 15.3004 51.9004 16.9004 53.9004 16.9004Z" fill="#3551E7"/>
<path d="M45.4996 14.6002C45.3996 14.9002 44.9996 15.0002 44.6996 15.0002C44.5996 15.0002 44.4996 15.0002 44.3996 15.0002C44.1996 15.0002 44.0996 15.0002 43.9996 15.1002C43.8996 15.2002 43.8996 15.2002 43.8996 15.3002C43.8996 15.4002 43.8996 15.4002 43.8996 15.4002C43.8996 15.4002 43.8996 15.5002 43.9996 15.5002C44.0996 15.5002 44.0996 15.6002 44.1996 15.6002C44.2996 15.6002 44.3996 15.7002 44.5996 15.7002C44.9996 15.8002 45.3996 16.0002 45.5996 16.2002C45.7996 16.4002 45.8996 16.7002 45.8996 17.1002C45.8996 17.4002 45.7996 17.6002 45.6996 17.8002C45.5996 18.0002 45.3996 18.2002 45.2996 18.3002C45.0996 18.4002 44.8996 18.6002 44.5996 18.6002C44.2996 18.7002 43.9996 18.7002 43.6996 18.7002C43.2996 18.7002 42.8996 18.6002 42.5996 18.4002C42.2996 18.3002 42.1996 17.9002 42.2996 17.6002C42.4996 17.3002 42.8996 17.2002 43.1996 17.3002C43.3996 17.4002 43.4996 17.4002 43.6996 17.4002C43.8996 17.4002 43.9996 17.4002 44.0996 17.3002C44.1996 17.2002 44.1996 17.2002 44.1996 17.0002C44.1996 16.9002 44.1996 16.9002 44.1996 16.9002C44.1996 16.9002 44.1996 16.8002 44.0996 16.8002C44.0996 16.8002 43.9996 16.7002 43.8996 16.7002C43.7996 16.7002 43.6996 16.6002 43.4996 16.6002C42.9996 16.5002 42.5996 16.3002 42.3996 16.1002C42.1996 15.9002 42.0996 15.6002 42.0996 15.3002C42.0996 15.0002 42.0996 14.8002 42.1996 14.6002C42.2996 14.4002 42.3996 14.2002 42.5996 14.1002C42.7996 14.0002 42.9996 13.8002 43.2996 13.8002C43.5996 13.7002 43.7996 13.7002 44.1996 13.7002C44.4996 13.7002 44.7996 13.7002 45.0996 13.8002C45.4996 14.0002 45.6996 14.3002 45.4996 14.6002Z" fill="#3551E7"/>
<path d="M0 12.9004C1.3 8.20039 7.8 10.6004 9.1 5.90039C10.5 7.80039 12 9.80039 13.4 11.7004C12.1 16.4004 5.6 14.0004 4.2 18.7004C2.9 16.7004 1.4 14.8004 0 12.9004Z" fill="#FFAA29"/>
<path d="M9.7002 5.5L18.1002 16.8L18.0002 17L9.5002 5.7L9.4002 5.8L17.9002 17.2L17.8002 17.4L9.2002 5.9L9.7002 5.5Z" fill="#FFAA29"/>
<path d="M9.40039 5.8002L9.50039 5.7002L18.0004 17.0002L17.9004 17.2002L9.40039 5.8002Z" fill="#FFAA29"/>
<path d="M45.5996 28.8998C45.2996 26.6998 46.1996 25.2998 47.1996 23.7998C48.1996 22.3998 49.1996 20.9998 48.8996 18.7998L56.4996 22.8998C56.5996 24.7998 55.2996 25.9998 53.8996 27.1998C52.4996 28.3998 51.0996 29.6998 51.2996 31.8998C50.3996 31.3998 49.3996 30.8998 48.4996 30.3998C47.4996 29.9998 46.4996 29.4998 45.5996 28.8998Z" fill="#FFAA29" stroke="#FFAA29" stroke-width="0.3"/>
<path d="M79.1996 23.7998C72.9996 17.2998 66.0996 18.1998 62.5996 19.2998L61.1996 19.8998C59.8996 20.5998 58.8996 21.6998 58.1996 22.9998C57.3996 24.4998 57.1996 26.2998 57.4996 28.0998C57.5996 28.6998 57.7996 29.1998 57.9996 29.6998C58.0996 29.8998 58.0996 30.0998 58.1996 30.1998L58.2996 30.3998C59.4996 32.7998 61.1996 34.9998 64.4996 36.2998C67.2996 37.2998 69.9996 37.5998 70.8996 37.5998H70.9996C71.6996 37.5998 72.9996 37.3998 74.2996 37.0998C74.9996 36.8998 75.5996 36.7998 76.0996 36.5998C76.6996 36.3998 77.0996 36.1998 77.3996 35.9998C79.5996 34.5998 80.7996 32.2998 80.7996 29.4998C80.7996 27.6998 80.3996 26.1998 79.8996 25.0998L79.1996 23.7998Z" fill="#3551E7"/>
<path d="M56.2 51.2998C55.9 51.3998 55.6 51.5998 55.4 51.7998C55.2 51.9998 55.1 52.1998 55 52.4998C55 52.7998 55 53.0998 55.2 53.1998C55.5 53.3998 55.9 53.1998 56.3 52.8998C56.2 53.3998 56.6 53.9998 57.1 53.9998C57.6 53.9998 58 53.3998 57.9 52.8998C58.2 53.1998 58.6 53.4998 59 53.4998C59.4 53.4998 59.8 53.1998 59.9 52.7998C60 52.3998 59.7 51.8998 59.4 51.6998C59.1 51.3998 58.7 51.2998 58.3 51.2998" fill="#3551E7"/>
<path d="M39.4002 51.2002C39.0002 51.3002 38.6002 51.3002 38.3002 51.6002C38.0002 51.8002 37.7002 52.3002 37.7002 52.7002C37.8002 53.2002 38.2002 53.5002 38.6002 53.5002C39.0002 53.5002 39.4002 53.3002 39.7002 53.0002C39.6002 53.5002 39.9002 54.1002 40.4002 54.1002C40.9002 54.1002 41.3002 53.6002 41.3002 53.1002C41.6002 53.4002 42.0002 53.7002 42.3002 53.5002C42.5002 53.4002 42.6002 53.1002 42.6002 52.8002C42.6002 52.5002 42.4002 52.3002 42.3002 52.1002C42.1002 51.8002 41.8002 51.6002 41.6002 51.5002" fill="#3551E7"/>
<path d="M41.8921 44.0786L39.9971 43.9414L39.4048 52.1201L41.2999 52.2573L41.8921 44.0786Z" fill="#3551E7"/>
<path d="M57.5927 44.3197L55.7041 44.5273L56.502 51.7835L58.3906 51.5759L57.5927 44.3197Z" fill="#3551E7"/>
<path d="M48.8996 18.2002L61.1996 25.0002V25.3002L48.7996 18.4002L48.6996 18.5002L61.0996 25.5002V25.8002L48.5996 18.8002L48.8996 18.2002Z" fill="#FFAA29"/>
<path d="M48.6992 18.5004L48.7992 18.4004L61.1992 25.3004V25.5004L48.6992 18.5004Z" fill="#FFAA29"/>
</g>
<defs>
<clipPath id="clip0_1357_1103">
<rect width="81" height="54" fill="white"/>
</clipPath>
</defs>
</svg>
