<svg width="65" height="54" viewBox="0 0 65 54" fill="none" xmlns="http://www.w3.org/2000/svg">
<g clip-path="url(#clip0_1358_1145)">
<path d="M35.7004 47.3996C33.7004 47.3996 30.6004 47.1996 27.3004 46.3996C20.0004 44.5996 14.9004 40.2996 12.6004 34.1996L12.2004 33.1996C12.2004 33.0996 12.1004 33.0996 12.1004 32.9996C11.8004 32.2996 11.5004 31.5996 11.4004 30.9996C11.3004 30.6996 11.3004 30.4996 11.2004 30.2996C11.1004 29.7996 11.0004 29.3996 10.8004 28.7996C9.90044 25.7996 9.20044 21.1996 10.5004 15.9996V15.8996C12.1004 10.4996 14.8004 7.49961 15.9004 6.49961C19.2004 3.49961 22.8004 1.79961 26.8004 1.09961C29.0004 0.799609 31.2004 0.599609 33.5004 0.599609C34.2004 0.599609 34.8004 0.599609 35.2004 0.599609H35.6004C42.0004 0.599609 45.2004 1.59961 51.2004 6.79961C53.4004 8.89961 54.8004 10.8996 55.6004 12.1996C56.2004 13.2996 56.7004 14.4996 57.0004 15.7996C57.6004 18.1996 57.8004 20.0996 58.1004 22.4996C58.9004 29.4996 57.7004 34.6996 54.2004 38.7996C54.2004 38.8996 51.4004 42.4996 44.0004 45.9996C43.2004 46.3996 42.4004 46.5996 41.6004 46.7996L41.1004 46.8996C39.8004 47.1996 37.8004 47.3996 35.7004 47.3996Z" fill="#F5F6FF"/>
<path d="M33.6004 1C34.3004 1 34.9004 1 35.3004 1C35.5004 1 35.6004 1 35.7004 1C42.0004 1 45.1004 1.9 50.9004 7.1C53.1004 9.1 54.4004 11.1 55.2004 12.4C55.8004 13.5 56.3004 14.6 56.6004 15.9C57.2004 18.3 57.4004 20.2 57.7004 22.6C58.5004 29.4 57.3004 34.5 53.9004 38.5C53.9004 38.5 51.2004 42.1 43.9004 45.5C43.2004 45.8 42.4004 46.1 41.6004 46.3L41.0004 46.4C39.7004 46.7 37.8004 46.9 35.8004 46.9C33.8004 46.9 30.7004 46.7 27.5004 45.9C20.3004 44.1 15.3004 40 13.1004 34L12.7004 33C12.7004 32.9 12.6004 32.8 12.6004 32.8V32.7C12.3004 32.1 12.1004 31.4 11.9004 30.8C11.8004 30.6 11.8004 30.3 11.7004 30.1C11.6004 29.6 11.5004 29.2 11.3004 28.5C10.5004 25.6 9.70044 21 11.0004 15.9C12.5004 10.6 15.2004 7.7 16.3004 6.7C19.6004 3.8 23.0004 2.1 27.0004 1.5C29.1004 1.2 31.3004 1 33.6004 1ZM33.6004 0C32.0004 0 29.6004 0.1 26.9004 0.5C23.0004 1.1 19.3004 2.7 15.6004 6C13.9004 7.5 11.4004 10.7 10.0004 15.7C8.70044 21 9.40044 25.7 10.3004 28.8C10.6004 29.7 10.7004 30.3 10.8004 31C11.0004 31.7 11.2004 32.4 11.6004 33.1V33.2C11.6004 33.3 11.6004 33.3 11.7004 33.4L12.1004 34.4C14.5004 40.7 19.7004 45.1 27.2004 46.9C30.2004 47.6 33.2004 47.9 35.7004 47.9C38.0004 47.9 40.0004 47.7 41.2004 47.4L41.7004 47.3C42.6004 47.1 43.4004 46.8 44.2004 46.4C51.9004 42.8 54.6004 39.1 54.6004 39.1C58.3004 34.7 59.4004 29.2 58.6004 22.5C58.3004 20.1 58.1004 18.2 57.5004 15.7C57.2004 14.4 56.7004 13.1 56.0004 12C55.1004 10.5 53.7004 8.5 51.5004 6.5C45.5004 1.2 42.2004 0.2 35.6004 0.1C35.3004 0 34.6004 0 33.6004 0Z" fill="#3551E7"/>
<path d="M25.6998 17.2004C27.5998 17.2004 29.0998 15.7004 29.0998 13.8004C29.0998 11.9004 27.5998 10.4004 25.6998 10.4004C23.7998 10.4004 22.2998 11.9004 22.2998 13.8004C22.2998 15.7004 23.7998 17.2004 25.6998 17.2004Z" fill="#3551E7"/>
<path d="M42.8004 17.2004C44.7004 17.2004 46.2004 15.7004 46.2004 13.8004C46.2004 11.9004 44.7004 10.4004 42.8004 10.4004C40.9004 10.4004 39.4004 11.9004 39.4004 13.8004C39.4004 15.7004 40.9004 17.2004 42.8004 17.2004Z" fill="#3551E7"/>
<path d="M34.6998 15.9998C34.5998 16.2998 34.1998 16.3998 33.8998 16.2998C33.7998 16.2998 33.6998 16.2998 33.5998 16.2998C33.4998 16.2998 33.2998 16.2998 33.2998 16.3998C33.1998 16.4998 33.1998 16.4998 33.1998 16.5998C33.1998 16.6998 33.1998 16.6998 33.1998 16.6998C33.1998 16.6998 33.1998 16.7998 33.2998 16.7998C33.2998 16.7998 33.3998 16.8998 33.4998 16.8998C33.5998 16.8998 33.6998 16.9998 33.8998 16.9998C34.2998 17.0998 34.6998 17.1998 34.8998 17.4998C35.0998 17.6998 35.1998 17.9998 35.1998 18.2998C35.1998 18.5998 35.0998 18.7998 34.9998 18.9998C34.8998 19.1998 34.7998 19.3998 34.5998 19.4998C34.3998 19.5998 34.1998 19.6998 33.8998 19.7998C33.5998 19.8998 33.3998 19.8998 32.9998 19.8998C32.5998 19.8998 32.2998 19.7998 31.8998 19.6998C31.5998 19.5998 31.4998 19.1998 31.6998 18.8998C31.8998 18.5998 32.2998 18.4998 32.5998 18.6998C32.6998 18.7998 32.8998 18.7998 33.0998 18.7998C33.1998 18.7998 33.3998 18.7998 33.4998 18.6998C33.5998 18.5998 33.5998 18.5998 33.5998 18.4998C33.5998 18.3998 33.5998 18.3998 33.5998 18.3998C33.5998 18.3998 33.5998 18.2998 33.4998 18.2998C33.4998 18.2998 33.3998 18.1998 33.2998 18.1998C33.1998 18.1998 33.0998 18.0998 32.9998 18.0998C32.4998 17.9998 32.1998 17.8998 31.9998 17.6998C31.7998 17.4998 31.6998 17.1998 31.6998 16.8998C31.6998 16.6998 31.6998 16.3998 31.7998 16.1998C31.8998 15.9998 31.9998 15.7998 32.1998 15.6998C32.3998 15.5998 32.5998 15.4998 32.7998 15.3998C32.9998 15.2998 33.2998 15.2998 33.5998 15.2998C33.8998 15.2998 34.1998 15.2998 34.4998 15.3998C34.7998 15.3998 34.8998 15.6998 34.6998 15.9998Z" fill="#3551E7"/>
<path d="M63.3002 25.2002C57.1002 18.7002 50.2002 19.6002 46.7002 20.7002L45.3002 21.3002C44.0002 22.0002 43.0002 23.1002 42.3002 24.4002C41.5002 25.9002 41.3002 27.7002 41.6002 29.5002C41.7002 30.1002 41.9002 30.6002 42.1002 31.1002C42.2002 31.3002 42.2002 31.5002 42.3002 31.6002L42.4002 31.8002C43.6002 34.2002 45.3002 36.4002 48.6002 37.7002C51.4002 38.7002 54.1002 39.0002 55.0002 39.0002H55.1002C55.8002 39.0002 57.1002 38.8002 58.4002 38.5002C59.1002 38.3002 59.7002 38.2002 60.2002 38.0002C60.8002 37.8002 61.2002 37.6002 61.5002 37.4002C63.7002 36.0002 64.9002 33.7002 64.9002 30.9002C64.9002 29.1002 64.5002 27.6002 64.0002 26.5002L63.3002 25.2002Z" fill="#3551E7"/>
<path d="M41.4002 51.2998C41.1002 51.3998 40.8002 51.5998 40.6002 51.7998C40.4002 51.9998 40.3002 52.1998 40.2002 52.4998C40.2002 52.7998 40.2002 53.0998 40.4002 53.1998C40.7002 53.3998 41.1002 53.1998 41.5002 52.8998C41.4002 53.3998 41.8002 53.9998 42.3002 53.9998C42.8002 53.9998 43.2002 53.3998 43.1002 52.8998C43.4002 53.1998 43.8002 53.4998 44.2002 53.4998C44.6002 53.4998 45.0002 53.1998 45.1002 52.7998C45.2002 52.3998 44.9002 51.8998 44.6002 51.6998C44.3002 51.3998 43.9002 51.2998 43.5002 51.2998" fill="#3551E7"/>
<path d="M24.6004 51.2002C24.2004 51.3002 23.8004 51.3002 23.5004 51.6002C23.2004 51.8002 22.9004 52.3002 22.9004 52.7002C23.0004 53.2002 23.4004 53.5002 23.8004 53.5002C24.2004 53.5002 24.6004 53.3002 24.9004 53.0002C24.8004 53.5002 25.1004 54.1002 25.6004 54.1002C26.1004 54.1002 26.5004 53.6002 26.5004 53.1002C26.8004 53.4002 27.2004 53.7002 27.5004 53.5002C27.7004 53.4002 27.8004 53.1002 27.8004 52.8002C27.8004 52.5002 27.6004 52.3002 27.5004 52.1002C27.3004 51.8002 27.0004 51.6002 26.8004 51.5002" fill="#3551E7"/>
<path d="M18.2005 19.9005C9.50047 17.7005 4.20047 22.1005 1.80047 25.0005L1.00047 26.2005C0.300473 27.5005 0.00047344 28.9005 0.200473 30.4005C0.400473 32.1005 1.10047 33.7005 2.30047 35.1005C2.70047 35.5005 3.10047 35.9005 3.60047 36.2005C3.80047 36.3005 3.90047 36.4005 4.00047 36.5005C6.30047 37.9005 8.90047 38.9005 12.4005 38.1005C15.3005 37.5005 17.7005 36.3005 18.5005 35.7005C18.5005 35.7005 18.6005 35.7005 18.6005 35.6005C19.2005 35.2005 20.2005 34.4005 21.1005 33.4005C21.6005 32.9005 22.0005 32.4005 22.4005 32.0005C22.8005 31.5005 23.1005 31.1005 23.2005 30.8005C24.3005 28.5005 24.1005 25.9005 22.7005 23.5005C21.8005 22.0005 20.6005 20.9005 19.5005 20.2005L18.2005 19.9005Z" fill="#3551E7"/>
<path d="M38.4998 22C35.7998 22 33.4998 23.6 32.3998 25.8C31.2998 23.6 28.9998 22 26.2998 22C22.4998 22 19.2998 25.2 19.2998 28.9C19.2998 35.2 32.2998 44 32.2998 44C32.2998 44 45.2998 35.3 45.2998 28.9C45.3998 25.2 42.1998 22 38.4998 22Z" fill="#FF35BA"/>
<path d="M26.8 28.2996C26.6 28.1996 26.3 28.0996 26 28.0996C25 28.0996 24.5 28.7996 24.5 29.8996C24.5 30.8996 25 31.6996 26 31.6996C26.3 31.6996 26.7 31.5996 26.9 31.3996C27 31.2996 27 31.1996 26.9 31.0996C26.8 30.9996 26.7 30.8996 26.5 30.9996C26.3 31.0996 26.1 31.1996 25.9 31.1996C25.3 31.1996 25 30.6996 25 29.8996C25 29.2996 25.3 28.5996 25.9 28.5996C26 28.5996 26.2 28.5996 26.4 28.7996C26.6 28.8996 26.7 28.7996 26.8 28.6996C27 28.5996 26.9 28.3996 26.8 28.2996Z" fill="#F5F6FF"/>
<path d="M29.0996 28.5996C29.3996 28.5996 29.4996 28.7996 29.4996 29.2996C29.4996 29.6996 29.4996 30.0996 29.4996 30.4996C29.4996 30.7996 29.4996 31.0996 29.4996 31.2996C29.4996 31.4996 29.6996 31.5996 29.7996 31.5996C29.9996 31.5996 30.0996 31.4996 30.0996 31.2996V30.9996C30.0996 30.4996 30.0996 29.7996 30.0996 29.2996C30.0996 28.3996 29.6996 27.9996 28.9996 28.0996C28.6996 28.0996 28.3996 28.2996 28.1996 28.4996C28.1996 28.3996 28.1996 28.1996 28.1996 28.0996C28.1996 27.7996 28.1996 27.5996 28.1996 27.2996C28.1996 26.9996 28.1996 26.5996 28.1996 26.3996C28.1996 26.1996 28.0996 26.0996 27.8996 26.0996C27.6996 26.0996 27.5996 26.1996 27.5996 26.3996C27.5996 26.6996 27.5996 26.9996 27.5996 27.2996C27.5996 27.5996 27.5996 27.9996 27.5996 28.0996C27.5996 28.7996 27.5996 29.5996 27.5996 30.2996C27.5996 30.5996 27.5996 30.8996 27.5996 31.0996C27.5996 31.1996 27.5996 31.3996 27.5996 31.4996C27.5996 31.6996 27.7996 31.7996 27.8996 31.7996C28.0996 31.7996 28.1996 31.6996 28.1996 31.4996C28.1996 31.3996 28.1996 31.0996 28.1996 30.8996C28.1996 30.5996 28.1996 30.0996 28.1996 29.7996C28.1996 29.5996 28.1996 29.4996 28.1996 29.3996C28.5996 28.8996 28.8996 28.5996 29.0996 28.5996Z" fill="#F5F6FF"/>
<path d="M31 29.7996C31 30.9996 31.5 31.6996 32.5 31.6996C32.9 31.6996 33.2 31.5996 33.5 31.3996C33.6 31.2996 33.6 31.1996 33.6 30.9996C33.5 30.8996 33.4 30.7996 33.2 30.8996C33 30.9996 32.8 31.0996 32.6 31.0996C31.9 31.0996 31.7 30.4996 31.7 29.9996C32.2 29.9996 33.1 29.9996 33.4 29.8996C33.7 29.7996 33.7 29.6996 33.7 29.4996C33.7 28.4996 33 28.0996 32.5 28.0996C31.4 28.0996 31 28.8996 31 29.7996ZM32.4 28.6996C32.7 28.6996 33 28.9996 33 29.4996C32.3 29.5996 31.9 29.5996 31.6 29.5996C31.6 28.9996 31.9 28.5996 32.4 28.6996Z" fill="#F5F6FF"/>
<path d="M34.2998 29.7996C34.2998 30.9996 34.7998 31.6996 35.7998 31.6996C36.1998 31.6996 36.4998 31.5996 36.7998 31.3996C36.8998 31.2996 36.8998 31.1996 36.8998 30.9996C36.7998 30.8996 36.6998 30.7996 36.4998 30.8996C36.2998 30.9996 36.0998 31.0996 35.8998 31.0996C35.1998 31.0996 34.9998 30.4996 34.9998 29.9996C35.4998 29.9996 36.3998 29.9996 36.6998 29.8996C36.9998 29.7996 36.9998 29.6996 36.9998 29.4996C36.9998 28.4996 36.2998 28.0996 35.7998 28.0996C34.6998 28.0996 34.2998 28.8996 34.2998 29.7996ZM35.6998 28.6996C35.9998 28.6996 36.2998 28.9996 36.2998 29.4996C35.5998 29.5996 35.1998 29.5996 34.8998 29.5996C34.9998 28.9996 35.2998 28.5996 35.6998 28.6996Z" fill="#F5F6FF"/>
<path d="M29.2002 34.4C29.2002 34.8 29.2002 35.3 29.2002 35.7C29.2002 35.9 29.2002 36.3 29.2002 36.5C29.2002 37.3 29.5002 37.8 30.3002 37.8C30.6002 37.8 30.9002 37.6 31.1002 37.4V37.5C31.1002 37.7 31.2002 37.7 31.4002 37.7C31.5002 37.7 31.7002 37.6 31.7002 37.4C31.7002 37.2 31.7002 36.8 31.7002 36.6C31.7002 36.4 31.7002 36.1 31.7002 35.9C31.7002 35.6 31.7002 35.2 31.7002 34.8C31.7002 34.6 31.7002 34.4 31.7002 34.2C31.7002 34.1 31.6002 34 31.4002 34C31.3002 34 31.1002 34.1 31.1002 34.3C31.1002 34.5 31.1002 35.1 31.1002 35.6V36.4C31.0002 36.9 30.7002 37.2 30.4002 37.2C30.1002 37.2 30.0002 36.9 29.9002 36.4V35.2C29.9002 34.9 29.9002 34.6 29.9002 34.3C29.9002 34.1 29.8002 34 29.6002 34C29.4002 34.1 29.2002 34.2 29.2002 34.4Z" fill="#F5F6FF"/>
<path d="M33.0996 37.3996C33.2996 37.4996 33.4996 37.5996 33.7996 37.5996C34.4996 37.5996 34.9996 36.9996 34.9996 35.8996C34.9996 35.0996 34.6996 34.1996 33.7996 34.0996C33.5996 34.0996 33.2996 34.0996 33.1996 34.2996C33.1996 34.1996 32.9996 34.0996 32.8996 34.0996C32.7996 34.0996 32.5996 34.1996 32.5996 34.3996C32.5996 35.4996 32.5996 35.1996 32.5996 36.4996V38.9996C32.5996 39.1996 32.6996 39.2996 32.8996 39.2996C32.9996 39.2996 33.1996 39.1996 33.1996 38.9996V37.3996H33.0996ZM33.0996 35.0996C33.0996 34.7996 33.3996 34.5996 33.6996 34.6996C34.1996 34.6996 34.3996 35.2996 34.3996 35.8996C34.3996 36.6996 34.1996 37.0996 33.7996 37.0996C33.5996 37.0996 33.2996 36.9996 33.0996 36.6996V35.0996Z" fill="#F5F6FF"/>
<path d="M27.148 44.8784L25.2529 44.7412L24.7546 51.6233L26.6496 51.7605L27.148 44.8784Z" fill="#3551E7"/>
<path d="M42.7909 45.1244L40.9023 45.332L41.7002 52.5882L43.5888 52.3806L42.7909 45.1244Z" fill="#3551E7"/>
<path d="M39.4998 28.6004C39.6998 28.6004 39.6998 28.4004 39.6998 28.3004C39.6998 28.2004 39.5998 28.0004 39.3998 28.0004C38.9998 28.0004 38.6998 28.1004 38.3998 28.4004C38.3998 28.3004 38.3998 28.3004 38.3998 28.2004C38.3998 28.0004 38.1998 27.9004 38.0998 27.9004C37.8998 27.9004 37.7998 28.0004 37.7998 28.2004C37.7998 28.5004 37.7998 28.8004 37.7998 29.2004C37.7998 29.8004 37.7998 30.7004 37.7998 31.3004C37.7998 31.5004 37.8998 31.6004 38.0998 31.6004C38.2998 31.6004 38.3998 31.5004 38.3998 31.3004C38.3998 31.0004 38.3998 30.5004 38.3998 30.1004C38.3998 29.8004 38.3998 29.5004 38.3998 29.2004C38.6998 28.9004 38.9998 28.7004 39.4998 28.6004Z" fill="#F5F6FF"/>
</g>
<defs>
<clipPath id="clip0_1358_1145">
<rect width="65" height="54" fill="white"/>
</clipPath>
</defs>
</svg>
