<svg width="66" height="57" viewBox="0 0 66 57" fill="none" xmlns="http://www.w3.org/2000/svg">
<path d="M19.5996 25.8004C20.1996 24.1004 20.3996 22.3004 20.0996 20.3004C19.9996 19.7004 19.8996 19.0004 19.6996 18.5004C19.6996 18.3004 19.5996 18.1004 19.5996 18.0004V17.8004C18.4996 15.1004 17.1996 12.8004 14.3996 11.4004C11.9996 10.3004 9.79961 9.90039 8.89961 9.90039H8.79961C8.39961 9.90039 7.29961 10.0004 6.09961 10.4004C5.49961 10.5004 5.09961 10.8004 4.59961 10.9004C4.09961 11.1004 3.79961 11.3004 3.49961 11.5004C1.69961 12.9004 0.699609 15.3004 0.599609 18.4004C0.599609 20.3004 0.999609 22.0004 1.49961 23.2004L2.09961 24.5004C7.29961 31.6004 12.9996 30.8004 15.9996 29.7004L17.0996 29.1004C18.1996 28.3004 18.9996 27.2004 19.5996 25.8004Z" fill="#3551E7"/>
<path d="M34.8 47.2006C33.2 47.2006 31.6 47.0006 30.2 46.6006C26.7 45.6006 21.6 43.4006 17.6 39.2006C12.9 34.2006 10.9 27.6006 11.6 19.4006C11.7 18.0006 12.4 16.2006 13.4 14.3006C14.5 12.2006 16.2 10.1006 18 8.30059C21.2 5.20059 26.4 1.60059 33.7 1.60059C33.9 1.60059 34.1 1.60059 34.3 1.60059C40.7 1.60059 46.6 4.00059 48.8 5.60059C50.1 6.60059 54.3 10.2006 57 15.4006C60.2 21.5006 60 27.3006 56.6 32.5006L56.5 32.6006L56.4 32.7006L56.1 33.0006C56 33.2006 55.8 33.6006 55.6 34.0006C55.2 34.8006 54.5 36.0006 53.4 37.4006C51.6 39.8006 48.3 43.1006 43.4 45.3006C40.7 46.6006 37.6 47.2006 34.8 47.2006Z" fill="#F5F6FF"/>
<path d="M33.5998 1.8002C33.7998 1.8002 33.9998 1.8002 34.1998 1.8002C40.4998 1.8002 46.2998 4.2002 48.4998 5.7002C49.7998 6.6002 53.8998 10.2002 56.5998 15.4002C59.6998 21.4002 59.5998 27.1002 56.1998 32.2002V32.3002V32.4002C56.1998 32.5002 56.0998 32.5002 56.0998 32.7002C55.9998 32.9002 55.7998 33.3002 55.5998 33.7002C55.1998 34.5002 54.4998 35.7002 53.4998 37.0002C51.6998 39.4002 48.3998 42.7002 43.5998 44.9002C40.6998 46.2002 37.7998 46.8002 34.8998 46.8002C33.2998 46.8002 31.6998 46.6002 30.3998 46.2002C26.8998 45.2002 21.7998 43.1002 17.8998 38.9002C13.0998 34.1002 11.0998 27.6002 11.7998 19.5002C11.8998 18.1002 12.5998 16.3002 13.4998 14.5002C14.5998 12.4002 16.2998 10.3002 18.0998 8.6002C21.1998 5.5002 26.3998 1.8002 33.5998 1.8002ZM33.5998 1.3002C26.9998 1.3002 21.6998 4.3002 17.7998 8.1002C15.7998 10.0002 14.2998 12.2002 13.1998 14.2002C12.0998 16.2002 11.4998 18.1002 11.3998 19.4002C10.5998 28.9002 13.4998 35.2002 17.4998 39.4002C21.4998 43.6002 26.5998 45.8002 30.1998 46.8002C31.5998 47.2002 33.1998 47.4002 34.7998 47.4002C37.6998 47.4002 40.6998 46.8002 43.6998 45.4002C48.5998 43.3002 51.7998 40.1002 53.7998 37.4002C54.8998 36.1002 55.4998 34.9002 55.9998 34.0002C56.1998 33.6002 56.3998 33.2002 56.4998 33.0002C56.5998 32.9002 56.5998 32.8002 56.5998 32.7002V32.6002V32.5002C60.5998 26.3002 59.5998 20.1002 56.9998 15.1002C54.3998 10.1002 50.3998 6.4002 48.7998 5.2002C46.4998 3.60019 40.6998 1.2002 34.1998 1.2002C33.8998 1.3002 33.7998 1.3002 33.5998 1.3002Z" fill="#3551E7"/>
<path d="M43.1002 24.9997C42.4002 26.5997 42.2002 28.4997 42.5002 30.3997C42.6002 30.9997 42.7002 31.5997 42.9002 32.0997C43.0002 32.2997 43.0002 32.4997 43.1002 32.5997L43.2002 32.7997C44.4002 35.3997 45.9002 37.5997 49.0002 38.9997C51.6002 40.0997 54.1002 40.2997 55.0002 40.2997H55.1002C55.7002 40.2997 56.9002 40.0997 58.2002 39.6997C58.8002 39.4997 59.4002 39.2997 59.9002 39.1997C60.4002 38.9997 60.9002 38.7997 61.1002 38.5997C63.1002 37.0997 64.3002 34.6997 64.3002 31.7997C64.3002 29.8997 63.9002 28.2997 63.4002 27.0997L62.7002 25.8997C56.9002 18.9997 50.5002 19.9997 47.2002 21.1997L45.9002 21.7997C44.7002 22.4997 43.7002 23.5997 43.1002 24.9997Z" fill="#3551E7"/>
<path d="M23.4996 18.3C25.3996 18.3 26.8996 16.8 26.8996 14.9C26.8996 13 25.3996 11.5 23.4996 11.5C21.5996 11.5 20.0996 13 20.0996 14.9C20.0996 16.8 21.5996 18.3 23.4996 18.3Z" fill="#3551E7"/>
<path d="M40.1998 18.3C42.0998 18.3 43.5998 16.8 43.5998 14.9C43.5998 13 42.0998 11.5 40.1998 11.5C38.2998 11.5 36.7998 13 36.7998 14.9C36.7998 16.8 38.3998 18.3 40.1998 18.3Z" fill="#3551E7"/>
<path d="M33.3996 16.9998C33.2996 17.2998 32.8996 17.3998 32.5996 17.2998C32.4996 17.2998 32.3996 17.2998 32.2996 17.2998C32.1996 17.2998 31.9996 17.2998 31.9996 17.3998C31.8996 17.4998 31.8996 17.4998 31.8996 17.5998C31.8996 17.6998 31.8996 17.6998 31.8996 17.6998C31.8996 17.6998 31.8996 17.7998 31.9996 17.7998C31.9996 17.7998 32.0996 17.8998 32.1996 17.8998C32.2996 17.8998 32.3996 17.9998 32.5996 17.9998C32.9996 18.0998 33.2996 18.1998 33.5996 18.4998C33.7996 18.6998 33.8996 18.9998 33.8996 19.2998C33.8996 19.5998 33.7996 19.7998 33.6996 19.9998C33.5996 20.1998 33.4996 20.3998 33.2996 20.4998C33.0996 20.5998 32.8996 20.6998 32.5996 20.7998C32.2996 20.8998 32.0996 20.8998 31.7996 20.8998C31.3996 20.8998 31.0996 20.7998 30.6996 20.6998C30.3996 20.5998 30.2996 20.1998 30.4996 19.8998C30.6996 19.5998 30.9996 19.4998 31.3996 19.6998C31.4996 19.7998 31.6996 19.7998 31.8996 19.7998C31.9996 19.7998 32.1996 19.7998 32.1996 19.6998C32.2996 19.5998 32.2996 19.5998 32.2996 19.4998C32.2996 19.3998 32.2996 19.3998 32.2996 19.3998C32.2996 19.3998 32.2996 19.2998 32.1996 19.2998C32.1996 19.2998 32.0996 19.1998 31.9996 19.1998C31.8996 19.1998 31.7996 19.0998 31.6996 19.0998C31.1996 18.9998 30.8996 18.8998 30.6996 18.6998C30.4996 18.4998 30.3996 18.1998 30.3996 17.8998C30.3996 17.6998 30.3996 17.3998 30.4996 17.1998C30.5996 16.9998 30.6996 16.7998 30.8996 16.6998C31.0996 16.5998 31.2996 16.4998 31.4996 16.3998C31.6996 16.2998 31.9996 16.2998 32.2996 16.2998C32.5996 16.2998 32.8996 16.2998 33.0996 16.3998C33.4996 16.3998 33.5996 16.6998 33.3996 16.9998Z" fill="#3551E7"/>
<path d="M26.6997 52.5C26.2997 52.6 25.8997 52.6 25.5997 52.9C25.2997 53.1 24.9997 53.6 25.0997 54C25.1997 54.5 25.5997 54.8 25.8997 54.8C26.2997 54.8 26.6997 54.6 26.9997 54.3C26.8997 54.8 27.1997 55.4 27.6997 55.4C28.1997 55.4 28.5997 54.9 28.5997 54.4C28.8997 54.7 29.2997 55 29.5997 54.8C29.7997 54.7 29.8997 54.4 29.8997 54.1C29.8997 53.8 29.7997 53.6 29.5997 53.4C29.3997 53.1 29.0997 52.9 28.8997 52.8" fill="#3551E7"/>
<path d="M30.5508 44.7594L28.4854 44.3799L26.9492 52.7399L29.0146 53.1194L30.5508 44.7594Z" fill="#3551E7"/>
<path d="M41.4825 53.2177C41.1116 53.3978 40.7201 53.4801 40.4882 53.8354C40.2358 54.0928 40.045 54.6438 40.2251 55.0147C40.4258 55.4834 40.8789 55.6948 41.1725 55.6331C41.564 55.5508 41.9143 55.2728 42.1462 54.9176C42.1511 55.4274 42.5681 55.9529 43.0574 55.8501C43.5467 55.7473 43.8354 55.1757 43.7326 54.6864C44.0878 54.9183 44.541 55.1296 44.7934 54.8722C44.9686 54.7332 45.0048 54.4191 44.9431 54.1255C44.8814 53.8319 44.7424 53.6567 44.5056 53.5022C44.2481 53.2497 43.9134 53.1157 43.6971 53.0589" fill="#3551E7"/>
<path d="M41.9799 44.8846L39.9248 45.3164L41.6727 53.6347L43.7278 53.2029L41.9799 44.8846Z" fill="#3551E7"/>
</svg>
