<svg width="65" height="54" viewBox="0 0 65 54" fill="none" xmlns="http://www.w3.org/2000/svg">
<path d="M54.2801 9.36757L54.28 9.36749C46.8315 2.43975 39.6851 0.375059 33.6317 0.505768C27.5613 0.636843 22.5376 2.97737 19.3618 4.94644C15.933 7.07414 13.2042 10.9256 11.9802 15.7506L54.2801 9.36757ZM54.2801 9.36757C55.377 10.3874 56.5293 12.1762 57.495 14.4785C58.4568 16.7717 59.2181 19.5383 59.5558 22.4822C60.2321 28.3781 59.2039 34.9118 54.7855 39.8019C53.742 40.9561 51.3804 42.446 48.8628 43.7443C46.3551 45.0375 43.8065 46.083 42.4446 46.387L42.4446 46.387M54.2801 9.36757L42.4446 46.387M42.4446 46.387C40.386 46.8468 34.719 47.3255 28.8969 45.8738C23.0875 44.4254 17.1992 41.0785 14.5167 33.9483L14.4992 33.9019M42.4446 46.387L14.4992 33.9019M14.4992 33.9019L14.4732 33.8602M14.4992 33.9019L14.4732 33.8602M14.4732 33.8602L14.4731 33.8601M14.4732 33.8602L14.4731 33.8601M14.4731 33.8601L14.473 33.8599M14.4731 33.8601L14.473 33.8599M14.473 33.8599L14.4729 33.8597L14.4709 33.8565L14.4616 33.8412C14.453 33.8271 14.4398 33.8051 14.4224 33.7755C14.3876 33.7164 14.3358 33.6266 14.2703 33.5079C14.1392 33.2705 13.9531 32.9172 13.7368 32.4603C13.3042 31.5461 12.7522 30.2193 12.2796 28.5773C11.3339 25.2919 10.7105 20.7611 11.9801 15.7508L14.473 33.8599Z" fill="#F5F6FF" stroke="#3551E7"/>
<path d="M23.6955 17.1547C25.5677 17.1547 27.0854 15.6371 27.0854 13.7649C27.0854 11.8927 25.5677 10.375 23.6955 10.375C21.8234 10.375 20.3057 11.8927 20.3057 13.7649C20.3057 15.6371 21.8234 17.1547 23.6955 17.1547Z" fill="#3551E7"/>
<path d="M40.7619 17.1547C42.6341 17.1547 44.1518 15.6371 44.1518 13.7649C44.1518 11.8927 42.6341 10.375 40.7619 10.375C38.8898 10.375 37.3721 11.8927 37.3721 13.7649C37.3721 15.6371 38.8898 17.1547 40.7619 17.1547Z" fill="#3551E7"/>
<path d="M32.7467 15.9906C32.6081 16.2588 32.279 16.3509 31.9837 16.2883C31.8726 16.2648 31.7625 16.2531 31.6532 16.2531C31.51 16.2531 31.394 16.2817 31.3051 16.339C31.2163 16.3963 31.1719 16.4737 31.1719 16.5711C31.1719 16.6227 31.1791 16.6642 31.1934 16.6957C31.2077 16.7272 31.2392 16.7573 31.2879 16.786C31.3367 16.8146 31.4083 16.8404 31.5028 16.8633C31.5974 16.8863 31.722 16.9149 31.8767 16.9493C32.3065 17.0352 32.6273 17.1885 32.8393 17.4091C33.0514 17.6297 33.1574 17.9119 33.1574 18.2557C33.1574 18.5136 33.1058 18.7456 33.0027 18.9519C32.8995 19.1582 32.7563 19.3315 32.5729 19.4719C32.3895 19.6123 32.1689 19.7212 31.9111 19.7985C31.6532 19.8759 31.3696 19.9146 31.0602 19.9146C30.6493 19.9146 30.3337 19.8342 29.9877 19.6734C29.7008 19.5402 29.6039 19.1871 29.7488 18.9059V18.9059C29.9128 18.588 30.3039 18.5143 30.6315 18.6579C30.7779 18.7221 30.9223 18.7542 31.1032 18.7542C31.2464 18.7542 31.3639 18.7227 31.4556 18.6597C31.5472 18.5967 31.5931 18.5164 31.5931 18.419C31.5931 18.3617 31.5859 18.3145 31.5716 18.2772C31.5573 18.24 31.5272 18.2056 31.4813 18.1741C31.4355 18.1426 31.3682 18.1139 31.2794 18.0881C31.1905 18.0623 31.0745 18.0351 30.9313 18.0065C30.4499 17.9091 30.1133 17.7644 29.9213 17.5724C29.7294 17.3805 29.6334 17.1155 29.6334 16.7774C29.6334 16.531 29.6792 16.309 29.7709 16.1113C29.8626 15.9136 29.9944 15.746 30.1663 15.6085C30.3382 15.4709 30.5459 15.3649 30.7894 15.2904C31.033 15.216 31.3037 15.1787 31.6017 15.1787C31.8911 15.1787 32.1755 15.2121 32.4548 15.2789C32.7659 15.3532 32.8936 15.7065 32.7467 15.9906V15.9906Z" fill="#3551E7"/>
<path d="M27.367 52.1629C26.9387 52.1447 26.5703 51.8191 26.5132 51.3804C26.1974 48.9621 26.2109 46.5145 26.5546 44.1026C26.6258 43.6116 27.0839 43.2669 27.5713 43.338C28.0622 43.4093 28.4071 43.8637 28.3358 44.3547C28.017 46.6054 28.0032 48.8908 28.2971 51.1458C28.3627 51.639 28.0155 52.0894 27.5188 52.1549C27.468 52.1635 27.4138 52.1649 27.3634 52.1627L27.367 52.1629Z" fill="#3551E7"/>
<path d="M46.0293 51.5237C45.6262 51.5066 45.2707 51.2175 45.1871 50.8066L43.8298 44.205C43.7314 43.7177 44.0437 43.2406 44.531 43.1423C45.0219 43.0441 45.4954 43.3562 45.5938 43.8435L46.9511 50.445C47.0495 50.9323 46.7372 51.4094 46.2499 51.5078C46.1772 51.5227 46.1011 51.5303 46.0292 51.5273L46.0293 51.5237Z" fill="#3551E7"/>
<path d="M3.77617 25.9258L3.77624 25.9257C6.34899 22.7921 9.09887 21.5309 11.536 21.1655C13.9873 20.798 16.1634 21.3312 17.5747 21.8547L3.77617 25.9258ZM3.77617 25.9258C3.42819 26.3495 3.08538 27.0722 2.84453 28.0009C2.60594 28.9209 2.47691 30.0069 2.52924 31.1305C2.63416 33.3829 3.46095 35.7196 5.50674 37.2182C5.72456 37.3776 6.08875 37.5614 6.56147 37.7502C7.02616 37.9358 7.56671 38.1149 8.11665 38.2726C9.23037 38.5919 10.3236 38.8068 10.8703 38.8267L10.8703 38.8267M3.77617 25.9258L10.8703 38.8267M10.8703 38.8267C11.7134 38.8574 14.0421 38.6484 16.308 37.6974C18.5689 36.7485 20.6765 35.1036 21.2853 32.3101L21.2963 32.2596M10.8703 38.8267L21.2963 32.2596M21.2963 32.2596L21.317 32.2133M21.2963 32.2596L21.317 32.2133M21.317 32.2133L21.3171 32.2131M21.317 32.2133L21.3171 32.2131M21.3171 32.2131L21.3172 32.2128M21.3171 32.2131L21.3172 32.2128M21.3172 32.2128L21.3172 32.2128M21.3172 32.2128L21.3172 32.2128M21.3172 32.2128L21.3173 32.2125M21.3172 32.2128L21.3173 32.2125M21.3173 32.2125L21.3192 32.2081L21.3295 32.1839C21.3389 32.1613 21.3533 32.1258 21.3714 32.0784C21.4077 31.9835 21.4591 31.8409 21.5162 31.6569C21.6304 31.2885 21.7666 30.7569 21.8511 30.1129C22.0203 28.8235 21.9802 27.1016 21.16 25.3333L21.3173 32.2125ZM21.1599 25.3331C20.3701 23.6318 19.05 22.4027 17.5748 21.8548L21.1599 25.3331Z" fill="#3551E7" stroke="#3551E7"/>
<path d="M61.3953 25.5435L61.3953 25.5435C55.2982 19.1424 48.5215 20.1695 45.3017 21.1846L61.3953 25.5435ZM61.3953 25.5435C62.2527 26.4433 63.0418 28.5245 62.9921 30.8029C62.9431 33.0511 62.0798 35.3841 59.7749 36.8657C59.5245 37.0265 59.1061 37.2084 58.5666 37.3922C58.0357 37.5732 57.4178 37.746 56.7893 37.8968C55.5203 38.2012 54.2614 38.4033 53.6187 38.4147L53.6186 38.4147M61.3953 25.5435L53.6186 38.4147M53.6186 38.4147C52.6346 38.4324 49.9361 38.1812 47.2867 37.1779C44.6286 36.1712 42.1474 34.459 41.3621 31.6348L41.3473 31.5815M53.6186 38.4147L41.3473 31.5815M41.3473 31.5815L41.3215 31.5334M41.3473 31.5815L41.3215 31.5334M41.3215 31.5334L41.3214 31.5332M41.3215 31.5334L41.3214 31.5332M41.3214 31.5332L41.3213 31.5329M41.3214 31.5332L41.3213 31.5329M41.3213 31.5329L41.3211 31.5326M41.3213 31.5329L41.3211 31.5326M41.3211 31.5326L41.3188 31.5282L41.3063 31.5036C41.2947 31.4806 41.2772 31.4447 41.2549 31.3966C41.2103 31.3004 41.147 31.156 41.0759 30.97C40.9335 30.5973 40.7612 30.0608 40.6446 29.4129C40.4111 28.1164 40.4036 26.3946 41.282 24.6383L41.3211 31.5326ZM41.2821 24.6381C42.1274 22.9491 43.6006 21.7216 45.3015 21.1847L41.2821 24.6381Z" fill="#3551E7" stroke="#3551E7"/>
<path d="M43.8828 50.3597C43.5772 50.6029 43.264 50.8556 43.0783 51.2207C42.8926 51.5858 42.8659 52.095 43.1205 52.4517C43.387 52.8252 43.8911 52.9113 44.2506 52.7263C44.6106 52.5411 44.8382 52.141 44.9528 51.7149C45.0828 52.2339 45.6697 52.5807 46.0959 52.3902C46.5221 52.1997 46.6731 51.5243 46.3894 51.0738C46.7789 51.187 47.2732 51.2597 47.4674 50.898C47.5836 50.6811 47.5289 50.3741 47.381 50.1542C47.233 49.9343 47.0099 49.7905 46.7824 49.6934C46.4794 49.5638 46.157 49.5048 45.844 49.522" fill="#3551E7"/>
<path d="M25.5423 50.6749C25.1574 50.7413 24.7613 50.8124 24.423 51.0435C24.0848 51.2745 23.8167 51.7083 23.8687 52.1435C23.923 52.599 24.3238 52.9168 24.728 52.9271C25.1327 52.9377 25.5244 52.6961 25.8297 52.3774C25.6943 52.8951 26.0425 53.4812 26.5079 53.5188C26.9732 53.5565 27.4301 53.0366 27.3976 52.5053C27.6849 52.7917 28.0835 53.0929 28.4275 52.8689C28.6337 52.7346 28.7332 52.439 28.709 52.175C28.6849 51.9111 28.5583 51.6778 28.4054 51.4834C28.2019 51.2241 27.9475 51.0175 27.6647 50.8823" fill="#3551E7"/>
<path d="M38.4952 22C35.756 22 33.4892 23.5585 32.403 25.8253C31.3168 23.5585 29.0027 22 26.3108 22C22.4855 22 19.3213 25.2114 19.3213 28.9423C19.3213 35.2234 32.3558 44 32.3558 44C32.3558 44 45.3902 35.2706 45.3902 28.9423C45.3902 25.2114 42.226 22 38.4479 22H38.4952Z" fill="#FF35BA"/>
<path d="M26.7756 28.2913C26.5648 28.1578 26.312 28.0805 25.9958 28.0805C25.0405 28.0805 24.4785 28.7971 24.4785 29.8718C24.4785 30.9185 24.9492 31.7193 26.0239 31.7053C26.312 31.6983 26.7124 31.6069 26.902 31.4032C26.9933 31.3049 26.9863 31.1574 26.9231 31.059C26.8529 30.9536 26.7194 30.8974 26.5719 30.9958C26.3962 31.1152 26.2206 31.1644 25.9958 31.1644C25.3917 31.1644 25.1037 30.6797 25.1037 29.914C25.1037 29.3169 25.3777 28.6495 26.0099 28.6495C26.1434 28.6495 26.3471 28.6987 26.5086 28.8111C26.6632 28.9165 26.8037 28.8462 26.8739 28.7198C26.9582 28.5793 26.9161 28.3756 26.7756 28.2913Z" fill="#F5F6FF"/>
<path d="M29.1141 28.6355C29.3951 28.6355 29.5215 28.8462 29.5426 29.3661C29.5566 29.7524 29.5637 30.202 29.5637 30.5532C29.5637 30.8623 29.5707 31.1574 29.5777 31.3962C29.5847 31.5859 29.7323 31.6772 29.8798 31.6772C30.0343 31.6772 30.1889 31.5788 30.1889 31.3821V30.9677C30.1889 30.483 30.1818 29.8156 30.1608 29.2537C30.1186 28.3967 29.7814 27.9541 29.0298 28.0525C28.6996 28.0946 28.4678 28.2913 28.2711 28.4669C28.2641 28.3405 28.2571 28.1719 28.2571 28.0454C28.25 27.7925 28.243 27.5256 28.243 27.2516C28.243 26.9636 28.2641 26.5773 28.2781 26.3103C28.2852 26.1417 28.2009 26.0153 27.9901 26.0012C27.7864 25.9872 27.6951 26.0926 27.674 26.2752C27.6459 26.5421 27.6389 26.8723 27.6389 27.1673C27.6389 27.5045 27.653 27.8487 27.66 28.0103C27.66 28.7479 27.6951 29.4714 27.7021 30.1879C27.7021 30.4479 27.7091 30.764 27.7232 30.9958C27.7302 31.1222 27.7302 31.2557 27.7372 31.3962C27.7443 31.5859 27.8988 31.6912 28.0604 31.6912C28.2149 31.6912 28.3554 31.5999 28.3554 31.4032C28.3554 31.2627 28.3484 31.0239 28.3414 30.764C28.3343 30.4408 28.3203 29.9913 28.3203 29.6751C28.3203 29.5066 28.3273 29.345 28.3343 29.2326C28.6013 28.8814 28.8752 28.6355 29.1141 28.6355Z" fill="#F5F6FF"/>
<path d="M30.9616 29.8086C30.9335 31.0098 31.4463 31.6983 32.4297 31.6983C32.795 31.6983 33.1041 31.621 33.4132 31.3962C33.5466 31.2978 33.5466 31.1503 33.4834 31.045C33.4132 30.9326 33.2657 30.8623 33.1111 30.9466C32.9285 31.052 32.6967 31.1503 32.4648 31.1503C31.7202 31.1503 31.6078 30.5462 31.5938 30.0404C32.0925 30.0264 33.0268 29.9913 33.2867 29.9421C33.5747 29.8859 33.6099 29.7243 33.6028 29.5206C33.5677 28.5442 32.9495 28.0805 32.4086 28.0805C31.376 28.0805 30.9826 28.9446 30.9616 29.8086ZM32.3806 28.6566C32.6756 28.6706 32.9636 28.9235 32.9776 29.4293C32.2963 29.4995 31.8467 29.4925 31.6149 29.4925C31.643 29.0008 31.931 28.6355 32.3806 28.6566Z" fill="#F5F6FF"/>
<path d="M34.3024 29.8086C34.2743 31.0098 34.7871 31.6983 35.7706 31.6983C36.1358 31.6983 36.4449 31.621 36.754 31.3962C36.8875 31.2978 36.8875 31.1503 36.8243 31.045C36.754 30.9326 36.6065 30.8623 36.4519 30.9466C36.2693 31.052 36.0375 31.1503 35.8057 31.1503C35.0611 31.1503 34.9487 30.5462 34.9346 30.0404C35.4334 30.0264 36.3677 29.9913 36.6276 29.9421C36.9156 29.8859 36.9507 29.7243 36.9437 29.5206C36.9086 28.5442 36.2904 28.0805 35.7495 28.0805C34.7169 28.0805 34.3235 28.9446 34.3024 29.8086ZM35.7214 28.6566C36.0164 28.6706 36.3044 28.9235 36.3185 29.4293C35.6371 29.4995 35.1875 29.4925 34.9557 29.4925C34.9838 29.0008 35.2718 28.6355 35.7214 28.6566Z" fill="#F5F6FF"/>
<path d="M39.4907 28.6425C39.6593 28.6214 39.7366 28.488 39.7366 28.3686C39.7366 28.221 39.6101 28.0805 39.4135 28.1016C39.0341 28.1438 38.711 28.2491 38.3878 28.5161C38.3808 28.3896 38.3878 28.4388 38.3808 28.3124C38.3738 28.1367 38.2263 28.0525 38.0928 28.0525C37.9383 28.0525 37.7837 28.1508 37.7767 28.3334C37.7697 28.6425 37.7697 28.9657 37.7697 29.2888C37.7697 29.921 37.7767 30.7429 37.7978 31.4313C37.8048 31.5929 37.9453 31.6912 38.0928 31.6912C38.2403 31.6912 38.3949 31.5788 38.4019 31.4173C38.3949 31.0941 38.3878 30.6165 38.3878 30.209C38.3878 29.921 38.3878 29.619 38.4019 29.3169C38.711 28.8743 39.0271 28.7057 39.4907 28.6425Z" fill="#F5F6FF"/>
<path d="M29.2087 34.3651C29.1806 34.7726 29.1876 35.2221 29.1876 35.6366C29.1876 35.8614 29.1876 36.2407 29.1946 36.4304C29.2157 37.189 29.5389 37.7229 30.2554 37.7229C30.5645 37.7229 30.8525 37.5543 31.0351 37.3225V37.463C31.0351 37.6386 31.1686 37.7018 31.3161 37.7018C31.4566 37.7018 31.6041 37.6175 31.6041 37.4419C31.6041 37.1961 31.5971 36.8729 31.5971 36.6481C31.5971 36.4023 31.5971 36.1705 31.5901 35.9527C31.576 35.6506 31.583 35.2221 31.5901 34.899C31.5901 34.6742 31.5971 34.4775 31.5971 34.323C31.5971 34.1755 31.4496 34.0841 31.3091 34.0841C31.1686 34.0841 31.0211 34.1825 31.007 34.3441C30.993 34.5618 30.993 35.1378 30.993 35.6155V36.3672C30.9227 36.8308 30.6136 37.168 30.2624 37.189C29.9463 37.2101 29.8128 36.8729 29.8058 36.4023V35.2432C29.8058 34.9622 29.8128 34.6672 29.8128 34.3581C29.8128 34.1825 29.6793 34.0982 29.5318 34.0982C29.3913 34.0982 29.2227 34.1755 29.2087 34.3651Z" fill="#F5F6FF"/>
<path d="M33.1259 37.4419C33.3085 37.5473 33.5614 37.6175 33.7862 37.6246C34.5168 37.6386 34.9382 36.9994 34.9453 35.8754C34.9523 35.0816 34.6854 34.1403 33.737 34.1052C33.5122 34.0982 33.2734 34.1544 33.0908 34.2879C33.0556 34.1544 32.9081 34.0841 32.7746 34.0841C32.6271 34.0841 32.4937 34.2176 32.4937 34.3581C32.5077 35.4118 32.5147 35.1308 32.5147 36.4304V38.9031C32.5147 39.0857 32.6623 39.17 32.8168 39.17C32.9643 39.17 33.1189 39.0717 33.1259 38.882V37.4419ZM33.1189 35.1238C33.1189 34.8428 33.3717 34.6672 33.6738 34.6742C34.1796 34.6883 34.3341 35.3205 34.3341 35.8684C34.3341 36.6271 34.1445 37.0556 33.7721 37.0766C33.5263 37.0907 33.2523 36.9924 33.1189 36.7254V35.1238Z" fill="#F5F6FF"/>
</svg>
