<svg width="81" height="80" viewBox="0 0 81 80" fill="none" xmlns="http://www.w3.org/2000/svg">
<rect x="2.79688" y="2" width="76" height="76" rx="38" fill="#FFE8EB" stroke="#FFAA29" stroke-width="4"/>
<g clip-path="url(#clip0_1178_1398)">
<path d="M42.842 25.6303C40.9825 24.7903 39.8048 23.1403 39.123 21.1303C38.3792 23.4103 37.1085 25.3003 35.218 26.2903C34.7842 24.7303 34.5672 23.9503 34.1953 22.4503C36.7366 21.1003 37.7284 18.3403 37.9763 15.8803C36.9226 15.9403 36.3957 16.0003 35.373 16.1203C35.528 14.7103 35.5899 14.0203 35.7759 12.7003C36.7366 12.5503 37.2325 12.5203 38.2242 12.4303C38.2862 11.5003 38.3172 11.0503 38.3792 10.1503C39.247 10.0603 39.7118 10.0303 40.6106 10.0303C40.6106 10.9303 40.6106 11.3803 40.5796 12.3103C41.6023 12.3103 42.0982 12.3103 43.1209 12.3103C43.1829 13.6603 43.1829 14.3503 43.2449 15.7903C42.1602 15.7603 41.6333 15.7603 40.5486 15.7903C40.6106 18.0703 41.5094 20.5903 44.0197 21.7603C43.5858 23.2903 43.3379 24.0703 42.842 25.6603V25.6303ZM36.2098 27.3103C40.5796 27.1603 42.904 27.1603 47.2428 27.3103C47.4288 31.7203 47.4908 34.0303 47.5218 38.8003C42.966 38.8003 40.5176 38.8003 35.9618 38.8003C35.9618 34.0603 36.0238 31.7203 36.2098 27.3103ZM38.937 34.5103C41.1994 34.5103 42.3461 34.5103 44.6085 34.5103C44.6085 33.2203 44.6085 32.5903 44.5775 31.3303C42.3461 31.3003 41.1994 31.3003 38.999 31.3303C38.999 32.5903 38.999 33.2203 38.999 34.5103H38.937ZM48.6994 19.9903C47.9556 19.9003 47.5837 19.8703 46.8399 19.8103C47.0259 22.2703 47.0879 23.5603 47.2118 26.1703C46.0961 26.1103 45.5383 26.1103 44.3916 26.0803C44.2056 19.0903 44.0817 15.8203 43.7408 10.1203C44.6395 10.1803 45.0734 10.2403 45.9412 10.3603C46.1891 12.5203 46.3131 13.6603 46.53 16.0003C47.2428 16.0603 47.5837 16.1203 48.2966 16.2103C48.4825 17.6803 48.5755 18.4303 48.7304 19.9903H48.6994Z" fill="#3551E7"/>
<path d="M19.7842 54.5203C18.1107 53.4103 16.685 51.7304 15.6623 49.8104C15.5384 51.7604 15.1045 53.0204 13.9578 53.1704C13.059 51.9104 12.6251 51.2503 11.8193 49.9903C13.3379 49.6003 13.6479 47.6503 13.5549 45.4604C12.5631 45.3404 12.0673 45.2803 11.1065 45.1903C10.8896 43.9303 10.8276 43.2704 10.7656 41.9504C13.6479 42.0704 15.1974 42.1304 18.4516 42.2204C18.5136 43.7504 18.5445 44.4704 18.6995 45.9704C17.6458 45.8804 17.1499 45.8504 16.1272 45.7304C16.6231 47.8603 17.8627 50.0203 20.0631 51.3403C19.8772 52.6603 19.8152 53.3203 19.7532 54.5504L19.7842 54.5203ZM20.3111 61.3303C22.5735 62.6503 23.7822 63.2203 26.3235 64.1803C26.7574 65.3503 26.9743 65.9503 27.4702 67.0603C24.371 65.6203 22.9454 64.6903 20.3731 62.5303C18.6685 60.5803 17.8937 59.5003 16.5611 57.2203C18.8235 58.3303 20.0322 58.8403 22.5735 59.7103C22.4495 59.3803 22.3875 59.2303 22.2945 58.9003C19.6912 58.0903 18.4826 57.6103 16.1582 56.5303C15.6003 55.4803 15.3214 54.9403 14.8565 53.8303C18.1107 55.0003 19.9082 55.5103 23.6892 56.3203C24.34 59.2303 24.7739 60.6403 25.7036 63.2503C23.2243 62.3503 22.0466 61.8403 19.8462 60.6103C20.0322 60.9103 20.0941 61.0603 20.2801 61.3303H20.3111ZM24.1231 46.6003C24.247 48.2203 24.309 49.0004 24.495 50.5604C23.7512 50.4704 23.3793 50.4403 22.6355 50.3503C22.9144 52.4203 23.1003 53.4103 23.5032 55.3603C22.5115 55.1803 22.0466 55.0603 21.0859 54.8503C19.7842 49.7203 19.3813 46.9004 19.2883 41.1104C20.3421 41.1104 20.8689 41.1104 21.9226 41.1404C21.9226 43.3004 22.0156 44.3803 22.1706 46.4503C22.9144 46.5103 23.3173 46.5403 24.0921 46.5703L24.1231 46.6003Z" fill="#3551E7"/>
<path d="M33.638 48.1005C30.4768 48.0105 28.9272 47.9205 25.921 47.7105C25.7971 46.1805 25.7661 45.4005 25.7041 43.8105C26.6648 43.8405 27.1607 43.8405 28.1524 43.8705C28.1524 42.9105 28.1215 42.4005 28.0905 41.4405C29.2062 41.4405 29.764 41.4405 30.9107 41.4405C30.9107 42.4305 30.9107 42.9405 30.9417 43.9305C31.9644 43.9305 32.4603 43.9305 33.514 43.9905C33.514 45.6405 33.576 46.4805 33.607 48.1005H33.638ZM26.8508 53.4105C26.4789 50.5005 27.7496 48.4305 29.795 48.5505C31.8405 48.6705 33.452 50.9805 33.638 54.0405C33.8239 57.0705 32.6462 58.9905 30.7867 58.7505C28.9272 58.5105 27.2227 56.3205 26.8508 53.4405V53.4105ZM38.8136 61.3005C38.9066 63.8205 39.6504 66.0105 41.5409 66.8805C41.076 68.1705 40.8591 68.8005 40.4872 70.0005C39.2475 69.3105 38.3797 67.9905 37.7909 66.2205C37.45 67.9605 36.8611 69.2805 35.8694 69.8205C34.6917 68.9505 33.7 67.4505 32.9562 65.6505C32.8012 67.2105 32.3053 68.2305 31.4376 68.5305C30.7248 67.2705 30.3839 66.6105 29.6401 65.3205C31.0657 64.9005 31.3446 62.8905 30.9727 60.6105C30.9727 60.4905 30.9727 60.4305 30.9107 60.2805C31.8715 60.4305 32.3673 60.4905 33.3591 60.6105C33.3591 60.7305 33.3591 60.7905 33.3901 60.9405C33.607 62.7105 34.1958 64.5405 35.2805 65.8605C36.0863 64.7205 36.3343 62.9505 36.2103 61.2105C36.2103 61.0905 36.2103 61.0005 36.2103 60.8805C37.233 60.9705 37.7599 60.9705 38.8136 61.0305C38.8136 61.1505 38.8136 61.2405 38.8136 61.3605V61.3005ZM29.1752 53.6805C29.2991 54.7305 29.764 55.2705 30.3529 55.3305C30.9417 55.3905 31.3136 54.9105 31.2206 53.8605C31.1277 52.7805 30.6628 52.2105 30.0429 52.1505C29.4231 52.0905 29.0512 52.6005 29.1752 53.6805ZM37.1091 59.7705C36.1173 59.7105 35.6215 59.6805 34.6607 59.5905C34.1029 52.9305 33.9169 49.2405 33.8549 41.6205C34.9396 41.6205 35.4975 41.6205 36.5822 41.6205C36.5822 44.6505 36.6132 46.1205 36.6752 49.0305C36.9851 49.0305 37.1091 49.0305 37.419 49.0305C37.357 45.9705 37.357 44.4105 37.326 41.2305C38.4727 41.2305 39.0305 41.2305 40.1772 41.2305C40.1772 49.2105 40.2082 53.0805 40.3012 60.0405C39.2785 60.0405 38.7826 60.0405 37.7599 59.9505C37.6359 57.3405 37.6049 55.9905 37.512 53.2005C37.233 53.2005 37.0781 53.2005 36.7991 53.2005C36.8921 55.8705 36.9541 57.1905 37.0781 59.7105L37.1091 59.7705Z" fill="#3551E7"/>
<path d="M57.0366 41.1104C56.9436 53.4404 55.8589 59.3504 52.7907 68.3804C51.9849 68.6804 51.582 68.8304 50.7763 69.0704C52.0469 64.3004 52.6048 61.5704 53.3176 55.7204C52.4808 55.8104 52.0469 55.8704 51.2101 55.9604C50.4044 61.3904 48.4519 64.5404 46.4994 64.7504C44.361 64.9604 42.8114 61.3904 42.9044 54.6404C42.9973 47.9804 44.9498 43.3604 47.5531 43.3604C49.8465 43.3604 51.5511 46.7504 51.5511 51.9704C52.4498 51.9104 52.8837 51.8804 53.7825 51.7904C54.1544 47.6804 54.2473 45.5504 54.2783 41.1704C55.425 41.1704 55.9829 41.1704 57.0986 41.1704L57.0366 41.1104ZM48.7928 54.4004C49.0407 50.2904 48.4519 48.2504 47.4292 48.2504C46.4064 48.2504 45.7246 50.3804 45.5697 54.5504C45.4147 58.7804 45.9106 60.5204 46.8093 60.4604C47.7391 60.4004 48.5139 58.6004 48.7618 54.4004H48.7928Z" fill="#3551E7"/>
<path d="M67.2015 57.2501C66.4887 58.2701 66.0858 58.7501 65.28 59.7101C61.8709 62.3801 59.8564 63.4901 55.5176 65.1101C55.9515 63.8501 56.1684 63.1901 56.5713 61.8401C57.532 61.5701 58.0279 61.4201 58.9577 61.0901C59.7325 58.9001 60.0734 57.7601 60.6622 55.3901C59.9804 54.3701 59.7015 52.6001 60.0114 50.2301C60.6312 45.5801 63.1725 42.3101 66.3337 42.2201C69.4949 42.1301 71.6333 44.7101 70.5796 48.5201C70.0527 50.4701 68.906 52.1201 67.6044 53.5001C66.7986 55.5701 66.3027 56.5301 65.187 58.3901C66.0238 57.9401 66.4267 57.7301 67.2015 57.2501ZM62.4907 49.9001C62.0878 52.3601 62.9246 53.4101 64.6601 52.9901C66.3957 52.5701 67.8213 51.1601 68.3482 48.9401C68.875 46.7201 67.8833 45.5801 66.0548 45.7601C64.2263 45.9401 62.8936 47.4101 62.5217 49.9001H62.4907ZM61.0341 60.2801C61.9329 59.9201 62.3977 59.7401 63.2655 59.3201C63.9783 57.8801 64.3192 57.1301 64.9081 55.6001C64.4742 55.8401 64.0713 56.0201 63.6684 56.1701C63.2655 56.3201 62.8626 56.3801 62.5217 56.3501C61.9949 57.9701 61.7159 58.7801 61.0651 60.2801H61.0341Z" fill="#3551E7"/>
</g>
<defs>
<clipPath id="clip0_1178_1398">
<rect width="60" height="60" fill="white" transform="translate(10.7969 10)"/>
</clipPath>
</defs>
</svg>
