<svg width="81" height="80" viewBox="0 0 81 80" fill="none" xmlns="http://www.w3.org/2000/svg">
<rect x="0.796875" width="80" height="80" rx="40" fill="#FFE8EB"/>
<path d="M19.3185 26.4456L19.0098 24.584L18.7011 26.4456C18.4578 27.9049 17.3166 29.0555 15.8479 29.2987L13.9863 29.6074L15.8479 29.9161C17.3072 30.1593 18.4578 31.3006 18.7011 32.7693L19.0098 34.6309L19.3185 32.7693C19.5617 31.31 20.703 30.1593 22.1716 29.9161L24.0332 29.6074L22.1716 29.2987C20.7123 29.0555 19.5617 27.9142 19.3185 26.4456Z" fill="#748AFF"/>
<path d="M13.292 40.4103L12.8687 37.8535L12.4453 40.4103C12.1132 42.4193 10.5443 43.9965 8.53534 44.3203L5.97852 44.7437L8.53534 45.167C10.5443 45.4991 12.1215 47.068 12.4453 49.077L12.8687 51.6338L13.292 49.077C13.6241 47.068 15.193 45.4908 17.202 45.167L19.7588 44.7437L17.202 44.3203C15.193 43.9882 13.6158 42.4193 13.292 40.4103Z" fill="#71EEA3"/>
<path d="M68.3017 40.4103L68.7251 37.8535L69.1485 40.4103C69.4805 42.4193 71.0495 43.9965 73.0584 44.3203L75.6152 44.7437L73.0584 45.167C71.0495 45.4991 69.4722 47.068 69.1485 49.077L68.7251 51.6338L68.3017 49.077C67.9697 47.068 66.4007 45.4908 64.3918 45.167L61.835 44.7437L64.3918 44.3203C66.4007 43.9882 67.978 42.4193 68.3017 40.4103Z" fill="#71EEA3"/>
<path d="M62.2821 26.4456L62.5908 24.584L62.8995 26.4456C63.1427 27.9049 64.284 29.0555 65.7527 29.2987L67.6143 29.6074L65.7527 29.9161C64.2934 30.1593 63.1427 31.3006 62.8995 32.7693L62.5908 34.6309L62.2821 32.7693C62.0389 31.31 60.8976 30.1593 59.429 29.9161L57.5674 29.6074L59.429 29.2987C60.8883 29.0555 62.0389 27.9142 62.2821 26.4456Z" fill="#748AFF"/>
<path d="M61.0448 12.2L49.4855 29.4896H44.1038L55.6631 12.2H61.0448Z" fill="#3551E7" stroke="#3551E7" stroke-width="0.4"/>
<path d="M55.1708 12.2L43.6114 29.4896H38.228L49.6885 12.2H55.1708Z" fill="#E8E8E8" stroke="#3551E7" stroke-width="0.4"/>
<path d="M49.2116 12.2L37.7511 29.4896H32.2688L43.8282 12.2H49.2116Z" fill="#FF2238" stroke="#3551E7" stroke-width="0.4"/>
<path d="M49.5917 33.8286C50.3215 33.8286 50.8026 33.2205 50.8026 32.6178V28.6756C50.8026 27.9458 50.1944 27.4648 49.5917 27.4648H31.9021C31.1724 27.4648 30.6913 28.0729 30.6913 28.6756V32.6178C30.6913 33.3476 31.2995 33.8286 31.9021 33.8286H49.5917ZM29.1707 26.755C29.1707 26.2717 29.5734 25.9441 29.9815 25.9441H51.6134C52.0967 25.9441 52.4242 26.3468 52.4242 26.755V35.5492C52.4242 36.0325 52.0216 36.3601 51.6134 36.3601H29.9815C29.4983 36.3601 29.1707 35.9574 29.1707 35.5492V26.755Z" fill="#FFAA29" stroke="#3551E7" stroke-width="0.4"/>
<path d="M20.5463 12.2H25.9298L37.4891 29.4896H32.0069L20.5463 12.2Z" fill="#FF2238" stroke="#3551E7" stroke-width="0.4"/>
<path d="M26.4075 12.2H31.7892L43.3485 29.4896H37.9668L26.4075 12.2Z" fill="#E8E8E8" stroke="#3551E7" stroke-width="0.4"/>
<g opacity="0.5">
<path d="M45.7502 29.483L39.0107 19.3738L41.7999 15.283L50.3561 28.1666L49.4784 29.483H45.7502Z" fill="#3E4347" stroke="#3551E7" stroke-width="0.4"/>
</g>
<path d="M32.2688 12.2H37.7511L49.2116 29.4896H43.8282L32.2688 12.2Z" fill="#3551E7" stroke="#3551E7" stroke-width="0.4"/>
<path d="M40.8059 31.4051C50.803 31.4051 58.902 39.5026 58.902 49.6023C58.902 59.702 50.803 67.7994 40.8059 67.7994C30.8087 67.7994 22.7098 59.702 22.7098 49.6023C22.7098 39.5026 30.8087 31.4051 40.8059 31.4051Z" fill="#FFAA29" stroke="#3551E7" stroke-width="0.4"/>
<mask id="path-15-inside-1_1178_1481" fill="white">
<path d="M40.9918 32.8301C31.591 32.8301 24.0098 40.4113 24.0098 49.8121C24.0098 52.6424 24.7173 55.2706 25.9304 57.5955C25.3239 55.776 25.0206 53.7543 25.0206 51.7326C25.0206 41.8265 32.7029 33.6387 42.407 32.9311C41.9015 32.9311 41.4972 32.9311 40.9918 32.9311"/>
</mask>
<path d="M40.9918 32.8301C31.591 32.8301 24.0098 40.4113 24.0098 49.8121C24.0098 52.6424 24.7173 55.2706 25.9304 57.5955C25.3239 55.776 25.0206 53.7543 25.0206 51.7326C25.0206 41.8265 32.7029 33.6387 42.407 32.9311C41.9015 32.9311 41.4972 32.9311 40.9918 32.9311" fill="#3551E7"/>
<path d="M25.9304 57.5955L25.5757 57.7805L26.3098 57.469L25.9304 57.5955ZM42.407 32.9311L42.436 33.33L42.407 32.5311V32.9311ZM40.9918 32.4301C31.3701 32.4301 23.6098 40.1904 23.6098 49.8121H24.4098C24.4098 40.6323 31.8119 33.2301 40.9918 33.2301V32.4301ZM23.6098 49.8121C23.6098 52.7106 24.3347 55.4018 25.5757 57.7805L26.285 57.4105C25.1 55.1393 24.4098 52.5743 24.4098 49.8121H23.6098ZM26.3098 57.469C25.7183 55.6944 25.4206 53.7159 25.4206 51.7326H24.6206C24.6206 53.7927 24.9294 55.8576 25.5509 57.722L26.3098 57.469ZM25.4206 51.7326C25.4206 42.0357 32.9415 34.0224 42.436 33.33L42.3779 32.5322C32.4644 33.255 24.6206 41.6172 24.6206 51.7326H25.4206ZM42.407 32.5311C42.406 32.5311 42.405 32.5311 42.404 32.5311C42.403 32.5311 42.402 32.5311 42.401 32.5311C42.4001 32.5311 42.3991 32.5311 42.3981 32.5311C42.3971 32.5311 42.3961 32.5311 42.3951 32.5311C42.3941 32.5311 42.3932 32.5311 42.3922 32.5311C42.3912 32.5311 42.3902 32.5311 42.3892 32.5311C42.3882 32.5311 42.3873 32.5311 42.3863 32.5311C42.3853 32.5311 42.3843 32.5311 42.3833 32.5311C42.3824 32.5311 42.3814 32.5311 42.3804 32.5311C42.3794 32.5311 42.3784 32.5311 42.3775 32.5311C42.3765 32.5311 42.3755 32.5311 42.3745 32.5311C42.3735 32.5311 42.3726 32.5311 42.3716 32.5311C42.3706 32.5311 42.3696 32.5311 42.3686 32.5311C42.3677 32.5311 42.3667 32.5311 42.3657 32.5311C42.3647 32.5311 42.3638 32.5311 42.3628 32.5311C42.3618 32.5311 42.3608 32.5311 42.3599 32.5311C42.3589 32.5311 42.3579 32.5311 42.3569 32.5311C42.356 32.5311 42.355 32.5311 42.354 32.5311C42.353 32.5311 42.3521 32.5311 42.3511 32.5311C42.3501 32.5311 42.3491 32.5311 42.3482 32.5311C42.3472 32.5311 42.3462 32.5311 42.3453 32.5311C42.3443 32.5311 42.3433 32.5311 42.3423 32.5311C42.3414 32.5311 42.3404 32.5311 42.3394 32.5311C42.3385 32.5311 42.3375 32.5311 42.3365 32.5311C42.3356 32.5311 42.3346 32.5311 42.3336 32.5311C42.3326 32.5311 42.3317 32.5311 42.3307 32.5311C42.3297 32.5311 42.3288 32.5311 42.3278 32.5311C42.3268 32.5311 42.3259 32.5311 42.3249 32.5311C42.3239 32.5311 42.323 32.5311 42.322 32.5311C42.321 32.5311 42.3201 32.5311 42.3191 32.5311C42.3181 32.5311 42.3172 32.5311 42.3162 32.5311C42.3153 32.5311 42.3143 32.5311 42.3133 32.5311C42.3124 32.5311 42.3114 32.5311 42.3104 32.5311C42.3095 32.5311 42.3085 32.5311 42.3075 32.5311C42.3066 32.5311 42.3056 32.5311 42.3047 32.5311C42.3037 32.5311 42.3027 32.5311 42.3018 32.5311C42.3008 32.5311 42.2998 32.5311 42.2989 32.5311C42.2979 32.5311 42.297 32.5311 42.296 32.5311C42.295 32.5311 42.2941 32.5311 42.2931 32.5311C42.2922 32.5311 42.2912 32.5311 42.2903 32.5311C42.2893 32.5311 42.2883 32.5311 42.2874 32.5311C42.2864 32.5311 42.2855 32.5311 42.2845 32.5311C42.2835 32.5311 42.2826 32.5311 42.2816 32.5311C42.2807 32.5311 42.2797 32.5311 42.2788 32.5311C42.2778 32.5311 42.2768 32.5311 42.2759 32.5311C42.2749 32.5311 42.274 32.5311 42.273 32.5311C42.2721 32.5311 42.2711 32.5311 42.2702 32.5311C42.2692 32.5311 42.2683 32.5311 42.2673 32.5311C42.2663 32.5311 42.2654 32.5311 42.2644 32.5311C42.2635 32.5311 42.2625 32.5311 42.2616 32.5311C42.2606 32.5311 42.2597 32.5311 42.2587 32.5311C42.2578 32.5311 42.2568 32.5311 42.2559 32.5311C42.2549 32.5311 42.254 32.5311 42.253 32.5311C42.2521 32.5311 42.2511 32.5311 42.2502 32.5311C42.2492 32.5311 42.2483 32.5311 42.2473 32.5311C42.2464 32.5311 42.2454 32.5311 42.2445 32.5311C42.2435 32.5311 42.2426 32.5311 42.2416 32.5311C42.2407 32.5311 42.2397 32.5311 42.2388 32.5311C42.2378 32.5311 42.2369 32.5311 42.2359 32.5311C42.235 32.5311 42.2341 32.5311 42.2331 32.5311C42.2322 32.5311 42.2312 32.5311 42.2303 32.5311C42.2293 32.5311 42.2284 32.5311 42.2274 32.5311C42.2265 32.5311 42.2255 32.5311 42.2246 32.5311C42.2237 32.5311 42.2227 32.5311 42.2218 32.5311C42.2208 32.5311 42.2199 32.5311 42.2189 32.5311C42.218 32.5311 42.217 32.5311 42.2161 32.5311C42.2152 32.5311 42.2142 32.5311 42.2133 32.5311C42.2123 32.5311 42.2114 32.5311 42.2105 32.5311C42.2095 32.5311 42.2086 32.5311 42.2076 32.5311C42.2067 32.5311 42.2057 32.5311 42.2048 32.5311C42.2039 32.5311 42.2029 32.5311 42.202 32.5311C42.201 32.5311 42.2001 32.5311 42.1992 32.5311C42.1982 32.5311 42.1973 32.5311 42.1963 32.5311C42.1954 32.5311 42.1945 32.5311 42.1935 32.5311C42.1926 32.5311 42.1917 32.5311 42.1907 32.5311C42.1898 32.5311 42.1888 32.5311 42.1879 32.5311C42.187 32.5311 42.186 32.5311 42.1851 32.5311C42.1842 32.5311 42.1832 32.5311 42.1823 32.5311C42.1813 32.5311 42.1804 32.5311 42.1795 32.5311C42.1785 32.5311 42.1776 32.5311 42.1767 32.5311C42.1757 32.5311 42.1748 32.5311 42.1739 32.5311C42.1729 32.5311 42.172 32.5311 42.1711 32.5311C42.1701 32.5311 42.1692 32.5311 42.1683 32.5311C42.1673 32.5311 42.1664 32.5311 42.1655 32.5311C42.1645 32.5311 42.1636 32.5311 42.1627 32.5311C42.1617 32.5311 42.1608 32.5311 42.1599 32.5311C42.1589 32.5311 42.158 32.5311 42.1571 32.5311C42.1561 32.5311 42.1552 32.5311 42.1543 32.5311C42.1533 32.5311 42.1524 32.5311 42.1515 32.5311C42.1506 32.5311 42.1496 32.5311 42.1487 32.5311C42.1478 32.5311 42.1468 32.5311 42.1459 32.5311C42.145 32.5311 42.1441 32.5311 42.1431 32.5311C42.1422 32.5311 42.1413 32.5311 42.1403 32.5311C42.1394 32.5311 42.1385 32.5311 42.1376 32.5311C42.1366 32.5311 42.1357 32.5311 42.1348 32.5311C42.1338 32.5311 42.1329 32.5311 42.132 32.5311C42.1311 32.5311 42.1301 32.5311 42.1292 32.5311C42.1283 32.5311 42.1274 32.5311 42.1264 32.5311C42.1255 32.5311 42.1246 32.5311 42.1236 32.5311C42.1227 32.5311 42.1218 32.5311 42.1209 32.5311C42.1199 32.5311 42.119 32.5311 42.1181 32.5311C42.1172 32.5311 42.1162 32.5311 42.1153 32.5311C42.1144 32.5311 42.1135 32.5311 42.1126 32.5311C42.1116 32.5311 42.1107 32.5311 42.1098 32.5311C42.1089 32.5311 42.1079 32.5311 42.107 32.5311C42.1061 32.5311 42.1052 32.5311 42.1042 32.5311C42.1033 32.5311 42.1024 32.5311 42.1015 32.5311C42.1006 32.5311 42.0996 32.5311 42.0987 32.5311C42.0978 32.5311 42.0969 32.5311 42.096 32.5311C42.095 32.5311 42.0941 32.5311 42.0932 32.5311C42.0923 32.5311 42.0913 32.5311 42.0904 32.5311C42.0895 32.5311 42.0886 32.5311 42.0877 32.5311C42.0867 32.5311 42.0858 32.5311 42.0849 32.5311C42.084 32.5311 42.0831 32.5311 42.0822 32.5311C42.0812 32.5311 42.0803 32.5311 42.0794 32.5311C42.0785 32.5311 42.0776 32.5311 42.0766 32.5311C42.0757 32.5311 42.0748 32.5311 42.0739 32.5311C42.073 32.5311 42.0721 32.5311 42.0711 32.5311C42.0702 32.5311 42.0693 32.5311 42.0684 32.5311C42.0675 32.5311 42.0666 32.5311 42.0656 32.5311C42.0647 32.5311 42.0638 32.5311 42.0629 32.5311C42.062 32.5311 42.0611 32.5311 42.0601 32.5311C42.0592 32.5311 42.0583 32.5311 42.0574 32.5311C42.0565 32.5311 42.0556 32.5311 42.0547 32.5311C42.0537 32.5311 42.0528 32.5311 42.0519 32.5311C42.051 32.5311 42.0501 32.5311 42.0492 32.5311C42.0483 32.5311 42.0473 32.5311 42.0464 32.5311C42.0455 32.5311 42.0446 32.5311 42.0437 32.5311C42.0428 32.5311 42.0419 32.5311 42.0409 32.5311C42.04 32.5311 42.0391 32.5311 42.0382 32.5311C42.0373 32.5311 42.0364 32.5311 42.0355 32.5311C42.0346 32.5311 42.0336 32.5311 42.0327 32.5311C42.0318 32.5311 42.0309 32.5311 42.03 32.5311C42.0291 32.5311 42.0282 32.5311 42.0273 32.5311C42.0264 32.5311 42.0254 32.5311 42.0245 32.5311C42.0236 32.5311 42.0227 32.5311 42.0218 32.5311C42.0209 32.5311 42.02 32.5311 42.0191 32.5311C42.0182 32.5311 42.0173 32.5311 42.0163 32.5311C42.0154 32.5311 42.0145 32.5311 42.0136 32.5311C42.0127 32.5311 42.0118 32.5311 42.0109 32.5311C42.01 32.5311 42.0091 32.5311 42.0082 32.5311C42.0073 32.5311 42.0064 32.5311 42.0054 32.5311C42.0045 32.5311 42.0036 32.5311 42.0027 32.5311C42.0018 32.5311 42.0009 32.5311 42 32.5311C41.9991 32.5311 41.9982 32.5311 41.9973 32.5311C41.9964 32.5311 41.9955 32.5311 41.9946 32.5311C41.9936 32.5311 41.9927 32.5311 41.9918 32.5311C41.9909 32.5311 41.99 32.5311 41.9891 32.5311C41.9882 32.5311 41.9873 32.5311 41.9864 32.5311C41.9855 32.5311 41.9846 32.5311 41.9837 32.5311C41.9828 32.5311 41.9819 32.5311 41.981 32.5311C41.9801 32.5311 41.9792 32.5311 41.9783 32.5311C41.9773 32.5311 41.9764 32.5311 41.9755 32.5311C41.9746 32.5311 41.9737 32.5311 41.9728 32.5311C41.9719 32.5311 41.971 32.5311 41.9701 32.5311C41.9692 32.5311 41.9683 32.5311 41.9674 32.5311C41.9665 32.5311 41.9656 32.5311 41.9647 32.5311C41.9638 32.5311 41.9629 32.5311 41.962 32.5311C41.9611 32.5311 41.9602 32.5311 41.9593 32.5311C41.9584 32.5311 41.9575 32.5311 41.9566 32.5311C41.9557 32.5311 41.9548 32.5311 41.9539 32.5311C41.953 32.5311 41.9521 32.5311 41.9512 32.5311C41.9503 32.5311 41.9494 32.5311 41.9485 32.5311C41.9476 32.5311 41.9466 32.5311 41.9457 32.5311C41.9448 32.5311 41.9439 32.5311 41.943 32.5311C41.9421 32.5311 41.9412 32.5311 41.9403 32.5311C41.9394 32.5311 41.9385 32.5311 41.9376 32.5311C41.9367 32.5311 41.9358 32.5311 41.9349 32.5311C41.934 32.5311 41.9331 32.5311 41.9322 32.5311C41.9313 32.5311 41.9304 32.5311 41.9295 32.5311C41.9286 32.5311 41.9277 32.5311 41.9268 32.5311C41.9259 32.5311 41.925 32.5311 41.9241 32.5311C41.9232 32.5311 41.9223 32.5311 41.9214 32.5311C41.9206 32.5311 41.9197 32.5311 41.9188 32.5311C41.9179 32.5311 41.917 32.5311 41.9161 32.5311C41.9152 32.5311 41.9143 32.5311 41.9134 32.5311C41.9125 32.5311 41.9116 32.5311 41.9107 32.5311C41.9098 32.5311 41.9089 32.5311 41.908 32.5311C41.9071 32.5311 41.9062 32.5311 41.9053 32.5311C41.9044 32.5311 41.9035 32.5311 41.9026 32.5311C41.9017 32.5311 41.9008 32.5311 41.8999 32.5311C41.899 32.5311 41.8981 32.5311 41.8972 32.5311C41.8963 32.5311 41.8954 32.5311 41.8945 32.5311C41.8936 32.5311 41.8927 32.5311 41.8918 32.5311C41.8909 32.5311 41.89 32.5311 41.8891 32.5311C41.8882 32.5311 41.8874 32.5311 41.8865 32.5311C41.8856 32.5311 41.8847 32.5311 41.8838 32.5311C41.8829 32.5311 41.882 32.5311 41.8811 32.5311C41.8802 32.5311 41.8793 32.5311 41.8784 32.5311C41.8775 32.5311 41.8766 32.5311 41.8757 32.5311C41.8748 32.5311 41.8739 32.5311 41.873 32.5311C41.8721 32.5311 41.8712 32.5311 41.8703 32.5311C41.8694 32.5311 41.8686 32.5311 41.8677 32.5311C41.8668 32.5311 41.8659 32.5311 41.865 32.5311C41.8641 32.5311 41.8632 32.5311 41.8623 32.5311C41.8614 32.5311 41.8605 32.5311 41.8596 32.5311C41.8587 32.5311 41.8578 32.5311 41.8569 32.5311C41.856 32.5311 41.8551 32.5311 41.8542 32.5311C41.8534 32.5311 41.8525 32.5311 41.8516 32.5311C41.8507 32.5311 41.8498 32.5311 41.8489 32.5311C41.848 32.5311 41.8471 32.5311 41.8462 32.5311C41.8453 32.5311 41.8444 32.5311 41.8435 32.5311C41.8426 32.5311 41.8417 32.5311 41.8409 32.5311C41.84 32.5311 41.8391 32.5311 41.8382 32.5311C41.8373 32.5311 41.8364 32.5311 41.8355 32.5311C41.8346 32.5311 41.8337 32.5311 41.8328 32.5311C41.8319 32.5311 41.831 32.5311 41.8301 32.5311C41.8293 32.5311 41.8284 32.5311 41.8275 32.5311C41.8266 32.5311 41.8257 32.5311 41.8248 32.5311C41.8239 32.5311 41.823 32.5311 41.8221 32.5311C41.8212 32.5311 41.8203 32.5311 41.8194 32.5311C41.8186 32.5311 41.8177 32.5311 41.8168 32.5311C41.8159 32.5311 41.815 32.5311 41.8141 32.5311C41.8132 32.5311 41.8123 32.5311 41.8114 32.5311C41.8105 32.5311 41.8096 32.5311 41.8088 32.5311C41.8079 32.5311 41.807 32.5311 41.8061 32.5311C41.8052 32.5311 41.8043 32.5311 41.8034 32.5311C41.8025 32.5311 41.8016 32.5311 41.8007 32.5311C41.7998 32.5311 41.799 32.5311 41.7981 32.5311C41.7972 32.5311 41.7963 32.5311 41.7954 32.5311C41.7945 32.5311 41.7936 32.5311 41.7927 32.5311C41.7918 32.5311 41.7909 32.5311 41.79 32.5311C41.7892 32.5311 41.7883 32.5311 41.7874 32.5311C41.7865 32.5311 41.7856 32.5311 41.7847 32.5311C41.7838 32.5311 41.7829 32.5311 41.782 32.5311C41.7811 32.5311 41.7803 32.5311 41.7794 32.5311C41.7785 32.5311 41.7776 32.5311 41.7767 32.5311C41.7758 32.5311 41.7749 32.5311 41.774 32.5311C41.7731 32.5311 41.7723 32.5311 41.7714 32.5311C41.7705 32.5311 41.7696 32.5311 41.7687 32.5311C41.7678 32.5311 41.7669 32.5311 41.766 32.5311C41.7651 32.5311 41.7642 32.5311 41.7634 32.5311C41.7625 32.5311 41.7616 32.5311 41.7607 32.5311C41.7598 32.5311 41.7589 32.5311 41.758 32.5311C41.7571 32.5311 41.7562 32.5311 41.7554 32.5311C41.7545 32.5311 41.7536 32.5311 41.7527 32.5311C41.7518 32.5311 41.7509 32.5311 41.75 32.5311C41.7491 32.5311 41.7482 32.5311 41.7474 32.5311C41.7465 32.5311 41.7456 32.5311 41.7447 32.5311C41.7438 32.5311 41.7429 32.5311 41.742 32.5311C41.7411 32.5311 41.7402 32.5311 41.7394 32.5311C41.7385 32.5311 41.7376 32.5311 41.7367 32.5311C41.7358 32.5311 41.7349 32.5311 41.734 32.5311C41.7331 32.5311 41.7322 32.5311 41.7314 32.5311C41.7305 32.5311 41.7296 32.5311 41.7287 32.5311C41.7278 32.5311 41.7269 32.5311 41.726 32.5311C41.7251 32.5311 41.7242 32.5311 41.7234 32.5311C41.7225 32.5311 41.7216 32.5311 41.7207 32.5311C41.7198 32.5311 41.7189 32.5311 41.718 32.5311C41.7171 32.5311 41.7162 32.5311 41.7154 32.5311C41.7145 32.5311 41.7136 32.5311 41.7127 32.5311C41.7118 32.5311 41.7109 32.5311 41.71 32.5311C41.7091 32.5311 41.7083 32.5311 41.7074 32.5311C41.7065 32.5311 41.7056 32.5311 41.7047 32.5311C41.7038 32.5311 41.7029 32.5311 41.702 32.5311C41.7011 32.5311 41.7003 32.5311 41.6994 32.5311C41.6985 32.5311 41.6976 32.5311 41.6967 32.5311C41.6958 32.5311 41.6949 32.5311 41.694 32.5311C41.6931 32.5311 41.6923 32.5311 41.6914 32.5311C41.6905 32.5311 41.6896 32.5311 41.6887 32.5311C41.6878 32.5311 41.6869 32.5311 41.686 32.5311C41.6852 32.5311 41.6843 32.5311 41.6834 32.5311C41.6825 32.5311 41.6816 32.5311 41.6807 32.5311C41.6798 32.5311 41.6789 32.5311 41.678 32.5311C41.6772 32.5311 41.6763 32.5311 41.6754 32.5311C41.6745 32.5311 41.6736 32.5311 41.6727 32.5311C41.6718 32.5311 41.6709 32.5311 41.67 32.5311C41.6692 32.5311 41.6683 32.5311 41.6674 32.5311C41.6665 32.5311 41.6656 32.5311 41.6647 32.5311C41.6638 32.5311 41.6629 32.5311 41.6621 32.5311C41.6612 32.5311 41.6603 32.5311 41.6594 32.5311C41.6585 32.5311 41.6576 32.5311 41.6567 32.5311C41.6558 32.5311 41.6549 32.5311 41.6541 32.5311C41.6532 32.5311 41.6523 32.5311 41.6514 32.5311C41.6505 32.5311 41.6496 32.5311 41.6487 32.5311C41.6478 32.5311 41.6469 32.5311 41.6461 32.5311C41.6452 32.5311 41.6443 32.5311 41.6434 32.5311C41.6425 32.5311 41.6416 32.5311 41.6407 32.5311C41.6398 32.5311 41.6389 32.5311 41.6381 32.5311C41.6372 32.5311 41.6363 32.5311 41.6354 32.5311C41.6345 32.5311 41.6336 32.5311 41.6327 32.5311C41.6318 32.5311 41.6309 32.5311 41.63 32.5311C41.6292 32.5311 41.6283 32.5311 41.6274 32.5311C41.6265 32.5311 41.6256 32.5311 41.6247 32.5311C41.6238 32.5311 41.6229 32.5311 41.622 32.5311C41.6211 32.5311 41.6203 32.5311 41.6194 32.5311C41.6185 32.5311 41.6176 32.5311 41.6167 32.5311C41.6158 32.5311 41.6149 32.5311 41.614 32.5311C41.6131 32.5311 41.6123 32.5311 41.6114 32.5311C41.6105 32.5311 41.6096 32.5311 41.6087 32.5311C41.6078 32.5311 41.6069 32.5311 41.606 32.5311C41.6051 32.5311 41.6042 32.5311 41.6033 32.5311C41.6025 32.5311 41.6016 32.5311 41.6007 32.5311C41.5998 32.5311 41.5989 32.5311 41.598 32.5311C41.5971 32.5311 41.5962 32.5311 41.5953 32.5311C41.5944 32.5311 41.5936 32.5311 41.5927 32.5311C41.5918 32.5311 41.5909 32.5311 41.59 32.5311C41.5891 32.5311 41.5882 32.5311 41.5873 32.5311C41.5864 32.5311 41.5855 32.5311 41.5846 32.5311C41.5838 32.5311 41.5829 32.5311 41.582 32.5311C41.5811 32.5311 41.5802 32.5311 41.5793 32.5311C41.5784 32.5311 41.5775 32.5311 41.5766 32.5311C41.5757 32.5311 41.5748 32.5311 41.5739 32.5311C41.5731 32.5311 41.5722 32.5311 41.5713 32.5311C41.5704 32.5311 41.5695 32.5311 41.5686 32.5311C41.5677 32.5311 41.5668 32.5311 41.5659 32.5311C41.565 32.5311 41.5641 32.5311 41.5632 32.5311C41.5623 32.5311 41.5615 32.5311 41.5606 32.5311C41.5597 32.5311 41.5588 32.5311 41.5579 32.5311C41.557 32.5311 41.5561 32.5311 41.5552 32.5311C41.5543 32.5311 41.5534 32.5311 41.5525 32.5311C41.5516 32.5311 41.5507 32.5311 41.5498 32.5311C41.549 32.5311 41.5481 32.5311 41.5472 32.5311C41.5463 32.5311 41.5454 32.5311 41.5445 32.5311C41.5436 32.5311 41.5427 32.5311 41.5418 32.5311C41.5409 32.5311 41.54 32.5311 41.5391 32.5311C41.5382 32.5311 41.5373 32.5311 41.5364 32.5311C41.5356 32.5311 41.5347 32.5311 41.5338 32.5311C41.5329 32.5311 41.532 32.5311 41.5311 32.5311C41.5302 32.5311 41.5293 32.5311 41.5284 32.5311C41.5275 32.5311 41.5266 32.5311 41.5257 32.5311C41.5248 32.5311 41.5239 32.5311 41.523 32.5311C41.5221 32.5311 41.5212 32.5311 41.5203 32.5311C41.5194 32.5311 41.5186 32.5311 41.5177 32.5311C41.5168 32.5311 41.5159 32.5311 41.515 32.5311C41.5141 32.5311 41.5132 32.5311 41.5123 32.5311C41.5114 32.5311 41.5105 32.5311 41.5096 32.5311C41.5087 32.5311 41.5078 32.5311 41.5069 32.5311C41.506 32.5311 41.5051 32.5311 41.5042 32.5311C41.5033 32.5311 41.5024 32.5311 41.5015 32.5311C41.5006 32.5311 41.4997 32.5311 41.4988 32.5311C41.4979 32.5311 41.497 32.5311 41.4961 32.5311C41.4952 32.5311 41.4944 32.5311 41.4935 32.5311C41.4926 32.5311 41.4917 32.5311 41.4908 32.5311C41.4899 32.5311 41.489 32.5311 41.4881 32.5311C41.4872 32.5311 41.4863 32.5311 41.4854 32.5311C41.4845 32.5311 41.4836 32.5311 41.4827 32.5311C41.4818 32.5311 41.4809 32.5311 41.48 32.5311C41.4791 32.5311 41.4782 32.5311 41.4773 32.5311C41.4764 32.5311 41.4755 32.5311 41.4746 32.5311C41.4737 32.5311 41.4728 32.5311 41.4719 32.5311C41.471 32.5311 41.4701 32.5311 41.4692 32.5311C41.4683 32.5311 41.4674 32.5311 41.4665 32.5311C41.4656 32.5311 41.4647 32.5311 41.4638 32.5311C41.4629 32.5311 41.462 32.5311 41.4611 32.5311C41.4602 32.5311 41.4593 32.5311 41.4584 32.5311C41.4575 32.5311 41.4566 32.5311 41.4557 32.5311C41.4548 32.5311 41.4539 32.5311 41.453 32.5311C41.4521 32.5311 41.4512 32.5311 41.4503 32.5311C41.4494 32.5311 41.4485 32.5311 41.4476 32.5311C41.4467 32.5311 41.4458 32.5311 41.4449 32.5311C41.444 32.5311 41.4431 32.5311 41.4422 32.5311C41.4413 32.5311 41.4404 32.5311 41.4395 32.5311C41.4386 32.5311 41.4377 32.5311 41.4368 32.5311C41.4359 32.5311 41.4349 32.5311 41.434 32.5311C41.4331 32.5311 41.4322 32.5311 41.4313 32.5311C41.4304 32.5311 41.4295 32.5311 41.4286 32.5311C41.4277 32.5311 41.4268 32.5311 41.4259 32.5311C41.425 32.5311 41.4241 32.5311 41.4232 32.5311C41.4223 32.5311 41.4214 32.5311 41.4205 32.5311C41.4196 32.5311 41.4187 32.5311 41.4178 32.5311C41.4169 32.5311 41.416 32.5311 41.4151 32.5311C41.4142 32.5311 41.4132 32.5311 41.4123 32.5311C41.4114 32.5311 41.4105 32.5311 41.4096 32.5311C41.4087 32.5311 41.4078 32.5311 41.4069 32.5311C41.406 32.5311 41.4051 32.5311 41.4042 32.5311C41.4033 32.5311 41.4024 32.5311 41.4015 32.5311C41.4006 32.5311 41.3996 32.5311 41.3987 32.5311C41.3978 32.5311 41.3969 32.5311 41.396 32.5311C41.3951 32.5311 41.3942 32.5311 41.3933 32.5311C41.3924 32.5311 41.3915 32.5311 41.3906 32.5311C41.3897 32.5311 41.3888 32.5311 41.3878 32.5311C41.3869 32.5311 41.386 32.5311 41.3851 32.5311C41.3842 32.5311 41.3833 32.5311 41.3824 32.5311C41.3815 32.5311 41.3806 32.5311 41.3797 32.5311C41.3788 32.5311 41.3778 32.5311 41.3769 32.5311C41.376 32.5311 41.3751 32.5311 41.3742 32.5311C41.3733 32.5311 41.3724 32.5311 41.3715 32.5311C41.3706 32.5311 41.3696 32.5311 41.3687 32.5311C41.3678 32.5311 41.3669 32.5311 41.366 32.5311C41.3651 32.5311 41.3642 32.5311 41.3633 32.5311C41.3624 32.5311 41.3614 32.5311 41.3605 32.5311C41.3596 32.5311 41.3587 32.5311 41.3578 32.5311C41.3569 32.5311 41.356 32.5311 41.3551 32.5311C41.3541 32.5311 41.3532 32.5311 41.3523 32.5311C41.3514 32.5311 41.3505 32.5311 41.3496 32.5311C41.3487 32.5311 41.3477 32.5311 41.3468 32.5311C41.3459 32.5311 41.345 32.5311 41.3441 32.5311C41.3432 32.5311 41.3423 32.5311 41.3413 32.5311C41.3404 32.5311 41.3395 32.5311 41.3386 32.5311C41.3377 32.5311 41.3368 32.5311 41.3358 32.5311C41.3349 32.5311 41.334 32.5311 41.3331 32.5311C41.3322 32.5311 41.3313 32.5311 41.3304 32.5311C41.3294 32.5311 41.3285 32.5311 41.3276 32.5311C41.3267 32.5311 41.3258 32.5311 41.3248 32.5311C41.3239 32.5311 41.323 32.5311 41.3221 32.5311C41.3212 32.5311 41.3203 32.5311 41.3193 32.5311C41.3184 32.5311 41.3175 32.5311 41.3166 32.5311C41.3157 32.5311 41.3147 32.5311 41.3138 32.5311C41.3129 32.5311 41.312 32.5311 41.3111 32.5311C41.3102 32.5311 41.3092 32.5311 41.3083 32.5311C41.3074 32.5311 41.3065 32.5311 41.3055 32.5311C41.3046 32.5311 41.3037 32.5311 41.3028 32.5311C41.3019 32.5311 41.3009 32.5311 41.3 32.5311C41.2991 32.5311 41.2982 32.5311 41.2973 32.5311C41.2963 32.5311 41.2954 32.5311 41.2945 32.5311C41.2936 32.5311 41.2926 32.5311 41.2917 32.5311C41.2908 32.5311 41.2899 32.5311 41.289 32.5311C41.288 32.5311 41.2871 32.5311 41.2862 32.5311C41.2853 32.5311 41.2843 32.5311 41.2834 32.5311C41.2825 32.5311 41.2816 32.5311 41.2806 32.5311C41.2797 32.5311 41.2788 32.5311 41.2779 32.5311C41.2769 32.5311 41.276 32.5311 41.2751 32.5311C41.2742 32.5311 41.2732 32.5311 41.2723 32.5311C41.2714 32.5311 41.2705 32.5311 41.2695 32.5311C41.2686 32.5311 41.2677 32.5311 41.2668 32.5311C41.2658 32.5311 41.2649 32.5311 41.264 32.5311C41.263 32.5311 41.2621 32.5311 41.2612 32.5311C41.2603 32.5311 41.2593 32.5311 41.2584 32.5311C41.2575 32.5311 41.2565 32.5311 41.2556 32.5311C41.2547 32.5311 41.2538 32.5311 41.2528 32.5311C41.2519 32.5311 41.251 32.5311 41.25 32.5311C41.2491 32.5311 41.2482 32.5311 41.2473 32.5311C41.2463 32.5311 41.2454 32.5311 41.2445 32.5311C41.2435 32.5311 41.2426 32.5311 41.2417 32.5311C41.2407 32.5311 41.2398 32.5311 41.2389 32.5311C41.2379 32.5311 41.237 32.5311 41.2361 32.5311C41.2351 32.5311 41.2342 32.5311 41.2333 32.5311C41.2323 32.5311 41.2314 32.5311 41.2305 32.5311C41.2295 32.5311 41.2286 32.5311 41.2277 32.5311C41.2267 32.5311 41.2258 32.5311 41.2249 32.5311C41.2239 32.5311 41.223 32.5311 41.2221 32.5311C41.2211 32.5311 41.2202 32.5311 41.2193 32.5311C41.2183 32.5311 41.2174 32.5311 41.2165 32.5311C41.2155 32.5311 41.2146 32.5311 41.2136 32.5311C41.2127 32.5311 41.2118 32.5311 41.2108 32.5311C41.2099 32.5311 41.209 32.5311 41.208 32.5311C41.2071 32.5311 41.2061 32.5311 41.2052 32.5311C41.2043 32.5311 41.2033 32.5311 41.2024 32.5311C41.2015 32.5311 41.2005 32.5311 41.1996 32.5311C41.1986 32.5311 41.1977 32.5311 41.1968 32.5311C41.1958 32.5311 41.1949 32.5311 41.1939 32.5311C41.193 32.5311 41.1921 32.5311 41.1911 32.5311C41.1902 32.5311 41.1892 32.5311 41.1883 32.5311C41.1873 32.5311 41.1864 32.5311 41.1855 32.5311C41.1845 32.5311 41.1836 32.5311 41.1826 32.5311C41.1817 32.5311 41.1807 32.5311 41.1798 32.5311C41.1789 32.5311 41.1779 32.5311 41.177 32.5311C41.176 32.5311 41.1751 32.5311 41.1741 32.5311C41.1732 32.5311 41.1723 32.5311 41.1713 32.5311C41.1704 32.5311 41.1694 32.5311 41.1685 32.5311C41.1675 32.5311 41.1666 32.5311 41.1656 32.5311C41.1647 32.5311 41.1637 32.5311 41.1628 32.5311C41.1618 32.5311 41.1609 32.5311 41.16 32.5311C41.159 32.5311 41.1581 32.5311 41.1571 32.5311C41.1562 32.5311 41.1552 32.5311 41.1543 32.5311C41.1533 32.5311 41.1524 32.5311 41.1514 32.5311C41.1505 32.5311 41.1495 32.5311 41.1486 32.5311C41.1476 32.5311 41.1467 32.5311 41.1457 32.5311C41.1448 32.5311 41.1438 32.5311 41.1429 32.5311C41.1419 32.5311 41.141 32.5311 41.14 32.5311C41.1391 32.5311 41.1381 32.5311 41.1372 32.5311C41.1362 32.5311 41.1352 32.5311 41.1343 32.5311C41.1333 32.5311 41.1324 32.5311 41.1314 32.5311C41.1305 32.5311 41.1295 32.5311 41.1286 32.5311C41.1276 32.5311 41.1267 32.5311 41.1257 32.5311C41.1248 32.5311 41.1238 32.5311 41.1228 32.5311C41.1219 32.5311 41.1209 32.5311 41.12 32.5311C41.119 32.5311 41.1181 32.5311 41.1171 32.5311C41.1161 32.5311 41.1152 32.5311 41.1142 32.5311C41.1133 32.5311 41.1123 32.5311 41.1114 32.5311C41.1104 32.5311 41.1094 32.5311 41.1085 32.5311C41.1075 32.5311 41.1066 32.5311 41.1056 32.5311C41.1047 32.5311 41.1037 32.5311 41.1027 32.5311C41.1018 32.5311 41.1008 32.5311 41.0998 32.5311C41.0989 32.5311 41.0979 32.5311 41.097 32.5311C41.096 32.5311 41.095 32.5311 41.0941 32.5311C41.0931 32.5311 41.0922 32.5311 41.0912 32.5311C41.0902 32.5311 41.0893 32.5311 41.0883 32.5311C41.0873 32.5311 41.0864 32.5311 41.0854 32.5311C41.0845 32.5311 41.0835 32.5311 41.0825 32.5311C41.0816 32.5311 41.0806 32.5311 41.0796 32.5311C41.0787 32.5311 41.0777 32.5311 41.0767 32.5311C41.0758 32.5311 41.0748 32.5311 41.0738 32.5311C41.0729 32.5311 41.0719 32.5311 41.0709 32.5311C41.07 32.5311 41.069 32.5311 41.068 32.5311C41.0671 32.5311 41.0661 32.5311 41.0651 32.5311C41.0642 32.5311 41.0632 32.5311 41.0622 32.5311C41.0612 32.5311 41.0603 32.5311 41.0593 32.5311C41.0583 32.5311 41.0574 32.5311 41.0564 32.5311C41.0554 32.5311 41.0545 32.5311 41.0535 32.5311C41.0525 32.5311 41.0515 32.5311 41.0506 32.5311C41.0496 32.5311 41.0486 32.5311 41.0476 32.5311C41.0467 32.5311 41.0457 32.5311 41.0447 32.5311C41.0438 32.5311 41.0428 32.5311 41.0418 32.5311C41.0408 32.5311 41.0399 32.5311 41.0389 32.5311C41.0379 32.5311 41.0369 32.5311 41.036 32.5311C41.035 32.5311 41.034 32.5311 41.033 32.5311C41.032 32.5311 41.0311 32.5311 41.0301 32.5311C41.0291 32.5311 41.0281 32.5311 41.0272 32.5311C41.0262 32.5311 41.0252 32.5311 41.0242 32.5311C41.0232 32.5311 41.0223 32.5311 41.0213 32.5311C41.0203 32.5311 41.0193 32.5311 41.0183 32.5311C41.0174 32.5311 41.0164 32.5311 41.0154 32.5311C41.0144 32.5311 41.0134 32.5311 41.0125 32.5311C41.0115 32.5311 41.0105 32.5311 41.0095 32.5311C41.0085 32.5311 41.0075 32.5311 41.0066 32.5311C41.0056 32.5311 41.0046 32.5311 41.0036 32.5311C41.0026 32.5311 41.0016 32.5311 41.0007 32.5311C40.9997 32.5311 40.9987 32.5311 40.9977 32.5311C40.9967 32.5311 40.9957 32.5311 40.9947 32.5311C40.9938 32.5311 40.9928 32.5311 40.9918 32.5311V33.3311C40.9928 33.3311 40.9938 33.3311 40.9947 33.3311C40.9957 33.3311 40.9967 33.3311 40.9977 33.3311C40.9987 33.3311 40.9997 33.3311 41.0007 33.3311C41.0016 33.3311 41.0026 33.3311 41.0036 33.3311C41.0046 33.3311 41.0056 33.3311 41.0066 33.3311C41.0075 33.3311 41.0085 33.3311 41.0095 33.3311C41.0105 33.3311 41.0115 33.3311 41.0125 33.3311C41.0134 33.3311 41.0144 33.3311 41.0154 33.3311C41.0164 33.3311 41.0174 33.3311 41.0183 33.3311C41.0193 33.3311 41.0203 33.3311 41.0213 33.3311C41.0223 33.3311 41.0232 33.3311 41.0242 33.3311C41.0252 33.3311 41.0262 33.3311 41.0272 33.3311C41.0281 33.3311 41.0291 33.3311 41.0301 33.3311C41.0311 33.3311 41.032 33.3311 41.033 33.3311C41.034 33.3311 41.035 33.3311 41.036 33.3311C41.0369 33.3311 41.0379 33.3311 41.0389 33.3311C41.0399 33.3311 41.0408 33.3311 41.0418 33.3311C41.0428 33.3311 41.0438 33.3311 41.0447 33.3311C41.0457 33.3311 41.0467 33.3311 41.0476 33.3311C41.0486 33.3311 41.0496 33.3311 41.0506 33.3311C41.0515 33.3311 41.0525 33.3311 41.0535 33.3311C41.0545 33.3311 41.0554 33.3311 41.0564 33.3311C41.0574 33.3311 41.0583 33.3311 41.0593 33.3311C41.0603 33.3311 41.0612 33.3311 41.0622 33.3311C41.0632 33.3311 41.0642 33.3311 41.0651 33.3311C41.0661 33.3311 41.0671 33.3311 41.068 33.3311C41.069 33.3311 41.07 33.3311 41.0709 33.3311C41.0719 33.3311 41.0729 33.3311 41.0738 33.3311C41.0748 33.3311 41.0758 33.3311 41.0767 33.3311C41.0777 33.3311 41.0787 33.3311 41.0796 33.3311C41.0806 33.3311 41.0816 33.3311 41.0825 33.3311C41.0835 33.3311 41.0845 33.3311 41.0854 33.3311C41.0864 33.3311 41.0873 33.3311 41.0883 33.3311C41.0893 33.3311 41.0902 33.3311 41.0912 33.3311C41.0922 33.3311 41.0931 33.3311 41.0941 33.3311C41.095 33.3311 41.096 33.3311 41.097 33.3311C41.0979 33.3311 41.0989 33.3311 41.0998 33.3311C41.1008 33.3311 41.1018 33.3311 41.1027 33.3311C41.1037 33.3311 41.1047 33.3311 41.1056 33.3311C41.1066 33.3311 41.1075 33.3311 41.1085 33.3311C41.1094 33.3311 41.1104 33.3311 41.1114 33.3311C41.1123 33.3311 41.1133 33.3311 41.1142 33.3311C41.1152 33.3311 41.1161 33.3311 41.1171 33.3311C41.1181 33.3311 41.119 33.3311 41.12 33.3311C41.1209 33.3311 41.1219 33.3311 41.1228 33.3311C41.1238 33.3311 41.1248 33.3311 41.1257 33.3311C41.1267 33.3311 41.1276 33.3311 41.1286 33.3311C41.1295 33.3311 41.1305 33.3311 41.1314 33.3311C41.1324 33.3311 41.1333 33.3311 41.1343 33.3311C41.1352 33.3311 41.1362 33.3311 41.1372 33.3311C41.1381 33.3311 41.1391 33.3311 41.14 33.3311C41.141 33.3311 41.1419 33.3311 41.1429 33.3311C41.1438 33.3311 41.1448 33.3311 41.1457 33.3311C41.1467 33.3311 41.1476 33.3311 41.1486 33.3311C41.1495 33.3311 41.1505 33.3311 41.1514 33.3311C41.1524 33.3311 41.1533 33.3311 41.1543 33.3311C41.1552 33.3311 41.1562 33.3311 41.1571 33.3311C41.1581 33.3311 41.159 33.3311 41.16 33.3311C41.1609 33.3311 41.1618 33.3311 41.1628 33.3311C41.1637 33.3311 41.1647 33.3311 41.1656 33.3311C41.1666 33.3311 41.1675 33.3311 41.1685 33.3311C41.1694 33.3311 41.1704 33.3311 41.1713 33.3311C41.1723 33.3311 41.1732 33.3311 41.1741 33.3311C41.1751 33.3311 41.176 33.3311 41.177 33.3311C41.1779 33.3311 41.1789 33.3311 41.1798 33.3311C41.1807 33.3311 41.1817 33.3311 41.1826 33.3311C41.1836 33.3311 41.1845 33.3311 41.1855 33.3311C41.1864 33.3311 41.1873 33.3311 41.1883 33.3311C41.1892 33.3311 41.1902 33.3311 41.1911 33.3311C41.1921 33.3311 41.193 33.3311 41.1939 33.3311C41.1949 33.3311 41.1958 33.3311 41.1968 33.3311C41.1977 33.3311 41.1986 33.3311 41.1996 33.3311C41.2005 33.3311 41.2015 33.3311 41.2024 33.3311C41.2033 33.3311 41.2043 33.3311 41.2052 33.3311C41.2061 33.3311 41.2071 33.3311 41.208 33.3311C41.209 33.3311 41.2099 33.3311 41.2108 33.3311C41.2118 33.3311 41.2127 33.3311 41.2136 33.3311C41.2146 33.3311 41.2155 33.3311 41.2165 33.3311C41.2174 33.3311 41.2183 33.3311 41.2193 33.3311C41.2202 33.3311 41.2211 33.3311 41.2221 33.3311C41.223 33.3311 41.2239 33.3311 41.2249 33.3311C41.2258 33.3311 41.2267 33.3311 41.2277 33.3311C41.2286 33.3311 41.2295 33.3311 41.2305 33.3311C41.2314 33.3311 41.2323 33.3311 41.2333 33.3311C41.2342 33.3311 41.2351 33.3311 41.2361 33.3311C41.237 33.3311 41.2379 33.3311 41.2389 33.3311C41.2398 33.3311 41.2407 33.3311 41.2417 33.3311C41.2426 33.3311 41.2435 33.3311 41.2445 33.3311C41.2454 33.3311 41.2463 33.3311 41.2473 33.3311C41.2482 33.3311 41.2491 33.3311 41.25 33.3311C41.251 33.3311 41.2519 33.3311 41.2528 33.3311C41.2538 33.3311 41.2547 33.3311 41.2556 33.3311C41.2565 33.3311 41.2575 33.3311 41.2584 33.3311C41.2593 33.3311 41.2603 33.3311 41.2612 33.3311C41.2621 33.3311 41.263 33.3311 41.264 33.3311C41.2649 33.3311 41.2658 33.3311 41.2668 33.3311C41.2677 33.3311 41.2686 33.3311 41.2695 33.3311C41.2705 33.3311 41.2714 33.3311 41.2723 33.3311C41.2732 33.3311 41.2742 33.3311 41.2751 33.3311C41.276 33.3311 41.2769 33.3311 41.2779 33.3311C41.2788 33.3311 41.2797 33.3311 41.2806 33.3311C41.2816 33.3311 41.2825 33.3311 41.2834 33.3311C41.2843 33.3311 41.2853 33.3311 41.2862 33.3311C41.2871 33.3311 41.288 33.3311 41.289 33.3311C41.2899 33.3311 41.2908 33.3311 41.2917 33.3311C41.2926 33.3311 41.2936 33.3311 41.2945 33.3311C41.2954 33.3311 41.2963 33.3311 41.2973 33.3311C41.2982 33.3311 41.2991 33.3311 41.3 33.3311C41.3009 33.3311 41.3019 33.3311 41.3028 33.3311C41.3037 33.3311 41.3046 33.3311 41.3055 33.3311C41.3065 33.3311 41.3074 33.3311 41.3083 33.3311C41.3092 33.3311 41.3102 33.3311 41.3111 33.3311C41.312 33.3311 41.3129 33.3311 41.3138 33.3311C41.3147 33.3311 41.3157 33.3311 41.3166 33.3311C41.3175 33.3311 41.3184 33.3311 41.3193 33.3311C41.3203 33.3311 41.3212 33.3311 41.3221 33.3311C41.323 33.3311 41.3239 33.3311 41.3248 33.3311C41.3258 33.3311 41.3267 33.3311 41.3276 33.3311C41.3285 33.3311 41.3294 33.3311 41.3304 33.3311C41.3313 33.3311 41.3322 33.3311 41.3331 33.3311C41.334 33.3311 41.3349 33.3311 41.3358 33.3311C41.3368 33.3311 41.3377 33.3311 41.3386 33.3311C41.3395 33.3311 41.3404 33.3311 41.3413 33.3311C41.3423 33.3311 41.3432 33.3311 41.3441 33.3311C41.345 33.3311 41.3459 33.3311 41.3468 33.3311C41.3477 33.3311 41.3487 33.3311 41.3496 33.3311C41.3505 33.3311 41.3514 33.3311 41.3523 33.3311C41.3532 33.3311 41.3541 33.3311 41.3551 33.3311C41.356 33.3311 41.3569 33.3311 41.3578 33.3311C41.3587 33.3311 41.3596 33.3311 41.3605 33.3311C41.3614 33.3311 41.3624 33.3311 41.3633 33.3311C41.3642 33.3311 41.3651 33.3311 41.366 33.3311C41.3669 33.3311 41.3678 33.3311 41.3687 33.3311C41.3696 33.3311 41.3706 33.3311 41.3715 33.3311C41.3724 33.3311 41.3733 33.3311 41.3742 33.3311C41.3751 33.3311 41.376 33.3311 41.3769 33.3311C41.3778 33.3311 41.3788 33.3311 41.3797 33.3311C41.3806 33.3311 41.3815 33.3311 41.3824 33.3311C41.3833 33.3311 41.3842 33.3311 41.3851 33.3311C41.386 33.3311 41.3869 33.3311 41.3878 33.3311C41.3888 33.3311 41.3897 33.3311 41.3906 33.3311C41.3915 33.3311 41.3924 33.3311 41.3933 33.3311C41.3942 33.3311 41.3951 33.3311 41.396 33.3311C41.3969 33.3311 41.3978 33.3311 41.3987 33.3311C41.3996 33.3311 41.4006 33.3311 41.4015 33.3311C41.4024 33.3311 41.4033 33.3311 41.4042 33.3311C41.4051 33.3311 41.406 33.3311 41.4069 33.3311C41.4078 33.3311 41.4087 33.3311 41.4096 33.3311C41.4105 33.3311 41.4114 33.3311 41.4123 33.3311C41.4132 33.3311 41.4142 33.3311 41.4151 33.3311C41.416 33.3311 41.4169 33.3311 41.4178 33.3311C41.4187 33.3311 41.4196 33.3311 41.4205 33.3311C41.4214 33.3311 41.4223 33.3311 41.4232 33.3311C41.4241 33.3311 41.425 33.3311 41.4259 33.3311C41.4268 33.3311 41.4277 33.3311 41.4286 33.3311C41.4295 33.3311 41.4304 33.3311 41.4313 33.3311C41.4322 33.3311 41.4331 33.3311 41.434 33.3311C41.4349 33.3311 41.4359 33.3311 41.4368 33.3311C41.4377 33.3311 41.4386 33.3311 41.4395 33.3311C41.4404 33.3311 41.4413 33.3311 41.4422 33.3311C41.4431 33.3311 41.444 33.3311 41.4449 33.3311C41.4458 33.3311 41.4467 33.3311 41.4476 33.3311C41.4485 33.3311 41.4494 33.3311 41.4503 33.3311C41.4512 33.3311 41.4521 33.3311 41.453 33.3311C41.4539 33.3311 41.4548 33.3311 41.4557 33.3311C41.4566 33.3311 41.4575 33.3311 41.4584 33.3311C41.4593 33.3311 41.4602 33.3311 41.4611 33.3311C41.462 33.3311 41.4629 33.3311 41.4638 33.3311C41.4647 33.3311 41.4656 33.3311 41.4665 33.3311C41.4674 33.3311 41.4683 33.3311 41.4692 33.3311C41.4701 33.3311 41.471 33.3311 41.4719 33.3311C41.4728 33.3311 41.4737 33.3311 41.4746 33.3311C41.4755 33.3311 41.4764 33.3311 41.4773 33.3311C41.4782 33.3311 41.4791 33.3311 41.48 33.3311C41.4809 33.3311 41.4818 33.3311 41.4827 33.3311C41.4836 33.3311 41.4845 33.3311 41.4854 33.3311C41.4863 33.3311 41.4872 33.3311 41.4881 33.3311C41.489 33.3311 41.4899 33.3311 41.4908 33.3311C41.4917 33.3311 41.4926 33.3311 41.4935 33.3311C41.4944 33.3311 41.4952 33.3311 41.4961 33.3311C41.497 33.3311 41.4979 33.3311 41.4988 33.3311C41.4997 33.3311 41.5006 33.3311 41.5015 33.3311C41.5024 33.3311 41.5033 33.3311 41.5042 33.3311C41.5051 33.3311 41.506 33.3311 41.5069 33.3311C41.5078 33.3311 41.5087 33.3311 41.5096 33.3311C41.5105 33.3311 41.5114 33.3311 41.5123 33.3311C41.5132 33.3311 41.5141 33.3311 41.515 33.3311C41.5159 33.3311 41.5168 33.3311 41.5177 33.3311C41.5186 33.3311 41.5194 33.3311 41.5203 33.3311C41.5212 33.3311 41.5221 33.3311 41.523 33.3311C41.5239 33.3311 41.5248 33.3311 41.5257 33.3311C41.5266 33.3311 41.5275 33.3311 41.5284 33.3311C41.5293 33.3311 41.5302 33.3311 41.5311 33.3311C41.532 33.3311 41.5329 33.3311 41.5338 33.3311C41.5347 33.3311 41.5356 33.3311 41.5364 33.3311C41.5373 33.3311 41.5382 33.3311 41.5391 33.3311C41.54 33.3311 41.5409 33.3311 41.5418 33.3311C41.5427 33.3311 41.5436 33.3311 41.5445 33.3311C41.5454 33.3311 41.5463 33.3311 41.5472 33.3311C41.5481 33.3311 41.549 33.3311 41.5498 33.3311C41.5507 33.3311 41.5516 33.3311 41.5525 33.3311C41.5534 33.3311 41.5543 33.3311 41.5552 33.3311C41.5561 33.3311 41.557 33.3311 41.5579 33.3311C41.5588 33.3311 41.5597 33.3311 41.5606 33.3311C41.5615 33.3311 41.5623 33.3311 41.5632 33.3311C41.5641 33.3311 41.565 33.3311 41.5659 33.3311C41.5668 33.3311 41.5677 33.3311 41.5686 33.3311C41.5695 33.3311 41.5704 33.3311 41.5713 33.3311C41.5722 33.3311 41.5731 33.3311 41.5739 33.3311C41.5748 33.3311 41.5757 33.3311 41.5766 33.3311C41.5775 33.3311 41.5784 33.3311 41.5793 33.3311C41.5802 33.3311 41.5811 33.3311 41.582 33.3311C41.5829 33.3311 41.5838 33.3311 41.5846 33.3311C41.5855 33.3311 41.5864 33.3311 41.5873 33.3311C41.5882 33.3311 41.5891 33.3311 41.59 33.3311C41.5909 33.3311 41.5918 33.3311 41.5927 33.3311C41.5936 33.3311 41.5944 33.3311 41.5953 33.3311C41.5962 33.3311 41.5971 33.3311 41.598 33.3311C41.5989 33.3311 41.5998 33.3311 41.6007 33.3311C41.6016 33.3311 41.6025 33.3311 41.6033 33.3311C41.6042 33.3311 41.6051 33.3311 41.606 33.3311C41.6069 33.3311 41.6078 33.3311 41.6087 33.3311C41.6096 33.3311 41.6105 33.3311 41.6114 33.3311C41.6123 33.3311 41.6131 33.3311 41.614 33.3311C41.6149 33.3311 41.6158 33.3311 41.6167 33.3311C41.6176 33.3311 41.6185 33.3311 41.6194 33.3311C41.6203 33.3311 41.6211 33.3311 41.622 33.3311C41.6229 33.3311 41.6238 33.3311 41.6247 33.3311C41.6256 33.3311 41.6265 33.3311 41.6274 33.3311C41.6283 33.3311 41.6292 33.3311 41.63 33.3311C41.6309 33.3311 41.6318 33.3311 41.6327 33.3311C41.6336 33.3311 41.6345 33.3311 41.6354 33.3311C41.6363 33.3311 41.6372 33.3311 41.6381 33.3311C41.6389 33.3311 41.6398 33.3311 41.6407 33.3311C41.6416 33.3311 41.6425 33.3311 41.6434 33.3311C41.6443 33.3311 41.6452 33.3311 41.6461 33.3311C41.6469 33.3311 41.6478 33.3311 41.6487 33.3311C41.6496 33.3311 41.6505 33.3311 41.6514 33.3311C41.6523 33.3311 41.6532 33.3311 41.6541 33.3311C41.6549 33.3311 41.6558 33.3311 41.6567 33.3311C41.6576 33.3311 41.6585 33.3311 41.6594 33.3311C41.6603 33.3311 41.6612 33.3311 41.6621 33.3311C41.6629 33.3311 41.6638 33.3311 41.6647 33.3311C41.6656 33.3311 41.6665 33.3311 41.6674 33.3311C41.6683 33.3311 41.6692 33.3311 41.67 33.3311C41.6709 33.3311 41.6718 33.3311 41.6727 33.3311C41.6736 33.3311 41.6745 33.3311 41.6754 33.3311C41.6763 33.3311 41.6772 33.3311 41.678 33.3311C41.6789 33.3311 41.6798 33.3311 41.6807 33.3311C41.6816 33.3311 41.6825 33.3311 41.6834 33.3311C41.6843 33.3311 41.6852 33.3311 41.686 33.3311C41.6869 33.3311 41.6878 33.3311 41.6887 33.3311C41.6896 33.3311 41.6905 33.3311 41.6914 33.3311C41.6923 33.3311 41.6931 33.3311 41.694 33.3311C41.6949 33.3311 41.6958 33.3311 41.6967 33.3311C41.6976 33.3311 41.6985 33.3311 41.6994 33.3311C41.7003 33.3311 41.7011 33.3311 41.702 33.3311C41.7029 33.3311 41.7038 33.3311 41.7047 33.3311C41.7056 33.3311 41.7065 33.3311 41.7074 33.3311C41.7083 33.3311 41.7091 33.3311 41.71 33.3311C41.7109 33.3311 41.7118 33.3311 41.7127 33.3311C41.7136 33.3311 41.7145 33.3311 41.7154 33.3311C41.7162 33.3311 41.7171 33.3311 41.718 33.3311C41.7189 33.3311 41.7198 33.3311 41.7207 33.3311C41.7216 33.3311 41.7225 33.3311 41.7234 33.3311C41.7242 33.3311 41.7251 33.3311 41.726 33.3311C41.7269 33.3311 41.7278 33.3311 41.7287 33.3311C41.7296 33.3311 41.7305 33.3311 41.7314 33.3311C41.7322 33.3311 41.7331 33.3311 41.734 33.3311C41.7349 33.3311 41.7358 33.3311 41.7367 33.3311C41.7376 33.3311 41.7385 33.3311 41.7394 33.3311C41.7402 33.3311 41.7411 33.3311 41.742 33.3311C41.7429 33.3311 41.7438 33.3311 41.7447 33.3311C41.7456 33.3311 41.7465 33.3311 41.7474 33.3311C41.7482 33.3311 41.7491 33.3311 41.75 33.3311C41.7509 33.3311 41.7518 33.3311 41.7527 33.3311C41.7536 33.3311 41.7545 33.3311 41.7554 33.3311C41.7562 33.3311 41.7571 33.3311 41.758 33.3311C41.7589 33.3311 41.7598 33.3311 41.7607 33.3311C41.7616 33.3311 41.7625 33.3311 41.7634 33.3311C41.7642 33.3311 41.7651 33.3311 41.766 33.3311C41.7669 33.3311 41.7678 33.3311 41.7687 33.3311C41.7696 33.3311 41.7705 33.3311 41.7714 33.3311C41.7723 33.3311 41.7731 33.3311 41.774 33.3311C41.7749 33.3311 41.7758 33.3311 41.7767 33.3311C41.7776 33.3311 41.7785 33.3311 41.7794 33.3311C41.7803 33.3311 41.7811 33.3311 41.782 33.3311C41.7829 33.3311 41.7838 33.3311 41.7847 33.3311C41.7856 33.3311 41.7865 33.3311 41.7874 33.3311C41.7883 33.3311 41.7892 33.3311 41.79 33.3311C41.7909 33.3311 41.7918 33.3311 41.7927 33.3311C41.7936 33.3311 41.7945 33.3311 41.7954 33.3311C41.7963 33.3311 41.7972 33.3311 41.7981 33.3311C41.799 33.3311 41.7998 33.3311 41.8007 33.3311C41.8016 33.3311 41.8025 33.3311 41.8034 33.3311C41.8043 33.3311 41.8052 33.3311 41.8061 33.3311C41.807 33.3311 41.8079 33.3311 41.8088 33.3311C41.8096 33.3311 41.8105 33.3311 41.8114 33.3311C41.8123 33.3311 41.8132 33.3311 41.8141 33.3311C41.815 33.3311 41.8159 33.3311 41.8168 33.3311C41.8177 33.3311 41.8186 33.3311 41.8194 33.3311C41.8203 33.3311 41.8212 33.3311 41.8221 33.3311C41.823 33.3311 41.8239 33.3311 41.8248 33.3311C41.8257 33.3311 41.8266 33.3311 41.8275 33.3311C41.8284 33.3311 41.8293 33.3311 41.8301 33.3311C41.831 33.3311 41.8319 33.3311 41.8328 33.3311C41.8337 33.3311 41.8346 33.3311 41.8355 33.3311C41.8364 33.3311 41.8373 33.3311 41.8382 33.3311C41.8391 33.3311 41.84 33.3311 41.8409 33.3311C41.8417 33.3311 41.8426 33.3311 41.8435 33.3311C41.8444 33.3311 41.8453 33.3311 41.8462 33.3311C41.8471 33.3311 41.848 33.3311 41.8489 33.3311C41.8498 33.3311 41.8507 33.3311 41.8516 33.3311C41.8525 33.3311 41.8534 33.3311 41.8542 33.3311C41.8551 33.3311 41.856 33.3311 41.8569 33.3311C41.8578 33.3311 41.8587 33.3311 41.8596 33.3311C41.8605 33.3311 41.8614 33.3311 41.8623 33.3311C41.8632 33.3311 41.8641 33.3311 41.865 33.3311C41.8659 33.3311 41.8668 33.3311 41.8677 33.3311C41.8686 33.3311 41.8694 33.3311 41.8703 33.3311C41.8712 33.3311 41.8721 33.3311 41.873 33.3311C41.8739 33.3311 41.8748 33.3311 41.8757 33.3311C41.8766 33.3311 41.8775 33.3311 41.8784 33.3311C41.8793 33.3311 41.8802 33.3311 41.8811 33.3311C41.882 33.3311 41.8829 33.3311 41.8838 33.3311C41.8847 33.3311 41.8856 33.3311 41.8865 33.3311C41.8874 33.3311 41.8882 33.3311 41.8891 33.3311C41.89 33.3311 41.8909 33.3311 41.8918 33.3311C41.8927 33.3311 41.8936 33.3311 41.8945 33.3311C41.8954 33.3311 41.8963 33.3311 41.8972 33.3311C41.8981 33.3311 41.899 33.3311 41.8999 33.3311C41.9008 33.3311 41.9017 33.3311 41.9026 33.3311C41.9035 33.3311 41.9044 33.3311 41.9053 33.3311C41.9062 33.3311 41.9071 33.3311 41.908 33.3311C41.9089 33.3311 41.9098 33.3311 41.9107 33.3311C41.9116 33.3311 41.9125 33.3311 41.9134 33.3311C41.9143 33.3311 41.9152 33.3311 41.9161 33.3311C41.917 33.3311 41.9179 33.3311 41.9188 33.3311C41.9197 33.3311 41.9206 33.3311 41.9214 33.3311C41.9223 33.3311 41.9232 33.3311 41.9241 33.3311C41.925 33.3311 41.9259 33.3311 41.9268 33.3311C41.9277 33.3311 41.9286 33.3311 41.9295 33.3311C41.9304 33.3311 41.9313 33.3311 41.9322 33.3311C41.9331 33.3311 41.934 33.3311 41.9349 33.3311C41.9358 33.3311 41.9367 33.3311 41.9376 33.3311C41.9385 33.3311 41.9394 33.3311 41.9403 33.3311C41.9412 33.3311 41.9421 33.3311 41.943 33.3311C41.9439 33.3311 41.9448 33.3311 41.9457 33.3311C41.9466 33.3311 41.9476 33.3311 41.9485 33.3311C41.9494 33.3311 41.9503 33.3311 41.9512 33.3311C41.9521 33.3311 41.953 33.3311 41.9539 33.3311C41.9548 33.3311 41.9557 33.3311 41.9566 33.3311C41.9575 33.3311 41.9584 33.3311 41.9593 33.3311C41.9602 33.3311 41.9611 33.3311 41.962 33.3311C41.9629 33.3311 41.9638 33.3311 41.9647 33.3311C41.9656 33.3311 41.9665 33.3311 41.9674 33.3311C41.9683 33.3311 41.9692 33.3311 41.9701 33.3311C41.971 33.3311 41.9719 33.3311 41.9728 33.3311C41.9737 33.3311 41.9746 33.3311 41.9755 33.3311C41.9764 33.3311 41.9773 33.3311 41.9783 33.3311C41.9792 33.3311 41.9801 33.3311 41.981 33.3311C41.9819 33.3311 41.9828 33.3311 41.9837 33.3311C41.9846 33.3311 41.9855 33.3311 41.9864 33.3311C41.9873 33.3311 41.9882 33.3311 41.9891 33.3311C41.99 33.3311 41.9909 33.3311 41.9918 33.3311C41.9927 33.3311 41.9936 33.3311 41.9946 33.3311C41.9955 33.3311 41.9964 33.3311 41.9973 33.3311C41.9982 33.3311 41.9991 33.3311 42 33.3311C42.0009 33.3311 42.0018 33.3311 42.0027 33.3311C42.0036 33.3311 42.0045 33.3311 42.0054 33.3311C42.0064 33.3311 42.0073 33.3311 42.0082 33.3311C42.0091 33.3311 42.01 33.3311 42.0109 33.3311C42.0118 33.3311 42.0127 33.3311 42.0136 33.3311C42.0145 33.3311 42.0154 33.3311 42.0163 33.3311C42.0173 33.3311 42.0182 33.3311 42.0191 33.3311C42.02 33.3311 42.0209 33.3311 42.0218 33.3311C42.0227 33.3311 42.0236 33.3311 42.0245 33.3311C42.0254 33.3311 42.0264 33.3311 42.0273 33.3311C42.0282 33.3311 42.0291 33.3311 42.03 33.3311C42.0309 33.3311 42.0318 33.3311 42.0327 33.3311C42.0336 33.3311 42.0346 33.3311 42.0355 33.3311C42.0364 33.3311 42.0373 33.3311 42.0382 33.3311C42.0391 33.3311 42.04 33.3311 42.0409 33.3311C42.0419 33.3311 42.0428 33.3311 42.0437 33.3311C42.0446 33.3311 42.0455 33.3311 42.0464 33.3311C42.0473 33.3311 42.0483 33.3311 42.0492 33.3311C42.0501 33.3311 42.051 33.3311 42.0519 33.3311C42.0528 33.3311 42.0537 33.3311 42.0547 33.3311C42.0556 33.3311 42.0565 33.3311 42.0574 33.3311C42.0583 33.3311 42.0592 33.3311 42.0601 33.3311C42.0611 33.3311 42.062 33.3311 42.0629 33.3311C42.0638 33.3311 42.0647 33.3311 42.0656 33.3311C42.0666 33.3311 42.0675 33.3311 42.0684 33.3311C42.0693 33.3311 42.0702 33.3311 42.0711 33.3311C42.0721 33.3311 42.073 33.3311 42.0739 33.3311C42.0748 33.3311 42.0757 33.3311 42.0766 33.3311C42.0776 33.3311 42.0785 33.3311 42.0794 33.3311C42.0803 33.3311 42.0812 33.3311 42.0822 33.3311C42.0831 33.3311 42.084 33.3311 42.0849 33.3311C42.0858 33.3311 42.0867 33.3311 42.0877 33.3311C42.0886 33.3311 42.0895 33.3311 42.0904 33.3311C42.0913 33.3311 42.0923 33.3311 42.0932 33.3311C42.0941 33.3311 42.095 33.3311 42.096 33.3311C42.0969 33.3311 42.0978 33.3311 42.0987 33.3311C42.0996 33.3311 42.1006 33.3311 42.1015 33.3311C42.1024 33.3311 42.1033 33.3311 42.1042 33.3311C42.1052 33.3311 42.1061 33.3311 42.107 33.3311C42.1079 33.3311 42.1089 33.3311 42.1098 33.3311C42.1107 33.3311 42.1116 33.3311 42.1126 33.3311C42.1135 33.3311 42.1144 33.3311 42.1153 33.3311C42.1162 33.3311 42.1172 33.3311 42.1181 33.3311C42.119 33.3311 42.1199 33.3311 42.1209 33.3311C42.1218 33.3311 42.1227 33.3311 42.1236 33.3311C42.1246 33.3311 42.1255 33.3311 42.1264 33.3311C42.1274 33.3311 42.1283 33.3311 42.1292 33.3311C42.1301 33.3311 42.1311 33.3311 42.132 33.3311C42.1329 33.3311 42.1338 33.3311 42.1348 33.3311C42.1357 33.3311 42.1366 33.3311 42.1376 33.3311C42.1385 33.3311 42.1394 33.3311 42.1403 33.3311C42.1413 33.3311 42.1422 33.3311 42.1431 33.3311C42.1441 33.3311 42.145 33.3311 42.1459 33.3311C42.1468 33.3311 42.1478 33.3311 42.1487 33.3311C42.1496 33.3311 42.1506 33.3311 42.1515 33.3311C42.1524 33.3311 42.1533 33.3311 42.1543 33.3311C42.1552 33.3311 42.1561 33.3311 42.1571 33.3311C42.158 33.3311 42.1589 33.3311 42.1599 33.3311C42.1608 33.3311 42.1617 33.3311 42.1627 33.3311C42.1636 33.3311 42.1645 33.3311 42.1655 33.3311C42.1664 33.3311 42.1673 33.3311 42.1683 33.3311C42.1692 33.3311 42.1701 33.3311 42.1711 33.3311C42.172 33.3311 42.1729 33.3311 42.1739 33.3311C42.1748 33.3311 42.1757 33.3311 42.1767 33.3311C42.1776 33.3311 42.1785 33.3311 42.1795 33.3311C42.1804 33.3311 42.1813 33.3311 42.1823 33.3311C42.1832 33.3311 42.1842 33.3311 42.1851 33.3311C42.186 33.3311 42.187 33.3311 42.1879 33.3311C42.1888 33.3311 42.1898 33.3311 42.1907 33.3311C42.1917 33.3311 42.1926 33.3311 42.1935 33.3311C42.1945 33.3311 42.1954 33.3311 42.1963 33.3311C42.1973 33.3311 42.1982 33.3311 42.1992 33.3311C42.2001 33.3311 42.201 33.3311 42.202 33.3311C42.2029 33.3311 42.2039 33.3311 42.2048 33.3311C42.2057 33.3311 42.2067 33.3311 42.2076 33.3311C42.2086 33.3311 42.2095 33.3311 42.2105 33.3311C42.2114 33.3311 42.2123 33.3311 42.2133 33.3311C42.2142 33.3311 42.2152 33.3311 42.2161 33.3311C42.217 33.3311 42.218 33.3311 42.2189 33.3311C42.2199 33.3311 42.2208 33.3311 42.2218 33.3311C42.2227 33.3311 42.2237 33.3311 42.2246 33.3311C42.2255 33.3311 42.2265 33.3311 42.2274 33.3311C42.2284 33.3311 42.2293 33.3311 42.2303 33.3311C42.2312 33.3311 42.2322 33.3311 42.2331 33.3311C42.2341 33.3311 42.235 33.3311 42.2359 33.3311C42.2369 33.3311 42.2378 33.3311 42.2388 33.3311C42.2397 33.3311 42.2407 33.3311 42.2416 33.3311C42.2426 33.3311 42.2435 33.3311 42.2445 33.3311C42.2454 33.3311 42.2464 33.3311 42.2473 33.3311C42.2483 33.3311 42.2492 33.3311 42.2502 33.3311C42.2511 33.3311 42.2521 33.3311 42.253 33.3311C42.254 33.3311 42.2549 33.3311 42.2559 33.3311C42.2568 33.3311 42.2578 33.3311 42.2587 33.3311C42.2597 33.3311 42.2606 33.3311 42.2616 33.3311C42.2625 33.3311 42.2635 33.3311 42.2644 33.3311C42.2654 33.3311 42.2663 33.3311 42.2673 33.3311C42.2683 33.3311 42.2692 33.3311 42.2702 33.3311C42.2711 33.3311 42.2721 33.3311 42.273 33.3311C42.274 33.3311 42.2749 33.3311 42.2759 33.3311C42.2768 33.3311 42.2778 33.3311 42.2788 33.3311C42.2797 33.3311 42.2807 33.3311 42.2816 33.3311C42.2826 33.3311 42.2835 33.3311 42.2845 33.3311C42.2855 33.3311 42.2864 33.3311 42.2874 33.3311C42.2883 33.3311 42.2893 33.3311 42.2903 33.3311C42.2912 33.3311 42.2922 33.3311 42.2931 33.3311C42.2941 33.3311 42.295 33.3311 42.296 33.3311C42.297 33.3311 42.2979 33.3311 42.2989 33.3311C42.2998 33.3311 42.3008 33.3311 42.3018 33.3311C42.3027 33.3311 42.3037 33.3311 42.3047 33.3311C42.3056 33.3311 42.3066 33.3311 42.3075 33.3311C42.3085 33.3311 42.3095 33.3311 42.3104 33.3311C42.3114 33.3311 42.3124 33.3311 42.3133 33.3311C42.3143 33.3311 42.3153 33.3311 42.3162 33.3311C42.3172 33.3311 42.3181 33.3311 42.3191 33.3311C42.3201 33.3311 42.321 33.3311 42.322 33.3311C42.323 33.3311 42.3239 33.3311 42.3249 33.3311C42.3259 33.3311 42.3268 33.3311 42.3278 33.3311C42.3288 33.3311 42.3297 33.3311 42.3307 33.3311C42.3317 33.3311 42.3326 33.3311 42.3336 33.3311C42.3346 33.3311 42.3356 33.3311 42.3365 33.3311C42.3375 33.3311 42.3385 33.3311 42.3394 33.3311C42.3404 33.3311 42.3414 33.3311 42.3423 33.3311C42.3433 33.3311 42.3443 33.3311 42.3453 33.3311C42.3462 33.3311 42.3472 33.3311 42.3482 33.3311C42.3491 33.3311 42.3501 33.3311 42.3511 33.3311C42.3521 33.3311 42.353 33.3311 42.354 33.3311C42.355 33.3311 42.356 33.3311 42.3569 33.3311C42.3579 33.3311 42.3589 33.3311 42.3599 33.3311C42.3608 33.3311 42.3618 33.3311 42.3628 33.3311C42.3638 33.3311 42.3647 33.3311 42.3657 33.3311C42.3667 33.3311 42.3677 33.3311 42.3686 33.3311C42.3696 33.3311 42.3706 33.3311 42.3716 33.3311C42.3726 33.3311 42.3735 33.3311 42.3745 33.3311C42.3755 33.3311 42.3765 33.3311 42.3775 33.3311C42.3784 33.3311 42.3794 33.3311 42.3804 33.3311C42.3814 33.3311 42.3824 33.3311 42.3833 33.3311C42.3843 33.3311 42.3853 33.3311 42.3863 33.3311C42.3873 33.3311 42.3882 33.3311 42.3892 33.3311C42.3902 33.3311 42.3912 33.3311 42.3922 33.3311C42.3932 33.3311 42.3941 33.3311 42.3951 33.3311C42.3961 33.3311 42.3971 33.3311 42.3981 33.3311C42.3991 33.3311 42.4001 33.3311 42.401 33.3311C42.402 33.3311 42.403 33.3311 42.404 33.3311C42.405 33.3311 42.406 33.3311 42.407 33.3311V32.5311Z" fill="#3551E7" mask="url(#path-15-inside-1_1178_1481)"/>
<mask id="path-17-inside-2_1178_1481" fill="white">
<path d="M53.834 39.001C58.585 47.3909 56.159 58.1057 47.8701 63.6653C46.1517 64.7772 44.3322 65.5859 42.5127 66.1924C45.1409 65.8891 47.668 64.9794 49.9929 63.362C57.7763 58.1057 59.899 47.6941 54.7438 40.1128C54.4405 39.7085 54.2384 39.4053 53.9351 39.001"/>
</mask>
<path d="M53.834 39.001C58.585 47.3909 56.159 58.1057 47.8701 63.6653C46.1517 64.7772 44.3322 65.5859 42.5127 66.1924C45.1409 65.8891 47.668 64.9794 49.9929 63.362C57.7763 58.1057 59.899 47.6941 54.7438 40.1128C54.4405 39.7085 54.2384 39.4053 53.9351 39.001" fill="#3551E7"/>
<path d="M47.8701 63.6653L48.0874 64.0012L48.0929 63.9975L47.8701 63.6653ZM42.5127 66.1924L42.3862 65.8129L42.5585 66.5897L42.5127 66.1924ZM49.9929 63.362L49.769 63.0305L49.7644 63.0337L49.9929 63.362ZM54.7438 40.1128L55.0746 39.8879L55.0694 39.8802L55.0638 39.8728L54.7438 40.1128ZM53.486 39.1981C58.1336 47.4057 55.7627 57.8898 47.6473 63.3331L48.0929 63.9975C56.5552 58.3216 59.0363 47.3761 54.1821 38.8039L53.486 39.1981ZM47.6528 63.3295C45.9683 64.4195 44.1807 65.2147 42.3862 65.8129L42.6392 66.5718C44.4837 65.957 46.3351 65.1349 48.0874 64.0011L47.6528 63.3295ZM42.5585 66.5897C45.2503 66.2791 47.8405 65.3466 50.2213 63.6904L49.7644 63.0337C47.4954 64.6121 45.0314 65.4991 42.4668 65.795L42.5585 66.5897ZM50.2167 63.6935C58.1763 58.3182 60.3592 47.6595 55.0746 39.8879L54.413 40.3377C59.4389 47.7287 57.3763 57.8932 49.769 63.0306L50.2167 63.6935ZM55.0638 39.8728C54.9153 39.6748 54.7914 39.5015 54.6649 39.3244C54.5387 39.1477 54.4099 38.9673 54.2551 38.761L53.6151 39.241C53.7636 39.439 53.8875 39.6123 54.014 39.7894C54.1402 39.9661 54.269 40.1465 54.4238 40.3528L55.0638 39.8728Z" fill="#3551E7" mask="url(#path-17-inside-2_1178_1481)"/>
<path d="M40.602 42.0982L39.1037 46.6868L37.9949 45.4196L40.602 37.4245V42.0982Z" fill="#FFAA29" stroke="#3551E7" stroke-width="0.4"/>
<path d="M40.993 37.4245L43.6001 45.4196L42.4913 46.6868L40.993 42.0982V37.4245Z" fill="#FFAA29" stroke="#3551E7" stroke-width="0.4"/>
<path d="M52.5257 45.9454L45.6182 50.9932L43.8106 50.1716L47.7524 47.2621L52.5257 45.9454Z" fill="#FFAA29" stroke="#3551E7" stroke-width="0.4"/>
<path d="M42.8578 46.8792L43.9229 45.6619H52.0591L47.6463 46.8792H42.8578Z" fill="#FFAA29" stroke="#3551E7" stroke-width="0.4"/>
<path d="M29.4263 45.6619H37.6636L38.7287 46.8792H33.8391L29.4263 45.6619Z" fill="#FFAA29" stroke="#3551E7" stroke-width="0.4"/>
<path d="M37.762 50.1734L35.9577 50.9936L28.9681 45.9505L33.7242 47.2625L37.762 50.1734Z" fill="#FFAA29" stroke="#3551E7" stroke-width="0.4"/>
<path d="M45.2167 55.1787L43.746 50.5827L45.4789 51.3704L48.06 59.2858L45.2167 55.1787Z" fill="#FFAA29" stroke="#3551E7" stroke-width="0.4"/>
<path d="M47.8381 59.6646L40.993 54.6624V52.5319L44.893 55.4105L47.8381 59.6646Z" fill="#FFAA29" stroke="#3551E7" stroke-width="0.4"/>
<path d="M33.5244 59.2858L36.1055 51.3704L37.8385 50.5827L36.3678 55.1787L33.5244 59.2858Z" fill="#FFAA29" stroke="#3551E7" stroke-width="0.4"/>
<path d="M40.5947 52.5319V54.6624L33.7496 59.6646L36.6947 55.4105L40.5947 52.5319Z" fill="#FFAA29" stroke="#3551E7" stroke-width="0.4"/>
<path d="M42.2106 47.1421L42.2556 47.28H42.4007H47.0493L43.2928 50.0527L43.1773 50.1379L43.221 50.2745L44.6498 54.7394L40.9021 51.9733L40.7834 51.8856L40.6646 51.9733L36.9169 54.7394L38.3457 50.2745L38.3899 50.1363L38.2721 50.0513L34.428 47.28H39.166H39.3111L39.3561 47.1421L40.7834 42.7713L42.2106 47.1421Z" fill="white" stroke="#3551E7" stroke-width="0.4"/>
</svg>
