<svg width="81" height="80" viewBox="0 0 81 80" fill="none" xmlns="http://www.w3.org/2000/svg">
<rect x="12.7969" y="12" width="56" height="56" rx="28" fill="#71EEA3" stroke="#3551E7" stroke-width="24"/>
<path d="M28.7493 24.0415L33.9635 31.656C34.2964 32.1388 34.7894 32.4872 35.3626 32.6338L44.7866 35.06C46.3952 35.4756 47.1225 37.3395 46.2041 38.7145L42.3458 44.5079C41.9021 45.1741 41.8219 46.0174 42.1301 46.7569L46.1487 56.3393C47.0547 58.5026 44.6201 60.5499 42.617 59.3032L34.7093 54.3837C33.9142 53.8887 32.9034 53.8948 32.1145 54.3959L24.7738 59.0404C23.1713 60.0549 21.0634 58.9304 21.0388 57.0421L20.8785 44.5813C20.8724 43.9579 20.6197 43.359 20.1759 42.9129L12.712 35.4694C11.2204 33.9844 12.225 31.4483 14.3391 31.3688L20.7614 31.1182C21.7969 31.0755 22.6906 30.391 22.9926 29.4071L24.4225 24.7015C25.008 22.7581 27.609 22.367 28.7554 24.0415H28.7493Z" fill="#FFE8EB" stroke="#3551E7" stroke-miterlimit="10"/>
<path d="M37.0761 18.6694L43.2765 27.7262C43.6094 28.209 44.1024 28.5573 44.6756 28.704L55.6651 31.5335C57.2737 31.9491 58.001 33.813 57.0827 35.188L52.4847 42.0937C52.041 42.7598 51.9608 43.6032 52.269 44.3426L57.1443 55.9662C58.0503 58.1296 55.6158 60.1768 53.6127 58.9301L43.9052 52.8922C43.1101 52.3972 42.0993 52.4033 41.3104 52.9045L32.5583 58.4473C30.9558 59.4618 28.8479 58.3373 28.8233 56.449L28.6384 41.947C28.6322 41.3237 28.3795 40.7248 27.9357 40.2787L19.085 31.448C17.5934 29.9629 18.5981 27.4268 20.7122 27.3473L28.7061 27.0356C29.7416 26.9929 30.6353 26.3084 30.9373 25.3245L32.7555 19.3294C33.3411 17.386 35.942 16.9949 37.0884 18.6694H37.0761Z" fill="#71EEA3" stroke="#3551E7" stroke-miterlimit="10"/>
<path d="M44.54 13.5056L51.7328 24.0047C52.0656 24.4874 52.5587 24.8358 53.1319 24.9824L65.6868 28.2092C67.2955 28.6247 68.0228 30.4887 67.1044 31.8637L61.7668 39.8816C61.3231 40.5477 61.243 41.3911 61.5511 42.1305L67.2831 55.7952C68.1892 57.9586 65.7546 60.0059 63.7515 58.7592L52.2382 51.5968C51.4431 51.1018 50.4323 51.1079 49.6433 51.6091L39.4736 58.0503C37.8711 59.0647 35.7632 57.9403 35.7386 56.0519L35.529 39.5088C35.5229 38.8855 35.2702 38.2866 34.8264 37.8405L24.5889 27.6286C23.0974 26.1436 24.102 23.6074 26.2161 23.528L35.7817 23.1552C36.8172 23.1124 37.7109 22.428 38.0129 21.4441L40.2194 14.1595C40.805 12.2161 43.4059 11.825 44.5523 13.4995L44.54 13.5056Z" fill="#FFAA29" stroke="#3551E7" stroke-miterlimit="10"/>
<path d="M44.4539 28.6918C44.873 30.6352 44.1458 32.1202 42.8268 31.9858C41.4955 31.8513 40.1087 30.1341 39.7266 28.1846" stroke="#3551E7" stroke-miterlimit="10" stroke-linecap="round"/>
<path d="M53.409 29.6513C53.9021 31.5824 53.2611 33.0613 51.9668 32.9269C50.6663 32.7924 49.2364 31.0874 48.7803 29.1562" stroke="#3551E7" stroke-miterlimit="10" stroke-linecap="round"/>
<path d="M38.0254 31.4849C38.2227 32.5727 37.5693 33.3794 36.5524 33.2755C35.5354 33.1716 34.5616 32.1999 34.3767 31.106C34.1979 30.0243 34.8636 29.2482 35.8621 29.3521C36.8605 29.456 37.822 30.4093 38.0193 31.4849H38.0254Z" fill="#71EEA3"/>
<path d="M60.0167 33.7586C60.3187 34.828 59.7886 35.6286 58.821 35.5308C57.8533 35.433 56.8363 34.4736 56.5528 33.4041C56.2693 32.3408 56.8117 31.5707 57.7608 31.6685C58.71 31.7663 59.7147 32.7013 60.0105 33.7586H60.0167Z" fill="#71EEA3"/>
<path d="M40.041 35.1084C40.3369 35.5179 40.756 35.8051 41.1874 35.8479C41.6127 35.8906 41.9394 35.6706 42.0811 35.3101" stroke="#3551E7" stroke-miterlimit="10" stroke-linecap="round"/>
<path d="M53.0459 36.3975C53.3541 36.8008 53.7793 37.088 54.1923 37.1308C54.6053 37.1736 54.9073 36.9536 55.0182 36.5991" stroke="#3551E7" stroke-miterlimit="10" stroke-linecap="round"/>
<path d="M54.1924 37.131C55.0676 40.6083 52.8426 43.2361 49.1692 42.9C45.4649 42.5639 41.8655 39.3555 41.1875 35.8477" stroke="#3551E7" stroke-miterlimit="10" stroke-linecap="round"/>
<path d="M72.8365 44.4525L72.6023 43.0469L72.3681 44.4525C72.1832 45.5525 71.3141 46.4142 70.2047 46.5975L68.7871 46.8297L70.2047 47.0619C71.3141 47.2453 72.1832 48.107 72.3681 49.207L72.6023 50.6126L72.8365 49.207C73.0214 48.107 73.8904 47.2453 74.9999 47.0619L76.4175 46.8297L74.9999 46.5975C73.8904 46.4142 73.0214 45.5525 72.8365 44.4525Z" fill="white"/>
<path d="M63.24 21.1872L63.1537 20.6738L63.0674 21.1872C62.9996 21.5905 62.6853 21.9022 62.2785 21.9694L61.7607 22.055L62.2785 22.1405C62.6853 22.2077 62.9996 22.5194 63.0674 22.9228L63.1537 23.4361L63.24 22.9228C63.3078 22.5194 63.6221 22.2077 64.0289 22.1405L64.5466 22.055L64.0289 21.9694C63.6221 21.9022 63.3078 21.5905 63.24 21.1872Z" fill="white"/>
<path d="M17.4333 47.2087L17.347 46.6953L17.2608 47.2087C17.193 47.612 16.8786 47.9237 16.4718 47.9909L15.9541 48.0764L16.4718 48.162C16.8786 48.2292 17.193 48.5409 17.2608 48.9442L17.347 49.4576L17.4333 48.9442C17.5011 48.5409 17.8155 48.2292 18.2223 48.162L18.74 48.0764L18.2223 47.9909C17.8155 47.9237 17.5011 47.612 17.4333 47.2087Z" fill="white"/>
<path d="M12.3359 24.5547L12.2065 23.7725L12.077 24.5547C11.9723 25.1719 11.4915 25.6486 10.869 25.7525L10.0801 25.8808L10.869 26.0092C11.4915 26.1131 11.9723 26.5897 12.077 27.207L12.2065 27.9892L12.3359 27.207C12.4407 26.5897 12.9214 26.1131 13.5439 26.0092L14.3329 25.8808L13.5439 25.7525C12.9214 25.6486 12.4407 25.1719 12.3359 24.5547Z" fill="white"/>
<path d="M63.5848 63.8863L63.48 63.2568L63.3753 63.8863C63.2951 64.3813 62.9007 64.7724 62.4014 64.8519L61.7666 64.9558L62.4014 65.0596C62.9007 65.1391 63.2951 65.5302 63.3753 66.0252L63.48 66.6547L63.5848 66.0252C63.6649 65.5302 64.0594 65.1391 64.5586 65.0596L65.1935 64.9558L64.5586 64.8519C64.0594 64.7724 63.6649 64.3813 63.5848 63.8863Z" fill="white"/>
<path d="M55.2331 12.2956L55.0174 11L54.8017 12.2956C54.6352 13.31 53.8278 14.1106 52.8047 14.2756L51.498 14.4895L52.8047 14.7034C53.8278 14.8684 54.6352 15.669 54.8017 16.6834L55.0174 17.979L55.2331 16.6834C55.3995 15.669 56.2069 14.8684 57.2301 14.7034L58.5367 14.4895L57.2301 14.2756C56.2069 14.1106 55.3995 13.31 55.2331 12.2956Z" fill="white"/>
<path d="M14.5606 58.9182L14.3325 57.5615L14.1045 58.9182C13.9257 59.9877 13.0814 60.8188 12.0089 60.996L10.6406 61.2221L12.0089 61.4483C13.0875 61.6255 13.9257 62.4627 14.1045 63.5261L14.3325 64.8828L14.5606 63.5261C14.7393 62.4566 15.5837 61.6255 16.6562 61.4483L18.0244 61.2221L16.6562 60.996C15.5775 60.8188 14.7393 59.9816 14.5606 58.9182Z" fill="white"/>
</svg>
