<svg width="81" height="80" viewBox="0 0 81 80" fill="none" xmlns="http://www.w3.org/2000/svg">
<rect x="0.796875" width="80" height="80" rx="40" fill="#3551E7"/>
<path d="M58.2124 52.494C63.5869 46.2981 68.5815 37.7461 65.8107 28.5921C65.796 28.5329 65.7796 28.4742 65.7613 28.4159C64.386 24.0226 62.1233 20.8891 59.2102 19.0166C56.2973 17.1442 53.0398 16.7305 50.0546 17.218C47.0986 17.7008 44.3312 19.0721 42.1782 20.9039C41.6555 21.3486 41.1559 21.8321 40.6916 22.3499C38.2534 19.5961 34.7248 17.6605 31.1205 17.1425C28.151 16.7158 24.9548 17.2138 22.1264 19.1232C19.3043 21.0283 17.1306 24.1461 15.8247 28.4532C12.9522 37.8265 18.0053 46.3638 23.4558 52.5303C27.7781 57.4204 32.9853 61.4986 36.0428 63.893C36.8675 64.5389 37.5358 65.0623 37.9881 65.4461C39.4915 66.7216 41.8861 66.8984 43.5729 65.5698C43.8833 65.3252 44.2715 65.0277 44.7241 64.6807C47.6921 62.4053 53.4324 58.0046 58.2124 52.494Z" fill="#FFE8EB" stroke="#71EEA3" stroke-width="6" stroke-linejoin="round"/>
<path d="M62.8983 29.3121C58.0326 13.7695 42.1984 20.7596 40.7139 28.5309C38.7346 20.2615 23.3127 14.0843 18.6944 29.328C13.9162 44.9048 35.0856 59.049 39.929 63.1585C40.4118 63.5682 41.2191 63.6049 41.7165 63.2131C46.6587 59.32 67.6594 44.575 62.8983 29.328V29.3121Z" stroke="#FFAA29" stroke-linejoin="round"/>
<path d="M38.7178 39.8691C38.7178 37.66 37.1038 35.8691 35.1128 35.8691C33.1218 35.8691 31.5078 37.66 31.5078 39.8691" stroke="#3551E7" stroke-miterlimit="10" stroke-linejoin="round"/>
<path d="M50.085 39.8691C50.085 37.66 48.471 35.8691 46.48 35.8691C44.489 35.8691 42.875 37.66 42.875 39.8691" stroke="#3551E7" stroke-miterlimit="10" stroke-linejoin="round"/>
<path d="M32.3584 44.4946C32.3584 45.871 31.2401 46.9892 29.8638 46.9892C28.4874 46.9892 27.3691 45.871 27.3691 44.4946C27.3691 43.1183 28.4874 42 29.8638 42C31.2401 42 32.3584 43.1183 32.3584 44.4946Z" fill="#FFAA29"/>
<path d="M54.2236 44.4946C54.2236 45.871 53.1053 46.9892 51.729 46.9892C50.3527 46.9892 49.2344 45.871 49.2344 44.4946C49.2344 43.1183 50.3527 42 51.729 42C53.1053 42 54.2236 43.1183 54.2236 44.4946Z" fill="#FFAA29"/>
<path d="M46.5924 45.9354C46.5924 49.1343 44.001 51.7311 40.7967 51.7311C37.5924 51.7311 35.001 49.1397 35.001 45.9354C35.001 42.7311 46.587 42.7365 46.587 45.9354H46.5924Z" fill="#3551E7" stroke="#3551E7" stroke-miterlimit="10"/>
<path d="M45.6511 49.0968C44.6188 47.5162 42.8339 46.4678 40.8016 46.4678C38.7694 46.4678 36.9844 47.5162 35.9521 49.0968C36.9844 50.6775 38.7694 51.7258 40.8016 51.7258C42.8339 51.7258 44.6188 50.6775 45.6511 49.0968Z" fill="#FFAA29" stroke="#3551E7" stroke-miterlimit="10"/>
</svg>
