<svg width="81" height="80" viewBox="0 0 81 80" fill="none" xmlns="http://www.w3.org/2000/svg">
<rect x="1.79688" y="1" width="78" height="78" rx="39" fill="#748AFF" stroke="#748AFF" stroke-width="2"/>
<path d="M51.9205 64.6718C46.6879 68.2084 39.8262 68.1929 34.5969 64.6422L21.4779 55.7145C20.1233 54.7828 20.454 52.712 22.0362 52.2506L23.5863 51.8109C24.6804 51.4923 25.8852 51.6835 26.835 52.3276L32.9277 56.4639L34.1315 55.6503L21.3846 36.7905C20.636 35.683 20.9274 34.1766 22.0349 33.4281C23.1424 32.6795 24.6487 32.9709 25.3973 34.0784L34.8897 48.1229L36.4948 47.0381L24.8327 29.7834C24.0841 28.6759 24.3755 27.1695 25.483 26.421C26.5905 25.6724 28.0969 25.9638 28.8454 27.0713L40.5075 44.326L42.1126 43.2411L32.0778 28.394C31.3292 27.2865 31.6205 25.7802 32.7281 25.0316C33.8356 24.2831 35.3419 24.5744 36.0905 25.6819L46.1253 40.529L47.7304 39.4442L40.9501 29.4124C40.2015 28.3048 40.4929 26.7985 41.6004 26.0499C42.7079 25.3014 44.2143 25.5927 44.9628 26.7002L56.0825 43.1524C60.8775 50.2469 59.015 59.8768 51.9205 64.6718Z" fill="white"/>
<path d="M51.9205 64.6718C46.6879 68.2084 39.8262 68.1929 34.5969 64.6422L21.4779 55.7145C20.1233 54.7828 20.454 52.712 22.0362 52.2506L23.5863 51.8109C24.6804 51.4923 25.8852 51.6835 26.835 52.3276L32.9277 56.4639L34.1315 55.6503L21.3846 36.7905C20.636 35.683 20.9274 34.1766 22.0349 33.4281C23.1424 32.6795 24.6487 32.9709 25.3973 34.0784L34.8897 48.1229L36.4948 47.0381L24.8327 29.7834C24.0841 28.6759 24.3755 27.1695 25.483 26.421C26.5905 25.6724 28.0969 25.9638 28.8454 27.0713L40.5075 44.326L42.1126 43.2411L32.0778 28.394C31.3292 27.2865 31.6205 25.7802 32.7281 25.0316C33.8356 24.2831 35.3419 24.5744 36.0905 25.6819L46.1253 40.529L47.7304 39.4442L40.9501 29.4124C40.2015 28.3048 40.4929 26.7985 41.6004 26.0499C42.7079 25.3014 44.2143 25.5927 44.9628 26.7002L56.0825 43.1524C60.8775 50.2469 59.015 59.8768 51.9205 64.6718Z" stroke="black"/>
<path d="M44.0022 66.993L44.0026 66.9933C49.4005 70.6586 56.4844 70.6751 61.887 67.0236C69.2103 62.074 71.1329 52.1332 66.1832 44.8099L55.0636 28.3578C54.1604 27.0215 52.3432 26.67 51.0069 27.5732C49.6706 28.4764 49.3192 30.2935 50.2224 31.6298L56.7226 41.2474L55.9461 41.7723L46.1913 27.3395C45.2881 26.0032 43.4709 25.6517 42.1346 26.5549C40.7983 27.4581 40.4468 29.2752 41.35 30.6115L51.1048 45.0443L50.3283 45.5692L38.9462 28.7288C38.043 27.3925 36.2258 27.041 34.8895 27.9442C33.5532 28.8474 33.2018 30.6646 34.1049 32.0009L45.487 48.8413L44.7105 49.3662L35.4981 35.7359C34.5949 34.3996 32.7777 34.0482 31.4414 34.9513C30.1051 35.8545 29.7537 37.6717 30.6568 39.008L43.1238 57.4535L42.6148 57.7975L36.8024 53.8514L36.8022 53.8513C35.7304 53.1244 34.3722 52.908 33.1346 53.2679C33.1341 53.268 33.1335 53.2682 33.133 53.2683L31.5863 53.7071L31.5827 53.7081C29.5957 54.2875 29.1793 56.8935 30.881 58.064L30.8831 58.0654L44.0022 66.993Z" fill="white" stroke="#748AFF"/>
<path d="M41.6478 17.8697L39.9095 7.64624L43.4492 7.65717L41.6478 17.8697Z" fill="white"/>
<path d="M35.7531 18.9486L29.2477 10.8728L32.3427 9.15531L35.7531 18.9486Z" fill="white"/>
<path d="M46.8094 19.7029L50.0589 9.85498L53.1816 11.5215L46.8094 19.7029Z" fill="white"/>
<path d="M68.3168 27.4016L65.8773 31.4316L66.9674 26.8316L62.4235 27.9353L66.4045 25.4657L62.4235 22.9915L66.9674 24.0952L65.8773 19.4997L68.3168 23.5252L70.7607 19.4997L69.6705 24.0952L74.21 22.9915L70.2335 25.4657L74.21 27.9353L69.6705 26.8316L70.7607 31.4316L68.3168 27.4016Z" fill="#71EEA3"/>
<path d="M73.3429 40.1254L71.9042 42.5L72.5476 39.7907L69.8713 40.442L72.2169 38.9855L69.8713 37.5291L72.5476 38.1804L71.9042 35.4711L73.3429 37.8457L74.7815 35.4711L74.1382 38.1804L76.8145 37.5291L74.4688 38.9855L76.8145 40.442L74.1382 39.7907L74.7815 42.5L73.3429 40.1254Z" fill="#FFE8EB"/>
<path d="M16.7129 25.6325L19.8414 30.8008L18.449 24.9016L24.2705 26.317L19.1653 23.1499L24.2705 19.977L18.449 21.3923L19.8414 15.4989L16.7129 20.6614L13.5787 15.4989L14.9768 21.3923L9.1553 19.977L14.2606 23.1499L9.1553 26.317L14.9768 24.9016L13.5787 30.8008L16.7129 25.6325Z" fill="#71EEA3"/>
<path d="M10.2667 41.9498L12.1117 44.9951L11.2866 41.5206L14.7188 42.3559L11.7106 40.4881L14.7188 38.6203L11.2866 39.4556L12.1117 35.9811L10.2667 39.0264L8.4217 35.9811L9.24679 39.4556L5.81464 38.6203L8.82278 40.4881L5.81464 42.3559L9.24679 41.5206L8.4217 44.9951L10.2667 41.9498Z" fill="#FFE8EB"/>
</svg>
