<svg width="81" height="80" viewBox="0 0 81 80" fill="none" xmlns="http://www.w3.org/2000/svg">
<rect x="0.796875" width="80" height="80" rx="40" fill="#FFE8EB"/>
<path d="M29.9369 48.14C33.8802 48.14 37.0769 41.5049 37.0769 33.32C37.0769 25.1351 33.8802 18.5 29.9369 18.5C25.9936 18.5 22.7969 25.1351 22.7969 33.32C22.7969 41.5049 25.9936 48.14 29.9369 48.14Z" fill="white" stroke="#3551E7" stroke-miterlimit="10"/>
<path d="M34.8473 33.3199C34.8473 38.9499 32.6473 43.5099 29.9373 43.5099C27.2273 43.5099 25.0273 38.9499 25.0273 33.3199C25.0273 27.6899 27.2273 23.1299 29.9373 23.1299C32.6473 23.1299 34.8473 27.6899 34.8473 33.3199Z" fill="#3551E7"/>
<path d="M36.117 29.9599C36.117 31.5199 34.847 32.7899 33.287 32.7899C31.727 32.7899 30.457 31.5199 30.457 29.9599C30.457 28.3999 31.727 27.1299 33.287 27.1299C34.847 27.1299 36.117 28.3999 36.117 29.9599Z" fill="white"/>
<path d="M51.6566 48.14C55.5999 48.14 58.7966 41.5049 58.7966 33.32C58.7966 25.1351 55.5999 18.5 51.6566 18.5C47.7133 18.5 44.5166 25.1351 44.5166 33.32C44.5166 41.5049 47.7133 48.14 51.6566 48.14Z" fill="white" stroke="#3551E7" stroke-miterlimit="10"/>
<path d="M56.5671 33.3199C56.5671 38.9499 54.3671 43.5099 51.6571 43.5099C48.9471 43.5099 46.7471 38.9499 46.7471 33.3199C46.7471 27.6899 48.9471 23.1299 51.6571 23.1299C54.3671 23.1299 56.5671 27.6899 56.5671 33.3199Z" fill="#3551E7"/>
<path d="M57.8368 29.9599C57.8368 31.5199 56.5668 32.7899 55.0068 32.7899C53.4468 32.7899 52.1768 31.5199 52.1768 29.9599C52.1768 28.3999 53.4468 27.1299 55.0068 27.1299C56.5668 27.1299 57.8368 28.3999 57.8368 29.9599Z" fill="white"/>
<path d="M65.7815 50.0801C65.7815 56.0701 54.6015 60.9201 40.8015 60.9201C27.0015 60.9201 15.8115 56.0701 15.8115 50.0801" stroke="#3551E7" stroke-linecap="round" stroke-linejoin="round"/>
<path d="M13.1914 51.1704C13.1914 51.1704 15.1514 48.6804 18.8514 50.0804" stroke="#3551E7" stroke-linecap="round" stroke-linejoin="round"/>
<path d="M68.4012 51.1704C68.4012 51.1704 66.4412 48.6804 62.7412 50.0804" stroke="#3551E7" stroke-linecap="round" stroke-linejoin="round"/>
<path d="M67.6572 24.4996L67.2672 22.1396L66.8772 24.4996C66.5672 26.3496 65.1172 27.8096 63.2672 28.1096L60.9072 28.4996L63.2672 28.8896C65.1172 29.1996 66.5772 30.6496 66.8772 32.4996L67.2672 34.8596L67.6572 32.4996C67.9672 30.6496 69.4172 29.1896 71.2672 28.8896L73.6272 28.4996L71.2672 28.1096C69.4172 27.7996 67.9572 26.3496 67.6572 24.4996Z" fill="#FFAA29"/>
<path d="M73.4271 34.9799L73.2471 33.8799L73.0671 34.9799C72.9271 35.8399 72.2471 36.5099 71.3871 36.6599L70.2871 36.8399L71.3871 37.0199C72.2471 37.1599 72.9171 37.8399 73.0671 38.6999L73.2471 39.7999L73.4271 38.6999C73.5671 37.8399 74.2471 37.1699 75.1071 37.0199L76.2071 36.8399L75.1071 36.6599C74.2471 36.5199 73.5771 35.8399 73.4271 34.9799Z" fill="#FFAA29"/>
</svg>
