<svg width="81" height="80" viewBox="0 0 81 80" fill="none" xmlns="http://www.w3.org/2000/svg">
<rect x="0.796875" width="80" height="80" rx="40" fill="#71EEA3"/>
<path d="M40.5575 35.4643C40.5575 35.4643 36.5036 36.275 39.8481 29.282C42.2805 24.2145 42.0778 18.3363 39.8481 15.1945C36.3009 10.2284 29.5105 11.85 30.22 14.6878C32.6524 24.5186 27.1795 27.4577 24.3417 33.64C21.504 39.9236 21.808 48.8423 23.1255 56.8488C23.9363 61.8149 26.0647 67.9972 33.7672 67.9972H44.5101L40.5575 35.4643Z" fill="white" stroke="#748AFF" stroke-linejoin="round"/>
<path d="M53.8367 43.5757H40.56C35.898 43.5757 35.898 35.4678 40.56 35.4678H53.8367C58.4987 35.4678 58.4987 43.5757 53.8367 43.5757Z" fill="white" stroke="#748AFF"/>
<path d="M55.2555 51.7778H39.3437C33.7695 51.7778 33.7695 43.6699 39.3437 43.6699H55.2555C60.8297 43.6699 60.8297 51.7778 55.2555 51.7778Z" fill="white" stroke="#748AFF"/>
<path d="M53.7279 59.8882H40.2485C35.5864 59.8882 35.5864 51.7803 40.2485 51.7803H53.7279C58.3899 51.7803 58.3899 59.8882 53.7279 59.8882Z" fill="white" stroke="#748AFF"/>
<path d="M52.3134 67.9995H43.5975C38.53 67.9995 38.53 59.8916 43.5975 59.8916H52.3134C57.3809 59.8916 57.3809 67.9995 52.3134 67.9995Z" fill="white" stroke="#748AFF"/>
<path d="M66.9579 37.2763L66.5864 35.0469L66.2149 37.2763C65.9217 39.021 64.5433 40.3877 62.7836 40.6785L60.5352 41.0469L62.7836 41.4152C64.5433 41.706 65.9217 43.0727 66.2149 44.8175L66.5864 47.0469L66.9579 44.8175C67.2512 43.0727 68.6296 41.706 70.3893 41.4152L72.6377 41.0469L70.3893 40.6785C68.6296 40.3877 67.2512 39.021 66.9579 37.2763Z" fill="white"/>
<path d="M61.1863 19.603L61.0302 18.6738L60.874 19.603C60.7512 20.3331 60.1823 20.8973 59.4459 21.019L58.5088 21.1738L59.4459 21.3287C60.1823 21.4504 60.7512 22.0145 60.874 22.7446L61.0302 23.6738L61.1863 22.7446C61.3091 22.0145 61.878 21.4504 62.6144 21.3287L63.5515 21.1738L62.6144 21.019C61.878 20.8973 61.3091 20.3331 61.1863 19.603Z" fill="white"/>
<path d="M10.5729 23.071L10.358 21.7725L10.1432 23.071C9.96923 24.0956 9.17117 24.887 8.13777 25.0594L6.82812 25.2725L8.13777 25.4855C9.17117 25.658 9.96923 26.4493 10.1432 27.4739L10.358 28.7725L10.5729 27.4739C10.7468 26.4493 11.5449 25.658 12.5783 25.4855L13.8879 25.2725L12.5783 25.0594C11.5449 24.887 10.7468 24.0956 10.5729 23.071Z" fill="white"/>
<path d="M61.1902 62.1831L61.036 61.2568L60.8818 62.1831C60.7639 62.9115 60.1835 63.4871 59.4488 63.604L58.5146 63.7568L59.4488 63.9097C60.1835 64.0266 60.7639 64.6022 60.8818 65.3306L61.036 66.2568L61.1902 65.3306C61.3081 64.6022 61.8886 64.0266 62.6232 63.9097L63.5574 63.7568L62.6232 63.604C61.8886 63.4871 61.3081 62.9115 61.1902 62.1831Z" fill="white"/>
<path d="M51.9811 10.2956L51.7654 9L51.5497 10.2956C51.3833 11.31 50.5759 12.1106 49.5527 12.2756L48.2461 12.4895L49.5527 12.7034C50.5759 12.8684 51.3833 13.669 51.5497 14.6834L51.7654 15.979L51.9811 14.6834C52.1476 13.669 52.955 12.8684 53.9781 12.7034L55.2848 12.4895L53.9781 12.2756C52.955 12.1106 52.1476 11.31 51.9811 10.2956Z" fill="white"/>
<path d="M13.325 47.4244L12.8889 44.8301L12.4528 47.4244C12.1111 49.4695 10.4964 51.0588 8.4456 51.3977L5.8291 51.8301L8.4456 52.2625C10.5082 52.6014 12.1111 54.2024 12.4528 56.2358L12.8889 58.8301L13.325 56.2358C13.6668 54.1907 15.2815 52.6014 17.3323 52.2625L19.9488 51.8301L17.3323 51.3977C15.2697 51.0588 13.6668 49.4578 13.325 47.4244Z" fill="white"/>
</svg>
