<svg width="151" height="18" viewBox="0 0 151 18" fill="none" xmlns="http://www.w3.org/2000/svg">
<path d="M0.75 9.6792C0.75 8.58024 1.14323 7.64535 1.92969 6.87451C2.71615 6.10368 3.67448 5.71826 4.80469 5.71826C5.9401 5.71826 6.90365 6.10628 7.69531 6.88232C8.47656 7.65837 8.86719 8.61149 8.86719 9.7417C8.86719 10.8823 8.47396 11.8381 7.6875 12.6089C6.89583 13.3745 5.92448 13.7573 4.77344 13.7573C3.63281 13.7573 2.67708 13.3667 1.90625 12.5854C1.13542 11.8146 0.75 10.8459 0.75 9.6792ZM2.54688 9.71045C2.54688 10.4709 2.75 11.0724 3.15625 11.5151C3.57292 11.9631 4.1224 12.187 4.80469 12.187C5.49219 12.187 6.04167 11.9657 6.45312 11.5229C6.86458 11.0802 7.07031 10.4891 7.07031 9.74951C7.07031 9.00993 6.86458 8.41878 6.45312 7.97607C6.03646 7.52816 5.48698 7.3042 4.80469 7.3042C4.13281 7.3042 3.58854 7.52816 3.17188 7.97607C2.75521 8.42399 2.54688 9.00212 2.54688 9.71045ZM10.2544 5.9292H12.02V6.63232C12.6346 6.02295 13.3273 5.71826 14.0981 5.71826C14.9835 5.71826 15.6736 5.99691 16.1684 6.5542C16.5955 7.02816 16.8091 7.8016 16.8091 8.87451V13.5386H15.0434V9.28857C15.0434 8.53857 14.9393 8.02035 14.7309 7.73389C14.5278 7.44222 14.158 7.29639 13.6216 7.29639C13.0382 7.29639 12.6242 7.4891 12.3794 7.87451C12.1398 8.25472 12.02 8.91878 12.02 9.8667V13.5386H10.2544V5.9292ZM25.4853 10.1479H20.0322C20.0791 10.7729 20.2822 11.2703 20.6416 11.6401C21.0009 12.0047 21.4619 12.187 22.0244 12.187C22.4619 12.187 22.8239 12.0828 23.1103 11.8745C23.3916 11.6662 23.7119 11.2808 24.0713 10.7183L25.5556 11.5464C25.3265 11.937 25.0843 12.2729 24.8291 12.5542C24.5739 12.8302 24.3004 13.0594 24.0088 13.2417C23.7171 13.4188 23.402 13.549 23.0634 13.6323C22.7249 13.7157 22.3577 13.7573 21.9619 13.7573C20.8265 13.7573 19.915 13.3927 19.2275 12.6636C18.54 11.9292 18.1963 10.9552 18.1963 9.7417C18.1963 8.53857 18.5296 7.56462 19.1963 6.81982C19.8681 6.08545 20.7588 5.71826 21.8681 5.71826C22.9879 5.71826 23.8733 6.07503 24.5244 6.78857C25.1702 7.49691 25.4931 8.47868 25.4931 9.73389L25.4853 10.1479ZM23.6806 8.71045C23.4358 7.77295 22.8447 7.3042 21.9072 7.3042C21.6936 7.3042 21.4931 7.33805 21.3056 7.40576C21.1181 7.46826 20.9463 7.56201 20.79 7.68701C20.639 7.8068 20.5088 7.95264 20.3994 8.12451C20.29 8.29639 20.2067 8.4917 20.1494 8.71045H23.6806ZM35.8144 7.22607L34.3612 7.99951C34.1321 7.53076 33.8482 7.29639 33.5097 7.29639C33.3482 7.29639 33.2102 7.35107 33.0956 7.46045C32.981 7.56462 32.9237 7.70003 32.9237 7.8667C32.9237 8.15837 33.2623 8.44743 33.9394 8.73389C34.8717 9.13493 35.4993 9.50472 35.8222 9.84326C36.1451 10.1818 36.3066 10.6375 36.3066 11.2104C36.3066 11.9448 36.0357 12.5594 35.4941 13.0542C34.968 13.5229 34.3326 13.7573 33.5878 13.7573C32.3118 13.7573 31.4081 13.1349 30.8769 11.8901L32.3769 11.1948C32.5852 11.5594 32.7441 11.7912 32.8534 11.8901C33.067 12.0881 33.3222 12.187 33.6191 12.187C34.2128 12.187 34.5097 11.9162 34.5097 11.3745C34.5097 11.062 34.2805 10.7703 33.8222 10.4995C33.6451 10.411 33.468 10.325 33.2909 10.2417C33.1139 10.1584 32.9342 10.0724 32.7519 9.98389C32.2415 9.73389 31.8821 9.48389 31.6737 9.23389C31.4081 8.91618 31.2753 8.50732 31.2753 8.00732C31.2753 7.34587 31.5019 6.79899 31.955 6.3667C32.4185 5.93441 32.981 5.71826 33.6425 5.71826C34.6165 5.71826 35.3404 6.22087 35.8144 7.22607ZM44.3422 10.1479H38.8891C38.9359 10.7729 39.1391 11.2703 39.4984 11.6401C39.8578 12.0047 40.3187 12.187 40.8812 12.187C41.3187 12.187 41.6807 12.0828 41.9672 11.8745C42.2484 11.6662 42.5687 11.2808 42.9281 10.7183L44.4125 11.5464C44.1833 11.937 43.9411 12.2729 43.6859 12.5542C43.4307 12.8302 43.1573 13.0594 42.8656 13.2417C42.574 13.4188 42.2589 13.549 41.9203 13.6323C41.5818 13.7157 41.2146 13.7573 40.8187 13.7573C39.6833 13.7573 38.7719 13.3927 38.0844 12.6636C37.3969 11.9292 37.0531 10.9552 37.0531 9.7417C37.0531 8.53857 37.3865 7.56462 38.0531 6.81982C38.725 6.08545 39.6156 5.71826 40.725 5.71826C41.8448 5.71826 42.7302 6.07503 43.3812 6.78857C44.0271 7.49691 44.35 8.47868 44.35 9.73389L44.3422 10.1479ZM42.5375 8.71045C42.2927 7.77295 41.7016 7.3042 40.7641 7.3042C40.5505 7.3042 40.35 7.33805 40.1625 7.40576C39.975 7.46826 39.8031 7.56201 39.6469 7.68701C39.4958 7.8068 39.3656 7.95264 39.2562 8.12451C39.1469 8.29639 39.0635 8.4917 39.0062 8.71045H42.5375ZM45.7919 5.9292H47.5575V6.63232C48.1721 6.02295 48.8648 5.71826 49.6356 5.71826C50.521 5.71826 51.2111 5.99691 51.7059 6.5542C52.133 7.02816 52.3466 7.8016 52.3466 8.87451V13.5386H50.5809V9.28857C50.5809 8.53857 50.4768 8.02035 50.2684 7.73389C50.0653 7.44222 49.6955 7.29639 49.1591 7.29639C48.5757 7.29639 48.1617 7.4891 47.9169 7.87451C47.6773 8.25472 47.5575 8.91878 47.5575 9.8667V13.5386H45.7919V5.9292ZM55.9056 7.56982V13.5386H54.1478V7.56982H53.3978V5.9292H54.1478V3.14014H55.9056V5.9292H57.2728V7.56982H55.9056ZM65.0584 10.1479H59.6053C59.6522 10.7729 59.8553 11.2703 60.2147 11.6401C60.5741 12.0047 61.035 12.187 61.5975 12.187C62.035 12.187 62.397 12.0828 62.6834 11.8745C62.9647 11.6662 63.285 11.2808 63.6444 10.7183L65.1287 11.5464C64.8996 11.937 64.6574 12.2729 64.4022 12.5542C64.147 12.8302 63.8735 13.0594 63.5819 13.2417C63.2902 13.4188 62.9751 13.549 62.6366 13.6323C62.298 13.7157 61.9308 13.7573 61.535 13.7573C60.3996 13.7573 59.4881 13.3927 58.8006 12.6636C58.1131 11.9292 57.7694 10.9552 57.7694 9.7417C57.7694 8.53857 58.1027 7.56462 58.7694 6.81982C59.4412 6.08545 60.3319 5.71826 61.4412 5.71826C62.561 5.71826 63.4465 6.07503 64.0975 6.78857C64.7433 7.49691 65.0662 8.47868 65.0662 9.73389L65.0584 10.1479ZM63.2537 8.71045C63.009 7.77295 62.4178 7.3042 61.4803 7.3042C61.2668 7.3042 61.0662 7.33805 60.8787 7.40576C60.6912 7.46826 60.5194 7.56201 60.3631 7.68701C60.2121 7.8068 60.0819 7.95264 59.9725 8.12451C59.8631 8.29639 59.7798 8.4917 59.7225 8.71045H63.2537ZM66.5081 5.9292H68.2738V6.63232C68.8883 6.02295 69.581 5.71826 70.3519 5.71826C71.2373 5.71826 71.9274 5.99691 72.4222 6.5542C72.8493 7.02816 73.0628 7.8016 73.0628 8.87451V13.5386H71.2972V9.28857C71.2972 8.53857 71.193 8.02035 70.9847 7.73389C70.7816 7.44222 70.4118 7.29639 69.8753 7.29639C69.292 7.29639 68.8779 7.4891 68.6331 7.87451C68.3935 8.25472 68.2738 8.91878 68.2738 9.8667V13.5386H66.5081V5.9292ZM80.7312 6.25732V8.59326C80.3302 8.10368 79.9708 7.76774 79.6531 7.58545C79.3406 7.39795 78.9734 7.3042 78.5516 7.3042C77.8901 7.3042 77.3406 7.53597 76.9031 7.99951C76.4656 8.46305 76.2469 9.04378 76.2469 9.7417C76.2469 10.4552 76.4578 11.0412 76.8797 11.4995C77.3068 11.9578 77.851 12.187 78.5125 12.187C78.9344 12.187 79.3068 12.0959 79.6297 11.9136C79.9422 11.7365 80.3094 11.3927 80.7312 10.8823V13.2026C80.0177 13.5724 79.3042 13.7573 78.5906 13.7573C77.4135 13.7573 76.4292 13.3771 75.6375 12.6167C74.8458 11.8511 74.45 10.9006 74.45 9.76514C74.45 8.62972 74.851 7.67139 75.6531 6.89014C76.4552 6.10889 77.4396 5.71826 78.6062 5.71826C79.3562 5.71826 80.0646 5.89795 80.7312 6.25732ZM88.8841 10.1479H83.4309C83.4778 10.7729 83.6809 11.2703 84.0403 11.6401C84.3997 12.0047 84.8606 12.187 85.4231 12.187C85.8606 12.187 86.2226 12.0828 86.5091 11.8745C86.7903 11.6662 87.1106 11.2808 87.47 10.7183L88.9544 11.5464C88.7252 11.937 88.483 12.2729 88.2278 12.5542C87.9726 12.8302 87.6992 13.0594 87.4075 13.2417C87.1158 13.4188 86.8007 13.549 86.4622 13.6323C86.1236 13.7157 85.7565 13.7573 85.3606 13.7573C84.2252 13.7573 83.3138 13.3927 82.6263 12.6636C81.9388 11.9292 81.595 10.9552 81.595 9.7417C81.595 8.53857 81.9283 7.56462 82.595 6.81982C83.2669 6.08545 84.1575 5.71826 85.2669 5.71826C86.3867 5.71826 87.2721 6.07503 87.9231 6.78857C88.569 7.49691 88.8919 8.47868 88.8919 9.73389L88.8841 10.1479ZM87.0794 8.71045C86.8346 7.77295 86.2434 7.3042 85.3059 7.3042C85.0924 7.3042 84.8919 7.33805 84.7044 7.40576C84.5169 7.46826 84.345 7.56201 84.1888 7.68701C84.0377 7.8068 83.9075 7.95264 83.7981 8.12451C83.6888 8.29639 83.6054 8.4917 83.5481 8.71045H87.0794ZM94.4319 9.6792C94.4319 8.58024 94.8251 7.64535 95.6116 6.87451C96.398 6.10368 97.3564 5.71826 98.4866 5.71826C99.622 5.71826 100.586 6.10628 101.377 6.88232C102.158 7.65837 102.549 8.61149 102.549 9.7417C102.549 10.8823 102.156 11.8381 101.369 12.6089C100.578 13.3745 99.6064 13.7573 98.4553 13.7573C97.3147 13.7573 96.359 13.3667 95.5881 12.5854C94.8173 11.8146 94.4319 10.8459 94.4319 9.6792ZM96.2288 9.71045C96.2288 10.4709 96.4319 11.0724 96.8381 11.5151C97.2548 11.9631 97.8043 12.187 98.4866 12.187C99.1741 12.187 99.7235 11.9657 100.135 11.5229C100.546 11.0802 100.752 10.4891 100.752 9.74951C100.752 9.00993 100.546 8.41878 100.135 7.97607C99.7183 7.52816 99.1689 7.3042 98.4866 7.3042C97.8147 7.3042 97.2704 7.52816 96.8538 7.97607C96.4371 8.42399 96.2288 9.00212 96.2288 9.71045ZM103.936 5.9292H105.702V6.63232C106.316 6.02295 107.009 5.71826 107.78 5.71826C108.665 5.71826 109.356 5.99691 109.85 6.5542C110.277 7.02816 110.491 7.8016 110.491 8.87451V13.5386H108.725V9.28857C108.725 8.53857 108.621 8.02035 108.413 7.73389C108.21 7.44222 107.84 7.29639 107.303 7.29639C106.72 7.29639 106.306 7.4891 106.061 7.87451C105.822 8.25472 105.702 8.91878 105.702 9.8667V13.5386H103.936V5.9292ZM119.167 10.1479H113.714C113.761 10.7729 113.964 11.2703 114.323 11.6401C114.683 12.0047 115.144 12.187 115.706 12.187C116.144 12.187 116.506 12.0828 116.792 11.8745C117.073 11.6662 117.394 11.2808 117.753 10.7183L119.238 11.5464C119.008 11.937 118.766 12.2729 118.511 12.5542C118.256 12.8302 117.982 13.0594 117.691 13.2417C117.399 13.4188 117.084 13.549 116.745 13.6323C116.407 13.7157 116.04 13.7573 115.644 13.7573C114.508 13.7573 113.597 13.3927 112.909 12.6636C112.222 11.9292 111.878 10.9552 111.878 9.7417C111.878 8.53857 112.211 7.56462 112.878 6.81982C113.55 6.08545 114.441 5.71826 115.55 5.71826C116.67 5.71826 117.555 6.07503 118.206 6.78857C118.852 7.49691 119.175 8.47868 119.175 9.73389L119.167 10.1479ZM117.363 8.71045C117.118 7.77295 116.527 7.3042 115.589 7.3042C115.376 7.3042 115.175 7.33805 114.988 7.40576C114.8 7.46826 114.628 7.56201 114.472 7.68701C114.321 7.8068 114.191 7.95264 114.081 8.12451C113.972 8.29639 113.889 8.4917 113.831 8.71045H117.363ZM130.684 0.343262H132.449V13.5386H130.684V12.7417C129.991 13.4188 129.207 13.7573 128.332 13.7573C127.291 13.7573 126.426 13.3771 125.738 12.6167C125.056 11.8407 124.715 10.8719 124.715 9.71045C124.715 8.57503 125.056 7.62712 125.738 6.8667C126.416 6.10107 127.267 5.71826 128.293 5.71826C129.184 5.71826 129.981 6.08285 130.684 6.81201V0.343262ZM126.512 9.71045C126.512 10.4396 126.707 11.0334 127.098 11.4917C127.499 11.9552 128.004 12.187 128.613 12.187C129.264 12.187 129.791 11.9631 130.192 11.5151C130.593 11.0516 130.793 10.4631 130.793 9.74951C130.793 9.03597 130.593 8.44743 130.192 7.98389C129.791 7.53076 129.27 7.3042 128.629 7.3042C128.025 7.3042 127.52 7.53337 127.113 7.9917C126.712 8.45524 126.512 9.02816 126.512 9.71045ZM139.798 5.9292H141.563V13.5386H139.798V12.7417C139.074 13.4188 138.295 13.7573 137.462 13.7573C136.409 13.7573 135.54 13.3771 134.852 12.6167C134.17 11.8407 133.829 10.8719 133.829 9.71045C133.829 8.56982 134.17 7.6193 134.852 6.85889C135.534 6.09847 136.389 5.71826 137.415 5.71826C138.3 5.71826 139.094 6.08285 139.798 6.81201V5.9292ZM135.626 9.71045C135.626 10.4396 135.821 11.0334 136.212 11.4917C136.613 11.9552 137.118 12.187 137.727 12.187C138.378 12.187 138.904 11.9631 139.305 11.5151C139.706 11.0516 139.907 10.4631 139.907 9.74951C139.907 9.03597 139.706 8.44743 139.305 7.98389C138.904 7.53076 138.383 7.3042 137.743 7.3042C137.139 7.3042 136.633 7.53337 136.227 7.9917C135.826 8.45524 135.626 9.02816 135.626 9.71045ZM145.841 12.1245L142.419 5.9292H144.458L146.786 10.3042L148.958 5.9292H150.943L144.88 17.6792H142.872L145.841 12.1245Z" fill="#3551E7"/>
</svg>
