<svg width="152" height="20" viewBox="0 0 152 20" fill="none" xmlns="http://www.w3.org/2000/svg">
<path d="M0.75 11.1406C0.75 10.0417 1.14323 9.10677 1.92969 8.33594C2.71615 7.5651 3.67448 7.17969 4.80469 7.17969C5.9401 7.17969 6.90365 7.56771 7.69531 8.34375C8.47656 9.11979 8.86719 10.0729 8.86719 11.2031C8.86719 12.3438 8.47396 13.2995 7.6875 14.0703C6.89583 14.8359 5.92448 15.2188 4.77344 15.2188C3.63281 15.2188 2.67708 14.8281 1.90625 14.0469C1.13542 13.276 0.75 12.3073 0.75 11.1406ZM2.54688 11.1719C2.54688 11.9323 2.75 12.5339 3.15625 12.9766C3.57292 13.4245 4.1224 13.6484 4.80469 13.6484C5.49219 13.6484 6.04167 13.4271 6.45312 12.9844C6.86458 12.5417 7.07031 11.9505 7.07031 11.2109C7.07031 10.4714 6.86458 9.88021 6.45312 9.4375C6.03646 8.98958 5.48698 8.76562 4.80469 8.76562C4.13281 8.76562 3.58854 8.98958 3.17188 9.4375C2.75521 9.88542 2.54688 10.4635 2.54688 11.1719ZM10.2544 7.39062H12.02V8.09375C12.6346 7.48438 13.3273 7.17969 14.0981 7.17969C14.9835 7.17969 15.6736 7.45833 16.1684 8.01562C16.5955 8.48958 16.8091 9.26302 16.8091 10.3359V15H15.0434V10.75C15.0434 10 14.9393 9.48177 14.7309 9.19531C14.5278 8.90365 14.158 8.75781 13.6216 8.75781C13.0382 8.75781 12.6242 8.95052 12.3794 9.33594C12.1398 9.71615 12.02 10.3802 12.02 11.3281V15H10.2544V7.39062ZM25.4853 11.6094H20.0322C20.0791 12.2344 20.2822 12.7318 20.6416 13.1016C21.0009 13.4661 21.4619 13.6484 22.0244 13.6484C22.4619 13.6484 22.8239 13.5443 23.1103 13.3359C23.3916 13.1276 23.7119 12.7422 24.0713 12.1797L25.5556 13.0078C25.3265 13.3984 25.0843 13.7344 24.8291 14.0156C24.5739 14.2917 24.3004 14.5208 24.0088 14.7031C23.7171 14.8802 23.402 15.0104 23.0634 15.0938C22.7249 15.1771 22.3577 15.2188 21.9619 15.2188C20.8265 15.2188 19.915 14.8542 19.2275 14.125C18.54 13.3906 18.1963 12.4167 18.1963 11.2031C18.1963 10 18.5296 9.02604 19.1963 8.28125C19.8681 7.54688 20.7588 7.17969 21.8681 7.17969C22.9879 7.17969 23.8733 7.53646 24.5244 8.25C25.1702 8.95833 25.4931 9.9401 25.4931 11.1953L25.4853 11.6094ZM23.6806 10.1719C23.4358 9.23438 22.8447 8.76562 21.9072 8.76562C21.6936 8.76562 21.4931 8.79948 21.3056 8.86719C21.1181 8.92969 20.9463 9.02344 20.79 9.14844C20.639 9.26823 20.5088 9.41406 20.3994 9.58594C20.29 9.75781 20.2067 9.95312 20.1494 10.1719H23.6806ZM35.8144 8.6875L34.3612 9.46094C34.1321 8.99219 33.8482 8.75781 33.5097 8.75781C33.3482 8.75781 33.2102 8.8125 33.0956 8.92188C32.981 9.02604 32.9237 9.16146 32.9237 9.32812C32.9237 9.61979 33.2623 9.90885 33.9394 10.1953C34.8717 10.5964 35.4993 10.9661 35.8222 11.3047C36.1451 11.6432 36.3066 12.099 36.3066 12.6719C36.3066 13.4062 36.0357 14.0208 35.4941 14.5156C34.968 14.9844 34.3326 15.2188 33.5878 15.2188C32.3118 15.2188 31.4081 14.5964 30.8769 13.3516L32.3769 12.6562C32.5852 13.0208 32.7441 13.2526 32.8534 13.3516C33.067 13.5495 33.3222 13.6484 33.6191 13.6484C34.2128 13.6484 34.5097 13.3776 34.5097 12.8359C34.5097 12.5234 34.2805 12.2318 33.8222 11.9609C33.6451 11.8724 33.468 11.7865 33.2909 11.7031C33.1139 11.6198 32.9342 11.5339 32.7519 11.4453C32.2415 11.1953 31.8821 10.9453 31.6737 10.6953C31.4081 10.3776 31.2753 9.96875 31.2753 9.46875C31.2753 8.80729 31.5019 8.26042 31.955 7.82812C32.4185 7.39583 32.981 7.17969 33.6425 7.17969C34.6165 7.17969 35.3404 7.68229 35.8144 8.6875ZM44.3422 11.6094H38.8891C38.9359 12.2344 39.1391 12.7318 39.4984 13.1016C39.8578 13.4661 40.3187 13.6484 40.8812 13.6484C41.3187 13.6484 41.6807 13.5443 41.9672 13.3359C42.2484 13.1276 42.5687 12.7422 42.9281 12.1797L44.4125 13.0078C44.1833 13.3984 43.9411 13.7344 43.6859 14.0156C43.4307 14.2917 43.1573 14.5208 42.8656 14.7031C42.574 14.8802 42.2589 15.0104 41.9203 15.0938C41.5818 15.1771 41.2146 15.2188 40.8187 15.2188C39.6833 15.2188 38.7719 14.8542 38.0844 14.125C37.3969 13.3906 37.0531 12.4167 37.0531 11.2031C37.0531 10 37.3865 9.02604 38.0531 8.28125C38.725 7.54688 39.6156 7.17969 40.725 7.17969C41.8448 7.17969 42.7302 7.53646 43.3812 8.25C44.0271 8.95833 44.35 9.9401 44.35 11.1953L44.3422 11.6094ZM42.5375 10.1719C42.2927 9.23438 41.7016 8.76562 40.7641 8.76562C40.5505 8.76562 40.35 8.79948 40.1625 8.86719C39.975 8.92969 39.8031 9.02344 39.6469 9.14844C39.4958 9.26823 39.3656 9.41406 39.2562 9.58594C39.1469 9.75781 39.0635 9.95312 39.0062 10.1719H42.5375ZM45.7919 7.39062H47.5575V8.09375C48.1721 7.48438 48.8648 7.17969 49.6356 7.17969C50.521 7.17969 51.2111 7.45833 51.7059 8.01562C52.133 8.48958 52.3466 9.26302 52.3466 10.3359V15H50.5809V10.75C50.5809 10 50.4768 9.48177 50.2684 9.19531C50.0653 8.90365 49.6955 8.75781 49.1591 8.75781C48.5757 8.75781 48.1617 8.95052 47.9169 9.33594C47.6773 9.71615 47.5575 10.3802 47.5575 11.3281V15H45.7919V7.39062ZM55.9056 9.03125V15H54.1478V9.03125H53.3978V7.39062H54.1478V4.60156H55.9056V7.39062H57.2728V9.03125H55.9056ZM65.0584 11.6094H59.6053C59.6522 12.2344 59.8553 12.7318 60.2147 13.1016C60.5741 13.4661 61.035 13.6484 61.5975 13.6484C62.035 13.6484 62.397 13.5443 62.6834 13.3359C62.9647 13.1276 63.285 12.7422 63.6444 12.1797L65.1287 13.0078C64.8996 13.3984 64.6574 13.7344 64.4022 14.0156C64.147 14.2917 63.8735 14.5208 63.5819 14.7031C63.2902 14.8802 62.9751 15.0104 62.6366 15.0938C62.298 15.1771 61.9308 15.2188 61.535 15.2188C60.3996 15.2188 59.4881 14.8542 58.8006 14.125C58.1131 13.3906 57.7694 12.4167 57.7694 11.2031C57.7694 10 58.1027 9.02604 58.7694 8.28125C59.4412 7.54688 60.3319 7.17969 61.4412 7.17969C62.561 7.17969 63.4465 7.53646 64.0975 8.25C64.7433 8.95833 65.0662 9.9401 65.0662 11.1953L65.0584 11.6094ZM63.2537 10.1719C63.009 9.23438 62.4178 8.76562 61.4803 8.76562C61.2668 8.76562 61.0662 8.79948 60.8787 8.86719C60.6912 8.92969 60.5194 9.02344 60.3631 9.14844C60.2121 9.26823 60.0819 9.41406 59.9725 9.58594C59.8631 9.75781 59.7798 9.95312 59.7225 10.1719H63.2537ZM66.5081 7.39062H68.2738V8.09375C68.8883 7.48438 69.581 7.17969 70.3519 7.17969C71.2373 7.17969 71.9274 7.45833 72.4222 8.01562C72.8493 8.48958 73.0628 9.26302 73.0628 10.3359V15H71.2972V10.75C71.2972 10 71.193 9.48177 70.9847 9.19531C70.7816 8.90365 70.4118 8.75781 69.8753 8.75781C69.292 8.75781 68.8779 8.95052 68.6331 9.33594C68.3935 9.71615 68.2738 10.3802 68.2738 11.3281V15H66.5081V7.39062ZM80.7312 7.71875V10.0547C80.3302 9.5651 79.9708 9.22917 79.6531 9.04688C79.3406 8.85938 78.9734 8.76562 78.5516 8.76562C77.8901 8.76562 77.3406 8.9974 76.9031 9.46094C76.4656 9.92448 76.2469 10.5052 76.2469 11.2031C76.2469 11.9167 76.4578 12.5026 76.8797 12.9609C77.3068 13.4193 77.851 13.6484 78.5125 13.6484C78.9344 13.6484 79.3068 13.5573 79.6297 13.375C79.9422 13.1979 80.3094 12.8542 80.7312 12.3438V14.6641C80.0177 15.0339 79.3042 15.2188 78.5906 15.2188C77.4135 15.2188 76.4292 14.8385 75.6375 14.0781C74.8458 13.3125 74.45 12.362 74.45 11.2266C74.45 10.0911 74.851 9.13281 75.6531 8.35156C76.4552 7.57031 77.4396 7.17969 78.6062 7.17969C79.3562 7.17969 80.0646 7.35938 80.7312 7.71875ZM88.8841 11.6094H83.4309C83.4778 12.2344 83.6809 12.7318 84.0403 13.1016C84.3997 13.4661 84.8606 13.6484 85.4231 13.6484C85.8606 13.6484 86.2226 13.5443 86.5091 13.3359C86.7903 13.1276 87.1106 12.7422 87.47 12.1797L88.9544 13.0078C88.7252 13.3984 88.483 13.7344 88.2278 14.0156C87.9726 14.2917 87.6992 14.5208 87.4075 14.7031C87.1158 14.8802 86.8007 15.0104 86.4622 15.0938C86.1236 15.1771 85.7565 15.2188 85.3606 15.2188C84.2252 15.2188 83.3138 14.8542 82.6263 14.125C81.9388 13.3906 81.595 12.4167 81.595 11.2031C81.595 10 81.9283 9.02604 82.595 8.28125C83.2669 7.54688 84.1575 7.17969 85.2669 7.17969C86.3867 7.17969 87.2721 7.53646 87.9231 8.25C88.569 8.95833 88.8919 9.9401 88.8919 11.1953L88.8841 11.6094ZM87.0794 10.1719C86.8346 9.23438 86.2434 8.76562 85.3059 8.76562C85.0924 8.76562 84.8919 8.79948 84.7044 8.86719C84.5169 8.92969 84.345 9.02344 84.1888 9.14844C84.0377 9.26823 83.9075 9.41406 83.7981 9.58594C83.6888 9.75781 83.6054 9.95312 83.5481 10.1719H87.0794ZM94.4319 11.1406C94.4319 10.0417 94.8251 9.10677 95.6116 8.33594C96.398 7.5651 97.3564 7.17969 98.4866 7.17969C99.622 7.17969 100.586 7.56771 101.377 8.34375C102.158 9.11979 102.549 10.0729 102.549 11.2031C102.549 12.3438 102.156 13.2995 101.369 14.0703C100.578 14.8359 99.6064 15.2188 98.4553 15.2188C97.3147 15.2188 96.359 14.8281 95.5881 14.0469C94.8173 13.276 94.4319 12.3073 94.4319 11.1406ZM96.2288 11.1719C96.2288 11.9323 96.4319 12.5339 96.8381 12.9766C97.2548 13.4245 97.8043 13.6484 98.4866 13.6484C99.1741 13.6484 99.7235 13.4271 100.135 12.9844C100.546 12.5417 100.752 11.9505 100.752 11.2109C100.752 10.4714 100.546 9.88021 100.135 9.4375C99.7183 8.98958 99.1689 8.76562 98.4866 8.76562C97.8147 8.76562 97.2704 8.98958 96.8538 9.4375C96.4371 9.88542 96.2288 10.4635 96.2288 11.1719ZM103.936 7.39062H105.702V8.09375C106.316 7.48438 107.009 7.17969 107.78 7.17969C108.665 7.17969 109.356 7.45833 109.85 8.01562C110.277 8.48958 110.491 9.26302 110.491 10.3359V15H108.725V10.75C108.725 10 108.621 9.48177 108.413 9.19531C108.21 8.90365 107.84 8.75781 107.303 8.75781C106.72 8.75781 106.306 8.95052 106.061 9.33594C105.822 9.71615 105.702 10.3802 105.702 11.3281V15H103.936V7.39062ZM119.167 11.6094H113.714C113.761 12.2344 113.964 12.7318 114.323 13.1016C114.683 13.4661 115.144 13.6484 115.706 13.6484C116.144 13.6484 116.506 13.5443 116.792 13.3359C117.073 13.1276 117.394 12.7422 117.753 12.1797L119.238 13.0078C119.008 13.3984 118.766 13.7344 118.511 14.0156C118.256 14.2917 117.982 14.5208 117.691 14.7031C117.399 14.8802 117.084 15.0104 116.745 15.0938C116.407 15.1771 116.04 15.2188 115.644 15.2188C114.508 15.2188 113.597 14.8542 112.909 14.125C112.222 13.3906 111.878 12.4167 111.878 11.2031C111.878 10 112.211 9.02604 112.878 8.28125C113.55 7.54688 114.441 7.17969 115.55 7.17969C116.67 7.17969 117.555 7.53646 118.206 8.25C118.852 8.95833 119.175 9.9401 119.175 11.1953L119.167 11.6094ZM117.363 10.1719C117.118 9.23438 116.527 8.76562 115.589 8.76562C115.376 8.76562 115.175 8.79948 114.988 8.86719C114.8 8.92969 114.628 9.02344 114.472 9.14844C114.321 9.26823 114.191 9.41406 114.081 9.58594C113.972 9.75781 113.889 9.95312 113.831 10.1719H117.363ZM130.684 1.80469H132.449V15H130.684V14.2031C129.991 14.8802 129.207 15.2188 128.332 15.2188C127.291 15.2188 126.426 14.8385 125.738 14.0781C125.056 13.3021 124.715 12.3333 124.715 11.1719C124.715 10.0365 125.056 9.08854 125.738 8.32812C126.416 7.5625 127.267 7.17969 128.293 7.17969C129.184 7.17969 129.981 7.54427 130.684 8.27344V1.80469ZM126.512 11.1719C126.512 11.901 126.707 12.4948 127.098 12.9531C127.499 13.4167 128.004 13.6484 128.613 13.6484C129.264 13.6484 129.791 13.4245 130.192 12.9766C130.593 12.513 130.793 11.9245 130.793 11.2109C130.793 10.4974 130.593 9.90885 130.192 9.44531C129.791 8.99219 129.27 8.76562 128.629 8.76562C128.025 8.76562 127.52 8.99479 127.113 9.45312C126.712 9.91667 126.512 10.4896 126.512 11.1719ZM139.798 7.39062H141.563V15H139.798V14.2031C139.074 14.8802 138.295 15.2188 137.462 15.2188C136.409 15.2188 135.54 14.8385 134.852 14.0781C134.17 13.3021 133.829 12.3333 133.829 11.1719C133.829 10.0312 134.17 9.08073 134.852 8.32031C135.534 7.5599 136.389 7.17969 137.415 7.17969C138.3 7.17969 139.094 7.54427 139.798 8.27344V7.39062ZM135.626 11.1719C135.626 11.901 135.821 12.4948 136.212 12.9531C136.613 13.4167 137.118 13.6484 137.727 13.6484C138.378 13.6484 138.904 13.4245 139.305 12.9766C139.706 12.513 139.907 11.9245 139.907 11.2109C139.907 10.4974 139.706 9.90885 139.305 9.44531C138.904 8.99219 138.383 8.76562 137.743 8.76562C137.139 8.76562 136.633 8.99479 136.227 9.45312C135.826 9.91667 135.626 10.4896 135.626 11.1719ZM145.841 13.5859L142.419 7.39062H144.458L146.786 11.7656L148.958 7.39062H150.943L144.88 19.1406H142.872L145.841 13.5859Z" fill="#748AFF"/>
</svg>
