<svg width="64" height="64" viewBox="0 0 64 64" fill="none" xmlns="http://www.w3.org/2000/svg">
<rect x="0.5" y="0.5" width="63" height="63" rx="31.5" fill="#F5F6FF" stroke="#D9D9D9"/>
<path d="M28.9441 24.4492C29.8296 24.4492 30.6271 24.6217 31.3367 24.9668C32.0464 25.3053 32.603 25.7773 33.0066 26.3828C33.4168 26.9883 33.6251 27.6719 33.6316 28.4336C33.6251 29.2018 33.4168 29.8887 33.0066 30.4941C32.603 31.0931 32.0464 31.5651 31.3367 31.9102C30.6271 32.2487 29.8296 32.418 28.9441 32.418C28.0522 32.418 27.2482 32.2487 26.532 31.9102C25.8224 31.5651 25.2658 31.0931 24.8621 30.4941C24.4585 29.8887 24.2566 29.2018 24.2566 28.4336C24.2566 27.6719 24.4585 26.9883 24.8621 26.3828C25.2658 25.7773 25.8224 25.3053 26.532 24.9668C27.2482 24.6217 28.0522 24.4492 28.9441 24.4492ZM26.366 28.4336C26.366 28.8828 26.4767 29.2767 26.698 29.6152C26.9194 29.9473 27.2254 30.2044 27.616 30.3867C28.0066 30.569 28.4493 30.6602 28.9441 30.6602C29.4389 30.6602 29.8784 30.569 30.2625 30.3867C30.6531 30.2044 30.9591 29.9473 31.1805 29.6152C31.4083 29.2767 31.5223 28.8828 31.5223 28.4336C31.5223 27.9974 31.4083 27.6133 31.1805 27.2812C30.9591 26.9492 30.6531 26.6953 30.2625 26.5195C29.8784 26.3372 29.4389 26.2461 28.9441 26.2461C28.4493 26.2461 28.0066 26.3372 27.616 26.5195C27.2254 26.6953 26.9194 26.9492 26.698 27.2812C26.4767 27.6133 26.366 27.9974 26.366 28.4336ZM26.9324 33.5703H38.6512V38.1797H29.1004V39.6055H39.1785V41.3242H26.9715V36.5781H36.4832V35.2695H26.9324V33.5703ZM36.4637 23.8828H38.6512V32.8086H36.4637V23.8828Z" fill="#D9D9D9"/>
</svg>
