<svg width="64" height="64" viewBox="0 0 64 64" fill="none" xmlns="http://www.w3.org/2000/svg">
<rect x="0.5" y="0.5" width="63" height="63" rx="31.5" fill="#F5F6FF" stroke="#D9D9D9"/>
<path d="M37.909 31.168H40.3895V32.9844H37.909V41.5391H35.7215V23.8828H37.909V31.168ZM23.7293 36.6367C25.6564 36.6367 27.1603 36.6237 28.241 36.5977V34.9473C27.603 34.8366 27.0431 34.6348 26.5613 34.3418C26.0861 34.0488 25.7182 33.681 25.4578 33.2383C25.2039 32.7956 25.077 32.3008 25.077 31.7539C25.077 31.0964 25.256 30.5169 25.6141 30.0156C25.9721 29.5143 26.4734 29.127 27.118 28.8535C27.769 28.5736 28.5145 28.4336 29.3543 28.4336C30.1876 28.4336 30.9266 28.5736 31.5711 28.8535C32.2221 29.127 32.7299 29.5143 33.0945 30.0156C33.4591 30.5169 33.6447 31.0964 33.6512 31.7539C33.6447 32.3008 33.5079 32.7988 33.241 33.248C32.9741 33.6908 32.5965 34.0586 32.1082 34.3516C31.6264 34.6445 31.0665 34.8431 30.4285 34.9473V36.5195C32.1147 36.4284 33.5665 36.2982 34.784 36.1289L34.9207 37.7109C33.2475 38.0169 31.5385 38.2155 29.7938 38.3066C28.049 38.3913 26.1316 38.4336 24.0418 38.4336L23.7293 36.6367ZM24.0613 25.9141H28.241V23.9609H30.4285V25.9141H34.5887V27.6328H24.0613V25.9141ZM27.1277 31.7539C27.1212 32.2487 27.3165 32.6393 27.7137 32.9258C28.1173 33.2122 28.6544 33.3555 29.325 33.3555C30.0086 33.3555 30.5522 33.2155 30.9559 32.9355C31.3595 32.6556 31.5613 32.2617 31.5613 31.7539C31.5613 31.2461 31.3595 30.8457 30.9559 30.5527C30.5522 30.2533 30.0184 30.1003 29.3543 30.0938C28.6772 30.1003 28.1336 30.2533 27.7234 30.5527C27.3198 30.8457 27.1212 31.2461 27.1277 31.7539Z" fill="#D9D9D9"/>
</svg>
