<svg width="64" height="64" viewBox="0 0 64 64" fill="none" xmlns="http://www.w3.org/2000/svg">
<rect x="0.5" y="0.5" width="63" height="63" rx="31.5" fill="#F5F6FF" stroke="#D9D9D9"/>
<path d="M33.1434 25.3477C33.1368 26.0898 33.394 26.8125 33.9148 27.5156C34.4422 28.2188 35.1811 28.821 36.1316 29.3223C37.0887 29.8236 38.1759 30.1523 39.3934 30.3086L38.534 32.0664C37.0496 31.8451 35.7345 31.3893 34.5887 30.6992C33.4428 30.0026 32.5802 29.153 32.0008 28.1504C31.4214 29.153 30.562 30.0026 29.4227 30.6992C28.2833 31.3893 26.978 31.8451 25.5066 32.0664L24.6473 30.3086C25.8582 30.1523 26.9357 29.8236 27.8797 29.3223C28.8237 28.821 29.5561 28.222 30.077 27.5254C30.5978 26.8223 30.8582 26.0964 30.8582 25.3477V24.4492H33.1434V25.3477ZM23.9441 33.5898H40.0379V35.3867H33.0262V41.5391H30.8777V35.3867H23.9441V33.5898Z" fill="#D9D9D9"/>
</svg>
