<svg width="18" height="20" viewBox="0 0 18 20" fill="none" xmlns="http://www.w3.org/2000/svg">
<path d="M18 10.2203C18 9.60011 17.94 8.95994 17.8399 8.35977H9.17753V11.9008H14.1389C13.9389 13.0411 13.2787 14.0413 12.2984 14.6815L15.2592 16.9822C16.9997 15.3617 18 13.0011 18 10.2203Z" fill="#4280EF"/>
<path d="M9.17755 19.1828C11.6582 19.1828 13.7388 18.3626 15.2592 16.9622L12.2984 14.6815C11.4782 15.2417 10.4179 15.5618 9.17755 15.5618C6.77688 15.5618 4.75632 13.9413 4.01611 11.7807L0.975269 14.1214C2.5357 17.2223 5.69658 19.1828 9.17755 19.1828Z" fill="#34A353"/>
<path d="M4.01612 11.7606C3.63601 10.6203 3.63601 9.37997 4.01612 8.23965L0.975273 5.879C-0.325088 8.47972 -0.325092 11.5407 0.975269 14.1214L4.01612 11.7606Z" fill="#F6B704"/>
<path d="M9.17755 4.45874C10.4779 4.43874 11.7583 4.93888 12.6985 5.83913L15.3193 3.19839C13.6588 1.63796 11.4582 0.797726 9.17755 0.817732C5.69658 0.817732 2.53571 2.77814 0.975273 5.879L4.01612 8.23965C4.75632 6.05905 6.77688 4.45874 9.17755 4.45874Z" fill="#E54335"/>
</svg>
