<svg width="26" height="30" viewBox="0 0 26 30" fill="none" xmlns="http://www.w3.org/2000/svg">
<path d="M13.0435 13.4932C11.4783 13.4932 9.97601 14.2218 8.9955 15.3732C8.01499 14.2218 6.51274 13.4932 4.94753 13.4932C2.17691 13.4932 0 15.6701 0 18.4407C0 21.841 3.05847 24.6116 7.69115 28.8215L8.9955 29.9999L10.2999 28.8125C14.9325 24.6116 17.991 21.841 17.991 18.4407C17.991 15.6701 15.8141 13.4932 13.0435 13.4932ZM9.08546 27.4812L8.9955 27.5711L8.90555 27.4812C4.62369 23.6041 1.7991 21.0404 1.7991 18.4407C1.7991 16.6416 3.14843 15.2923 4.94753 15.2923C6.33283 15.2923 7.68216 16.1828 8.15892 17.4152H9.84108C10.3088 16.1828 11.6582 15.2923 13.0435 15.2923C14.8426 15.2923 16.1919 16.6416 16.1919 18.4407C16.1919 21.0404 13.3673 23.6041 9.08546 27.4812Z" fill="#748AFF"/>
<path fill-rule="evenodd" clip-rule="evenodd" d="M8.99523 27.5709L9.08519 27.4809C13.367 23.6038 16.1916 21.0401 16.1916 18.4404C16.1916 16.6413 14.8423 15.292 13.0432 15.292C11.6579 15.292 10.3086 16.1825 9.84081 17.4149H8.15865C7.68189 16.1825 6.33256 15.292 4.94725 15.292C3.14815 15.292 1.79883 16.6413 1.79883 18.4404C1.79883 21.0401 4.62342 23.6038 8.90527 27.4809L8.99523 27.5709Z" fill="#F5F6FF"/>
<path d="M21.1427 0C19.8632 0 18.6352 0.595615 17.8337 1.53683C17.0322 0.595615 15.8042 0 14.5248 0C12.26 0 10.4805 1.77949 10.4805 4.0443C10.4805 6.82384 12.9806 9.08864 16.7675 12.53L17.8337 13.4933L18.9 12.5226C22.6869 9.08864 25.187 6.82384 25.187 4.0443C25.187 1.77949 23.4075 0 21.1427 0ZM17.9073 11.4343L17.8337 11.5079L17.7602 11.4343C14.2601 8.26508 11.9511 6.1694 11.9511 4.0443C11.9511 2.57365 13.0541 1.47065 14.5248 1.47065C15.6572 1.47065 16.7602 2.19863 17.1499 3.20603H18.5249C18.9073 2.19863 20.0103 1.47065 21.1427 1.47065C22.6134 1.47065 23.7164 2.57365 23.7164 4.0443C23.7164 6.1694 21.4074 8.26508 17.9073 11.4343Z" fill="#748AFF"/>
<path fill-rule="evenodd" clip-rule="evenodd" d="M17.8338 11.5079L17.9073 11.4344C21.4075 8.26513 23.7164 6.16944 23.7164 4.04435C23.7164 2.57369 22.6134 1.4707 21.1428 1.4707C20.0104 1.4707 18.9074 2.19868 18.525 3.20608H17.1499C16.7602 2.19868 15.6572 1.4707 14.5248 1.4707C13.0542 1.4707 11.9512 2.57369 11.9512 4.04435C11.9512 6.16944 14.2601 8.26513 17.7603 11.4344L17.8338 11.5079Z" fill="#F5F6FF"/>
</svg>
