<svg width="16" height="18" viewBox="0 0 16 18" fill="none" xmlns="http://www.w3.org/2000/svg">
<path d="M11.8166 15.9918C11.5749 15.9918 11.3499 15.9418 11.1832 15.8668C10.5916 15.5585 10.1749 15.1335 9.75823 13.8835C9.33323 12.5835 8.53324 11.9751 7.76657 11.3835C7.10824 10.8751 6.4249 10.3501 5.83324 9.27513C5.39157 8.47513 5.1499 7.60013 5.1499 6.82513C5.1499 4.4918 6.98324 2.65846 9.31657 2.65846C11.6499 2.65846 13.4832 4.4918 13.4832 6.82513H15.1499C15.1499 3.55013 12.5916 0.991797 9.31657 0.991797C6.04157 0.991797 3.48324 3.55013 3.48324 6.82513C3.48324 7.87513 3.7999 9.03346 4.3749 10.0751C5.13324 11.4501 6.0249 12.1418 6.7499 12.7001C7.4249 13.2168 7.90824 13.5918 8.1749 14.4085C8.6749 15.9251 9.31657 16.7751 10.4499 17.3668C10.8749 17.5585 11.3416 17.6585 11.8166 17.6585C13.6582 17.6585 15.1499 16.1668 15.1499 14.3251H13.4832C13.4832 15.2418 12.7332 15.9918 11.8166 15.9918ZM4.01657 1.52513L2.83324 0.341797C1.1749 2.00013 0.149902 4.2918 0.149902 6.82513C0.149902 9.35846 1.1749 11.6501 2.83324 13.3085L4.00824 12.1335C2.65824 10.7751 1.81657 8.90013 1.81657 6.82513C1.81657 4.75013 2.65824 2.87513 4.01657 1.52513ZM7.23324 6.82513C7.23324 7.97513 8.16657 8.90846 9.31657 8.90846C10.4666 8.90846 11.3999 7.97513 11.3999 6.82513C11.3999 5.67513 10.4666 4.7418 9.31657 4.7418C8.16657 4.7418 7.23324 5.67513 7.23324 6.82513Z" fill="#748AFF"/>
</svg>
