<svg width="40" height="46" viewBox="0 0 40 46" fill="none" xmlns="http://www.w3.org/2000/svg">
<g filter="url(#filter0_d_1236_4285)">
<path d="M24.4254 8L18.9346 16.2128H21.6565L27.1474 8H24.4254Z" fill="#F5F6FF"/>
<path fill-rule="evenodd" clip-rule="evenodd" d="M18.9346 16.2128H21.6565L27.1474 8H24.4254L18.9346 16.2128ZM20.5565 15.3462H21.1935L25.5255 8.86664H24.8885L20.5565 15.3462Z" fill="#748AFF"/>
<path d="M21.6558 8L16.2119 16.2128H18.9339L24.4247 8H21.6558Z" fill="#F5F6FF"/>
<path fill-rule="evenodd" clip-rule="evenodd" d="M16.2119 16.2128H18.9339L24.4247 8H21.6558L16.2119 16.2128ZM17.8261 15.3462H18.4708L22.8028 8.86664H22.1211L17.8261 15.3462Z" fill="#748AFF"/>
<path d="M18.9352 8L13.4443 16.2128H16.2132L21.6571 8H18.9352Z" fill="#F5F6FF"/>
<path fill-rule="evenodd" clip-rule="evenodd" d="M13.4443 16.2128H16.2132L21.6571 8H18.9352L13.4443 16.2128ZM15.0662 15.3462H15.7479L20.0429 8.86664H19.3983L15.0662 15.3462Z" fill="#748AFF"/>
<path d="M22.1261 17.5751C22.1261 17.8097 21.9384 18.0443 21.6568 18.0443H13.444C13.2093 18.0443 12.9747 17.8566 12.9747 17.5751V15.7448C12.9747 15.5101 13.1624 15.2755 13.444 15.2755H21.6568C21.8914 15.2755 22.1261 15.4632 22.1261 15.7448V17.5751ZM12.5523 14.3838C12.3177 14.3838 12.083 14.5715 12.083 14.8531V18.936C12.083 19.1707 12.2707 19.4053 12.5523 19.4053H22.5954C22.83 19.4053 23.0647 19.2176 23.0647 18.936V14.8531C23.0647 14.6184 22.877 14.3838 22.5954 14.3838H12.5523Z" fill="#F5F6FF"/>
<path fill-rule="evenodd" clip-rule="evenodd" d="M21.6568 18.0443C21.9384 18.0443 22.1261 17.8097 22.1261 17.5751V15.7448C22.1261 15.4632 21.8914 15.2755 21.6568 15.2755H13.444C13.1624 15.2755 12.9747 15.5101 12.9747 15.7448V17.5751C12.9747 17.8566 13.2093 18.0443 13.444 18.0443H21.6568ZM12.083 14.8531C12.083 14.5715 12.3177 14.3838 12.5523 14.3838H22.5954C22.877 14.3838 23.0647 14.6184 23.0647 14.8531V18.936C23.0647 19.2176 22.83 19.4053 22.5954 19.4053H12.5523C12.2707 19.4053 12.083 19.1707 12.083 18.936V14.8531Z" fill="#748AFF"/>
<path d="M13.4439 16.2128H16.2128L10.722 8H8L13.4439 16.2128Z" fill="#F5F6FF"/>
<path fill-rule="evenodd" clip-rule="evenodd" d="M16.2128 16.2128L10.722 8H8L13.4439 16.2128H16.2128ZM9.61419 8.86664L13.9092 15.3462H14.5909L10.2589 8.86664H9.61419Z" fill="#748AFF"/>
<path d="M16.2125 16.2128H18.9345L13.4436 8H10.7217L16.2125 16.2128Z" fill="#F5F6FF"/>
<path fill-rule="evenodd" clip-rule="evenodd" d="M18.9345 16.2128L13.4436 8H10.7217L16.2125 16.2128H18.9345ZM12.3436 8.86664L16.6756 15.3462H17.3126L12.9806 8.86664H12.3436Z" fill="#748AFF"/>
<g opacity="0.5">
<path d="M18.0417 9.35254L16.6338 11.4175L19.825 16.2044H21.6553L22.1246 15.5004L18.0417 9.35254Z" fill="#748AFF"/>
<path fill-rule="evenodd" clip-rule="evenodd" d="M17.679 11.4229L20.2889 15.3377H20.9762L18.0322 10.9048L17.679 11.4229ZM16.6338 11.4175L19.825 16.2044H21.6553L22.1246 15.5004L18.0417 9.35254L16.6338 11.4175Z" fill="#748AFF"/>
</g>
<path d="M18.9352 16.2128H21.6571L16.2132 8H13.4443L18.9352 16.2128Z" fill="#F5F6FF"/>
<path fill-rule="evenodd" clip-rule="evenodd" d="M21.6571 16.2128L16.2132 8H13.4443L18.9352 16.2128H21.6571ZM15.0662 8.86664L19.3983 15.3462H20.0429L15.7479 8.86664H15.0662Z" fill="#748AFF"/>
<path d="M17.5764 16.918C22.2694 16.918 26.0708 20.7193 26.0708 25.4593C26.0708 30.1992 22.2694 34.0006 17.5764 34.0006C12.8834 34.0006 9.08203 30.1992 9.08203 25.4593C9.08203 20.7193 12.8834 16.918 17.5764 16.918Z" fill="#F5F6FF"/>
<path fill-rule="evenodd" clip-rule="evenodd" d="M24.5109 25.4593C24.5109 21.5752 21.4023 18.4779 17.5764 18.4779C13.7505 18.4779 10.642 21.5752 10.642 25.4593C10.642 29.3433 13.7505 32.4406 17.5764 32.4406C21.4023 32.4406 24.5109 29.3433 24.5109 25.4593ZM26.0708 25.4593C26.0708 20.7193 22.2694 16.918 17.5764 16.918C12.8834 16.918 9.08203 20.7193 9.08203 25.4593C9.08203 30.1992 12.8834 34.0006 17.5764 34.0006C22.2694 34.0006 26.0708 30.1992 26.0708 25.4593Z" fill="#748AFF"/>
<path d="M17.5749 21.9877V19.2188L16.167 23.5364L16.824 24.2872L17.5749 21.9877Z" fill="#F5F6FF"/>
<path fill-rule="evenodd" clip-rule="evenodd" d="M17.5749 21.9877V19.2188L16.167 23.5364L16.824 24.2872L17.5749 21.9877Z" fill="#748AFF"/>
<path d="M18.3251 24.2872L18.9821 23.5364L17.5742 19.2188V21.9877L18.3251 24.2872Z" fill="#F5F6FF"/>
<path fill-rule="evenodd" clip-rule="evenodd" d="M17.5742 21.9877V19.2188L18.9821 23.5364L18.3251 24.2872L17.5742 21.9877Z" fill="#748AFF"/>
<path d="M18.793 25.7399L19.8254 26.2092L23.486 23.5342L20.764 24.285L18.793 25.7399Z" fill="#F5F6FF"/>
<path fill-rule="evenodd" clip-rule="evenodd" d="M19.8254 26.2092L18.793 25.7399L20.764 24.285L23.486 23.5342L19.8254 26.2092Z" fill="#748AFF"/>
<path d="M20.7656 24.285L23.4875 23.5342H18.9822L18.3252 24.285H20.7656Z" fill="#F5F6FF"/>
<path fill-rule="evenodd" clip-rule="evenodd" d="M20.7656 24.285L23.4875 23.5342H18.9822L18.3252 24.285H20.7656Z" fill="#748AFF"/>
<path d="M16.8206 24.285L16.1636 23.5342H11.6113L14.3333 24.285H16.8206Z" fill="#F5F6FF"/>
<path fill-rule="evenodd" clip-rule="evenodd" d="M14.3333 24.285L11.6113 23.5342H16.1636L16.8206 24.285H14.3333Z" fill="#748AFF"/>
<path d="M14.3333 24.285L11.6113 23.5342L15.3188 26.2092L16.3513 25.7399L14.3333 24.285Z" fill="#F5F6FF"/>
<path fill-rule="evenodd" clip-rule="evenodd" d="M11.6113 23.5342L15.3188 26.2092L16.3513 25.7399L14.3333 24.285L11.6113 23.5342Z" fill="#748AFF"/>
<path d="M18.793 25.7402L19.5439 28.0867L21.2333 30.5271L19.8254 26.2096L18.793 25.7402Z" fill="#F5F6FF"/>
<path fill-rule="evenodd" clip-rule="evenodd" d="M19.8254 26.2096L18.793 25.7402L19.5439 28.0867L21.2333 30.5271L19.8254 26.2096Z" fill="#748AFF"/>
<path d="M17.5742 26.6338V27.854L21.2348 30.529L19.5453 28.0886L17.5742 26.6338Z" fill="#F5F6FF"/>
<path fill-rule="evenodd" clip-rule="evenodd" d="M17.5742 27.854V26.6338L19.5453 28.0886L21.2348 30.529L17.5742 27.854Z" fill="#748AFF"/>
<path d="M16.3525 25.7402L15.32 26.2096L13.9121 30.5271L15.6016 28.0867L16.3525 25.7402Z" fill="#F5F6FF"/>
<path fill-rule="evenodd" clip-rule="evenodd" d="M15.6016 28.0867L13.9121 30.5271L15.32 26.2096L16.3525 25.7402L15.6016 28.0867Z" fill="#748AFF"/>
<path d="M15.6016 28.0886L13.9121 30.529L17.5727 27.854V26.6338L15.6016 28.0886Z" fill="#F5F6FF"/>
<path fill-rule="evenodd" clip-rule="evenodd" d="M13.9121 30.529L17.5727 27.854V26.6338L15.6016 28.0886L13.9121 30.529Z" fill="#748AFF"/>
</g>
<defs>
<filter id="filter0_d_1236_4285" x="0" y="0" width="39.1475" height="46.001" filterUnits="userSpaceOnUse" color-interpolation-filters="sRGB">
<feFlood flood-opacity="0" result="BackgroundImageFix"/>
<feColorMatrix in="SourceAlpha" type="matrix" values="0 0 0 0 0 0 0 0 0 0 0 0 0 0 0 0 0 0 127 0" result="hardAlpha"/>
<feOffset dx="2" dy="2"/>
<feGaussianBlur stdDeviation="5"/>
<feComposite in2="hardAlpha" operator="out"/>
<feColorMatrix type="matrix" values="0 0 0 0 0.454167 0 0 0 0 0.5415 0 0 0 0 1 0 0 0 0.2 0"/>
<feBlend mode="normal" in2="BackgroundImageFix" result="effect1_dropShadow_1236_4285"/>
<feBlend mode="normal" in="SourceGraphic" in2="effect1_dropShadow_1236_4285" result="shape"/>
</filter>
</defs>
</svg>
