<svg width="23" height="30" viewBox="0 0 23 30" fill="none" xmlns="http://www.w3.org/2000/svg">
<path d="M21.1591 0.5L15.4918 8.97665H13.5539L19.2212 0.5H21.1591Z" fill="#F5F6FF" stroke="#748AFF"/>
<path d="M18.0145 0.5L12.3473 8.97665H10.4049L16.0237 0.5H18.0145Z" fill="#F5F6FF" stroke="#748AFF"/>
<path d="M14.8266 0.5L9.20779 8.97665H7.21699L12.8842 0.5H14.8266Z" fill="#F5F6FF" stroke="#748AFF"/>
<path d="M15.759 12.0891C16.392 12.0891 16.8005 11.5615 16.8005 11.0476V8.93566C16.8005 8.30266 16.2728 7.89414 15.759 7.89414H6.28233C5.64935 7.89414 5.24081 8.42179 5.24081 8.93566V11.0476C5.24081 11.6806 5.76849 12.0891 6.28233 12.0891H15.759ZM5.21191 7.90675C5.21191 7.89622 5.21385 7.89151 5.21463 7.88976C5.21571 7.88736 5.21785 7.88383 5.2223 7.87968C5.22702 7.87527 5.23331 7.87118 5.24029 7.8684C5.24729 7.86559 5.2521 7.86523 5.25344 7.86523H16.842C16.8526 7.86523 16.8573 7.86717 16.859 7.86795C16.8614 7.86903 16.865 7.87117 16.8691 7.87562C16.8735 7.88034 16.8776 7.88664 16.8804 7.89361C16.8832 7.90061 16.8835 7.90542 16.8835 7.90675V12.618C16.8835 12.6285 16.8816 12.6333 16.8808 12.635C16.8798 12.6374 16.8776 12.6409 16.8732 12.6451C16.8684 12.6495 16.8622 12.6536 16.8552 12.6564C16.8482 12.6592 16.8434 12.6595 16.842 12.6595H5.25344C5.2429 12.6595 5.23819 12.6576 5.23644 12.6568C5.23403 12.6557 5.23051 12.6536 5.22636 12.6491C5.22195 12.6444 5.21786 12.6381 5.21507 12.6312C5.21227 12.6242 5.21191 12.6193 5.21191 12.618V7.90675Z" fill="#F5F6FF" stroke="#748AFF"/>
<path d="M0.931299 0.5H2.87366L8.54091 8.97665H6.55011L0.931299 0.5Z" fill="#F5F6FF" stroke="#748AFF"/>
<path d="M4.07539 0.5H6.01331L11.6806 8.97665H9.74263L4.07539 0.5Z" fill="#F5F6FF" stroke="#748AFF"/>
<g opacity="0.5">
<path d="M13.9119 8.9697L10.5649 3.94933L11.581 2.45905L15.6972 8.65692L15.4886 8.9697H13.9119Z" fill="#748AFF" stroke="#748AFF"/>
</g>
<path d="M7.21699 0.5H9.20779L14.8266 8.97665H12.8842L7.21699 0.5Z" fill="#F5F6FF" stroke="#748AFF"/>
<path d="M11.0516 11.1891C15.9665 11.1891 19.9531 15.1692 19.9531 20.1448C19.9531 25.1203 15.9665 29.1005 11.0516 29.1005C6.13662 29.1005 2.15 25.1203 2.15 20.1448C2.15 15.1692 6.13662 11.1891 11.0516 11.1891Z" fill="#F5F6FF" stroke="#748AFF" stroke-width="1.8"/>
<mask id="path-10-inside-1_1233_2485" fill="white">
<path d="M11.0494 16.1403V12.9453L9.4248 17.9274L10.1829 18.7938L11.0494 16.1403Z"/>
</mask>
<path d="M11.0494 16.1403V12.9453L9.4248 17.9274L10.1829 18.7938L11.0494 16.1403Z" fill="#F5F6FF"/>
<path d="M11.0494 16.1403L12 16.4507L12.0494 16.2994V16.1403H11.0494ZM11.0494 12.9453H12.0494L10.0986 12.6353L11.0494 12.9453ZM9.4248 17.9274L8.47407 17.6173L8.29779 18.1579L8.67224 18.5859L9.4248 17.9274ZM10.1829 18.7938L9.43037 19.4523L10.5879 20.7752L11.1335 19.1042L10.1829 18.7938ZM12.0494 16.1403V12.9453H10.0494V16.1403H12.0494ZM10.0986 12.6353L8.47407 17.6173L10.3755 18.2374L12.0001 13.2553L10.0986 12.6353ZM8.67224 18.5859L9.43037 19.4523L10.9355 18.1353L10.1774 17.2688L8.67224 18.5859ZM11.1335 19.1042L12 16.4507L10.0988 15.8299L9.23233 18.4834L11.1335 19.1042Z" fill="#748AFF" mask="url(#path-10-inside-1_1233_2485)"/>
<mask id="path-12-inside-2_1233_2485" fill="white">
<path d="M11.9133 18.7938L12.6714 17.9274L11.0469 12.9453V16.1403L11.9133 18.7938Z"/>
</mask>
<path d="M11.9133 18.7938L12.6714 17.9274L11.0469 12.9453V16.1403L11.9133 18.7938Z" fill="#F5F6FF"/>
<path d="M11.9133 18.7938L10.9627 19.1042L11.5083 20.7752L12.6659 19.4523L11.9133 18.7938ZM12.6714 17.9274L13.424 18.5859L13.7985 18.1579L13.6222 17.6173L12.6714 17.9274ZM11.0469 12.9453L11.9976 12.6353L10.0469 12.9453H11.0469ZM11.0469 16.1403H10.0469V16.2994L10.0963 16.4507L11.0469 16.1403ZM12.6659 19.4523L13.424 18.5859L11.9189 17.2688L11.1607 18.1353L12.6659 19.4523ZM13.6222 17.6173L11.9976 12.6353L10.0961 13.2553L11.7207 18.2374L13.6222 17.6173ZM10.0469 12.9453V16.1403H12.0469V12.9453H10.0469ZM10.0963 16.4507L10.9627 19.1042L12.8639 18.4834L11.9975 15.8299L10.0963 16.4507Z" fill="#748AFF" mask="url(#path-12-inside-2_1233_2485)"/>
<path d="M15.3669 19.1335L13.5854 20.4354L13.4347 20.3669L14.9499 19.2486L15.3669 19.1335Z" fill="#F5F6FF" stroke="#748AFF"/>
<mask id="path-15-inside-3_1233_2485" fill="white">
<path d="M14.731 18.7912L17.8718 17.9248H12.6732L11.915 18.7912H14.731Z"/>
</mask>
<path d="M14.731 18.7912L17.8718 17.9248H12.6732L11.915 18.7912H14.731Z" fill="#F5F6FF"/>
<path d="M14.731 18.7912V19.7912H14.8664L14.9969 19.7552L14.731 18.7912ZM17.8718 17.9248L18.1377 18.8888L17.8718 16.9248V17.9248ZM12.6732 17.9248V16.9248H12.2194L11.9206 17.2663L12.6732 17.9248ZM11.915 18.7912L11.1625 18.1327L9.71124 19.7912H11.915V18.7912ZM14.9969 19.7552L18.1377 18.8888L17.6059 16.9608L14.465 17.8272L14.9969 19.7552ZM17.8718 16.9248H12.6732V18.9248H17.8718V16.9248ZM11.9206 17.2663L11.1625 18.1327L12.6676 19.4497L13.4257 18.5833L11.9206 17.2663ZM11.915 19.7912H14.731V17.7912H11.915V19.7912Z" fill="#748AFF" mask="url(#path-15-inside-3_1233_2485)"/>
<mask id="path-17-inside-4_1233_2485" fill="white">
<path d="M10.1769 18.7912L9.41879 17.9248H4.16602L7.30685 18.7912H10.1769Z"/>
</mask>
<path d="M10.1769 18.7912L9.41879 17.9248H4.16602L7.30685 18.7912H10.1769Z" fill="#F5F6FF"/>
<path d="M10.1769 18.7912V19.7912H12.3807L10.9295 18.1327L10.1769 18.7912ZM9.41879 17.9248L10.1714 17.2663L9.87255 16.9248H9.41879V17.9248ZM4.16602 17.9248V16.9248L3.90009 18.8888L4.16602 17.9248ZM7.30685 18.7912L7.04092 19.7552L7.17145 19.7912H7.30685V18.7912ZM10.9295 18.1327L10.1714 17.2663L8.66622 18.5833L9.42435 19.4497L10.9295 18.1327ZM9.41879 16.9248H4.16602V18.9248H9.41879V16.9248ZM3.90009 18.8888L7.04092 19.7552L7.57277 17.8272L4.43194 16.9608L3.90009 18.8888ZM7.30685 19.7912H10.1769V17.7912H7.30685V19.7912Z" fill="#748AFF" mask="url(#path-17-inside-4_1233_2485)"/>
<path d="M8.6438 20.3714L8.50129 20.4362L6.71331 19.1462L7.0873 19.2493L8.6438 20.3714Z" fill="#F5F6FF" stroke="#748AFF"/>
<mask id="path-20-inside-5_1233_2485" fill="white">
<path d="M12.4531 20.4707L13.3196 23.1783L15.269 25.9943L13.6445 21.0123L12.4531 20.4707Z"/>
</mask>
<path d="M12.4531 20.4707L13.3196 23.1783L15.269 25.9943L13.6445 21.0123L12.4531 20.4707Z" fill="#F5F6FF"/>
<path d="M12.4531 20.4707L12.8669 19.5603L10.8131 18.6267L11.5007 20.7755L12.4531 20.4707ZM13.3196 23.1783L12.3671 23.4831L12.4126 23.625L12.4974 23.7475L13.3196 23.1783ZM15.269 25.9943L14.4468 26.5635L16.2198 25.6842L15.269 25.9943ZM13.6445 21.0123L14.5952 20.7022L14.4588 20.284L14.0583 20.1019L13.6445 21.0123ZM11.5007 20.7755L12.3671 23.4831L14.272 22.8735L13.4055 20.1659L11.5007 20.7755ZM12.4974 23.7475L14.4468 26.5635L16.0912 25.4251L14.1418 22.6091L12.4974 23.7475ZM16.2198 25.6842L14.5952 20.7022L12.6937 21.3223L14.3183 26.3043L16.2198 25.6842ZM14.0583 20.1019L12.8669 19.5603L12.0393 21.3811L13.2307 21.9226L14.0583 20.1019Z" fill="#748AFF" mask="url(#path-20-inside-5_1233_2485)"/>
<path d="M13.1722 23.8428L11.5469 22.6551V22.4915L12.9575 23.5326L13.1722 23.8428Z" fill="#F5F6FF" stroke="#748AFF"/>
<mask id="path-23-inside-6_1233_2485" fill="white">
<path d="M9.63818 20.4707L8.44683 21.0123L6.82227 25.9943L8.77175 23.1783L9.63818 20.4707Z"/>
</mask>
<path d="M9.63818 20.4707L8.44683 21.0123L6.82227 25.9943L8.77175 23.1783L9.63818 20.4707Z" fill="#F5F6FF"/>
<path d="M9.63818 20.4707L10.5906 20.7755L11.2782 18.6267L9.22436 19.5603L9.63818 20.4707ZM8.44683 21.0123L8.03301 20.1019L7.6325 20.284L7.4961 20.7022L8.44683 21.0123ZM6.82227 25.9943L5.87154 25.6842L7.64446 26.5635L6.82227 25.9943ZM8.77175 23.1783L9.59394 23.7475L9.67876 23.625L9.72417 23.4831L8.77175 23.1783ZM9.22436 19.5603L8.03301 20.1019L8.86066 21.9226L10.052 21.3811L9.22436 19.5603ZM7.4961 20.7022L5.87154 25.6842L7.773 26.3043L9.39756 21.3223L7.4961 20.7022ZM7.64446 26.5635L9.59394 23.7475L7.94955 22.6091L6.00007 25.4251L7.64446 26.5635ZM9.72417 23.4831L10.5906 20.7755L8.68576 20.1659L7.81932 22.8735L9.72417 23.4831Z" fill="#748AFF" mask="url(#path-23-inside-6_1233_2485)"/>
<path d="M10.5461 22.4915V22.6551L8.92079 23.8428L9.13554 23.5326L10.5461 22.4915Z" fill="#F5F6FF" stroke="#748AFF"/>
</svg>
