<svg width="80" height="31" viewBox="0 0 85 36" fill="none" xmlns="http://www.w3.org/2000/svg">
<rect x="0.699951" width="84" height="36" rx="8" fill="#F5F6FF"/>
<path d="M16.0085 25.1934C15.0593 25.1934 14.2302 24.9883 13.5212 24.5781C12.8181 24.1621 12.2761 23.582 11.8953 22.8379C11.5203 22.0938 11.3328 21.2324 11.3328 20.2539C11.3328 19.2754 11.5203 18.417 11.8953 17.6787C12.2761 16.9346 12.8181 16.3574 13.5212 15.9473C14.2302 15.5371 15.0593 15.332 16.0085 15.332C16.9578 15.332 17.7839 15.5371 18.4871 15.9473C19.196 16.3574 19.741 16.9346 20.1218 17.6787C20.5085 18.417 20.7019 19.2754 20.7019 20.2539C20.7019 21.2324 20.5085 22.0938 20.1218 22.8379C19.741 23.582 19.196 24.1621 18.4871 24.5781C17.7839 24.9883 16.9578 25.1934 16.0085 25.1934ZM13.9695 20.2539C13.9695 20.8223 14.0457 21.3262 14.198 21.7656C14.3562 22.1992 14.5906 22.542 14.9011 22.7939C15.2117 23.0459 15.5867 23.1719 16.0261 23.1719C16.4539 23.1719 16.8201 23.0488 17.1248 22.8027C17.4294 22.5508 17.658 22.208 17.8103 21.7744C17.9685 21.3408 18.0476 20.8457 18.0476 20.2891C18.0476 19.7148 17.9714 19.2051 17.8191 18.7598C17.6667 18.3086 17.4382 17.957 17.1335 17.7051C16.8289 17.4473 16.4597 17.3184 16.0261 17.3184C15.5867 17.3184 15.2117 17.4443 14.9011 17.6963C14.5906 17.9482 14.3562 18.2969 14.198 18.7422C14.0457 19.1816 13.9695 19.6855 13.9695 20.2539ZM27.7859 18.2852C27.7273 17.9512 27.5603 17.6846 27.2849 17.4854C27.0095 17.2861 26.655 17.1836 26.2214 17.1777C25.7996 17.1836 25.448 17.2773 25.1667 17.459C24.8855 17.6348 24.7449 17.8662 24.7449 18.1533C24.7449 18.3818 24.8386 18.5781 25.0261 18.7422C25.2195 18.9004 25.5359 19.0234 25.9753 19.1113L27.6804 19.4629C28.6121 19.6562 29.3035 19.9639 29.7546 20.3857C30.2058 20.8076 30.4343 21.3613 30.4402 22.0469C30.4402 22.668 30.2615 23.2158 29.9041 23.6904C29.5525 24.165 29.0574 24.5342 28.4187 24.7979C27.78 25.0615 27.0417 25.1934 26.2039 25.1934C25.3542 25.1934 24.6189 25.0732 23.9978 24.833C23.3826 24.5869 22.8962 24.2383 22.5388 23.7871C22.1873 23.3301 21.9734 22.791 21.8972 22.1699H24.5164C24.575 22.5391 24.7478 22.8203 25.0349 23.0137C25.3279 23.207 25.7175 23.3066 26.2039 23.3125C26.6843 23.3066 27.0681 23.2158 27.3552 23.04C27.6423 22.8584 27.7859 22.6152 27.7859 22.3105C27.7859 22.0645 27.6804 21.8623 27.4695 21.7041C27.2585 21.5459 26.9304 21.4199 26.4851 21.3262L24.9031 21.0098C23.9949 20.8281 23.3093 20.5088 22.8464 20.0518C22.3835 19.5947 22.155 19.0117 22.1609 18.3027C22.1609 17.6992 22.325 17.1748 22.6531 16.7295C22.9812 16.2783 23.447 15.9326 24.0505 15.6924C24.6599 15.4521 25.3718 15.332 26.1863 15.332C26.9773 15.332 27.6687 15.4521 28.2605 15.6924C28.8523 15.9326 29.3152 16.2754 29.6492 16.7207C29.989 17.1602 30.1824 17.6816 30.2292 18.2852H27.7859ZM36.3289 25.1934C35.3796 25.1934 34.5505 24.9883 33.8416 24.5781C33.1384 24.1621 32.5964 23.582 32.2156 22.8379C31.8406 22.0938 31.6531 21.2324 31.6531 20.2539C31.6531 19.2754 31.8406 18.417 32.2156 17.6787C32.5964 16.9346 33.1384 16.3574 33.8416 15.9473C34.5505 15.5371 35.3796 15.332 36.3289 15.332C37.2781 15.332 38.1042 15.5371 38.8074 15.9473C39.5164 16.3574 40.0613 16.9346 40.4421 17.6787C40.8289 18.417 41.0222 19.2754 41.0222 20.2539C41.0222 21.2324 40.8289 22.0938 40.4421 22.8379C40.0613 23.582 39.5164 24.1621 38.8074 24.5781C38.1042 24.9883 37.2781 25.1934 36.3289 25.1934ZM34.2898 20.2539C34.2898 20.8223 34.366 21.3262 34.5183 21.7656C34.6765 22.1992 34.9109 22.542 35.2214 22.7939C35.532 23.0459 35.907 23.1719 36.3464 23.1719C36.7742 23.1719 37.1404 23.0488 37.4451 22.8027C37.7498 22.5508 37.9783 22.208 38.1306 21.7744C38.2888 21.3408 38.3679 20.8457 38.3679 20.2891C38.3679 19.7148 38.2917 19.2051 38.1394 18.7598C37.9871 18.3086 37.7585 17.957 37.4539 17.7051C37.1492 17.4473 36.78 17.3184 36.3464 17.3184C35.907 17.3184 35.532 17.4443 35.2214 17.6963C34.9109 17.9482 34.6765 18.2969 34.5183 18.7422C34.366 19.1816 34.2898 19.6855 34.2898 20.2539ZM46.1726 25.1582C45.4343 25.1582 44.7722 24.9678 44.1863 24.5869C43.6003 24.2002 43.1375 23.6377 42.7976 22.8994C42.4578 22.1553 42.2878 21.2676 42.2878 20.2363C42.2878 19.1816 42.4607 18.2881 42.8064 17.5557C43.1521 16.8174 43.6179 16.2637 44.2039 15.8945C44.7957 15.5195 45.4519 15.332 46.1726 15.332C46.8933 15.332 47.4705 15.499 47.9041 15.833C48.3435 16.167 48.6687 16.5742 48.8796 17.0547H48.9675V12.2734H51.5691V25H49.0027V23.4707H48.8796C48.6628 23.9453 48.3347 24.3467 47.8953 24.6748C47.4558 24.9971 46.8816 25.1582 46.1726 25.1582ZM44.9597 20.1924C44.9597 21.0654 45.1326 21.7656 45.4783 22.293C45.8298 22.8145 46.3308 23.0781 46.9812 23.084C47.4089 23.084 47.7751 22.9668 48.0798 22.7324C48.3845 22.4922 48.616 22.1582 48.7742 21.7305C48.9382 21.2969 49.0203 20.793 49.0203 20.2188C49.0203 19.3516 48.8416 18.666 48.4841 18.1621C48.1267 17.6582 47.6257 17.4062 46.9812 17.4062C46.3367 17.4062 45.8386 17.6611 45.4871 18.1709C45.1355 18.6748 44.9597 19.3486 44.9597 20.1924ZM57.1414 25L61.5535 12.2734H64.946L69.3406 25H66.5105L65.5525 22.0645H60.947L59.989 25H57.1414ZM64.8845 20.0078L63.2937 15.1387H63.2058L61.615 20.0078H64.8845ZM73.4187 25H70.782V12.2734H73.4187V25Z" fill="#6A82FF"/>
</svg>
