<svg width="19" height="18" viewBox="0 0 19 18" fill="none" xmlns="http://www.w3.org/2000/svg">
<path d="M10.3895 11.6095L8.23055 9.476L8.25605 9.4505C9.73505 7.8015 10.789 5.906 11.4095 3.9H13.9V2.2H7.95005V0.5H6.25005V2.2H0.300049V3.8915H9.79455C9.22505 5.532 8.32405 7.0875 7.10005 8.4475C6.30955 7.572 5.65505 6.6115 5.13655 5.6H3.43655C4.05705 6.9855 4.90705 8.2945 5.96955 9.476L1.64305 13.743L2.85005 14.95L7.10005 10.7L9.74355 13.3435L10.3895 11.6095ZM15.175 7.3H13.475L9.65005 17.5H11.35L12.302 14.95H16.3395L17.3 17.5H19L15.175 7.3ZM12.948 13.25L14.325 9.5695L15.702 13.25H12.948Z" fill="#748AFF"/>
</svg>
