<svg width="22" height="20" viewBox="0 0 22 20" fill="none" xmlns="http://www.w3.org/2000/svg">
<path d="M0 1.15387C0 0.516605 0.516604 0 1.15387 0H11.6754L10.5822 16.8607H1.15387C0.516604 16.8607 0 16.3441 0 15.7068V8.43033C0 8.43033 0 1.79113 0 1.15387Z" fill="#748AFF"/>
<path d="M11.3175 4.24792H20.4362C21.0735 4.24792 21.5901 4.76452 21.5901 5.40178V18.8461C21.5901 19.4834 21.0735 20 20.4362 20H10.2218L11.3175 4.24792Z" fill="white"/>
<path fill-rule="evenodd" clip-rule="evenodd" d="M11.5327 4.47869L10.4691 19.7692H20.4362C20.946 19.7692 21.3593 19.3559 21.3593 18.8461V5.40178C21.3593 4.89197 20.946 4.47869 20.4362 4.47869H11.5327ZM20.4362 20C21.0735 20 21.5901 19.4834 21.5901 18.8461V5.40178C21.5901 4.76452 21.0735 4.24792 20.4362 4.24792H11.3175L10.2218 20H20.4362Z" fill="#748AFF"/>
<path d="M9.66722 3.0945H8.40316V11.2431H9.66722V7.63357H11.1021V6.52295H9.66722V3.0945ZM1.55902 5.37611H7.66295V4.3017H5.24871V3.08243H3.98465V4.3017H1.55902V5.37611ZM2.08287 7.91123C2.08287 9.16068 3.11347 9.97554 4.61098 9.97554C6.09711 9.97554 7.12202 9.16068 7.12771 7.91123C7.12202 6.65574 6.09711 5.82277 4.61098 5.82277C3.11347 5.82277 2.08287 6.65574 2.08287 7.91123ZM3.07362 13.7782H10.0772V12.6917H4.33768V10.6033H3.07362V13.7782ZM3.31276 7.91123C3.30707 7.24727 3.83091 6.86097 4.61098 6.86097C5.39106 6.86097 5.9206 7.24727 5.9206 7.91123C5.9206 8.56916 5.39106 8.94339 4.61098 8.93735C3.83091 8.94339 3.30707 8.56916 3.31276 7.91123Z" fill="white"/>
<path d="M12.6842 17.0189L13.5766 14.4362H17.3898L18.2822 17.0189H19.8643L16.3351 7.22907H14.6178L11.1021 17.0189H12.6842ZM14.0025 13.1922L15.4426 9.01396H15.5102L16.9571 13.1922H14.0025Z" fill="#748AFF"/>
</svg>
