<svg width="28" height="30" viewBox="0 0 28 30" fill="none" xmlns="http://www.w3.org/2000/svg">
<path d="M21.6677 0H0.90332V28.8895H18.3273L21.6677 25.8529V0Z" fill="#F5F6FF"/>
<path d="M19.1122 8.14326L17.1983 10.0572L23.3734 3.88205L21.3963 5.85918L18.8956 8.35992L16.9184 10.3371L16.4851 10.7704L16.9365 11.2218L24.7908 3.36745L24.3394 2.91605L22.5519 4.7036V0.659053C22.5519 0.487521 22.4797 0.315999 22.3623 0.189607C22.2359 0.0632157 22.0734 0 21.8929 0H0.659043C0.487511 0 0.315979 0.0722437 0.189588 0.189607C0.0631959 0.315999 0 0.478493 0 0.659053V29.3409C0 29.5125 0.0722239 29.684 0.189588 29.8104C0.315979 29.9368 0.478483 30 0.659043 30H17.8664C18.0379 30 18.2094 29.9278 18.3268 29.8104L20.3581 27.7881L22.3533 25.7749C22.4797 25.6485 22.5429 25.486 22.5429 25.3054V10.0843L21.2248 11.4023V23.9874H17.0268C16.8552 23.9874 16.6837 24.0596 16.5573 24.1769C16.4309 24.3033 16.3677 24.4659 16.3677 24.6464V28.6729H1.31809V1.30907H21.2338V6.01264L19.1032 8.14326H19.1122ZM17.7039 25.3054H21.2158L17.7039 28.7V25.3054Z" fill="#748AFF"/>
<rect x="4.46191" y="4.10547" width="14.3688" height="1.43688" fill="#748AFF"/>
<rect x="4.46191" y="8.21094" width="14.3688" height="1.43688" fill="#748AFF"/>
<rect x="4.46191" y="12.3164" width="14.3688" height="1.43688" fill="#748AFF"/>
<path d="M8.43317 22.8267L9.54603 23.7225L7.81622 24.7121L8.43317 22.8267Z" fill="#F5F6FF" stroke="#748AFF" stroke-width="1.6"/>
<path d="M11.2088 23.5351C13.0635 21.8898 25.564 7.22831 27.8661 4.47885L23.6661 1.10156C21.4723 3.94484 9.40474 18.9455 8.19238 21.1104L11.2088 23.5351Z" fill="#F5F6FF"/>
<path fill-rule="evenodd" clip-rule="evenodd" d="M27.8661 4.47885L23.6661 1.10156C23.4323 1.40456 23.0864 1.84561 22.6534 2.39448C22.0414 3.17044 21.2553 4.16189 20.3662 5.28336C15.9824 10.8125 9.0929 19.5023 8.19238 21.1104L11.2088 23.5351C12.8657 22.0652 23.0192 10.207 26.8071 5.73449C27.2592 5.20065 27.6206 4.77203 27.8661 4.47885ZM25.5269 4.7051L23.9332 3.42355C23.3174 4.2042 22.5288 5.19884 21.6394 6.32074C20.2054 8.12939 18.5093 10.2688 16.8518 12.3757C15.132 14.5619 13.4478 16.7206 12.1198 18.4652L13.044 19.1578C14.5049 17.5178 16.3073 15.4519 18.1275 13.3469C20.9775 10.0512 23.8603 6.67269 25.5269 4.7051Z" fill="#748AFF"/>
</svg>
